<svg width="263" height="294" viewBox="0 0 263 294" fill="none" xmlns="http://www.w3.org/2000/svg">
<g clip-path="url(#clip0_324_26398)">
<path opacity="0.53" d="M10.0069 199.592C9.03081 178.449 112.073 182.521 167.473 176.943C193.869 174.286 232.806 171.795 250.873 177.243C363.289 211.14 10.8251 217.359 10.0069 199.592Z" fill="#F4F4F4"/>
<path d="M199.255 46.0663H118.771C99.0074 46.0663 83 63.4596 83 84.9336V49.8555C83 30.0329 97.7554 14 115.998 14H166.256C184.499 14 199.255 26.2438 199.255 46.0663Z" fill="#4B4D59"/>
<path d="M221.433 104.851C216.961 109.612 214.815 116.803 216.604 124.09C218.839 133.127 227.066 138.86 235.651 138.86H243.968V152.95C243.968 174.424 227.961 191.817 208.197 191.817H118.771C99.0074 191.817 83 174.424 83 152.95V84.9312C83 63.4568 99.0074 46.0635 118.771 46.0635H208.197C227.871 46.0635 243.968 63.554 243.968 84.9312V99.0207H234.31C229.302 99.0207 224.741 101.158 221.433 104.851Z" fill="#1D68FF"/>
<path d="M261.853 108.935V128.952C261.853 134.393 257.74 138.863 252.642 138.863H235.383C225.725 138.863 216.872 131.186 216.067 120.692C215.53 114.571 217.677 108.838 221.433 104.854C224.741 101.161 229.302 99.0234 234.31 99.0234H252.642C257.74 99.0234 261.853 103.493 261.853 108.935Z" fill="#C0D5FF"/>
<path d="M181.373 101.936H127.717C124.05 101.936 121.01 98.632 121.01 94.648C121.01 90.6641 124.05 87.3604 127.717 87.3604H181.373C185.039 87.3604 188.08 90.6641 188.08 94.648C188.08 98.632 185.039 101.936 181.373 101.936Z" fill="white"/>
</g>
<defs>
<clipPath id="clip0_324_26398">
<rect width="263" height="294" fill="white"/>
</clipPath>
</defs>
</svg>
