<svg width="263" height="294" viewBox="0 0 263 294" fill="none" xmlns="http://www.w3.org/2000/svg">
<g clip-path="url(#clip0_673_11994)">
<path opacity="0.53" d="M42.0064 285.958C41.1974 268.411 126.609 271.79 172.529 267.161C194.409 264.955 226.684 262.888 241.66 267.41C334.841 295.542 42.6847 300.703 42.0064 285.958Z" fill="#F4F4F4"/>
<path d="M106.359 91.3571C106.359 91.3571 97.4218 82.4979 123.532 87.3308C136.846 89.7937 149.989 96.6505 151.845 92.1615C153.703 87.6746 159.735 93.0826 158.693 98.6053C157.648 104.128 155.908 109.767 146.509 106.314C137.11 102.863 123.301 89.4001 106.361 91.3571H106.359Z" fill="url(#paint0_linear_673_11994)"/>
<path d="M105.349 88.8791C105.349 88.8791 96.9246 85.2204 116.996 82.1823C127.231 80.6341 138.287 81.9877 138.671 78.6209C139.057 75.2563 144.618 77.3516 145.05 81.2006C145.479 85.0496 145.427 89.1364 137.834 89.1148C130.24 89.091 117.273 83.5878 105.349 88.8791Z" fill="url(#paint1_linear_673_11994)"/>
<path d="M225.849 278.602C226.203 280.957 228.434 282.665 230.835 282.416C233.236 282.17 234.897 280.059 234.544 277.707C234.191 275.352 231.96 273.644 229.559 273.892C227.158 274.139 225.496 276.247 225.849 278.602Z" fill="black"/>
<path d="M170.356 171.059C169.898 169.87 169.265 168.761 168.591 167.673L171.162 167.755C171.795 167.777 172.381 168.138 172.682 168.691L200.917 220.677C201.368 221.507 201.059 222.508 200.225 222.915C200.044 223.003 199.85 223.057 199.658 223.077C198.965 223.148 198.254 222.796 197.901 222.147L170.454 171.606C170.46 171.435 170.432 171.252 170.358 171.057L170.356 171.059Z" fill="black"/>
<path d="M161.909 168.263C162.217 167.773 162.769 167.483 163.371 167.502L165.453 167.569C166.16 168.681 166.862 169.799 167.427 170.977L166.234 170.938L192.643 220.058C193.09 220.889 192.776 221.89 191.941 222.292C191.105 222.692 190.067 222.346 189.618 221.516L161.87 169.902C161.587 169.377 161.602 168.752 161.907 168.261L161.909 168.263Z" fill="black"/>
<path d="M218.119 281.614C218.531 284.371 221.145 286.369 223.954 286.081C226.765 285.792 228.711 283.322 228.298 280.567C227.884 277.81 225.271 275.81 222.463 276.102C219.652 276.392 217.706 278.861 218.119 281.616V281.614Z" fill="black"/>
<path d="M187.993 211.245C190.29 210.2 209.945 207.599 216.923 209.882C218.845 210.511 220.467 211.88 221.407 213.694C226.03 222.612 241.078 252.005 245.842 265.844C245.934 266.108 246.061 266.348 246.196 266.594C249.264 272.26 236.267 280.589 223.239 281.298C220.192 281.463 200.62 238.724 189.407 222.007C186.89 218.257 184.059 213.037 187.996 211.245H187.993Z" fill="#AEC9FB"/>
<path d="M188.962 210.948L195.526 209.865C197.236 209.584 198.982 210.494 199.818 212.103L232.276 274.643C233.51 277.021 232.265 279.83 229.757 280.325L219.181 282.416C217.351 282.777 215.46 281.755 214.664 279.975L186.218 216.428C185.145 214.032 186.487 211.357 188.964 210.948H188.962Z" fill="#AEC9FB"/>
<path d="M163.355 167.414L172.881 167.5C174.113 167.517 175.138 168.493 175.177 169.693C175.216 170.893 174.25 171.855 173.023 171.844L163.497 171.756C163.449 171.756 163.403 171.756 163.357 171.751C162.191 171.669 161.24 170.718 161.201 169.565C161.161 168.365 162.127 167.403 163.355 167.414Z" fill="#4B4D59"/>
<path d="M166.642 158.84L169.37 162.003C169.37 162.003 179.523 166.663 173.14 171.379C166.759 176.098 166.179 171.379 165.25 169.654C164.323 167.928 162.175 167.755 162.175 167.755C162.175 167.755 161.539 167.582 161.595 164.765C162.119 162.118 157.709 154.351 157.709 154.351L162.989 152.567L166.644 158.838L166.642 158.84Z" fill="#D1D1D1"/>
<path d="M78.0719 268.917L73.8587 279.486C73.8587 279.486 75.0297 282.213 72.1577 282.981C69.2856 283.746 64.1063 281.897 63.2013 281.011C61.3127 279.164 69.8395 278.578 69.8395 278.578L75.1082 265.526L78.0719 268.917Z" fill="#D1D1D1"/>
<path d="M70.8494 274.684C79.3391 192.032 84.8477 160.635 87.6391 148.809C89.1089 142.579 89.8242 141.779 89.8242 141.779C94.8727 138.557 110.502 128.262 115.418 156.342C115.302 175.609 100.421 219.126 87.4581 249.168C82.4467 260.786 78.844 270.556 76.6851 276.478C76.1006 276.396 71.3837 274.952 70.8494 274.686V274.684Z" fill="black"/>
<path d="M69.5103 278.373C69.5103 278.373 58.709 277.886 57.527 279.93C55.6385 283.197 71.111 286.086 73.4946 284.646C75.7822 283.264 74.2557 280.096 74.2557 280.096C74.2557 280.096 71.9266 281.393 69.5103 278.373Z" fill="#223265"/>
<path d="M68.5486 278.654C68.5486 278.654 69.3555 279.748 69.4362 280.838C69.277 281.51 67.2118 277.979 68.5486 278.654Z" fill="#E8E8E9"/>
<path d="M66.2784 278.76C66.2784 278.76 67.0765 279.845 67.1507 280.935C66.9893 281.608 64.9547 278.094 66.2784 278.76Z" fill="#E8E8E9"/>
<path d="M64.1806 278.734C64.1806 278.734 64.8545 279.679 64.9003 280.637C64.7476 281.233 63.0357 278.172 64.1806 278.734Z" fill="#E8E8E9"/>
<path d="M102.435 78.9128L107.052 96.6528C107.052 96.6528 99.3562 104.558 95.2258 105.012C90.4216 105.54 93.1388 80.3076 93.1388 80.3076L102.435 78.9128Z" fill="white"/>
<path d="M142.245 263.083L151.147 270.335C151.147 270.335 154.139 270.065 153.995 273.025C153.851 275.985 150.471 280.327 149.335 280.916C146.971 282.139 149.032 273.871 149.032 273.871L138.061 264.851L142.245 263.083Z" fill="#D1D1D1"/>
<path d="M94.5761 176.761C94.5892 176.761 94.6023 176.766 94.6153 176.768C95.5509 168.778 97.265 163.923 97.265 163.923C97.265 163.923 93.0016 147.916 102.989 143.169C112.98 138.423 133.708 126.757 124.841 184.135C115.976 241.513 149.839 267.282 149.839 267.282C149.839 267.282 145.724 272.523 145.458 272.361C95.5727 239.126 92.3255 197.559 94.5761 176.764V176.761Z" fill="black"/>
<path d="M74.8206 99.0292C76.6982 94.685 92.3518 89.3764 92.4106 90.8295C92.4281 91.2663 92.7421 93.5433 96.9554 94.5769C102.848 96.0213 105.541 90.6652 105.541 90.6652C111.296 89.7678 122.61 95.0396 125.325 98.72C131.608 107.233 133.505 175.57 126.55 178.176C121.609 180.027 87.8245 180.44 80.4775 174.318C70.3828 142.793 72.1339 105.244 74.8184 99.0313L74.8206 99.0292Z" fill="#1D68FF"/>
<path d="M148.513 274.074C148.513 274.074 145.045 284.228 146.701 285.921C149.344 288.627 156.431 274.686 155.694 272.015C154.99 269.453 151.498 270.03 151.498 270.03C151.498 270.03 152.109 272.61 148.513 274.074Z" fill="#223265"/>
<path d="M148.517 275.069C148.517 275.069 149.802 274.602 150.879 274.826C151.487 275.162 147.492 276.152 148.517 275.069Z" fill="#E8E8E9"/>
<path d="M147.992 277.261C147.992 277.261 149.265 276.805 150.34 277.034C150.947 277.376 146.978 278.34 147.992 277.261Z" fill="#E8E8E9"/>
<path d="M147.385 279.251C147.385 279.251 148.487 278.87 149.429 279.093C149.963 279.404 146.522 280.185 147.385 279.251Z" fill="#E8E8E9"/>
<path d="M85.6632 80.0524C84.8127 81.8688 85.5171 82.9694 82.8631 86.0637C81.6921 87.4282 82.5186 91.8891 81.1447 92.6762C79.7708 93.4655 75.0756 90.689 75.4551 88.8294C75.8324 86.9697 84.8193 77.2435 85.1617 77.25C85.4997 77.2565 87.735 75.6347 85.6654 80.0502L85.6632 80.0524Z" fill="white"/>
<path d="M76.3034 86.6994C74.6722 86.5135 54.7662 113.763 62.8656 134.993C63.9908 137.941 67.0548 139.407 69.6477 138.092C76.3776 134.68 82.318 118.862 82.4074 89.0759C80.5472 87.1578 78.6914 86.9697 76.3034 86.6973V86.6994Z" fill="#504B5B"/>
<path d="M84.5904 66.5009L74.3277 80.8265C74.223 80.9757 74.2165 81.1746 74.3125 81.3281L78.4188 87.8995C78.5977 88.1828 79.0142 88.1871 79.1952 87.9038L88.0513 74.0972C88.1298 73.9761 88.145 73.8269 88.0927 73.6929L85.3929 66.6047C85.2642 66.2652 84.8041 66.2046 84.5904 66.503V66.5009Z" fill="#223265"/>
<path d="M84.6863 67.2426L75.6252 79.8599C75.5511 79.9637 75.5489 80.0999 75.6165 80.2059L79.2584 85.8583C79.3805 86.0486 79.6575 86.0486 79.7839 85.8604L87.5147 74.1059C87.5693 74.0259 87.5802 73.9242 87.5475 73.8334L85.238 67.3183C85.153 67.0804 84.8368 67.0371 84.6885 67.2426H84.6863Z" fill="url(#paint2_linear_673_11994)"/>
<path d="M84.8411 71.1283C84.5249 70.8601 81.8186 70.8558 80.2441 71.1283C78.6696 71.405 77.1954 72.6224 76.4212 73.842C75.3875 75.4746 76.1094 77.9159 76.2446 78.0543C76.3405 78.1537 78.2007 75.4227 78.2007 75.4227C78.2007 75.4227 78.2836 75.2194 80.5799 75.2713C82.8763 75.3232 85.9664 72.084 84.839 71.1261L84.8411 71.1283Z" fill="#D1D1D1"/>
<path d="M123.417 96.8668C123.417 96.8668 124.505 95.8742 128.465 100.104C131.699 103.555 155.792 125.533 167.627 159.359C166.467 163.27 161.362 163.387 160.664 163.387C159.966 163.387 147.682 143.885 130.509 131.343C128.899 129.445 122.547 98.7675 123.415 96.8689L123.417 96.8668Z" fill="#4B4D59"/>
<path d="M89.9965 92.9508C93.5577 95.5823 101.995 99.853 112.367 91.7312C112.801 86.8983 105.057 86.0356 104.708 86.3815C104.359 86.7275 95.9195 91.1582 91.0455 88.2801C90.4479 87.5254 89.7806 88.159 89.2376 89.0477C88.446 90.3451 88.7709 92.0447 89.9987 92.9508H89.9965Z" fill="url(#paint3_linear_673_11994)"/>
<path d="M93.5379 54.7225C94.2946 55.0555 104.522 58.5434 102.2 71.7749C101.886 78.1365 93.4049 81.806 88.5897 73.7577C83.7724 65.7095 85.142 51.0292 93.5379 54.7225Z" fill="#D1D1D1"/>
<path d="M91.73 71.6689C91.8979 71.3684 92.1749 71.1435 92.5086 71.0527C92.7397 70.99 92.9927 70.9164 93.1432 70.8602C93.5117 70.7218 93.9239 70.7802 94.2575 70.9921C96.4187 72.3695 99.873 73.5264 101.02 67.967C101.502 65.1516 102.267 65.1516 102.267 65.1516C102.267 65.1516 109.361 78.4804 99.9886 85.3523C94.2335 89.5711 83.8618 83.5835 87.6433 71.7273C89.3639 74.3568 90.8599 73.2323 91.7257 71.6733L91.73 71.6689Z" fill="black"/>
<path d="M99.1643 56.807C99.1643 56.807 93.5532 45.6796 81.3344 51.879C80.811 52.145 80.3486 52.5537 80.0979 53.0813C79.1514 55.0534 81.8665 56.2946 83.9316 56.1129C80.944 56.5303 78.9159 59.8278 83.6656 60.4074C82.5185 61.4129 83.5609 64.2499 86.0034 64.3169C85.8987 64.1093 85.8289 60.4074 88.2714 59.0905C89.7368 58.3012 93.9283 56.5627 95.8103 57.5682C99.8578 59.7262 102.233 64.6629 102.233 64.6629C102.233 64.6629 101.421 59.603 99.1621 56.807H99.1643Z" fill="black"/>
<path d="M100.246 62.0508C100.246 62.0508 102.728 58.7705 103.314 62.3016C103.781 65.104 101.094 65.5797 101.094 65.5797L100.246 62.0486V62.0508Z" fill="white"/>
</g>
<defs>
<linearGradient id="paint0_linear_673_11994" x1="158.812" y1="96.6311" x2="104.884" y2="96.6311" gradientUnits="userSpaceOnUse">
<stop stop-color="#D6ECFA"/>
<stop offset="1" stop-color="#A7CFEE"/>
</linearGradient>
<linearGradient id="paint1_linear_673_11994" x1="149.721" y1="78.7419" x2="110.329" y2="91.7805" gradientUnits="userSpaceOnUse">
<stop stop-color="#D6ECFA"/>
<stop offset="1" stop-color="#A7CFEE"/>
</linearGradient>
<linearGradient id="paint2_linear_673_11994" x1="87.7305" y1="76.3622" x2="75.4558" y2="76.985" gradientUnits="userSpaceOnUse">
<stop stop-color="#68A8DC"/>
<stop offset="1" stop-color="#3A6EAD"/>
</linearGradient>
<linearGradient id="paint3_linear_673_11994" x1="112.382" y1="91.3831" x2="88.8036" y2="91.3831" gradientUnits="userSpaceOnUse">
<stop stop-color="#D6ECFA"/>
<stop offset="1" stop-color="#A7CFEE"/>
</linearGradient>
<clipPath id="clip0_673_11994">
<rect width="218" height="244" fill="white" transform="translate(42 50)"/>
</clipPath>
</defs>
</svg>
