<svg height="1em" width="1em" viewBox="0 0 49 49" fill="none" xmlns="http://www.w3.org/2000/svg">
<path d="M20.4309 21.4837C25.7124 21.4837 29.9926 16.814 29.9926 11.0952C29.9926 5.45171 25.7325 0.971191 20.4309 0.971191C15.1792 0.971191 10.8613 5.52342 10.8652 11.135C10.8871 16.8319 15.1634 21.4837 20.4309 21.4837ZM20.4309 17.7067C17.4046 17.7067 14.8294 14.8587 14.8255 11.1271C14.8215 7.50047 17.3805 4.74822 20.4309 4.74822C23.5172 4.74822 26.0325 7.46461 26.0325 11.0952C26.0325 14.8229 23.4932 17.7067 20.4309 17.7067ZM6.80091 41.7992H25.8151C25.6425 41.0665 25.5651 40.2821 25.5651 39.3923V38.0221H6.07425C5.55704 38.0221 5.34805 37.8652 5.34805 37.4573C5.34805 34.1083 10.7629 27.8102 20.4309 27.8102C22.7394 27.8102 24.8192 28.212 26.5847 28.8525C27.098 27.5671 28.0319 26.5432 29.4256 25.8607C26.8558 24.7432 23.8363 24.0332 20.4309 24.0332C8.6866 24.0332 1.20288 32.0665 1.20288 38.0496C1.20288 40.6157 3.02036 41.7992 6.80091 41.7992ZM28.6701 39.4639C28.6701 43.6495 31.1265 45.2702 37.2141 48.7106C37.7507 49.0307 38.5655 49.0844 39.2314 48.7106C45.331 45.268 47.7971 43.6495 47.7971 39.4639V31.5785C47.7971 30.169 47.3006 29.3067 45.9007 28.7171C44.6856 28.2199 40.669 26.8204 39.5133 26.4185C38.6622 26.1347 37.7155 26.1428 36.7888 26.4942C35.7727 26.8524 31.7559 28.2199 30.5628 28.7171C29.1628 29.3107 28.6701 30.169 28.6701 31.5785V39.4639ZM36.9732 43.7006C36.5466 43.7006 36.0541 43.5477 35.7306 43.1803L32.0536 39.1913C31.7779 38.8676 31.6214 38.4427 31.6214 38.0557C31.6214 37.1332 32.3335 36.4937 33.1734 36.4937C33.6719 36.4937 34.0688 36.7005 34.3407 37.0101L36.8761 39.7876L42.041 32.6427C42.3246 32.2199 42.7952 31.9519 43.349 31.9519C44.1846 31.9519 44.9112 32.6327 44.9112 33.4961C44.9112 33.768 44.8018 34.1094 44.5855 34.3955L38.2516 43.117C37.9797 43.4624 37.5053 43.7006 36.9732 43.7006Z" fill="currentColor"/>
</svg>
