<svg width="1em" height="1em" viewBox="0 0 250 250" version="1.1" xmlns="http://www.w3.org/2000/svg" xmlns:xlink="http://www.w3.org/1999/xlink">
<path d="M101.855469,203.710938 C157.714844,203.710938 203.710938,157.714844 203.710938,101.855469 C203.710938,46.09375 157.617188,0 101.757812,0 C45.9960938,0 0,46.09375 0,101.855469 C0,157.714844 45.9960938,203.710938 101.855469,203.710938 Z M54.0039062,101.953125 C54.0039062,95.8007812 58.3984375,91.40625 64.453125,91.40625 L91.5039062,91.40625 L91.5039062,64.3554688 C91.5039062,58.3984375 95.8007812,54.0039062 101.757812,54.0039062 C107.910156,54.0039062 112.304688,58.3984375 112.304688,64.3554688 L112.304688,91.40625 L139.355469,91.40625 C145.3125,91.40625 149.707031,95.8007812 149.707031,101.953125 C149.707031,107.910156 145.3125,112.207031 139.355469,112.207031 L112.304688,112.207031 L112.304688,139.355469 C112.304688,145.3125 107.910156,149.609375 101.757812,149.609375 C95.8007812,149.609375 91.5039062,145.3125 91.5039062,139.355469 L91.5039062,112.207031 L64.453125,112.207031 C58.3984375,112.207031 54.0039062,107.910156 54.0039062,101.953125 Z" id="Shape" fill="currentColor"></path>
</svg>