<svg width="1em" height="1em" viewBox="0 0 25 24" fill="none" xmlns="http://www.w3.org/2000/svg">
<path d="M20.75 11.25H13.25V3.75C13.25 3.55109 13.171 3.36032 13.0303 3.21967C12.8897 3.07902 12.6989 3 12.5 3C12.3011 3 12.1103 3.07902 11.9697 3.21967C11.829 3.36032 11.75 3.55109 11.75 3.75V11.25H4.25C4.05109 11.25 3.86032 11.329 3.71967 11.4697C3.57902 11.6103 3.5 11.8011 3.5 12C3.5 12.1989 3.57902 12.3897 3.71967 12.5303C3.86032 12.671 4.05109 12.75 4.25 12.75H11.75V20.25C11.75 20.4489 11.829 20.6397 11.9697 20.7803C12.1103 20.921 12.3011 21 12.5 21C12.6989 21 12.8897 20.921 13.0303 20.7803C13.171 20.6397 13.25 20.4489 13.25 20.25V12.75H20.75C20.9489 12.75 21.1397 12.671 21.2803 12.5303C21.421 12.3897 21.5 12.1989 21.5 12C21.5 11.8011 21.421 11.6103 21.2803 11.4697C21.1397 11.329 20.9489 11.25 20.75 11.25Z" fill="currentColor"/>
</svg>
