<svg width="1em" height="1em" viewBox="0 0 25 24" fill="none" xmlns="http://www.w3.org/2000/svg">
<path fill-rule="evenodd" clip-rule="evenodd" d="M17.5001 0H7.50012C6.17453 0.00158786 4.90368 0.528882 3.96634 1.46622C3.029 2.40356 2.50171 3.6744 2.50012 5V19C2.50171 20.3256 3.029 21.5964 3.96634 22.5338C4.90368 23.4711 6.17453 23.9984 7.50012 24H17.5001C18.8257 23.9984 20.0966 23.4711 21.0339 22.5338C21.9712 21.5964 22.4985 20.3256 22.5001 19V5C22.4985 3.6744 21.9712 2.40356 21.0339 1.46622C20.0966 0.528882 18.8257 0.00158786 17.5001 0ZM7.50012 2H17.5001C18.2958 2 19.0588 2.31607 19.6214 2.87868C20.1841 3.44129 20.5001 4.20435 20.5001 5V11H4.50012V5C4.50012 4.20435 4.81619 3.44129 5.3788 2.87868C5.94141 2.31607 6.70447 2 7.50012 2ZM17.5001 22H7.50012C6.70447 22 5.94141 21.6839 5.3788 21.1213C4.81619 20.5587 4.50012 19.7956 4.50012 19V13H20.5001V19C20.5001 19.7956 20.1841 20.5587 19.6214 21.1213C19.0588 21.6839 18.2958 22 17.5001 22ZM11.4998 7H13.4998C13.765 7 14.0194 6.89464 14.2069 6.7071C14.3945 6.51957 14.4998 6.26521 14.4998 6C14.4998 5.73478 14.3945 5.48043 14.2069 5.29289C14.0194 5.10536 13.765 5 13.4998 5H11.4998C11.2346 5 10.9802 5.10536 10.7927 5.29289C10.6052 5.48043 10.4998 5.73478 10.4998 6C10.4998 6.26521 10.6052 6.51957 10.7927 6.7071C10.9802 6.89464 11.2346 7 11.4998 7ZM11.4998 17H13.4998C13.765 17 14.0194 17.1054 14.2069 17.2929C14.3945 17.4804 14.4998 17.7348 14.4998 18C14.4998 18.2652 14.3945 18.5196 14.2069 18.7071C14.0194 18.8947 13.765 19 13.4998 19H11.4998C11.2346 19 10.9802 18.8947 10.7927 18.7071C10.6052 18.5196 10.4998 18.2652 10.4998 18C10.4998 17.7348 10.6052 17.4804 10.7927 17.2929C10.9802 17.1054 11.2346 17 11.4998 17Z" fill="currentColor"/>
</svg>
