<svg width="1em" height="1em" viewBox="0 0 25 24" fill="none" xmlns="http://www.w3.org/2000/svg">
<path fill-rule="evenodd" clip-rule="evenodd" d="M12.5 0C10.1266 0 7.80655 0.703788 5.83316 2.02236C3.85977 3.34094 2.3217 5.21509 1.41345 7.4078C0.505199 9.60051 0.267559 12.0133 0.730582 14.3411C1.1936 16.6689 2.33649 18.8071 4.01472 20.4853C5.69295 22.1635 7.83115 23.3064 10.1589 23.7694C12.4867 24.2324 14.8995 23.9948 17.0922 23.0866C19.2849 22.1783 21.1591 20.6402 22.4776 18.6668C23.7962 16.6935 24.5 14.3734 24.5 12C24.4966 8.81846 23.2312 5.76821 20.9815 3.51852C18.7318 1.26883 15.6815 0.00344108 12.5 0ZM12.5 22C10.5222 22 8.58879 21.4135 6.9443 20.3147C5.29981 19.2159 4.01809 17.6541 3.26121 15.8268C2.50433 13.9996 2.3063 11.9889 2.69215 10.0491C3.078 8.10929 4.03041 6.32746 5.42894 4.92893C6.82746 3.53041 8.60929 2.578 10.5491 2.19215C12.4889 1.8063 14.4996 2.00433 16.3268 2.7612C18.1541 3.51808 19.7159 4.79981 20.8147 6.4443C21.9135 8.08879 22.5 10.0222 22.5 12C22.4971 14.6513 21.4426 17.1931 19.5679 19.0679C17.6931 20.9426 15.1513 21.9971 12.5 22ZM12.5 5C12.2348 5 11.9804 5.10536 11.7929 5.29289C11.6054 5.48043 11.5 5.73478 11.5 6V14C11.5 14.2652 11.6054 14.5196 11.7929 14.7071C11.9804 14.8946 12.2348 15 12.5 15C12.7652 15 13.0196 14.8946 13.2071 14.7071C13.3946 14.5196 13.5 14.2652 13.5 14V6C13.5 5.73478 13.3946 5.48043 13.2071 5.29289C13.0196 5.10536 12.7652 5 12.5 5ZM11.5 18C11.5 17.4477 11.9477 17 12.5 17C13.0523 17 13.5 17.4477 13.5 18C13.5 18.5523 13.0523 19 12.5 19C11.9477 19 11.5 18.5523 11.5 18Z" fill="currentColor"/>
</svg>
