<svg width="1em" height="1em" viewBox="0 0 25 24" fill="none" xmlns="http://www.w3.org/2000/svg">
<path d="M13.446 16.8842C15.5435 16.8842 17.0698 15.7124 17.0698 14.0778C17.0698 12.6991 16.3115 11.9606 14.4307 11.5076L13.0325 11.163C11.9295 10.8872 11.4569 10.5032 11.4569 9.84345C11.4569 9.01627 12.225 8.44514 13.3672 8.44514C14.4012 8.44514 15.0314 8.88826 15.3761 9.8336C15.5336 10.1783 15.7995 10.3358 16.0752 10.3358C16.5873 10.3358 16.8827 9.88283 16.7054 9.292C16.4297 8.24819 15.248 7.1453 13.3672 7.1453C11.3682 7.1453 9.9404 8.29743 9.9404 9.90253C9.9404 11.2516 10.807 12.0788 12.609 12.5022L14.0171 12.837C15.1201 13.093 15.5336 13.4672 15.5336 14.1861C15.5336 15.033 14.7163 15.5843 13.446 15.5843C12.2938 15.5843 11.5947 15.1511 11.2402 14.2156C11.0925 13.8808 10.8266 13.7232 10.5509 13.7232C10.0487 13.7232 9.78284 14.127 9.89116 14.7178C10.1275 15.929 11.5455 16.8842 13.446 16.8842ZM12.865 17.8492C12.865 18.1742 13.1309 18.4499 13.4559 18.4499C13.7809 18.4499 14.0565 18.1742 14.0565 17.8492V6.16058C14.0565 5.83563 13.7809 5.5599 13.4559 5.5599C13.1309 5.5599 12.865 5.83563 12.865 6.16058V17.8492ZM13.4559 22.0442C18.9407 22.0442 23.5 17.4849 23.5 12C23.5 6.50524 18.9407 1.95582 13.4559 1.95582C7.96111 1.95582 3.41169 6.49538 3.41169 11.9901H5.08572C5.08572 7.34225 8.80797 3.63969 13.4559 3.63969C18.1038 3.63969 21.826 7.35209 21.826 12C21.826 16.6479 18.1038 20.3898 13.4559 20.3701C10.6494 20.3603 8.1876 19.0014 6.68097 16.9039C6.3757 16.5001 5.91289 16.3722 5.4993 16.6183C5.10542 16.8646 4.99709 17.4061 5.3319 17.8394C7.20287 20.3504 10.1373 22.0442 13.4559 22.0442ZM2.20048 10.0995C1.49148 10.0995 1.31423 10.582 1.69827 11.1334L3.90405 14.2648C4.22901 14.7178 4.70168 14.708 5.01679 14.2648L7.22257 11.1236C7.59676 10.582 7.41951 10.0995 6.72036 10.0995H2.20048Z" fill="currentColor"/>
</svg>
