<svg width="1em" height="1em" viewBox="0 0 24 24" fill="none" xmlns="http://www.w3.org/2000/svg">
<path d="M20 19.444V23.277C20.0001 23.4197 19.9578 23.5591 19.8786 23.6777C19.7994 23.7964 19.6868 23.8888 19.555 23.9434C19.4232 23.998 19.2781 24.0123 19.1382 23.9845C18.9983 23.9566 18.8698 23.8879 18.769 23.787L18 23.019L17.231 23.787C17.1302 23.8879 17.0017 23.9566 16.8618 23.9845C16.7219 24.0123 16.5768 23.998 16.445 23.9434C16.3132 23.8888 16.2006 23.7964 16.1214 23.6777C16.0422 23.5591 15.9999 23.4197 16 23.277V19.444C15.2373 19.0058 14.641 18.3277 14.3038 17.5154C13.9666 16.703 13.9076 15.8019 14.1358 14.9525C14.364 14.103 14.8667 13.3529 15.5656 12.8189C16.2646 12.2849 17.1204 11.997 18 12C18.338 12.0042 18.6741 12.0519 19 12.142V5C19 4.20435 18.6839 3.44129 18.1213 2.87868C17.5587 2.31607 16.7956 2 16 2H8C7.20435 2 6.44129 2.31607 5.87868 2.87868C5.31607 3.44129 5 4.20435 5 5V17C5 17.7956 5.31607 18.5587 5.87868 19.1213C6.44129 19.6839 7.20435 20 8 20H13C13.2652 20 13.5196 20.1054 13.7071 20.2929C13.8946 20.4804 14 20.7348 14 21C14 21.2652 13.8946 21.5196 13.7071 21.7071C13.5196 21.8946 13.2652 22 13 22H8C6.67441 21.9984 5.40356 21.4711 4.46622 20.5338C3.52888 19.5964 3.00159 18.3256 3 17V5C3.00159 3.67441 3.52888 2.40356 4.46622 1.46622C5.40356 0.528882 6.67441 0.00158786 8 0L16 0C17.3256 0.00158786 18.5964 0.528882 19.5338 1.46622C20.4711 2.40356 20.9984 3.67441 21 5V13.382C21.3917 13.8219 21.6801 14.3438 21.844 14.9096C22.0079 15.4753 22.0433 16.0706 21.9474 16.6518C21.8515 17.2329 21.6269 17.7853 21.2899 18.2684C20.953 18.7516 20.5122 19.1532 20 19.444ZM20 16C20 15.6044 19.8827 15.2178 19.6629 14.8889C19.4432 14.56 19.1308 14.3036 18.7654 14.1522C18.3999 14.0009 17.9978 13.9613 17.6098 14.0384C17.2219 14.1156 16.8655 14.3061 16.5858 14.5858C16.3061 14.8655 16.1156 15.2219 16.0384 15.6098C15.9613 15.9978 16.0009 16.3999 16.1522 16.7654C16.3036 17.1308 16.56 17.4432 16.8889 17.6629C17.2178 17.8827 17.6044 18 18 18C18.5304 18 19.0391 17.7893 19.4142 17.4142C19.7893 17.0391 20 16.5304 20 16Z" fill="currentColor"/>
<path d="M12 13C9.23846 13 7 10.7615 7 8C7 5.23846 9.23846 3 12 3C14.7615 3 17 5.23846 17 8C17 10.7615 14.7615 13 12 13ZM14.2927 6.54192C14.3865 6.44808 14.3865 6.29539 14.2927 6.20154L13.7819 5.69115C13.6881 5.59731 13.5354 5.59731 13.4415 5.69115L11.995 7.13769L10.5485 5.69115C10.4546 5.59731 10.3019 5.59731 10.2081 5.69115L9.69731 6.20154C9.60346 6.29539 9.60346 6.44808 9.69731 6.54192L11.1442 7.98885L9.69731 9.435C9.60346 9.52885 9.60346 9.68154 9.69731 9.77538L10.2081 10.2862C10.3019 10.38 10.4546 10.38 10.5485 10.2862L11.995 8.83923L13.4415 10.2862C13.5354 10.38 13.6881 10.38 13.7819 10.2862L14.2927 9.77538C14.3865 9.68154 14.3865 9.52885 14.2927 9.435L12.8458 7.98885L14.2927 6.54192Z" fill="currentColor"/>
</svg>
