<svg width="1em" height="1em" viewBox="0 0 25 24" fill="none" xmlns="http://www.w3.org/2000/svg">
<path fill-rule="evenodd" clip-rule="evenodd" d="M14.27 6.64209H23.3595C23.6006 6.64209 23.8318 6.73785 24.0022 6.90831C24.1727 7.07877 24.2685 7.30997 24.2685 7.55104C24.2685 7.79211 24.1727 8.0233 24.0022 8.19376C23.8318 8.36422 23.6006 8.45999 23.3595 8.45999H14.27L17.2605 11.4413C17.3452 11.5255 17.4125 11.6255 17.4586 11.7357C17.5047 11.8459 17.5287 11.964 17.5291 12.0835C17.5295 12.2029 17.5064 12.3213 17.4611 12.4318C17.4158 12.5423 17.3491 12.6428 17.265 12.7275C17.1808 12.8123 17.0808 12.8796 16.9706 12.9257C16.8605 12.9718 16.7423 12.9957 16.6229 12.9962C16.5034 12.9966 16.3851 12.9735 16.2746 12.9282C16.1641 12.8828 16.0636 12.8162 15.9788 12.732L12.0794 8.82357C11.7403 8.48644 11.5476 8.02924 11.5432 7.55104C11.5452 7.06968 11.738 6.60877 12.0794 6.26942L15.9788 2.36093C16.1491 2.19164 16.3795 2.09662 16.6196 2.09662C16.8598 2.09662 17.0901 2.19164 17.2605 2.36093C17.3456 2.44543 17.4133 2.54596 17.4594 2.65673C17.5056 2.76749 17.5293 2.8863 17.5293 3.00629C17.5293 3.12628 17.5056 3.24509 17.4594 3.35585C17.4133 3.46661 17.3456 3.56714 17.2605 3.65164L14.27 6.64209ZM13.5621 14.8227C13.9191 15.1775 14.1219 15.6588 14.1266 16.1622C14.1244 16.6689 13.9214 17.154 13.5621 17.5112L9.45743 21.6254C9.27726 21.8043 9.03341 21.9043 8.77951 21.9034C8.52561 21.9025 8.28247 21.8008 8.10357 21.6206C7.92468 21.4405 7.82468 21.1966 7.82557 20.9427C7.82647 20.6888 7.92819 20.4457 8.10836 20.2668L11.2562 17.119H1.6883C1.43454 17.119 1.19118 17.0181 1.01174 16.8387C0.832311 16.6593 0.731506 16.4159 0.731506 16.1622C0.731506 15.9084 0.832311 15.665 1.01174 15.4856C1.19118 15.3062 1.43454 15.2054 1.6883 15.2054H11.2562L8.10836 12.0671C8.01868 11.9782 7.9475 11.8723 7.89893 11.7557C7.85035 11.6391 7.82534 11.5141 7.82534 11.3878C7.82534 11.2615 7.85035 11.1364 7.89893 11.0198C7.9475 10.9032 8.01868 10.7974 8.10836 10.7085C8.28762 10.5303 8.53012 10.4302 8.7829 10.4302C9.03567 10.4302 9.27816 10.5303 9.45743 10.7085L13.5621 14.8227Z" fill="currentColor"/>
</svg>
