<svg width="1em" height="1em" viewBox="0 0 25 24" fill="none" xmlns="http://www.w3.org/2000/svg">
<path d="M21.2804 3.21959C21.1398 3.07899 20.949 3 20.7501 3C20.5513 3 20.3605 3.07899 20.2199 3.21959L12.5 10.9395L4.78011 3.21959C4.63946 3.07899 4.44873 3 4.24985 3C4.05098 3 3.86024 3.07899 3.71959 3.21959C3.57899 3.36024 3.5 3.55098 3.5 3.74985C3.5 3.94873 3.57899 4.13946 3.71959 4.28011L11.4395 12L3.71959 19.7199C3.57899 19.8605 3.5 20.0513 3.5 20.2501C3.5 20.449 3.57899 20.6398 3.71959 20.7804C3.86024 20.921 4.05098 21 4.24985 21C4.44873 21 4.63946 20.921 4.78011 20.7804L12.5 13.0605L20.2199 20.7804C20.3605 20.921 20.5513 21 20.7501 21C20.949 21 21.1398 20.921 21.2804 20.7804C21.421 20.6398 21.5 20.449 21.5 20.2501C21.5 20.0513 21.421 19.8605 21.2804 19.7199L13.5605 12L21.2804 4.28011C21.421 4.13946 21.5 3.94873 21.5 3.74985C21.5 3.55098 21.421 3.36024 21.2804 3.21959Z" fill="currentColor"/>
</svg>
