<svg width="1em" height="1em" viewBox="0 0 25 24" fill="none" xmlns="http://www.w3.org/2000/svg">
<path fill-rule="evenodd" clip-rule="evenodd" d="M5.83316 2.02236C7.80655 0.703788 10.1266 0 12.5 0C15.6815 0.00344108 18.7318 1.26883 20.9815 3.51852C23.2312 5.76821 24.4966 8.81846 24.5 12C24.5 14.3734 23.7962 16.6935 22.4776 18.6668C21.1591 20.6402 19.2849 22.1783 17.0922 23.0866C14.8995 23.9948 12.4867 24.2324 10.1589 23.7694C7.83115 23.3064 5.69295 22.1635 4.01472 20.4853C2.33649 18.8071 1.1936 16.6689 0.730582 14.3411C0.267559 12.0133 0.505199 9.60051 1.41345 7.4078C2.3217 5.21509 3.85977 3.34094 5.83316 2.02236ZM6.9443 20.3147C8.58879 21.4135 10.5222 22 12.5 22C15.1513 21.9971 17.6931 20.9426 19.5679 19.0679C21.4426 17.1931 22.4971 14.6513 22.5 12C22.5 10.0222 21.9135 8.08879 20.8147 6.4443C19.7159 4.79981 18.1541 3.51808 16.3268 2.7612C14.4996 2.00433 12.4889 1.8063 10.5491 2.19215C8.60929 2.578 6.82746 3.53041 5.42894 4.92893C4.03041 6.32746 3.078 8.10929 2.69215 10.0491C2.3063 11.9889 2.50433 13.9996 3.26121 15.8268C4.01809 17.6541 5.29981 19.2159 6.9443 20.3147ZM15.793 7.70721C16.0582 7.70721 16.3125 7.81253 16.5 8C16.6875 8.18753 16.7928 8.44184 16.7928 8.707C16.7928 8.97217 16.6875 9.22647 16.5 9.414L13.914 12L16.5 14.586C16.6822 14.7746 16.783 15.0272 16.7807 15.2894C16.7784 15.5516 16.6732 15.8024 16.4878 15.9878C16.3024 16.1732 16.0516 16.2784 15.7894 16.2807C15.5272 16.283 15.2746 16.1822 15.086 16L12.5 13.414L9.91401 16C9.72541 16.1822 9.47281 16.283 9.21061 16.2807C8.94841 16.2784 8.6976 16.1732 8.51219 15.9878C8.32678 15.8024 8.22162 15.5516 8.21934 15.2894C8.21706 15.0272 8.31785 14.7746 8.50001 14.586L11.086 12L8.50001 9.414C8.31785 9.2254 8.21706 8.9728 8.21934 8.7106C8.22162 8.4484 8.32678 8.19759 8.51219 8.01218C8.6976 7.82677 8.94841 7.72161 9.21061 7.71933C9.47281 7.71705 9.72541 7.81784 9.91401 8L12.5 10.586L15.086 8C15.2735 7.81253 15.5278 7.70721 15.793 7.70721Z" fill="currentColor"/>
</svg>
