<svg width="1em" height="1em" viewBox="0 0 25 24" fill="none" xmlns="http://www.w3.org/2000/svg">
<path d="M21.3999 4.29108C21.0477 3.32729 20.4081 2.49487 19.5675 1.90631C18.727 1.31775 17.726 1.00142 16.6999 1.00008H8.29988C7.27376 1.00142 6.27279 1.31775 5.43224 1.90631C4.59169 2.49487 3.95209 3.32729 3.59988 4.29108L0.899883 11.7181C0.634332 12.4496 0.498953 13.2219 0.499883 14.0001V15.0001C0.501667 15.7729 0.683315 16.5346 1.03045 17.2251C1.37758 17.9155 1.88067 18.5157 2.49988 18.9781C2.49988 18.9861 2.49988 18.9921 2.49988 19.0001V21.0001C2.49988 21.7957 2.81595 22.5588 3.37856 23.1214C3.94117 23.684 4.70423 24.0001 5.49988 24.0001C6.29553 24.0001 7.05859 23.684 7.6212 23.1214C8.18381 22.5588 8.49988 21.7957 8.49988 21.0001V20.0001H16.4999V21.0001C16.4999 21.7957 16.816 22.5588 17.3786 23.1214C17.9412 23.684 18.7042 24.0001 19.4999 24.0001C20.2955 24.0001 21.0586 23.684 21.6212 23.1214C22.1838 22.5588 22.4999 21.7957 22.4999 21.0001V19.0001C22.4999 18.9921 22.4999 18.9861 22.4999 18.9781C23.1191 18.5157 23.6222 17.9155 23.9693 17.2251C24.3165 16.5346 24.4981 15.7729 24.4999 15.0001V14.0001C24.5009 13.2222 24.3655 12.4502 24.0999 11.7191L21.3999 4.29108ZM5.48188 4.97508C5.69332 4.39725 6.07682 3.89812 6.58069 3.54498C7.08456 3.19184 7.68459 3.00166 8.29988 3.00008H16.6999C17.3155 3.00126 17.916 3.19125 18.4203 3.54441C18.9245 3.89758 19.3083 4.39693 19.5199 4.97508L21.7079 11.0001H3.29088L5.48188 4.97508ZM6.49988 21.0001C6.49988 21.2653 6.39453 21.5196 6.20699 21.7072C6.01945 21.8947 5.7651 22.0001 5.49988 22.0001C5.23467 22.0001 4.98031 21.8947 4.79278 21.7072C4.60524 21.5196 4.49988 21.2653 4.49988 21.0001V19.9001C4.82901 19.9669 5.16404 20.0004 5.49988 20.0001H6.49988V21.0001ZM20.4999 21.0001C20.4999 21.2653 20.3945 21.5196 20.207 21.7072C20.0195 21.8947 19.7651 22.0001 19.4999 22.0001C19.2347 22.0001 18.9803 21.8947 18.7928 21.7072C18.6052 21.5196 18.4999 21.2653 18.4999 21.0001V20.0001H19.4999C19.8357 20.0004 20.1708 19.9669 20.4999 19.9001V21.0001ZM22.4999 15.0001C22.4999 15.7957 22.1838 16.5588 21.6212 17.1214C21.0586 17.684 20.2955 18.0001 19.4999 18.0001H5.49988C4.70423 18.0001 3.94117 17.684 3.37856 17.1214C2.81595 16.5588 2.49988 15.7957 2.49988 15.0001V14.0001C2.50396 13.6633 2.54453 13.3281 2.62088 13.0001H4.49988V14.0001C4.49988 14.2653 4.60524 14.5196 4.79278 14.7072C4.98031 14.8947 5.23467 15.0001 5.49988 15.0001C5.7651 15.0001 6.01945 14.8947 6.20699 14.7072C6.39453 14.5196 6.49988 14.2653 6.49988 14.0001V13.0001H18.4999V14.0001C18.4999 14.2653 18.6052 14.5196 18.7928 14.7072C18.9803 14.8947 19.2347 15.0001 19.4999 15.0001C19.7651 15.0001 20.0195 14.8947 20.207 14.7072C20.3945 14.5196 20.4999 14.2653 20.4999 14.0001V13.0001H22.3789C22.4553 13.328 22.4959 13.6633 22.4999 14.0001V15.0001Z" fill="currentColor"/>
</svg>
