<svg width="1em" height="1em" viewBox="0 0 25 24" fill="none" xmlns="http://www.w3.org/2000/svg">
<path d="M6 17C6.82843 17 7.5 16.3284 7.5 15.5C7.5 14.6716 6.82843 14 6 14C5.17157 14 4.5 14.6716 4.5 15.5C4.5 16.3284 5.17157 17 6 17Z" fill="currentColor"/>
<path d="M19.5 3H5.5C2.7 3 0.5 5.2 0.5 8V16C0.5 18.8 2.7 21 5.5 21H19.5C22.3 21 24.5 18.8 24.5 16V8C24.5 5.2 22.3 3 19.5 3ZM5.5 5H19.5C21.2 5 22.5 6.3 22.5 8H2.5C2.5 6.3 3.8 5 5.5 5ZM19.5 19H5.5C3.8 19 2.5 17.7 2.5 16V10H22.5V16C22.5 17.7 21.2 19 19.5 19Z" fill="currentColor"/>
</svg>
