<svg width="1em" height="1em" viewBox="0 0 25 24" fill="none" xmlns="http://www.w3.org/2000/svg">
<path d="M18.5 6C18.3125 5.81253 18.0582 5.70721 17.793 5.70721C17.5278 5.70721 17.2735 5.81253 17.086 6L12.5 10.586L7.914 6C7.72647 5.81253 7.47216 5.70721 7.207 5.70721C6.94184 5.70721 6.68753 5.81253 6.5 6C6.31253 6.18753 6.20721 6.44184 6.20721 6.707C6.20721 6.97216 6.31253 7.22647 6.5 7.414L11.086 12L6.5 16.586C6.31253 16.7735 6.20721 17.0278 6.20721 17.293C6.20721 17.5582 6.31253 17.8125 6.5 18C6.68753 18.1875 6.94184 18.2928 7.207 18.2928C7.47216 18.2928 7.72647 18.1875 7.914 18L12.5 13.414L17.086 18C17.2735 18.1875 17.5278 18.2928 17.793 18.2928C18.0582 18.2928 18.3125 18.1875 18.5 18C18.6875 17.8125 18.7928 17.5582 18.7928 17.293C18.7928 17.0278 18.6875 16.7735 18.5 16.586L13.914 12L18.5 7.414C18.6875 7.22647 18.7928 6.97216 18.7928 6.707C18.7928 6.44184 18.6875 6.18753 18.5 6Z" fill="currentColor"/>
</svg>
