<svg width="1em" height="1em" viewBox="0 0 25 24" fill="none" xmlns="http://www.w3.org/2000/svg">
<path d="M3.5 21.9521C3.5 23.2011 4.22362 24 5.37688 24H19.6343C20.7764 24 21.5 23.2011 21.5 21.9521V2.05907C21.5 0.810126 20.7764 0.0112519 19.6343 0.0112519H5.37688C4.22362 0.0112519 3.5 0.810126 3.5 2.05907V21.9521ZM5.32035 21.5358V2.47539C5.32035 2.02531 5.52387 1.82278 5.97612 1.82278H19.0352C19.4761 1.82278 19.6796 2.02531 19.6796 2.47539V21.5358C19.6796 21.9747 19.4761 22.1884 19.0352 22.1884H5.97612C5.52387 22.1884 5.32035 21.9747 5.32035 21.5358ZM8.56532 23.0436H10.0465V19.2855C10.0465 19.0492 10.1708 18.9255 10.4083 18.9255H14.5917C14.8404 18.9255 14.9535 19.0492 14.9535 19.2855V23.0436H16.4347V18.8692C16.4347 17.9015 16.005 17.4515 15.0779 17.4515H9.92211C8.99496 17.4515 8.56532 17.9015 8.56532 18.8692V23.0436ZM8.74622 6.7398H10.951C11.2223 6.7398 11.4146 6.55977 11.4146 6.27848V4.1519C11.4146 3.88185 11.2223 3.69057 10.951 3.69057H8.74622C8.47487 3.69057 8.30527 3.88185 8.30527 4.1519V6.27848C8.30527 6.55977 8.47487 6.7398 8.74622 6.7398ZM14.049 6.7398H16.2425C16.5138 6.7398 16.706 6.55977 16.706 6.27848V4.1519C16.706 3.88185 16.5138 3.69057 16.2425 3.69057H14.049C13.7663 3.69057 13.5967 3.88185 13.5967 4.1519V6.27848C13.5967 6.55977 13.7663 6.7398 14.049 6.7398ZM8.74622 11.1955H10.951C11.2223 11.1955 11.4146 11.0155 11.4146 10.7342V8.60758C11.4146 8.33755 11.2223 8.14626 10.951 8.14626H8.74622C8.47487 8.14626 8.30527 8.33755 8.30527 8.60758V10.7342C8.30527 11.0155 8.47487 11.1955 8.74622 11.1955ZM14.049 11.1955H16.2425C16.5138 11.1955 16.706 11.0155 16.706 10.7342V8.60758C16.706 8.33755 16.5138 8.14626 16.2425 8.14626H14.049C13.7663 8.14626 13.5967 8.33755 13.5967 8.60758V10.7342C13.5967 11.0155 13.7663 11.1955 14.049 11.1955ZM8.74622 15.6512H10.951C11.2223 15.6512 11.4146 15.4599 11.4146 15.1899V13.0633C11.4146 12.782 11.2223 12.602 10.951 12.602H8.74622C8.47487 12.602 8.30527 12.782 8.30527 13.0633V15.1899C8.30527 15.4599 8.47487 15.6512 8.74622 15.6512ZM14.049 15.6512H16.2425C16.5138 15.6512 16.706 15.4599 16.706 15.1899V13.0633C16.706 12.782 16.5138 12.602 16.2425 12.602H14.049C13.7663 12.602 13.5967 12.782 13.5967 13.0633V15.1899C13.5967 15.4599 13.7663 15.6512 14.049 15.6512Z" fill="currentColor"/>
</svg>
