<svg width="1em" height="1em" viewBox="0 0 25 24" fill="none" xmlns="http://www.w3.org/2000/svg">
<path fill-rule="evenodd" clip-rule="evenodd" d="M10.379 18.125L5.79302 13.538C5.69751 13.4458 5.62133 13.3354 5.56892 13.2134C5.51651 13.0914 5.48892 12.9602 5.48777 12.8274C5.48662 12.6946 5.51192 12.5629 5.5622 12.44C5.61248 12.3172 5.68673 12.2055 5.78062 12.1116C5.87452 12.0177 5.98617 11.9435 6.10907 11.8932C6.23196 11.8429 6.36364 11.8176 6.49642 11.8187C6.6292 11.8199 6.76042 11.8475 6.88242 11.8999C7.00443 11.9523 7.11477 12.0285 7.20702 12.124L11.5 16.417V1C11.5 0.734784 11.6054 0.48043 11.7929 0.292893C11.9804 0.105357 12.2348 0 12.5 0C12.7652 0 13.0196 0.105357 13.2071 0.292893C13.3947 0.48043 13.5 0.734784 13.5 1V16.416L17.793 12.125C17.8853 12.0295 17.9956 11.9533 18.1176 11.9009C18.2396 11.8485 18.3708 11.8209 18.5036 11.8197C18.6364 11.8186 18.7681 11.8439 18.891 11.8942C19.0139 11.9445 19.1255 12.0187 19.2194 12.1126C19.3133 12.2065 19.3876 12.3181 19.4378 12.441C19.4881 12.5639 19.5134 12.6956 19.5123 12.8284C19.5111 12.9612 19.4835 13.0924 19.4311 13.2144C19.3787 13.3364 19.3025 13.4468 19.207 13.539L14.621 18.125C14.0575 18.6857 13.2949 19.0005 12.5 19.0005C11.7051 19.0005 10.9425 18.6857 10.379 18.125ZM22.7929 16.2929C22.9804 16.1054 23.2348 16 23.5 16C23.7652 16 24.0196 16.1054 24.2071 16.2929C24.3946 16.4804 24.5 16.7348 24.5 17V21C24.5 21.7957 24.1839 22.5587 23.6213 23.1213C23.0587 23.6839 22.2956 24 21.5 24H3.5C2.70435 24 1.94129 23.6839 1.37868 23.1213C0.81607 22.5587 0.5 21.7957 0.5 21V17C0.5 16.7348 0.605357 16.4804 0.792893 16.2929C0.98043 16.1054 1.23478 16 1.5 16C1.76522 16 2.01957 16.1054 2.20711 16.2929C2.39464 16.4804 2.5 16.7348 2.5 17V21C2.5 21.2652 2.60536 21.5196 2.79289 21.7071C2.98043 21.8946 3.23478 22 3.5 22H21.5C21.7652 22 22.0196 21.8946 22.2071 21.7071C22.3946 21.5196 22.5 21.2652 22.5 21V17C22.5 16.7348 22.6054 16.4804 22.7929 16.2929Z" fill="currentColor"/>
</svg>
