<svg width="1em" height="1em" viewBox="0 0 32 32" fill="none" xmlns="http://www.w3.org/2000/svg">
<path d="M6.66675 29.3337H25.3334C26.3943 29.3337 27.4117 28.9122 28.1618 28.1621C28.912 27.4119 29.3334 26.3945 29.3334 25.3337V6.66699C29.3334 5.60613 28.912 4.58871 28.1618 3.83857C27.4117 3.08842 26.3943 2.66699 25.3334 2.66699H6.66675C5.60588 2.66699 4.58847 3.08842 3.83832 3.83857C3.08818 4.58871 2.66675 5.60613 2.66675 6.66699V25.3337C2.66675 26.3945 3.08818 27.4119 3.83832 28.1621C4.58847 28.9122 5.60588 29.3337 6.66675 29.3337ZM25.3334 26.667H6.66675C6.31313 26.667 5.97399 26.5265 5.72394 26.2765C5.47389 26.0264 5.33341 25.6873 5.33341 25.3337V17.3337H10.6667C10.933 17.3336 11.1932 17.2538 11.4137 17.1046C11.6342 16.9553 11.805 16.7435 11.9041 16.4963L13.3334 12.923L17.4281 23.163C17.5268 23.4108 17.6976 23.6234 17.9185 23.7731C18.1393 23.9228 18.3999 24.0029 18.6667 24.0029C18.9335 24.0029 19.1942 23.9228 19.415 23.7731C19.6359 23.6234 19.8067 23.4108 19.9054 23.163L22.2361 17.3337H26.6667V25.3337C26.6667 25.6873 26.5263 26.0264 26.2762 26.2765C26.0262 26.5265 25.687 26.667 25.3334 26.667ZM6.66675 5.33366H25.3334C25.687 5.33366 26.0262 5.47413 26.2762 5.72418C26.5263 5.97423 26.6667 6.31337 26.6667 6.66699V14.667H21.3334C21.0668 14.6669 20.8062 14.7468 20.5854 14.8963C20.3646 15.0458 20.1937 15.258 20.0947 15.5057L18.6667 19.0763L14.5721 8.83766C14.4731 8.59022 14.3023 8.37811 14.0816 8.2287C13.861 8.07929 13.6006 7.99943 13.3341 7.99943C13.0676 7.99943 12.8072 8.07929 12.5865 8.2287C12.3659 8.37811 12.195 8.59022 12.0961 8.83766L9.76408 14.667H5.33341V6.66699C5.33341 6.31337 5.47389 5.97423 5.72394 5.72418C5.97399 5.47413 6.31313 5.33366 6.66675 5.33366Z" fill="currentColor"/>
</svg>
