<svg width="1em" height="1em" viewBox="0 0 25 24" fill="none" xmlns="http://www.w3.org/2000/svg">
<path d="M21.6138 2.88662C21.0452 2.31888 20.2745 2 19.471 2C18.6675 2 17.8968 2.31888 17.3282 2.88662L3.72531 16.4895C3.33577 16.8769 3.0269 17.3376 2.81658 17.8451C2.60626 18.3526 2.49866 18.8968 2.50001 19.4461V21.1632C2.50001 21.385 2.58813 21.5977 2.74498 21.7546C2.90183 21.9115 3.11457 21.9996 3.33639 21.9996H5.05348C5.60278 22.0011 6.14694 21.8937 6.65444 21.6835C7.16195 21.4733 7.62272 21.1646 8.01008 20.7751L21.6138 7.17139C22.1813 6.60281 22.5 5.83232 22.5 5.029C22.5 4.22569 22.1813 3.45519 21.6138 2.88662ZM6.82744 19.5925C6.35573 20.0611 5.71837 20.3249 5.05348 20.3268H4.17277V19.4461C4.17193 19.1165 4.23647 18.79 4.36266 18.4855C4.48886 18.181 4.67419 17.9045 4.90795 17.6721L15.2314 7.3487L17.1551 9.27238L6.82744 19.5925ZM20.4303 5.98875L18.3344 8.08555L16.4107 6.16606L18.5075 4.06926C18.6338 3.94322 18.7837 3.8433 18.9486 3.77519C19.1135 3.70709 19.2903 3.67214 19.4687 3.67233C19.6471 3.67252 19.8238 3.70786 19.9886 3.77632C20.1534 3.84479 20.303 3.94504 20.4291 4.07135C20.5551 4.19766 20.655 4.34756 20.7231 4.51248C20.7912 4.67741 20.8262 4.85414 20.826 5.03257C20.8258 5.21101 20.7905 5.38766 20.722 5.55244C20.6535 5.71722 20.5533 5.86689 20.427 5.99293L20.4303 5.98875Z" fill="currentColor"/>
</svg>
