<svg width="1em" height="1em" viewBox="0 0 25 24" fill="none" xmlns="http://www.w3.org/2000/svg">
<path d="M19.5 3H12.972C12.8173 3.00102 12.6645 2.96682 12.525 2.9L9.369 1.316C8.95239 1.10855 8.4934 1.00039 8.028 1H5.5C4.17441 1.00159 2.90356 1.52888 1.96622 2.46622C1.02888 3.40356 0.501588 4.67441 0.5 6L0.5 18C0.501588 19.3256 1.02888 20.5964 1.96622 21.5338C2.90356 22.4711 4.17441 22.9984 5.5 23H19.5C20.8256 22.9984 22.0964 22.4711 23.0338 21.5338C23.9711 20.5964 24.4984 19.3256 24.5 18V8C24.4984 6.67441 23.9711 5.40356 23.0338 4.46622C22.0964 3.52888 20.8256 3.00159 19.5 3ZM5.5 3H8.028C8.18266 2.99898 8.33552 3.03318 8.475 3.1L11.631 4.679C12.0472 4.88819 12.5062 4.99806 12.972 5H19.5C20.098 5.00098 20.6821 5.18067 21.1773 5.51601C21.6725 5.85135 22.0561 6.32704 22.279 6.882L2.5 6.994V6C2.5 5.20435 2.81607 4.44129 3.37868 3.87868C3.94129 3.31607 4.70435 3 5.5 3ZM19.5 21H5.5C4.70435 21 3.94129 20.6839 3.37868 20.1213C2.81607 19.5587 2.5 18.7956 2.5 18V8.994L22.5 8.881V18C22.5 18.7956 22.1839 19.5587 21.6213 20.1213C21.0587 20.6839 20.2956 21 19.5 21Z" fill="currentColor"/>
</svg>
