<svg width="1em" height="1em" viewBox="0 0 25 24" fill="none" xmlns="http://www.w3.org/2000/svg">
<path d="M11.4256 23.5H13.5743C14.4488 23.5 15.1327 22.956 15.3348 22.1183L15.7654 20.2432L16.0471 20.1457L17.6818 21.1483C18.4197 21.6096 19.2844 21.494 19.905 20.8692L21.3933 19.392C22.0177 18.7595 22.1294 17.8892 21.6685 17.1631L20.6493 15.5396L20.7535 15.2769L22.6232 14.8335C23.4516 14.6275 24 13.9381 24 13.0715V10.9806C24 10.1159 23.4603 9.42277 22.6232 9.21864L20.7708 8.76649L20.6579 8.48646L21.6772 6.86293C22.1399 6.1369 22.0264 5.27521 21.4021 4.63398L19.9137 3.14824C19.3018 2.53202 18.4371 2.41267 17.6991 2.86906L16.0645 3.87171L15.7654 3.75682L15.3348 1.88166C15.1327 1.04202 14.4488 0.499998 13.5743 0.499998H11.4256C10.5511 0.499998 9.8672 1.04584 9.66515 1.88166L9.22587 3.75682L8.92681 3.87171L7.30082 2.86906C6.56292 2.41649 5.68945 2.53202 5.07756 3.14824L3.59793 4.63398C2.97355 5.27521 2.85135 6.1369 3.32281 6.86293L4.33331 8.48646L4.22909 8.76649L2.3767 9.21864C1.53585 9.42467 1 10.1159 1 10.9806V13.0715C1 13.9381 1.54835 14.6293 2.3767 14.8335L4.24647 15.2769L4.34199 15.5396L3.33149 17.1631C2.86002 17.8892 2.98223 18.7595 3.60662 19.392L5.08625 20.8692C5.70683 21.494 6.58028 21.6096 7.31819 21.1483L8.94418 20.1457L9.22587 20.2432L9.66515 22.1183C9.8672 22.956 10.5511 23.5 11.4256 23.5ZM11.6885 21.5795C11.5103 21.5795 11.4188 21.5033 11.389 21.3396L10.7612 18.7281C10.0904 18.5769 9.44678 18.3053 8.93423 17.9771L6.64085 19.386C6.51568 19.4794 6.38182 19.4601 6.25855 19.3368L5.12903 18.2082C5.01253 18.0916 5.00766 17.9664 5.08857 17.8256L6.50191 15.5476C6.21069 15.0414 5.92772 14.4049 5.7659 13.7336L3.15675 13.1158C2.99302 13.086 2.91698 12.9944 2.91698 12.8161V11.2273C2.91698 11.0404 2.98434 10.9594 3.15675 10.9276L5.75722 10.3012C5.92285 9.59701 6.23483 8.93734 6.48455 8.47841L5.07988 6.2005C4.9903 6.05105 4.99326 5.92577 5.10975 5.80049L6.24987 4.6893C6.37314 4.56593 6.48963 4.54854 6.64085 4.64012L8.91495 6.02285C9.39509 5.73604 10.0945 5.44818 10.768 5.26991L11.389 2.66047C11.4188 2.49661 11.5103 2.4205 11.6885 2.4205H13.3115C13.4896 2.4205 13.5792 2.49661 13.6023 2.66047L14.2407 5.28729C14.9278 5.45497 15.5434 5.7333 16.0676 6.03154L18.3447 4.64393C18.5065 4.55237 18.6124 4.56784 18.7462 4.69312L19.8758 5.80431C20.001 5.92959 19.9972 6.05487 19.9075 6.20431L18.5067 8.47841C18.7633 8.93543 19.0684 9.59701 19.2322 10.2974L21.8432 10.9276C22.007 10.9594 22.083 11.0404 22.083 11.2273V12.8161C22.083 12.9944 21.9963 13.086 21.8432 13.1158L19.2235 13.7374C19.0617 14.403 18.7873 15.0472 18.4893 15.5476L19.897 17.8218C19.9797 17.9625 19.9837 18.0878 19.8584 18.2044L18.7376 19.3329C18.6018 19.4582 18.4786 19.4737 18.3447 19.3822L16.0609 17.9771C15.5387 18.3053 14.9323 18.5691 14.2407 18.7281L13.6023 21.3396C13.5792 21.5033 13.4896 21.5795 13.3115 21.5795H11.6885ZM12.499 16.0297C14.7028 16.0297 16.5147 14.2162 16.5147 12C16.5147 9.80305 14.7028 7.99149 12.499 7.99149C10.2952 7.99149 8.47271 9.80305 8.47271 12C8.47271 14.2094 10.2866 16.0297 12.499 16.0297ZM12.499 14.2113C11.2926 14.2113 10.3001 13.2181 10.3001 12C10.3001 10.8013 11.2945 9.80983 12.499 9.80983C13.6861 9.80983 14.6767 10.8051 14.6767 12C14.6767 13.2094 13.6861 14.2113 12.499 14.2113Z" fill="currentColor"/>
</svg>
