<svg width="1em" height="1em" viewBox="0 0 25 24" fill="none" xmlns="http://www.w3.org/2000/svg">
<path d="M21.5 12.424V11C21.5 8.61305 20.5518 6.32387 18.864 4.63604C17.1761 2.94821 14.887 2 12.5 2C10.1131 2 7.82388 2.94821 6.13605 4.63604C4.44822 6.32387 3.50001 8.61305 3.50001 11V12.424C2.45117 12.8858 1.59281 13.694 1.06863 14.7131C0.544454 15.7322 0.386273 16.9004 0.620569 18.0222C0.854866 19.1441 1.46742 20.1513 2.35568 20.8755C3.24394 21.5996 4.354 21.9966 5.50001 22C6.03044 22 6.53915 21.7893 6.91423 21.4142C7.2893 21.0391 7.50001 20.5304 7.50001 20V14C7.50001 13.4696 7.2893 12.9609 6.91423 12.5858C6.53915 12.2107 6.03044 12 5.50001 12V11C5.50001 9.14348 6.23751 7.36301 7.55026 6.05025C8.86302 4.7375 10.6435 4 12.5 4C14.3565 4 16.137 4.7375 17.4498 6.05025C18.7625 7.36301 19.5 9.14348 19.5 11V12C18.9696 12 18.4609 12.2107 18.0858 12.5858C17.7107 12.9609 17.5 13.4696 17.5 14V20H14.5C14.2348 20 13.9804 20.1054 13.7929 20.2929C13.6054 20.4804 13.5 20.7348 13.5 21C13.5 21.2652 13.6054 21.5196 13.7929 21.7071C13.9804 21.8946 14.2348 22 14.5 22H19.5C20.646 21.9966 21.7561 21.5996 22.6443 20.8755C23.5326 20.1513 24.1452 19.1441 24.3795 18.0222C24.6138 16.9004 24.4556 15.7322 23.9314 14.7131C23.4072 13.694 22.5489 12.8858 21.5 12.424ZM5.50001 20C4.70436 20 3.9413 19.6839 3.37869 19.1213C2.81608 18.5587 2.50001 17.7956 2.50001 17C2.50001 16.2044 2.81608 15.4413 3.37869 14.8787C3.9413 14.3161 4.70436 14 5.50001 14V20ZM19.5 20V14C20.2957 14 21.0587 14.3161 21.6213 14.8787C22.1839 15.4413 22.5 16.2044 22.5 17C22.5 17.7956 22.1839 18.5587 21.6213 19.1213C21.0587 19.6839 20.2957 20 19.5 20Z" fill="currentColor"/>
</svg>
