<svg width="1em" height="1em" viewBox="0 0 25 24" fill="none" xmlns="http://www.w3.org/2000/svg">
<path d="M23.621 9.07443L16.036 1.48388C15.0973 0.547308 13.8257 0.0213776 12.5 0.0213776C11.1743 0.0213776 9.90277 0.547308 8.96401 1.48388L1.37901 9.07443C1.09944 9.35238 0.877782 9.68309 0.726895 10.0474C0.576007 10.4117 0.49889 10.8023 0.500012 11.1967V21.0196C0.500012 21.8157 0.816083 22.5792 1.37869 23.1422C1.9413 23.7051 2.70436 24.0214 3.50001 24.0214H21.5C22.2957 24.0214 23.0587 23.7051 23.6213 23.1422C24.1839 22.5792 24.5 21.8157 24.5 21.0196V11.1967C24.5011 10.8023 24.424 10.4117 24.2731 10.0474C24.1222 9.68309 23.9006 9.35238 23.621 9.07443ZM15.5 22.0202H9.50001V18.0838C9.50001 17.2877 9.81608 16.5242 10.3787 15.9612C10.9413 15.3983 11.7044 15.082 12.5 15.082C13.2957 15.082 14.0587 15.3983 14.6213 15.9612C15.1839 16.5242 15.5 17.2877 15.5 18.0838V22.0202ZM22.5 21.0196C22.5 21.285 22.3947 21.5395 22.2071 21.7271C22.0196 21.9148 21.7652 22.0202 21.5 22.0202H17.5V18.0838C17.5 16.7569 16.9732 15.4844 16.0355 14.5462C15.0979 13.6079 13.8261 13.0808 12.5 13.0808C11.1739 13.0808 9.90216 13.6079 8.96448 14.5462C8.0268 15.4844 7.50001 16.7569 7.50001 18.0838V22.0202H3.50001C3.2348 22.0202 2.98044 21.9148 2.79291 21.7271C2.60537 21.5395 2.50001 21.285 2.50001 21.0196V11.1967C2.50094 10.9315 2.6062 10.6774 2.79301 10.4893L10.378 2.90173C10.9417 2.34032 11.7047 2.02515 12.5 2.02515C13.2953 2.02515 14.0583 2.34032 14.622 2.90173L22.207 10.4923C22.3931 10.6796 22.4983 10.9326 22.5 11.1967V21.0196Z" fill="currentColor"/>
</svg>
