<svg width="1em" height="1em" viewBox="0 0 25 24" fill="none" xmlns="http://www.w3.org/2000/svg">
<path fill-rule="evenodd" clip-rule="evenodd" d="M12.5 0C10.1266 0 7.80655 0.703788 5.83316 2.02236C3.85977 3.34094 2.3217 5.21509 1.41345 7.4078C0.505199 9.60051 0.267559 12.0133 0.730582 14.3411C1.1936 16.6689 2.33649 18.8071 4.01472 20.4853C5.69295 22.1635 7.83115 23.3064 10.1589 23.7694C12.4867 24.2324 14.8995 23.9948 17.0922 23.0866C19.2849 22.1783 21.1591 20.6402 22.4776 18.6668C23.7962 16.6935 24.5 14.3734 24.5 12C24.4966 8.81846 23.2312 5.76821 20.9815 3.51852C18.7318 1.26883 15.6815 0.00344108 12.5 0ZM12.5 22C10.5222 22 8.58879 21.4135 6.9443 20.3147C5.29981 19.2159 4.01809 17.6541 3.26121 15.8268C2.50433 13.9996 2.3063 11.9889 2.69215 10.0491C3.078 8.10929 4.03041 6.32746 5.42894 4.92893C6.82746 3.53041 8.60929 2.578 10.5491 2.19215C12.4889 1.8063 14.4996 2.00433 16.3268 2.7612C18.1541 3.51808 19.7159 4.79981 20.8147 6.4443C21.9135 8.08879 22.5 10.0222 22.5 12C22.4971 14.6513 21.4426 17.1931 19.5679 19.0679C17.6931 20.9426 15.1513 21.9971 12.5 22ZM13.217 5.06299C12.6403 4.95792 12.0476 4.98087 11.4808 5.13023C10.914 5.27958 10.3869 5.55169 9.93689 5.92729C9.48688 6.30289 9.12491 6.77281 8.87661 7.30378C8.62831 7.83476 8.49974 8.41382 8.5 8.99998C8.5 9.2652 8.60536 9.51956 8.79289 9.70709C8.98043 9.89463 9.23478 9.99998 9.5 9.99998C9.76522 9.99998 10.0196 9.89463 10.2071 9.70709C10.3946 9.51956 10.5 9.2652 10.5 8.99998C10.4997 8.70576 10.5644 8.4151 10.6894 8.14874C10.8144 7.88238 10.9966 7.64687 11.223 7.45901C11.4495 7.27115 11.7146 7.13557 11.9994 7.06193C12.2843 6.98829 12.5819 6.97841 12.871 7.03299C13.266 7.10967 13.6293 7.30237 13.9142 7.58647C14.1992 7.87058 14.3931 8.23319 14.471 8.62799C14.5497 9.04239 14.4954 9.47106 14.3158 9.85272C14.1362 10.2344 13.8405 10.5495 13.471 10.753C12.8592 11.1075 12.3536 11.6195 12.0069 12.2358C11.6603 12.8521 11.4852 13.55 11.5 14.257V15C11.5 15.2652 11.6054 15.5196 11.7929 15.7071C11.9804 15.8946 12.2348 16 12.5 16C12.7652 16 13.0196 15.8946 13.2071 15.7071C13.3946 15.5196 13.5 15.2652 13.5 15V14.257C13.4875 13.909 13.5668 13.5638 13.7301 13.2563C13.8933 12.9487 14.1347 12.6896 14.43 12.505C15.1545 12.1071 15.738 11.4944 16.1001 10.7514C16.4622 10.0083 16.5853 9.17134 16.4523 8.35551C16.3193 7.53968 15.9368 6.78508 15.3575 6.19548C14.7782 5.60588 14.0304 5.21025 13.217 5.06299ZM12.5 17C13.0523 17 13.5 17.4477 13.5 18C13.5 18.5523 13.0523 19 12.5 19C11.9477 19 11.5 18.5523 11.5 18C11.5 17.4477 11.9477 17 12.5 17Z" fill="currentColor"/>
</svg>
