<svg width="1em" height="1em" viewBox="0 0 25 24" fill="none" xmlns="http://www.w3.org/2000/svg">
<path d="M12.5 24C19.0647 24 24.5 18.5529 24.5 12C24.5 5.43529 19.0529 0 12.4882 0C5.93529 0 0.5 5.43529 0.5 12C0.5 18.5529 5.94705 24 12.5 24ZM12.5 22C6.94705 22 2.51176 17.5529 2.51176 12C2.51176 6.44705 6.93529 2 12.4882 2C18.0411 2 22.5 6.44705 22.5 12C22.5 17.5529 18.0529 22 12.5 22ZM10.4412 18.5882H15.2294C15.7118 18.5882 16.0883 18.2352 16.0883 17.7529C16.0883 17.2941 15.7118 16.9293 15.2294 16.9293H13.7705V10.9412C13.7705 10.3059 13.453 9.88233 12.8529 9.88233H10.6412C10.1588 9.88233 9.78234 10.247 9.78234 10.7059C9.78234 11.1882 10.1588 11.5412 10.6412 11.5412H11.9V16.9293H10.4412C9.95881 16.9293 9.58234 17.2941 9.58234 17.7529C9.58234 18.2352 9.95881 18.5882 10.4412 18.5882ZM12.3941 7.9294C13.2529 7.9294 13.9235 7.24704 13.9235 6.38822C13.9235 5.5294 13.2529 4.84706 12.3941 4.84706C11.547 4.84706 10.8647 5.5294 10.8647 6.38822C10.8647 7.24704 11.547 7.9294 12.3941 7.9294Z" fill="currentColor"/>
</svg>
