<svg width="1em" height="1em" viewBox="0 0 25 24" fill="none" xmlns="http://www.w3.org/2000/svg">
<path d="M7.5 22H5.5C4.70435 22 3.94129 21.6839 3.37868 21.1213C2.81607 20.5587 2.5 19.7956 2.5 19V5C2.5 4.20435 2.81607 3.44129 3.37868 2.87868C3.94129 2.31607 4.70435 2 5.5 2H7.5C7.76522 2 8.01957 1.89464 8.20711 1.70711C8.39464 1.51957 8.5 1.26522 8.5 1C8.5 0.734784 8.39464 0.48043 8.20711 0.292893C8.01957 0.105357 7.76522 0 7.5 0L5.5 0C4.17441 0.00158786 2.90356 0.528882 1.96622 1.46622C1.02888 2.40356 0.501588 3.67441 0.5 5L0.5 19C0.501588 20.3256 1.02888 21.5964 1.96622 22.5338C2.90356 23.4711 4.17441 23.9984 5.5 24H7.5C7.76522 24 8.01957 23.8946 8.20711 23.7071C8.39464 23.5196 8.5 23.2652 8.5 23C8.5 22.7348 8.39464 22.4804 8.20711 22.2929C8.01957 22.1054 7.76522 22 7.5 22Z" fill="currentColor"/>
<path d="M19.038 18.707L23.625 14.121C24.1857 13.5575 24.5005 12.7949 24.5005 12C24.5005 11.2051 24.1857 10.4425 23.625 9.879L19.038 5.293C18.8494 5.11084 18.5968 5.01005 18.3346 5.01232C18.0724 5.0146 17.8216 5.11977 17.6362 5.30518C17.4508 5.49059 17.3456 5.7414 17.3433 6.0036C17.341 6.26579 17.4418 6.5184 17.624 6.707L21.916 11H6.5C6.23478 11 5.98043 11.1054 5.79289 11.2929C5.60536 11.4804 5.5 11.7348 5.5 12C5.5 12.2652 5.60536 12.5196 5.79289 12.7071C5.98043 12.8946 6.23478 13 6.5 13H21.917L17.624 17.293C17.5285 17.3852 17.4523 17.4956 17.3999 17.6176C17.3475 17.7396 17.3199 17.8708 17.3188 18.0036C17.3176 18.1364 17.3429 18.2681 17.3932 18.391C17.4435 18.5138 17.5177 18.6255 17.6116 18.7194C17.7055 18.8133 17.8172 18.8875 17.94 18.9378C18.0629 18.9881 18.1946 19.0134 18.3274 19.0122C18.4602 19.0111 18.5914 18.9835 18.7134 18.9311C18.8354 18.8787 18.9458 18.8025 19.038 18.707Z" fill="currentColor"/>
</svg>
