<svg width="1em" height="1em" viewBox="0 0 25 24" fill="none" xmlns="http://www.w3.org/2000/svg">
<path d="M7.5 22H5.5C4.70435 22 3.94129 21.6839 3.37868 21.1213C2.81607 20.5587 2.5 19.7956 2.5 19V5C2.5 4.20435 2.81607 3.44129 3.37868 2.87868C3.94129 2.31607 4.70435 2 5.5 2H7.5C7.76522 2 8.01957 1.89464 8.20711 1.70711C8.39464 1.51957 8.5 1.26522 8.5 1C8.5 0.734784 8.39464 0.48043 8.20711 0.292893C8.01957 0.105357 7.76522 0 7.5 0L5.5 0C4.17441 0.00158786 2.90356 0.528882 1.96622 1.46622C1.02888 2.40356 0.501588 3.67441 0.5 5L0.5 19C0.501588 20.3256 1.02888 21.5964 1.96622 22.5338C2.90356 23.4711 4.17441 23.9984 5.5 24H7.5C7.76522 24 8.01957 23.8946 8.20711 23.7071C8.39464 23.5196 8.5 23.2652 8.5 23C8.5 22.7348 8.39464 22.4804 8.20711 22.2929C8.01957 22.1054 7.76522 22 7.5 22Z" fill="currentColor"/>
<path d="M10.962 5.29301L6.37498 9.879C5.81428 10.4425 5.49951 11.2051 5.49951 12C5.49951 12.7949 5.81428 13.5575 6.37498 14.121L10.961 18.707C11.0532 18.8025 11.1636 18.8787 11.2856 18.9311C11.4076 18.9835 11.5388 19.0111 11.6716 19.0123C11.8044 19.0134 11.936 18.9881 12.0589 18.9378C12.1818 18.8875 12.2935 18.8133 12.3874 18.7194C12.4813 18.6255 12.5555 18.5139 12.6058 18.391C12.6561 18.2681 12.6814 18.1364 12.6802 18.0036C12.6791 17.8708 12.6515 17.7396 12.5991 17.6176C12.5467 17.4956 12.4705 17.3853 12.375 17.293L8.08398 13H23.5C23.7652 13 24.0196 12.8946 24.2071 12.7071C24.3946 12.5196 24.5 12.2652 24.5 12C24.5 11.7348 24.3946 11.4804 24.2071 11.2929C24.0196 11.1054 23.7652 11 23.5 11H8.08298L12.376 6.707C12.4715 6.61476 12.5477 6.50441 12.6001 6.38241C12.6525 6.26041 12.6801 6.12919 12.6812 5.99641C12.6824 5.86363 12.6571 5.73195 12.6068 5.60905C12.5565 5.48615 12.4823 5.3745 12.3884 5.28061C12.2945 5.18672 12.1828 5.11246 12.0599 5.06218C11.937 5.0119 11.8054 4.9866 11.6726 4.98775C11.5398 4.98891 11.4086 5.01649 11.2866 5.0689C11.1646 5.12131 11.0542 5.19749 10.962 5.29301Z" fill="currentColor"/>
</svg>
