<svg width="1em" height="1em" viewBox="0 0 25 24" fill="none" xmlns="http://www.w3.org/2000/svg">
<path d="M6.63914 18.759H18.4176C18.9293 18.759 19.3386 18.3611 19.3386 17.8494C19.3386 17.3379 18.9293 16.9286 18.4176 16.9286H6.63914C6.12753 16.9286 5.7296 17.3379 5.7296 17.8494C5.7296 18.3611 6.12753 18.759 6.63914 18.759ZM4.30845 12.9038H20.7598C21.2713 12.9038 21.6693 12.5059 21.6693 11.9943C21.6693 11.4827 21.2713 11.0734 20.7598 11.0734H4.30845C3.79683 11.0734 3.38754 11.4827 3.38754 11.9943C3.38754 12.5059 3.79683 12.9038 4.30845 12.9038ZM1.90954 7.0487H23.0904C23.6021 7.0487 24 6.65077 24 6.13915C24 5.62754 23.6021 5.21825 23.0904 5.21825H1.90954C1.39792 5.21825 1 5.62754 1 6.13915C1 6.65077 1.39792 7.0487 1.90954 7.0487Z" fill="currentColor"/>
</svg>
