<svg width="1em" height="1em" viewBox="0 0 32 32" fill="none" xmlns="http://www.w3.org/2000/svg">
<path d="M13.3333 22.6667C14.0697 22.6667 14.6667 22.0697 14.6667 21.3333C14.6667 20.5969 14.0697 20 13.3333 20C12.597 20 12 20.5969 12 21.3333C12 22.0697 12.597 22.6667 13.3333 22.6667Z" fill="currentColor"/>
<path d="M19.9999 24.0003C19.9999 24.7367 19.403 25.3337 18.6666 25.3337C17.9302 25.3337 17.3333 24.7367 17.3333 24.0003C17.3333 23.2639 17.9302 22.667 18.6666 22.667C19.403 22.667 19.9999 23.2639 19.9999 24.0003Z" fill="currentColor"/>
<path fill-rule="evenodd" clip-rule="evenodd" d="M19.9999 3.99967V10.1084C23.909 11.6907 26.6666 15.5231 26.6666 19.9997C26.6666 25.8907 21.891 30.6663 15.9999 30.6663C10.1089 30.6663 5.33325 25.8907 5.33325 19.9997C5.33325 15.5231 8.09081 11.6907 11.9999 10.1084V3.99967H10.6666C9.93021 3.99967 9.33325 3.40271 9.33325 2.66634C9.33325 1.92997 9.93021 1.33301 10.6666 1.33301H21.3333C22.0697 1.33301 22.6666 1.92997 22.6666 2.66634C22.6666 3.40271 22.0697 3.99967 21.3333 3.99967H19.9999ZM13.0005 12.5802L13.8335 12.243C14.3371 12.0392 14.6666 11.5503 14.6666 11.0071V3.99967H17.3333V11.0071C17.3333 11.5503 17.6627 12.0392 18.1663 12.243L18.9994 12.5802C20.1433 13.0432 21.1547 13.7625 21.9634 14.6663H10.0364C10.8451 13.7625 11.8566 13.0432 13.0005 12.5802ZM8.45512 17.333C8.16025 18.1674 7.99992 19.0651 7.99992 19.9997C7.99992 24.4179 11.5816 27.9997 15.9999 27.9997C20.4182 27.9997 23.9999 24.4179 23.9999 19.9997C23.9999 19.0651 23.8397 18.1674 23.5447 17.333H8.45512Z" fill="currentColor"/>
</svg>
