<svg width="1em" height="1em" viewBox="0 0 25 24" fill="none" xmlns="http://www.w3.org/2000/svg">
<path fill-rule="evenodd" clip-rule="evenodd" d="M5.83316 2.02236C7.80655 0.703788 10.1266 0 12.5 0C15.6815 0.00344108 18.7318 1.26883 20.9815 3.51852C23.2312 5.76821 24.4966 8.81846 24.5 12C24.5 14.3734 23.7962 16.6935 22.4776 18.6668C21.1591 20.6402 19.2849 22.1783 17.0922 23.0866C14.8995 23.9948 12.4867 24.2324 10.1589 23.7694C7.83115 23.3064 5.69295 22.1635 4.01472 20.4853C2.33649 18.8071 1.1936 16.6689 0.730582 14.3411C0.267559 12.0133 0.505199 9.60051 1.41345 7.4078C2.3217 5.21509 3.85977 3.34094 5.83316 2.02236ZM6.9443 20.3147C8.58879 21.4135 10.5222 22 12.5 22C15.1513 21.9971 17.6931 20.9426 19.5679 19.0679C21.4426 17.1931 22.4971 14.6513 22.5 12C22.5 10.0222 21.9135 8.08879 20.8147 6.4443C19.7159 4.79981 18.1541 3.51808 16.3268 2.7612C14.4996 2.00433 12.4889 1.8063 10.5491 2.19215C8.60929 2.578 6.82746 3.53041 5.42894 4.92893C4.03041 6.32746 3.078 8.10929 2.69215 10.0491C2.3063 11.9889 2.50433 13.9996 3.26121 15.8268C4.01809 17.6541 5.29981 19.2159 6.9443 20.3147ZM17.5 12C17.5 12.2652 17.3946 12.5196 17.2071 12.7071C17.0196 12.8946 16.7652 13 16.5 13H13.5H11.5H8.5C8.23478 13 7.98043 12.8946 7.79289 12.7071C7.60536 12.5196 7.5 12.2652 7.5 12C7.5 11.7348 7.60536 11.4804 7.79289 11.2929C7.98043 11.1054 8.23478 11 8.5 11H11.5H13.5H16.5C16.7652 11 17.0196 11.1054 17.2071 11.2929C17.3946 11.4804 17.5 11.7348 17.5 12Z" fill="currentColor"/>
</svg>
