<svg width="1em" height="1em" viewBox="0 0 25 24" fill="none" xmlns="http://www.w3.org/2000/svg">
<path d="M1 9.7812C1 14.9603 5.21392 19.1742 10.3931 19.1742C12.4412 19.1742 14.3127 18.5151 15.8547 17.4087L21.6459 23.2116C21.9166 23.4824 22.2698 23.6119 22.6464 23.6119C23.4468 23.6119 24 23.0115 24 22.2228C24 21.8462 23.8587 21.5048 23.6116 21.2577L17.8557 15.4665C19.0681 13.8892 19.7861 11.9235 19.7861 9.7812C19.7861 4.60207 15.5721 0.388145 10.3931 0.388145C5.21392 0.388145 1 4.60207 1 9.7812ZM3.0128 9.7812C3.0128 5.70852 6.32037 2.40094 10.3931 2.40094C14.4658 2.40094 17.7733 5.70852 17.7733 9.7812C17.7733 13.8539 14.4658 17.1614 10.3931 17.1614C6.32037 17.1614 3.0128 13.8539 3.0128 9.7812Z" fill="currentColor"/>
</svg>
