<svg width="1em" height="1em" viewBox="0 0 25 24" fill="none" xmlns="http://www.w3.org/2000/svg">
<path fill-rule="evenodd" clip-rule="evenodd" d="M9.95283 3.49982C9.90992 3.34583 9.88723 3.17274 9.88723 2.97845C9.88723 1.60964 11.0135 0.5 12.4029 0.5C13.7922 0.5 14.9185 1.60964 14.9185 2.97845C14.9185 3.18865 14.8919 3.37403 14.8419 3.53726C15.8522 3.84348 16.818 4.3068 17.5482 4.91147C18.9054 6.03546 19.8494 7.58328 20.23 9.30857C20.4898 10.4863 20.5092 12.6612 20.5215 14.0417V14.0418C20.5272 14.6837 20.5314 15.1538 20.5575 15.272C20.575 15.3511 20.6177 15.4801 20.6719 15.6439C20.8731 16.2515 21.2326 17.3377 21.0495 18.1276C20.9633 18.4993 20.7952 18.8467 20.5576 19.1443C20.32 19.4419 20.0188 19.6822 19.6765 19.8473C19.3341 20.0124 18.9592 20.0981 18.5794 20.0982H16.4046C16.2105 21.0585 15.692 21.9218 14.9368 22.5419C14.1932 23.1526 13.2653 23.4896 12.3058 23.4998V23.5L12.2841 23.4999L12.2612 23.5V23.4997C11.347 23.4891 10.4272 23.1521 9.71951 22.5419C9.00035 21.9218 8.50651 21.0585 8.32167 20.0982H6.25037C6.23063 20.0982 6.21091 20.0979 6.19121 20.0974H5.94697V20.0779C5.69035 20.0436 5.43996 19.9659 5.20557 19.8473C4.8795 19.6822 4.59273 19.4419 4.36642 19.1443C4.1401 18.8467 3.98001 18.4993 3.89797 18.1276C3.72351 17.3377 4.06593 16.2515 4.2575 15.6439C4.30914 15.4801 4.34982 15.3511 4.36646 15.272C4.39133 15.1537 4.39532 14.6836 4.40077 14.0417C4.41249 12.6612 4.43096 10.4863 4.67838 9.30857C5.04085 7.58328 5.93993 6.03546 7.23254 4.91147C7.95687 4.28162 8.93667 3.80513 9.95283 3.49982ZM13.2761 3.19192C13.2964 3.13653 13.3085 3.0675 13.3085 2.97845C13.3085 2.48568 12.903 2.08621 12.4029 2.08621C11.9027 2.08621 11.4972 2.48568 11.4972 2.97845C11.4972 3.05451 11.5061 3.11597 11.5213 3.1668C11.7741 3.13522 12.0219 3.11527 12.2612 3.10724V3.10588L12.2841 3.10651L12.3058 3.10588V3.10717C12.6189 3.11709 12.9446 3.14553 13.2761 3.19192ZM9.99997 20.0982L9.99977 20.0974H14.6426L14.6424 20.0982C14.4681 20.5934 14.1458 21.0225 13.7196 21.3266C13.2995 21.6263 12.7989 21.7896 12.2841 21.7964C11.7927 21.7896 11.2789 21.6263 10.8788 21.3266C10.4729 21.0225 10.1659 20.5934 9.99997 20.0982ZM6.21601 18.3983H18.6155C18.7297 18.3934 18.8419 18.3652 18.9452 18.3154C19.0593 18.2603 19.1597 18.1802 19.239 18.081C19.3182 17.9818 19.4486 17.7427 19.4486 17.5495C19.4485 17.0379 19.3615 16.836 19.2254 16.5203L19.2254 16.5203C19.1366 16.3144 19.027 16.0601 18.9069 15.6398C18.7542 15.1048 18.7479 13.9436 18.7415 12.7487V12.7487C18.7351 11.5658 18.7285 10.3501 18.5794 9.67644C18.2798 8.32239 17.5382 7.10783 16.4727 6.22584C15.413 5.3487 13.6608 4.84691 12.2841 4.80568C10.9725 4.84691 9.26605 5.3487 8.25681 6.22584C7.24198 7.10783 6.53574 8.32239 6.25037 9.67644C6.10841 10.3501 6.10215 11.5658 6.09607 12.7487C6.08992 13.9436 6.08395 15.1048 5.93845 15.6398C5.82416 16.0601 5.71972 16.3144 5.63518 16.5203C5.50554 16.836 5.42265 17.0379 5.42264 17.5495C5.42263 17.7427 5.54681 17.9818 5.62226 18.081C5.6977 18.1802 5.79331 18.2603 5.90202 18.3154C6.0004 18.3652 6.10723 18.3934 6.21601 18.3983Z" fill="currentColor"/>
<path d="M23.119 6C23.119 8.20914 21.4135 10 19.3095 10C17.2056 10 15.5 8.20914 15.5 6C15.5 3.79086 17.2056 2 19.3095 2C21.4135 2 23.119 3.79086 23.119 6Z" fill="#E23D28"/>
</svg>
