<svg width="1em" height="1em" viewBox="0 0 25 24" fill="none" xmlns="http://www.w3.org/2000/svg">
<path fill-rule="evenodd" clip-rule="evenodd" d="M9.95289 3.49982C9.90998 3.34583 9.88729 3.17274 9.88729 2.97845C9.88729 1.60964 11.0136 0.5 12.4029 0.5C13.7923 0.5 14.9185 1.60964 14.9185 2.97845C14.9185 3.18865 14.892 3.37403 14.842 3.53726C15.8523 3.84348 16.8181 4.3068 17.5482 4.91147C18.9055 6.03546 19.8495 7.58328 20.2301 9.30857C20.4899 10.4863 20.5093 12.6612 20.5216 14.0417V14.0418C20.5273 14.6837 20.5315 15.1538 20.5576 15.272C20.5751 15.3511 20.6178 15.4801 20.672 15.6439C20.8732 16.2515 21.2327 17.3377 21.0495 18.1276C20.9634 18.4993 20.7953 18.8467 20.5576 19.1443C20.32 19.4419 20.0189 19.6822 19.6765 19.8473C19.3342 20.0124 18.9593 20.0981 18.5795 20.0982H16.4046C16.2106 21.0585 15.692 21.9218 14.9369 22.5419C14.1933 23.1526 13.2654 23.4896 12.3059 23.4998V23.5L12.2841 23.4999L12.2613 23.5V23.4997C11.3471 23.4891 10.4272 23.1521 9.71957 22.5419C9.00041 21.9218 8.50657 21.0585 8.32173 20.0982H6.25043C6.2307 20.0982 6.21098 20.0979 6.19127 20.0974H5.94703V20.0779C5.69041 20.0436 5.44002 19.9659 5.20563 19.8473C4.87957 19.6822 4.59279 19.4419 4.36648 19.1443C4.14016 18.8467 3.98007 18.4993 3.89803 18.1276C3.72357 17.3377 4.06599 16.2515 4.25756 15.6439C4.3092 15.4801 4.34988 15.3511 4.36652 15.272C4.39139 15.1537 4.39538 14.6836 4.40083 14.0417C4.41255 12.6612 4.43102 10.4863 4.67844 9.30857C5.04091 7.58328 5.93999 6.03546 7.2326 4.91147C7.95693 4.28162 8.93673 3.80513 9.95289 3.49982ZM13.2761 3.19192C13.2964 3.13653 13.3085 3.0675 13.3085 2.97845C13.3085 2.48568 12.9031 2.08621 12.4029 2.08621C11.9028 2.08621 11.4973 2.48568 11.4973 2.97845C11.4973 3.05451 11.5061 3.11597 11.5213 3.1668C11.7741 3.13522 12.022 3.11527 12.2613 3.10724V3.10588L12.2841 3.10651L12.3059 3.10588V3.10717C12.6189 3.11709 12.9446 3.14553 13.2761 3.19192ZM10 20.0982L9.99983 20.0974H14.6426L14.6424 20.0982C14.4682 20.5934 14.1459 21.0225 13.7196 21.3266C13.2996 21.6263 12.7989 21.7896 12.2841 21.7964C11.7928 21.7896 11.2789 21.6263 10.8789 21.3266C10.4729 21.0225 10.166 20.5934 10 20.0982ZM6.21607 18.3983H18.6156C18.7298 18.3934 18.842 18.3652 18.9453 18.3154C19.0594 18.2603 19.1598 18.1802 19.239 18.081C19.3182 17.9818 19.4486 17.7427 19.4486 17.5495C19.4486 17.0379 19.3616 16.836 19.2255 16.5203L19.2254 16.5203C19.1367 16.3144 19.027 16.0601 18.907 15.6398C18.7542 15.1048 18.748 13.9436 18.7415 12.7487V12.7487C18.7351 11.5658 18.7286 10.3501 18.5795 9.67644C18.2799 8.32239 17.5383 7.10783 16.4727 6.22584C15.413 5.3487 13.6609 4.84691 12.2841 4.80568C10.9726 4.84691 9.26611 5.3487 8.25687 6.22584C7.24204 7.10783 6.53581 8.32239 6.25044 9.67644C6.10847 10.3501 6.10221 11.5658 6.09613 12.7487C6.08998 13.9436 6.08401 15.1048 5.93851 15.6398C5.82422 16.0601 5.71979 16.3144 5.63524 16.5203C5.5056 16.836 5.42272 17.0379 5.4227 17.5495C5.42269 17.7427 5.54687 17.9818 5.62232 18.081C5.69776 18.1802 5.79337 18.2603 5.90208 18.3154C6.00046 18.3652 6.10729 18.3934 6.21607 18.3983Z" fill="currentColor"/>
</svg>
