<svg width="1em" height="1em" viewBox="0 0 32 32" fill="none" xmlns="http://www.w3.org/2000/svg">
<path fill-rule="evenodd" clip-rule="evenodd" d="M9.73295 14.1072C8.34595 14.3592 7.05695 15.0282 6.04595 16.0392C4.73695 17.3482 4.00195 19.1232 4.00195 20.9742V25.0132C4.00195 26.6702 5.34495 28.0132 7.00195 28.0132C11.186 28.0132 20.818 28.0132 25.002 28.0132C26.659 28.0132 28.002 26.6702 28.002 25.0132V20.9742C28.002 19.1232 27.267 17.3482 25.958 16.0392C24.947 15.0282 23.658 14.3592 22.271 14.1072C22.739 13.1682 23.002 12.1102 23.002 10.9902C23.002 7.12723 19.865 3.99023 16.002 3.99023C12.139 3.99023 9.00195 7.12723 9.00195 10.9902C9.00195 12.1102 9.26495 13.1682 9.73295 14.1072ZM21.996 16.0912V18.1702C23.16 18.5822 23.996 19.6942 23.996 21.0002C23.996 22.1012 24 22.9952 24 22.9952C24.003 23.5472 23.557 23.9972 23.005 24.0002C22.453 24.0022 22.003 23.5562 22 23.0052C22 23.0052 21.996 22.1062 21.996 21.0002C21.996 20.4482 21.55 20.0002 20.999 20.0002C20.448 20.0002 20.002 20.4482 20.002 21.0002L20 23.0012C19.999 23.5532 19.551 24.0012 18.999 24.0002C18.447 23.9992 17.999 23.5512 18 22.9992C18 22.9992 18.002 20.9992 18.002 21.0002C18.002 19.6962 18.835 18.5862 19.996 18.1722V16.7392C18.863 17.5282 17.486 17.9902 16.002 17.9902C14.513 17.9902 13.131 17.5242 11.996 16.7302V18.1712C13.161 18.5832 13.996 19.6952 13.996 21.0002C13.996 22.6562 12.652 24.0002 10.996 24.0002C9.33995 24.0002 7.99595 22.6562 7.99595 21.0002C7.99595 19.6952 8.83095 18.5832 9.99595 18.1712V16.0932C9.04195 16.2862 8.15895 16.7552 7.46095 17.4532C6.52695 18.3872 6.00195 19.6542 6.00195 20.9742V25.0132C6.00195 25.5652 6.44995 26.0132 7.00195 26.0132H25.002C25.554 26.0132 26.002 25.5652 26.002 25.0132V20.9742C26.002 19.6542 25.477 18.3872 24.544 17.4532C23.843 16.7522 22.954 16.2822 21.996 16.0912ZM10.996 20.0002C11.548 20.0002 11.996 20.4482 11.996 21.0002C11.996 21.5522 11.548 22.0002 10.996 22.0002C10.444 22.0002 9.99595 21.5522 9.99595 21.0002C9.99595 20.4482 10.444 20.0002 10.996 20.0002ZM16.002 5.99023C18.762 5.99023 21.002 8.23123 21.002 10.9902C21.002 13.7502 18.762 15.9902 16.002 15.9902C13.242 15.9902 11.002 13.7502 11.002 10.9902C11.002 8.23123 13.242 5.99023 16.002 5.99023Z" fill="currentColor"/>
</svg>
