<svg width="1em" height="1em" viewBox="0 0 25 24" fill="none" xmlns="http://www.w3.org/2000/svg">
<path d="M9.511 10.355C9.51153 10.5204 9.57761 10.6789 9.69476 10.7957C9.81192 10.9124 9.97059 10.978 10.136 10.978C10.136 10.978 11.208 10.978 11.622 10.966C13.154 10.94 14.254 9.60801 14.254 7.80001C14.254 5.90001 13.174 4.62201 11.568 4.62201H10.125C9.95906 4.62254 9.80009 4.68883 9.68294 4.80636C9.56578 4.92389 9.5 5.08306 9.5 5.24901V10.27C9.50271 10.2875 9.50638 10.3049 9.511 10.322V10.355ZM11.572 5.87201C12.631 5.87201 13.008 6.87201 13.008 7.80001C13.008 8.72801 12.574 9.70001 11.603 9.71601C11.403 9.71601 11.065 9.72301 10.759 9.72501L10.754 5.87201H11.572Z" fill="currentColor"/>
<path d="M6.70497 4.544H5.23997C5.15718 4.54413 5.07524 4.56079 4.99897 4.593C4.92422 4.62467 4.8563 4.67051 4.79897 4.728V4.735C4.74412 4.79095 4.70035 4.85677 4.66997 4.929C4.64996 4.98574 4.63784 5.04496 4.63397 5.105C4.63397 5.128 4.62097 5.147 4.62097 5.169V10.431C4.62097 10.5968 4.68682 10.7557 4.80403 10.8729C4.92124 10.9902 5.08021 11.056 5.24597 11.056C5.41173 11.056 5.5707 10.9902 5.68791 10.8729C5.80512 10.7557 5.87097 10.5968 5.87097 10.431V8.768H6.71097C7.27058 8.768 7.80727 8.5457 8.20297 8.14999C8.59867 7.75429 8.82097 7.21761 8.82097 6.658C8.82097 6.09839 8.59867 5.5617 8.20297 5.166C7.80727 4.7703 7.27058 4.548 6.71097 4.548L6.70497 4.544ZM6.70497 7.514H5.87297L5.86697 5.794H6.70497C6.93306 5.794 7.1518 5.88461 7.31308 6.04589C7.47436 6.20717 7.56497 6.42591 7.56497 6.654C7.56497 6.88208 7.47436 7.10083 7.31308 7.26211C7.1518 7.42339 6.93306 7.514 6.70497 7.514Z" fill="currentColor"/>
<path d="M19.5 0H5.5C4.17441 0.00158786 2.90356 0.528882 1.96622 1.46622C1.02888 2.40356 0.501588 3.67441 0.5 5L0.5 19C0.501588 20.3256 1.02888 21.5964 1.96622 22.5338C2.90356 23.4711 4.17441 23.9984 5.5 24H16.843C17.4999 24.0019 18.1507 23.8735 18.7576 23.6222C19.3646 23.3709 19.9157 23.0017 20.379 22.536L23.035 19.878C23.5007 19.4149 23.87 18.864 24.1215 18.2572C24.373 17.6504 24.5016 16.9998 24.5 16.343V5C24.4984 3.67441 23.9711 2.40356 23.0338 1.46622C22.0964 0.528882 20.8256 0.00158786 19.5 0ZM2.5 19V5C2.5 4.20435 2.81607 3.44129 3.37868 2.87868C3.94129 2.31607 4.70435 2 5.5 2H12.5H19.5C20.2956 2 21.0587 2.31607 21.6213 2.87868C22.1839 3.44129 22.5 4.20435 22.5 5V15H18.5C17.7044 15 16.9413 15.3161 16.3787 15.8787C15.8161 16.4413 15.5 17.2044 15.5 18V22H5.5C4.70435 22 3.94129 21.6839 3.37868 21.1213C2.81607 20.5587 2.5 19.7956 2.5 19ZM18.965 21.122C18.563 21.523 18.0547 21.8006 17.5 21.922V18C17.5 17.7348 17.6054 17.4804 17.7929 17.2929C17.9804 17.1054 18.2348 17 18.5 17H22.425C22.3013 17.5535 22.024 18.0609 21.625 18.464L18.965 21.122Z" fill="currentColor"/>
<path d="M16.75 10.438V8.638H17.989C18.1548 8.638 18.3137 8.57215 18.4309 8.45494C18.5482 8.33773 18.614 8.17876 18.614 8.013C18.614 7.84724 18.5482 7.68827 18.4309 7.57106C18.3137 7.45385 18.1548 7.388 17.989 7.388H16.75V6.25H18.138C18.3038 6.25 18.4627 6.18415 18.5799 6.06694C18.6972 5.94973 18.763 5.79076 18.763 5.625C18.763 5.45924 18.6972 5.30027 18.5799 5.18306C18.4627 5.06585 18.3038 5 18.138 5H16.125C15.9592 5 15.8003 5.06585 15.6831 5.18306C15.5658 5.30027 15.5 5.45924 15.5 5.625V10.438C15.5 10.6038 15.5658 10.7627 15.6831 10.8799C15.8003 10.9972 15.9592 11.063 16.125 11.063C16.2908 11.063 16.4497 10.9972 16.5669 10.8799C16.6842 10.7627 16.75 10.6038 16.75 10.438Z" fill="currentColor"/>
</svg>
