<svg width="1em" height="1em" viewBox="0 0 25 24" fill="none" xmlns="http://www.w3.org/2000/svg">
<path fill-rule="evenodd" clip-rule="evenodd" d="M0.5 12C0.5 5.37686 5.87686 0 12.5 0C19.1223 0 24.5 5.37686 24.5 12C24.5 18.6223 19.1223 24 12.5 24C5.87686 24 0.5 18.6223 0.5 12ZM22.7857 12C22.7857 6.32314 18.1769 1.71429 12.5 1.71429C6.82314 1.71429 2.21429 6.32314 2.21429 12C2.21429 17.6769 6.82314 22.2857 12.5 22.2857C18.1769 22.2857 22.7857 17.6769 22.7857 12ZM6.51027 8.57486H9.06113V6.04372C9.06113 4.62343 10.2123 3.47229 11.6326 3.47229H13.3666C14.7868 3.47229 15.938 4.62343 15.938 6.04372V8.57486H18.5103C19.9306 8.57486 21.0817 9.726 21.0817 11.1463V12.8803C21.0817 14.3006 19.9306 15.4517 18.5103 15.4517H15.938V18.0214C15.938 19.4417 14.7868 20.5929 13.3666 20.5929H11.6326C10.2123 20.5929 9.06113 19.4417 9.06113 18.0214V15.4517H6.51027C5.08999 15.4517 3.93884 14.3006 3.93884 12.8803V11.1463C3.93884 9.726 5.08999 8.57486 6.51027 8.57486ZM10.7754 9.432C10.7754 9.90515 10.3914 10.2891 9.91827 10.2891H6.51027C6.03713 10.2891 5.65313 10.6723 5.65313 11.1463V12.8803C5.65313 13.3534 6.03713 13.7374 6.51027 13.7374H9.91827C10.3914 13.7374 10.7754 14.1206 10.7754 14.5946V18.0214C10.7754 18.4954 11.1586 18.8786 11.6326 18.8786H13.3666C13.8397 18.8786 14.2237 18.4954 14.2237 18.0214V14.5946C14.2237 14.1206 14.6068 13.7374 15.0808 13.7374H18.5103C18.9834 13.7374 19.3674 13.3534 19.3674 12.8803V11.1463C19.3674 10.6723 18.9834 10.2891 18.5103 10.2891H15.0808C14.6068 10.2891 14.2237 9.90515 14.2237 9.432V6.04372C14.2237 5.56972 13.8397 5.18658 13.3666 5.18658H11.6326C11.1586 5.18658 10.7754 5.56972 10.7754 6.04372V9.432Z" fill="currentColor"/>
</svg>
