<svg width="1em" height="1em" viewBox="0 0 25 24" fill="none" xmlns="http://www.w3.org/2000/svg">
<path fill-rule="evenodd" clip-rule="evenodd" d="M8.20374 3.23337C8.01882 3.07434 7.78239 2.98798 7.5385 2.99038C7.53635 2.9904 7.5342 2.99041 7.53205 2.99042C7.5309 2.99042 7.52976 2.99042 7.52861 2.99042H4.51388C4.37449 2.99061 4.23666 3.0198 4.10915 3.07612C3.98151 3.1325 3.86701 3.21483 3.77294 3.31789C3.67886 3.42095 3.60728 3.54246 3.56274 3.6747C3.51891 3.80484 3.50222 3.94256 3.51367 4.07936C3.82801 7.02582 4.83127 9.85702 6.44239 12.344C6.44399 12.3465 6.44558 12.349 6.44715 12.3514C7.91116 14.6554 9.86448 16.6087 12.1684 18.0727C12.1696 18.0735 12.1708 18.0742 12.1721 18.075C12.1734 18.0759 12.1748 18.0768 12.1762 18.0777C14.6516 19.683 17.4685 20.6859 20.4013 21.0063C20.5382 21.0176 20.676 21.0007 20.8061 20.9567C20.9387 20.9119 21.0605 20.8398 21.1636 20.7452C21.2667 20.6506 21.349 20.5355 21.4051 20.4072C21.4611 20.279 21.4898 20.1405 21.4892 20.0005L21.4892 19.9964V16.9812C21.4892 16.9729 21.4893 16.9646 21.4895 16.9563C21.4956 16.7098 21.411 16.4697 21.2516 16.2816C21.093 16.0944 20.8715 15.9717 20.6287 15.9366C19.5905 15.7993 18.5711 15.5451 17.5899 15.179L17.5876 15.1781C17.4077 15.1105 17.2123 15.0959 17.0243 15.136C16.8371 15.1759 16.6652 15.2685 16.5288 15.4027C16.5283 15.4033 16.5278 15.4038 16.5273 15.4043L15.2548 16.6768C14.9349 16.9967 14.4406 17.0634 14.0473 16.8398C11.3737 15.3195 9.16009 13.1059 7.63988 10.4324C7.41623 10.039 7.48296 9.54478 7.80289 9.22485L9.07701 7.95072C9.21125 7.81435 9.30377 7.64248 9.34369 7.45531C9.38377 7.26737 9.36913 7.07189 9.30152 6.89202L9.30067 6.88975C8.93454 5.90857 8.68039 4.88919 8.54304 3.85099C8.50819 3.61096 8.3877 3.39158 8.20374 3.23337ZM7.52416 0.980257C8.25389 0.974391 8.96107 1.23338 9.51445 1.70929C10.0692 2.18639 10.4316 2.84893 10.534 3.57342C10.5344 3.5765 10.5348 3.57958 10.5352 3.58266C10.6525 4.47213 10.8701 5.34548 11.1836 6.18606C11.3861 6.72531 11.4298 7.31126 11.3096 7.87459C11.1894 8.43839 10.9101 8.9559 10.5047 9.36581C10.5034 9.36714 10.5021 9.36847 10.5007 9.3698L9.78001 10.0905C10.9618 11.9446 12.5351 13.5178 14.3891 14.6996L15.1098 13.9789C15.1112 13.9776 15.1125 13.9762 15.1138 13.9749C15.5237 13.5696 16.0413 13.2902 16.6051 13.17C17.1684 13.0499 17.7543 13.0936 18.2936 13.296C19.1342 13.6096 20.0075 13.8271 20.897 13.9444C20.8988 13.9447 20.9007 13.9449 20.9025 13.9452L20.906 13.9456C21.6383 14.049 22.3071 14.4178 22.7853 14.9821C23.2604 15.5429 23.5143 16.2578 23.4994 16.9924V19.9949C23.5007 20.4139 23.4147 20.8286 23.2469 21.2125C23.0786 21.5973 22.8319 21.9426 22.5225 22.2265C22.2132 22.5103 21.8479 22.7264 21.4501 22.8609C21.0524 22.9954 20.6309 23.0454 20.2127 23.0076C20.2067 23.0071 20.2007 23.0065 20.1946 23.0058C16.9471 22.6529 13.8275 21.5436 11.0863 19.7668C8.5363 18.1456 6.37407 15.9833 4.75289 13.4332C2.96986 10.6796 1.8602 7.54478 1.51378 4.28256C1.51322 4.27734 1.51271 4.27211 1.51224 4.26688C1.47456 3.84997 1.52411 3.42979 1.65772 3.03308C1.79134 2.63637 2.00609 2.27182 2.28831 1.96266C2.57053 1.65349 2.91403 1.40648 3.29695 1.23734C3.67987 1.0682 4.0938 0.980652 4.51241 0.980258L7.52416 0.980257Z" fill="currentColor"/>
</svg>
