<svg width="1em" height="1em" viewBox="0 0 25 24" fill="none" xmlns="http://www.w3.org/2000/svg">
<path d="M19.5 6V4C19.5 2.93913 19.0786 1.92172 18.3284 1.17157C17.5783 0.421427 16.5609 0 15.5 0L9.5 0C8.43913 0 7.42172 0.421427 6.67157 1.17157C5.92143 1.92172 5.5 2.93913 5.5 4V6C4.17441 6.00159 2.90356 6.52888 1.96622 7.46622C1.02888 8.40356 0.501588 9.67441 0.5 11L0.5 16C0.501588 17.3256 1.02888 18.5964 1.96622 19.5338C2.90356 20.4711 4.17441 20.9984 5.5 21C5.5 21.7956 5.81607 22.5587 6.37868 23.1213C6.94129 23.6839 7.70435 24 8.5 24H16.5C17.2956 24 18.0587 23.6839 18.6213 23.1213C19.1839 22.5587 19.5 21.7956 19.5 21C20.8256 20.9984 22.0964 20.4711 23.0338 19.5338C23.9711 18.5964 24.4984 17.3256 24.5 16V11C24.4984 9.67441 23.9711 8.40356 23.0338 7.46622C22.0964 6.52888 20.8256 6.00159 19.5 6ZM7.5 4C7.5 3.46957 7.71071 2.96086 8.08579 2.58579C8.46086 2.21071 8.96957 2 9.5 2H15.5C16.0304 2 16.5391 2.21071 16.9142 2.58579C17.2893 2.96086 17.5 3.46957 17.5 4V6H7.5V4ZM17.5 21C17.5 21.2652 17.3946 21.5196 17.2071 21.7071C17.0196 21.8946 16.7652 22 16.5 22H8.5C8.23478 22 7.98043 21.8946 7.79289 21.7071C7.60536 21.5196 7.5 21.2652 7.5 21V17C7.5 16.7348 7.60536 16.4804 7.79289 16.2929C7.98043 16.1054 8.23478 16 8.5 16H16.5C16.7652 16 17.0196 16.1054 17.2071 16.2929C17.3946 16.4804 17.5 16.7348 17.5 17V21ZM22.5 16C22.5 16.7956 22.1839 17.5587 21.6213 18.1213C21.0587 18.6839 20.2956 19 19.5 19V17C19.5 16.2044 19.1839 15.4413 18.6213 14.8787C18.0587 14.3161 17.2956 14 16.5 14H8.5C7.70435 14 6.94129 14.3161 6.37868 14.8787C5.81607 15.4413 5.5 16.2044 5.5 17V19C4.70435 19 3.94129 18.6839 3.37868 18.1213C2.81607 17.5587 2.5 16.7956 2.5 16V11C2.5 10.2044 2.81607 9.44129 3.37868 8.87868C3.94129 8.31607 4.70435 8 5.5 8H19.5C20.2956 8 21.0587 8.31607 21.6213 8.87868C22.1839 9.44129 22.5 10.2044 22.5 11V16Z" fill="currentColor"/>
<path d="M18.5 10H16.5C16.2348 10 15.9804 10.1054 15.7929 10.2929C15.6054 10.4804 15.5 10.7348 15.5 11C15.5 11.2652 15.6054 11.5196 15.7929 11.7071C15.9804 11.8946 16.2348 12 16.5 12H18.5C18.7652 12 19.0196 11.8946 19.2071 11.7071C19.3946 11.5196 19.5 11.2652 19.5 11C19.5 10.7348 19.3946 10.4804 19.2071 10.2929C19.0196 10.1054 18.7652 10 18.5 10Z" fill="currentColor"/>
</svg>
