<svg width="1em" height="1em" viewBox="0 0 25 24" fill="none" xmlns="http://www.w3.org/2000/svg">
<path d="M23.619 0.881999C23.2605 0.519126 22.8144 0.254854 22.3239 0.114715C21.8335 -0.0254238 21.3151 -0.0366921 20.819 0.0819987L4.81901 3.452C3.89759 3.57837 3.02974 3.95948 2.31321 4.55241C1.59668 5.14535 1.05992 5.92656 0.763385 6.80806C0.466847 7.68957 0.422307 8.63636 0.634782 9.54181C0.847257 10.4473 1.30831 11.2754 1.96601 11.933L3.68401 13.65C3.77699 13.743 3.85073 13.8533 3.90101 13.9748C3.95129 14.0963 3.97711 14.2265 3.97701 14.358V17.526C3.97922 17.9714 4.08176 18.4106 4.27701 18.811L4.26901 18.818L4.29501 18.844C4.58802 19.4331 5.06659 19.9096 5.65701 20.2L5.68301 20.226L5.69001 20.218C6.09037 20.4133 6.52958 20.5158 6.97501 20.518H10.143C10.4081 20.5178 10.6624 20.6228 10.85 20.81L12.567 22.527C13.0275 22.9926 13.5757 23.3625 14.1798 23.6153C14.7839 23.8681 15.4321 23.9989 16.087 24C16.6328 23.9993 17.1748 23.9102 17.692 23.736C18.5655 23.4492 19.3414 22.924 19.9322 22.2197C20.5231 21.5154 20.9054 20.66 21.036 19.75L24.411 3.715C24.5359 3.21464 24.5285 2.69042 24.3897 2.19376C24.2508 1.6971 23.9852 1.24507 23.619 0.881999ZM5.10001 12.238L3.38101 10.521C2.98073 10.1304 2.70018 9.63365 2.5723 9.08916C2.44441 8.54467 2.47449 7.97499 2.65901 7.447C2.83791 6.90532 3.16862 6.42642 3.61181 6.06726C4.055 5.7081 4.59202 5.48379 5.15901 5.421L21 2.086L5.97501 17.113V14.358C5.97652 13.9643 5.89997 13.5743 5.74978 13.2104C5.59959 12.8465 5.37874 12.516 5.10001 12.238ZM19.071 19.408C18.9942 19.9603 18.765 20.4803 18.4091 20.9096C18.0532 21.3389 17.5847 21.6605 17.0561 21.8384C16.5276 22.0162 15.96 22.0431 15.4169 21.9162C14.8739 21.7893 14.377 21.5136 13.982 21.12L12.262 19.4C11.9844 19.1208 11.6542 18.8995 11.2904 18.7488C10.9267 18.5981 10.5367 18.521 10.143 18.522H7.38801L22.415 3.5L19.071 19.408Z" fill="currentColor"/>
</svg>
