<svg width="1em" height="1em" viewBox="0 0 24 25" fill="none" xmlns="http://www.w3.org/2000/svg">
<path d="M19.333 14.917C18.5769 14.9176 17.8323 15.1022 17.1635 15.4548C16.4947 15.8074 15.9217 16.3175 15.494 16.941L8.98499 14.002C9.4473 12.8856 9.4491 11.6317 8.98999 10.514L15.49 7.56C16.1239 8.47676 17.0653 9.13597 18.1436 9.41805C19.2219 9.70013 20.3655 9.58641 21.3671 9.0975C22.3687 8.6086 23.1619 7.7769 23.6028 6.75327C24.0438 5.72964 24.1032 4.58187 23.7704 3.51818C23.4375 2.45448 22.7345 1.5453 21.7887 0.955558C20.843 0.365817 19.7172 0.134576 18.6155 0.303779C17.5139 0.472983 16.5094 1.03142 15.7842 1.87781C15.0591 2.72419 14.6613 3.80245 14.663 4.917C14.6672 5.1808 14.694 5.44376 14.743 5.703L7.83299 8.843C7.16933 8.22122 6.3385 7.80684 5.44257 7.65076C4.54663 7.49469 3.62462 7.60372 2.7898 7.96446C1.95498 8.3252 1.24372 8.92194 0.74339 9.68137C0.243061 10.4408 -0.0245409 11.3298 -0.026539 12.2393C-0.0285372 13.1487 0.235155 14.0389 0.732142 14.8005C1.22913 15.5621 1.93777 16.162 2.77099 16.5264C3.60422 16.8908 4.52574 17.0039 5.42235 16.8517C6.31896 16.6996 7.15161 16.2889 7.81799 15.67L14.746 18.798C14.6979 19.057 14.6714 19.3196 14.667 19.583C14.6668 20.5061 14.9404 21.4086 15.4531 22.1762C15.9658 22.9439 16.6947 23.5422 17.5475 23.8956C18.4004 24.2489 19.3388 24.3414 20.2442 24.1614C21.1496 23.9813 21.9813 23.5368 22.6341 22.8841C23.2868 22.2313 23.7313 21.3996 23.9114 20.4942C24.0914 19.5888 23.9989 18.6504 23.6455 17.7976C23.2922 16.9447 22.6939 16.2159 21.9262 15.7031C21.1586 15.1904 20.2561 14.9168 19.333 14.917ZM19.333 2.25C19.8605 2.24981 20.3763 2.40605 20.815 2.69899C21.2537 2.99192 21.5957 3.40838 21.7977 3.89569C21.9997 4.38301 22.0527 4.91928 21.9499 5.4367C21.8471 5.95411 21.5931 6.42942 21.2202 6.8025C20.8473 7.17559 20.372 7.4297 19.8547 7.53268C19.3373 7.63567 18.801 7.58291 18.3136 7.38109C17.8262 7.17926 17.4096 6.83742 17.1165 6.39881C16.8234 5.96021 16.667 5.44453 16.667 4.917C16.6675 4.21001 16.9485 3.5321 17.4484 3.03209C17.9482 2.53207 18.626 2.2508 19.333 2.25ZM4.66699 14.917C4.13947 14.9172 3.62373 14.761 3.18502 14.468C2.7463 14.1751 2.40431 13.7586 2.20229 13.2713C2.00028 12.784 1.94732 12.2477 2.05012 11.7303C2.15291 11.2129 2.40684 10.7376 2.77979 10.3645C3.15273 9.99142 3.62795 9.73731 4.14532 9.63432C4.66269 9.53133 5.19899 9.58409 5.68638 9.78592C6.17377 9.98775 6.59036 10.3296 6.88345 10.7682C7.17655 11.2068 7.33299 11.7225 7.33299 12.25C7.3322 12.9569 7.0511 13.6347 6.55132 14.1346C6.05155 14.6346 5.37391 14.9159 4.66699 14.917ZM19.333 22.25C18.8055 22.25 18.2899 22.0936 17.8513 21.8005C17.4127 21.5075 17.0709 21.091 16.869 20.6036C16.6671 20.1163 16.6143 19.58 16.7172 19.0627C16.8201 18.5454 17.0742 18.0701 17.4471 17.6971C17.8201 17.3242 18.2953 17.0702 18.8127 16.9672C19.33 16.8643 19.8663 16.9172 20.3536 17.119C20.8409 17.3209 21.2575 17.6627 21.5505 18.1013C21.8436 18.5399 22 19.0555 22 19.583C21.9995 20.2902 21.7183 20.9682 21.2183 21.4683C20.7182 21.9683 20.0402 22.2495 19.333 22.25Z" fill="currentColor"/>
</svg>
