<svg width="1em" height="1em" viewBox="0 0 25 24" fill="none" xmlns="http://www.w3.org/2000/svg">
<path d="M16.5 0H16.37C15.9225 0.00425181 15.489 0.157013 15.1377 0.434299C14.7864 0.711585 14.5371 1.09769 14.429 1.532C14.3132 1.95484 14.0617 2.32792 13.7132 2.59385C13.3647 2.85979 12.9384 3.00383 12.5 3.00383C12.0616 3.00383 11.6353 2.85979 11.2868 2.59385C10.9383 2.32792 10.6868 1.95484 10.571 1.532C10.4629 1.09769 10.2136 0.711585 9.86231 0.434299C9.51099 0.157013 9.07754 0.00425181 8.63 0L8.5 0C7.17441 0.00158786 5.90356 0.528882 4.96622 1.46622C4.02888 2.40356 3.50159 3.67441 3.5 5V21C3.5 21.7956 3.81607 22.5587 4.37868 23.1213C4.94129 23.6839 5.70435 24 6.5 24H8.63C9.07754 23.9957 9.51099 23.843 9.86231 23.5657C10.2136 23.2884 10.4629 22.9023 10.571 22.468C10.6868 22.0452 10.9383 21.6721 11.2868 21.4061C11.6353 21.1402 12.0616 20.9962 12.5 20.9962C12.9384 20.9962 13.3647 21.1402 13.7132 21.4061C14.0617 21.6721 14.3132 22.0452 14.429 22.468C14.5371 22.9023 14.7864 23.2884 15.1377 23.5657C15.489 23.843 15.9225 23.9957 16.37 24H18.5C19.2956 24 20.0587 23.6839 20.6213 23.1213C21.1839 22.5587 21.5 21.7956 21.5 21V5C21.4984 3.67441 20.9711 2.40356 20.0338 1.46622C19.0964 0.528882 17.8256 0.00158786 16.5 0V0ZM18.5 22L16.357 21.937C16.1221 21.0884 15.6138 20.341 14.9109 19.8108C14.208 19.2805 13.3498 18.997 12.4693 19.0042C11.5889 19.0113 10.7354 19.3088 10.0412 19.8505C9.34706 20.3921 8.85101 21.1477 8.63 22H6.5C6.23478 22 5.98043 21.8946 5.79289 21.7071C5.60536 21.5196 5.5 21.2652 5.5 21V17H7.5C7.76522 17 8.01957 16.8946 8.20711 16.7071C8.39464 16.5196 8.5 16.2652 8.5 16C8.5 15.7348 8.39464 15.4804 8.20711 15.2929C8.01957 15.1054 7.76522 15 7.5 15H5.5V5C5.5 4.20435 5.81607 3.44129 6.37868 2.87868C6.94129 2.31607 7.70435 2 8.5 2L8.643 2.063C8.87722 2.90643 9.381 3.65004 10.0774 4.18035C10.7738 4.71066 11.6247 4.99852 12.5 5C13.3872 4.99245 14.2476 4.6953 14.9503 4.15376C15.653 3.61222 16.1596 2.85595 16.393 2H16.5C17.2956 2 18.0587 2.31607 18.6213 2.87868C19.1839 3.44129 19.5 4.20435 19.5 5V15H17.5C17.2348 15 16.9804 15.1054 16.7929 15.2929C16.6054 15.4804 16.5 15.7348 16.5 16C16.5 16.2652 16.6054 16.5196 16.7929 16.7071C16.9804 16.8946 17.2348 17 17.5 17H19.5V21C19.5 21.2652 19.3946 21.5196 19.2071 21.7071C19.0196 21.8946 18.7652 22 18.5 22Z" fill="currentColor"/>
<path d="M13.5 15H11.5C11.2348 15 10.9804 15.1054 10.7929 15.2929C10.6054 15.4804 10.5 15.7348 10.5 16C10.5 16.2652 10.6054 16.5196 10.7929 16.7071C10.9804 16.8946 11.2348 17 11.5 17H13.5C13.7652 17 14.0196 16.8946 14.2071 16.7071C14.3946 16.5196 14.5 16.2652 14.5 16C14.5 15.7348 14.3946 15.4804 14.2071 15.2929C14.0196 15.1054 13.7652 15 13.5 15Z" fill="currentColor"/>
</svg>
