<svg width="1em" height="1em" viewBox="0 0 25 24" fill="none" xmlns="http://www.w3.org/2000/svg">
<path fill-rule="evenodd" clip-rule="evenodd" d="M14.621 0.875L19.207 5.462C19.3025 5.55425 19.3787 5.66459 19.4311 5.7866C19.4835 5.9086 19.5111 6.03982 19.5123 6.1726C19.5134 6.30538 19.4881 6.43706 19.4378 6.55995C19.3876 6.68285 19.3133 6.7945 19.2194 6.88839C19.1255 6.98229 19.0139 7.05654 18.891 7.10682C18.7681 7.1571 18.6364 7.1824 18.5036 7.18125C18.3708 7.1801 18.2396 7.15251 18.1176 7.1001C17.9956 7.04769 17.8853 6.97151 17.793 6.876L13.5 2.583V18C13.5 18.2652 13.3947 18.5196 13.2071 18.7071C13.0196 18.8946 12.7652 19 12.5 19C12.2348 19 11.9804 18.8946 11.7929 18.7071C11.6054 18.5196 11.5 18.2652 11.5 18V2.584L7.20702 6.876C7.11477 6.97151 7.00443 7.04769 6.88242 7.1001C6.76042 7.15251 6.6292 7.1801 6.49642 7.18125C6.36364 7.1824 6.23196 7.1571 6.10907 7.10682C5.98617 7.05654 5.87452 6.98229 5.78062 6.88839C5.68673 6.7945 5.61248 6.68285 5.5622 6.55995C5.51192 6.43706 5.48662 6.30538 5.48777 6.1726C5.48892 6.03982 5.51651 5.9086 5.56892 5.7866C5.62133 5.66459 5.69751 5.55425 5.79302 5.462L10.379 0.875C10.9425 0.314295 11.7051 -0.000473022 12.5 -0.000473022C13.2949 -0.000473022 14.0575 0.314295 14.621 0.875ZM22.2071 21.7071C22.3946 21.5196 22.5 21.2652 22.5 21V17C22.5 16.7348 22.6054 16.4804 22.7929 16.2929C22.9804 16.1054 23.2348 16 23.5 16C23.7652 16 24.0196 16.1054 24.2071 16.2929C24.3946 16.4804 24.5 16.7348 24.5 17V21C24.5 21.7956 24.1839 22.5587 23.6213 23.1213C23.0587 23.6839 22.2956 24 21.5 24H3.5C2.70435 24 1.94129 23.6839 1.37868 23.1213C0.81607 22.5587 0.5 21.7956 0.5 21V17C0.5 16.7348 0.605357 16.4804 0.792893 16.2929C0.98043 16.1054 1.23478 16 1.5 16C1.76522 16 2.01957 16.1054 2.20711 16.2929C2.39464 16.4804 2.5 16.7348 2.5 17V21C2.5 21.2652 2.60536 21.5196 2.79289 21.7071C2.98043 21.8946 3.23478 22 3.5 22H21.5C21.7652 22 22.0196 21.8946 22.2071 21.7071Z" fill="currentColor"/>
</svg>
