<svg width="1em" height="1em" viewBox="0 0 25 24" fill="none" xmlns="http://www.w3.org/2000/svg">
<path fill-rule="evenodd" clip-rule="evenodd" d="M19.38 2.56C21.324 2.56 22.9 4.13596 22.9 6.08V9.28H20.98V6.4C20.98 5.33961 20.1204 4.48 19.06 4.48H4.34C3.27961 4.48 2.42 5.33961 2.42 6.4V17.6C2.42 18.6604 3.27961 19.52 4.34 19.52H19.06C20.1204 19.52 20.98 18.6604 20.98 17.6V14.72H22.9V17.92C22.9 19.864 21.324 21.44 19.38 21.44H4.02C2.07596 21.44 0.5 19.864 0.5 17.92V6.08C0.5 4.13596 2.07596 2.56 4.02 2.56H19.38Z" fill="currentColor"/>
<path fill-rule="evenodd" clip-rule="evenodd" d="M22.58 7.36C23.6404 7.36 24.5 8.21961 24.5 9.28V14.72C24.5 15.7804 23.6404 16.64 22.58 16.64H15.54C12.9774 16.64 10.9 14.5626 10.9 12C10.9 9.4374 12.9774 7.36 15.54 7.36H22.58ZM15.54 11.04C15.0098 11.04 14.58 11.4698 14.58 12C14.58 12.5302 15.0098 12.96 15.54 12.96C16.0702 12.96 16.5 12.5302 16.5 12C16.5 11.4698 16.0702 11.04 15.54 11.04ZM15.54 9.28H21.94C22.2935 9.28 22.58 9.56654 22.58 9.92V14.08C22.58 14.4335 22.2935 14.72 21.94 14.72H15.54C14.0378 14.72 12.82 13.5022 12.82 12C12.82 10.4978 14.0378 9.28 15.54 9.28Z" fill="currentColor"/>
</svg>
