<svg width="1em" height="1em" viewBox="0 0 24 25" fill="none" xmlns="http://www.w3.org/2000/svg">
<path fill-rule="evenodd" clip-rule="evenodd" d="M17.0002 0.113403H7.00015C5.67456 0.114991 4.40371 0.642285 3.46637 1.57962C2.52903 2.51696 2.00174 3.78781 2.00015 5.1134V19.1134C2.00174 20.439 2.52903 21.7098 3.46637 22.6472C4.40371 23.5845 5.67456 24.1118 7.00015 24.1134H17.0002C18.3257 24.1118 19.5966 23.5845 20.5339 22.6472C21.4713 21.7098 21.9986 20.439 22.0002 19.1134V5.1134C21.9986 3.78781 21.4713 2.51696 20.5339 1.57962C19.5966 0.642285 18.3257 0.114991 17.0002 0.113403ZM7.00015 2.1134H17.0002C17.7958 2.1134 18.5589 2.42947 19.1215 2.99208C19.6841 3.55469 20.0002 4.31775 20.0002 5.1134V11.1134H4.00015V5.1134C4.00015 4.31775 4.31622 3.55469 4.87883 2.99208C5.44144 2.42947 6.2045 2.1134 7.00015 2.1134ZM17.0002 22.1134H7.00015C6.2045 22.1134 5.44144 21.7973 4.87883 21.2347C4.31622 20.6721 4.00015 19.909 4.00015 19.1134V13.1134H20.0002V19.1134C20.0002 19.909 19.6841 20.6721 19.1215 21.2347C18.5589 21.7973 17.7958 22.1134 17.0002 22.1134ZM10.9998 7.1134H12.9998C13.2651 7.1134 13.5194 7.00804 13.7069 6.82051C13.8945 6.63297 13.9998 6.37862 13.9998 6.1134C13.9998 5.84819 13.8945 5.59383 13.7069 5.4063C13.5194 5.21876 13.2651 5.1134 12.9998 5.1134H10.9998C10.7346 5.1134 10.4803 5.21876 10.2927 5.4063C10.1052 5.59383 9.99985 5.84819 9.99985 6.1134C9.99985 6.37862 10.1052 6.63297 10.2927 6.82051C10.4803 7.00804 10.7346 7.1134 10.9998 7.1134ZM10.9998 17.1134H12.9998C13.2651 17.1134 13.5194 17.2188 13.7069 17.4063C13.8945 17.5938 13.9998 17.8482 13.9998 18.1134C13.9998 18.3786 13.8945 18.633 13.7069 18.8205C13.5194 19.0081 13.2651 19.1134 12.9998 19.1134H10.9998C10.7346 19.1134 10.4803 19.0081 10.2927 18.8205C10.1052 18.633 9.99985 18.3786 9.99985 18.1134C9.99985 17.8482 10.1052 17.5938 10.2927 17.4063C10.4803 17.2188 10.7346 17.1134 10.9998 17.1134Z" fill="currentColor"/>
</svg>
