<svg
	width="1em"
	height="1em"
	viewBox="0 0 12 8"
	fill="none"
	xmlns="http://www.w3.org/2000/svg"
>
	<path
		d="M5.99663 0.789845C5.76628 0.791094 5.55788 0.879549 5.38661 1.05951L0.228041 6.34432C0.0799904 6.49241 0 6.67561 0 6.89011C0 7.33266 0.343553 7.6817 0.78243 7.6817C0.996872 7.6817 1.19661 7.59566 1.34958 7.44457L6.32833 2.33848H5.6656L10.6492 7.44457C10.7978 7.59322 10.9963 7.6817 11.2176 7.6817C11.6577 7.6817 12 7.33266 12 6.89011C12 6.67683 11.9188 6.49364 11.7732 6.33876L6.6122 1.05951C6.42982 0.877121 6.23131 0.789845 5.99663 0.789845Z"
		fill="currentColor"
	/>
</svg>
