<svg width="1em" height="1em" viewBox="0 0 12 8" fill="none" xmlns="http://www.w3.org/2000/svg">
	<path d="M6.00337 7.21015C6.23372 7.20891 6.44212 7.12045 6.61339 6.94049L11.772 1.65568C11.92 1.50759 12 1.32439 12 1.10989C12 0.667344 11.6564 0.318298 11.2176 0.318298C11.0031 0.318298 10.8034 0.404341 10.6504 0.555426L5.67167 5.66152H6.3344L1.3508 0.555426C1.20216 0.40678 1.00365 0.318298 0.782374 0.318298C0.342273 0.318298 0 0.667344 0 1.10989C0 1.32317 0.0811644 1.50636 0.226827 1.66124L5.3878 6.94049C5.57018 7.12288 5.76869 7.21015 6.00337 7.21015Z" fill="currentColor"/>
</svg>
