<svg height="1em" width="1em"  viewBox="0 0 10 10" fill="none" xmlns="http://www.w3.org/2000/svg">
<path d="M9.98643 7.478L9.97971 0.67611C9.97971 0.290716 9.7295 0.0202637 9.32384 0.0202637H2.52197C2.14333 0.0202637 1.8864 0.311 1.8864 0.635543C1.8864 0.960086 2.17714 1.2373 2.49493 1.2373H4.84785L8.14739 1.12912L6.88977 2.23121L0.189317 8.94517C0.067613 9.06689 0 9.22239 0 9.37118C0 9.69569 0.290736 9.99998 0.628801 9.99998C0.78431 9.99998 0.933063 9.94584 1.05477 9.81741L7.76874 3.11018L8.88433 1.84582L8.76262 5.00335V7.505C8.76262 7.82279 9.03984 8.1203 9.3712 8.1203C9.69571 8.1203 9.98643 7.84308 9.98643 7.478Z" fill='currentColor'/>
</svg>
