<svg width="1em" height="1em" viewBox="0 0 22 23" fill="none" xmlns="http://www.w3.org/2000/svg">
<path d="M3.67969 22.3477H17.8945C20.3555 22.3477 21.5742 21.1289 21.5742 18.7148V4.40625C21.5742 1.99219 20.3555 0.773438 17.8945 0.773438H3.67969C1.23047 0.773438 0 1.98047 0 4.40625V18.7148C0 21.1406 1.23047 22.3477 3.67969 22.3477ZM3.70312 20.4609C2.53125 20.4609 1.88672 19.8398 1.88672 18.6211V4.5C1.88672 3.28125 2.53125 2.66016 3.70312 2.66016H17.8711C19.0312 2.66016 19.6875 3.28125 19.6875 4.5V18.6211C19.6875 19.8398 19.0312 20.4609 17.8711 20.4609H3.70312Z" fill="currentColor" style="fill:currentColor;fill-opacity:1;"/>
<path d="M17.5547 12.5508L17.5078 8.4375C17.5078 8.23828 17.4141 8.01562 17.2852 7.875C16.9805 7.55859 16.5352 7.55859 16.2188 7.875C16.0781 8.01562 15.9844 8.21484 15.9961 8.41406L16.0195 10.1602L16.0547 10.793L15.6797 10.3945L10.3125 5.01562C9.99609 4.71094 9.52734 4.71094 9.23438 5.01562C8.91797 5.33203 8.92969 5.78906 9.23438 6.09375L14.6016 11.4727L15.0234 11.8477L14.3555 11.8242L12.6211 11.8008C12.4219 11.8008 12.2344 11.8711 12.082 12.0234C11.7773 12.3281 11.7773 12.7617 12.0938 13.0664C12.2109 13.207 12.4219 13.2891 12.6328 13.3008L16.7578 13.3477C17.1797 13.3594 17.5547 12.9844 17.5547 12.5508ZM4.04297 10.5469L4.08984 14.6836C4.10156 14.8945 4.17188 15.1055 4.28906 15.2344C4.60547 15.5391 5.0625 15.5391 5.36719 15.2344C5.50781 15.082 5.57812 14.8945 5.57812 14.6953L5.55469 12.9492L5.50781 12.293L5.90625 12.7148L11.2852 18.082C11.5898 18.3984 12.0469 18.3867 12.3516 18.082C12.668 17.7656 12.668 17.3203 12.3516 17.0156L6.97266 11.625L6.55078 11.2617L7.21875 11.2852L8.97656 11.3203C9.16406 11.3203 9.35156 11.2383 9.50391 11.0977C9.80859 10.793 9.80859 10.3594 9.49219 10.0312C9.36328 9.90234 9.14062 9.80859 8.95312 9.80859L4.82812 9.77344C4.39453 9.77344 4.04297 10.1016 4.04297 10.5469Z" fill="currentColor" style="fill:currentColor;fill-opacity:1;"/>
</svg>
