<svg height="1em" width="1em" viewBox="0 0 10 10" fill="none" xmlns="http://www.w3.org/2000/svg">
<path d="M4.99902 0C4.72375 0 4.52788 0.190576 4.52788 0.465854V7.43778L4.58082 9.01536L4.87727 8.90943L2.98209 6.82902L1.7751 5.64321C1.69569 5.55848 1.56865 5.51615 1.44159 5.51615C1.1769 5.51615 0.986328 5.71731 0.986328 5.9767C0.986328 6.10377 1.03397 6.21489 1.13455 6.32082L4.64434 9.84117C4.74492 9.94704 4.86668 10 4.99902 10C5.13137 10 5.25313 9.94704 5.35371 9.84117L8.86878 6.32082C8.96939 6.21489 9.01173 6.10377 9.01173 5.9767C9.01173 5.71731 8.82113 5.51615 8.55643 5.51615C8.42942 5.51615 8.30767 5.55848 8.22294 5.64321L7.01594 6.82902L5.11549 8.90943L5.41724 9.01536L5.47017 7.43778V0.465854C5.47017 0.190576 5.27431 0 4.99902 0Z" fill="currentColor"/>
</svg>
