<svg width="1em" height="1em" viewBox="0 0 250 250" version="1.1" xmlns="http://www.w3.org/2000/svg" xmlns:xlink="http://www.w3.org/1999/xlink">
<path  fill="currentColor" d="M33.1054688,184.179688 L151.074219,184.179688 C172.753906,184.179688 184.179688,172.851562 184.179688,151.464844 L184.179688,32.8125 C184.179688,11.4257812 172.753906,0 151.074219,0 L33.1054688,0 C11.5234375,0 0,11.4257812 0,32.8125 L0,151.464844 C0,172.851562 11.5234375,184.179688 33.1054688,184.179688 Z M34.9609375,162.5 C26.3671875,162.5 21.7773438,158.105469 21.7773438,149.121094 L21.7773438,35.0585938 C21.7773438,26.0742188 26.3671875,21.7773438 34.9609375,21.7773438 L149.316406,21.7773438 C157.714844,21.7773438 162.5,26.0742188 162.5,35.0585938 L162.5,149.121094 C162.5,158.105469 157.714844,162.5 149.316406,162.5 L34.9609375,162.5 Z M122.460938,118.359375 C127.734375,118.359375 131.152344,114.453125 131.152344,108.789062 L131.152344,63.7695312 C131.152344,56.4453125 126.953125,52.8320312 120.019531,52.8320312 L74.9023438,52.8320312 C69.0429688,52.8320312 65.3320312,56.1523438 65.3320312,61.5234375 C65.3320312,66.796875 69.140625,70.1171875 74.9023438,70.1171875 L90.4296875,70.1171875 L103.027344,68.6523438 L89.0625,81.1523438 L56.1523438,114.160156 C54.296875,116.015625 53.125,118.554688 53.125,121.09375 C53.125,126.855469 57.2265625,130.566406 62.5976562,130.566406 C65.5273438,130.566406 67.8710938,129.589844 69.921875,127.539062 L102.734375,94.8242188 L115.234375,81.0546875 L113.769531,94.2382812 L113.769531,108.789062 C113.769531,114.648438 117.1875,118.359375 122.460938,118.359375 Z" id="Shape"></path>
</svg>