<svg xmlns="http://www.w3.org/2000/svg" height="1em" width="1em" viewBox="0 0 16 16" fill="none">
 <path d="M16 15.3334C16 15.5102 15.9298 15.6798 15.8047 15.8048C15.6797 15.9298 15.5101 16 15.3333 16H0.666673C0.489862 16 0.320293 15.9298 0.195268 15.8048C0.0702441 15.6798 6.24324e-06 15.5102 6.24324e-06 15.3334C6.24324e-06 15.1566 0.0702441 14.987 0.195268 14.862C0.320293 14.7369 0.489862 14.6667 0.666673 14.6667H15.3333C15.5101 14.6667 15.6797 14.7369 15.8047 14.862C15.9298 14.987 16 15.1566 16 15.3334ZM0.194006 5.70137C0.0503544 5.43492 -0.0161973 5.13371 0.00181986 4.83154C0.019837 4.52937 0.12171 4.2382 0.296006 3.9907C0.580845 3.57278 0.962303 3.22974 1.40801 2.9907L6.40867 0.388037C6.90018 0.132457 7.44602 -0.000976563 8.00001 -0.000976562C8.55399 -0.000976563 9.09983 0.132457 9.59134 0.388037L14.5913 2.9927C15.037 3.23174 15.4185 3.57478 15.7033 3.9927C15.8776 4.2402 15.9795 4.53137 15.9975 4.83354C16.0155 5.13571 15.949 5.43692 15.8053 5.70337C15.6507 5.99592 15.4187 6.24044 15.1347 6.4103C14.8507 6.58015 14.5256 6.66884 14.1947 6.6667H14V12H14.6667C14.8435 12 15.0131 12.0703 15.1381 12.1953C15.2631 12.3203 15.3333 12.4899 15.3333 12.6667C15.3333 12.8435 15.2631 13.0131 15.1381 13.1381C15.0131 13.2631 14.8435 13.3334 14.6667 13.3334H1.33334C1.15653 13.3334 0.986959 13.2631 0.861935 13.1381C0.736911 13.0131 0.666673 12.8435 0.666673 12.6667C0.666673 12.4899 0.736911 12.3203 0.861935 12.1953C0.986959 12.0703 1.15653 12 1.33334 12H2.00001V6.6667H1.80534C1.47411 6.66877 1.14868 6.57984 0.864532 6.40961C0.580387 6.23939 0.348445 5.9944 0.194006 5.70137ZM3.33334 12H5.33334V6.6667H3.33334V12ZM6.66667 6.6667V12H9.33334V6.6667H6.66667ZM12.6667 6.6667H10.6667V12H12.6667V6.6667ZM1.37534 5.08337C1.41717 5.16049 1.47942 5.22461 1.55526 5.26871C1.63111 5.3128 1.71763 5.33517 1.80534 5.33337H14.1947C14.2824 5.33517 14.3689 5.3128 14.4448 5.26871C14.5206 5.22461 14.5828 5.16049 14.6247 5.08337C14.6551 5.03241 14.6699 4.97359 14.667 4.91429C14.6642 4.85498 14.6439 4.79784 14.6087 4.75004C14.4471 4.50998 14.2301 4.3124 13.976 4.17404L8.97601 1.56937C8.67468 1.41299 8.34016 1.33135 8.00067 1.33135C7.66118 1.33135 7.32667 1.41299 7.02534 1.56937L2.02534 4.17404C1.77133 4.31284 1.55436 4.51061 1.39267 4.7507C1.3574 4.79831 1.33694 4.85525 1.33386 4.91442C1.33078 4.97359 1.3452 5.03236 1.37534 5.08337Z" fill="currentColor"/> 
</svg>