<svg xmlns="http://www.w3.org/2000/svg" height="1em" width="1em" viewBox="0 0 16 16" fill="none">
    <path d="M13.9333 2.86075C13.6985 2.21823 13.2721 1.66328 12.7117 1.2709C12.1513 0.87853 11.484 0.667644 10.7999 0.666748H5.19994C4.51586 0.667644 3.84855 0.87853 3.28818 1.2709C2.72782 1.66328 2.30142 2.21823 2.06661 2.86075L0.266609 7.81208C0.089575 8.29973 -0.000677523 8.81462 -5.78659e-05 9.33341V10.0001C0.00113169 10.5153 0.12223 11.0231 0.353652 11.4834C0.585074 11.9437 0.920465 12.3438 1.33328 12.6521C1.33328 12.6574 1.33328 12.6614 1.33328 12.6667V14.0001C1.33328 14.5305 1.54399 15.0392 1.91906 15.4143C2.29414 15.7894 2.80284 16.0001 3.33328 16.0001C3.86371 16.0001 4.37242 15.7894 4.74749 15.4143C5.12256 15.0392 5.33328 14.5305 5.33328 14.0001V13.3334H10.6666V14.0001C10.6666 14.5305 10.8773 15.0392 11.2524 15.4143C11.6275 15.7894 12.1362 16.0001 12.6666 16.0001C13.197 16.0001 13.7058 15.7894 14.0808 15.4143C14.4559 15.0392 14.6666 14.5305 14.6666 14.0001V12.6667C14.6666 12.6614 14.6666 12.6574 14.6666 12.6521C15.0794 12.3438 15.4148 11.9437 15.6462 11.4834C15.8777 11.0231 15.9988 10.5153 15.9999 10.0001V9.33341C16.0006 8.81483 15.9104 8.30015 15.7333 7.81275L13.9333 2.86075ZM3.32128 3.31675C3.46223 2.93153 3.7179 2.59878 4.05381 2.36335C4.38973 2.12793 4.78974 2.00114 5.19994 2.00008H10.7999C11.2104 2.00087 11.6107 2.12753 11.9469 2.36297C12.283 2.59842 12.5389 2.93131 12.6799 3.31675L14.1386 7.33341H1.86061L3.32128 3.31675ZM3.99994 14.0001C3.99994 14.1769 3.9297 14.3465 3.80468 14.4715C3.67966 14.5965 3.51009 14.6667 3.33328 14.6667C3.15646 14.6667 2.9869 14.5965 2.86187 14.4715C2.73685 14.3465 2.66661 14.1769 2.66661 14.0001V13.2667C2.88603 13.3113 3.10938 13.3336 3.33328 13.3334H3.99994V14.0001ZM13.3333 14.0001C13.3333 14.1769 13.263 14.3465 13.138 14.4715C13.013 14.5965 12.8434 14.6667 12.6666 14.6667C12.4898 14.6667 12.3202 14.5965 12.1952 14.4715C12.0702 14.3465 11.9999 14.1769 11.9999 14.0001V13.3334H12.6666C12.8905 13.3336 13.1139 13.3113 13.3333 13.2667V14.0001ZM14.6666 10.0001C14.6666 10.5305 14.4559 11.0392 14.0808 11.4143C13.7058 11.7894 13.197 12.0001 12.6666 12.0001H3.33328C2.80284 12.0001 2.29414 11.7894 1.91906 11.4143C1.54399 11.0392 1.33328 10.5305 1.33328 10.0001V9.33341C1.33599 9.10893 1.36304 8.8854 1.41394 8.66675H2.66661V9.33341C2.66661 9.51023 2.73685 9.67979 2.86187 9.80482C2.9869 9.92984 3.15646 10.0001 3.33328 10.0001C3.51009 10.0001 3.67966 9.92984 3.80468 9.80482C3.9297 9.67979 3.99994 9.51023 3.99994 9.33341V8.66675H11.9999V9.33341C11.9999 9.51023 12.0702 9.67979 12.1952 9.80482C12.3202 9.92984 12.4898 10.0001 12.6666 10.0001C12.8434 10.0001 13.013 9.92984 13.138 9.80482C13.263 9.67979 13.3333 9.51023 13.3333 9.33341V8.66675H14.5859C14.6369 8.8854 14.6639 9.10893 14.6666 9.33341V10.0001Z" fill="currentColor"/>
</svg>