<svg width="1em" height="1em" viewBox="0 0 24 25" fill="none" xmlns="http://www.w3.org/2000/svg">
<path d="M11 12.1134C11.2652 12.1134 11.5196 12.2188 11.7071 12.4063C11.8946 12.5938 12 12.8482 12 13.1134C12 13.3786 11.8946 13.633 11.7071 13.8205C11.5196 14.008 11.2652 14.1134 11 14.1134H8C7.73478 14.1134 7.48043 14.008 7.29289 13.8205C7.10536 13.633 7 13.3786 7 13.1134C7 12.8482 7.10536 12.5938 7.29289 12.4063C7.48043 12.2188 7.73478 12.1134 8 12.1134H11ZM17 9.1134C17 8.84819 16.8946 8.59383 16.7071 8.4063C16.5196 8.21876 16.2652 8.1134 16 8.1134H8C7.73478 8.1134 7.48043 8.21876 7.29289 8.4063C7.10536 8.59383 7 8.84819 7 9.1134C7 9.37862 7.10536 9.63297 7.29289 9.82051C7.48043 10.008 7.73478 10.1134 8 10.1134H16C16.2652 10.1134 16.5196 10.008 16.7071 9.82051C16.8946 9.63297 17 9.37862 17 9.1134ZM8 6.1134H16C16.2652 6.1134 16.5196 6.00805 16.7071 5.82051C16.8946 5.63297 17 5.37862 17 5.1134C17 4.84819 16.8946 4.59383 16.7071 4.4063C16.5196 4.21876 16.2652 4.1134 16 4.1134H8C7.73478 4.1134 7.48043 4.21876 7.29289 4.4063C7.10536 4.59383 7 4.84819 7 5.1134C7 5.37862 7.10536 5.63297 7.29289 5.82051C7.48043 6.00805 7.73478 6.1134 8 6.1134ZM20 19.5574V23.3904C20.0001 23.5331 19.9578 23.6725 19.8786 23.7912C19.7994 23.9098 19.6868 24.0023 19.555 24.0569C19.4232 24.1115 19.2781 24.1257 19.1382 24.0979C18.9983 24.07 18.8698 24.0013 18.769 23.9004L18 23.1324L17.231 23.9004C17.1302 24.0013 17.0017 24.07 16.8618 24.0979C16.7219 24.1257 16.5768 24.1115 16.445 24.0569C16.3132 24.0023 16.2006 23.9098 16.1214 23.7912C16.0422 23.6725 15.9999 23.5331 16 23.3904V19.5574C15.2373 19.1192 14.641 18.4411 14.3038 17.6288C13.9666 16.8164 13.9076 15.9153 14.1358 15.0659C14.364 14.2164 14.8667 13.4663 15.5656 12.9323C16.2646 12.3983 17.1204 12.1104 18 12.1134C18.338 12.1176 18.6741 12.1654 19 12.2554V5.1134C19 4.31775 18.6839 3.55469 18.1213 2.99208C17.5587 2.42947 16.7956 2.1134 16 2.1134H8C7.20435 2.1134 6.44129 2.42947 5.87868 2.99208C5.31607 3.55469 5 4.31775 5 5.1134V17.1134C5 17.9091 5.31607 18.6721 5.87868 19.2347C6.44129 19.7973 7.20435 20.1134 8 20.1134H13C13.2652 20.1134 13.5196 20.2188 13.7071 20.4063C13.8946 20.5938 14 20.8482 14 21.1134C14 21.3786 13.8946 21.633 13.7071 21.8205C13.5196 22.008 13.2652 22.1134 13 22.1134H8C6.6744 22.1118 5.40356 21.5845 4.46622 20.6472C3.52888 19.7098 3.00159 18.439 3 17.1134V5.1134C3.00159 3.78781 3.52888 2.51696 4.46622 1.57962C5.40356 0.642285 6.6744 0.114991 8 0.113403L16 0.113403C17.3256 0.114991 18.5964 0.642285 19.5338 1.57962C20.4711 2.51696 20.9984 3.78781 21 5.1134V13.4954C21.3917 13.9353 21.6801 14.4572 21.844 15.023C22.0079 15.5887 22.0433 16.184 21.9474 16.7652C21.8515 17.3463 21.6269 17.8987 21.2899 18.3818C20.953 18.865 20.5122 19.2666 20 19.5574V19.5574ZM20 16.1134C20 15.7178 19.8827 15.3312 19.6629 15.0023C19.4432 14.6734 19.1308 14.417 18.7654 14.2656C18.3999 14.1143 17.9978 14.0747 17.6098 14.1518C17.2219 14.229 16.8655 14.4195 16.5858 14.6992C16.3061 14.9789 16.1156 15.3353 16.0384 15.7232C15.9613 16.1112 16.0009 16.5133 16.1522 16.8788C16.3036 17.2442 16.56 17.5566 16.8889 17.7763C17.2178 17.9961 17.6044 18.1134 18 18.1134C18.5304 18.1134 19.0391 17.9027 19.4142 17.5276C19.7893 17.1525 20 16.6438 20 16.1134V16.1134Z" fill="currentColor"/>
</svg>
