<svg fill="none" height="1em" width="1em" viewBox="0 0 24 22" xmlns="http://www.w3.org/2000/svg">
     <path fill-rule="evenodd" clip-rule="evenodd" d="M20.3987 8.80063C22.3869 8.80063 23.9987 10.4123 23.9987 12.4006C23.9987 13.4669 23.5353 14.4249 22.7988 15.084V21.0298C22.7988 21.4758 22.3293 21.766 21.9305 21.5665L20.3987 20.8008L18.8669 21.5665C18.468 21.766 17.9986 21.4758 17.9986 21.0298V15.084C17.262 14.4249 16.7987 13.4669 16.7987 12.4006C16.7987 10.4123 18.4104 8.80063 20.3987 8.80063ZM7.19862 " fill="currentColor"/>
    <path fill-rule="evenodd" clip-rule="evenodd" d="M21.5999 0.369141C22.9254 0.369141 24 1.44374 24 2.76925V7.56874C22.997 6.81563 21.7507 6.36923 20.4 6.36923C17.0862 6.36923 14.3999 9.05554 14.3999 12.3693C14.3999 13.7197 14.8478 14.9674 15.5998 15.9693V19.5693H2.40011C1.07459 19.5693 0 18.4947 0 17.1692V2.76925C0 1.44374 1.07459 0.369141 2.40011 0.369141H21.5999ZM7.19996 11.1691H4.79986C4.1371 11.1691 3.59998 11.7062 3.59998 12.369C3.59998 13.0317 4.1371 13.5688 4.79986 13.5688H7.19996C7.86272 13.5688 8.39984 13.0317 8.39984 12.369C8.39984 11.7062 7.86272 11.1691 7.19996 11.1691ZM11.9998 6.36923H4.79986C4.1371 6.36923 3.59998 6.90635 3.59998 7.5691C3.59998 8.18434 4.0633 8.69158 4.66018 8.76106L4.80022 8.76898H12.0002C12.6629 8.76898 13.2001 8.23186 13.2001 7.5691C13.2001 6.95387 12.7367 6.44663 12.1399 6.37715L11.9998 6.36923Z" fill="currentColor"/>
</svg>
