<svg width="1em" height="1em" viewBox="0 0 20 20" fill="none" xmlns="http://www.w3.org/2000/svg">
<path d="M16.75 1H3.25C2.00912 1 1 2.00912 1 3.25V13.375C1 14.6159 2.00912 15.625 3.25 15.625H4.375V18.4375C4.375 18.6558 4.501 18.8549 4.699 18.9471C4.77437 18.982 4.8565 19 4.9375 19C5.06687 19 5.19513 18.955 5.2975 18.8695L9.19112 15.625H16.75C17.9909 15.625 19 14.6159 19 13.375V3.25C19 2.00912 17.9909 1 16.75 1ZM17.875 13.375C17.875 13.9949 17.3699 14.5 16.75 14.5H8.9875C8.85588 14.5 8.72875 14.5461 8.6275 14.6305L5.5 17.2371V15.0625C5.5 14.752 5.248 14.5 4.9375 14.5H3.25C2.63012 14.5 2.125 13.9949 2.125 13.375V3.25C2.125 2.63012 2.63012 2.125 3.25 2.125H16.75C17.3699 2.125 17.875 2.63012 17.875 3.25V13.375Z" fill="currentColor" />
</svg>
