<svg width="1em" height="1em" viewBox="0 0 25 24" fill="none" xmlns="http://www.w3.org/2000/svg">
<path fill-rule="evenodd" clip-rule="evenodd" d="M6.87617 22.2999C7.08889 22.2999 7.29964 22.2261 7.46822 22.0854L11.711 18.5499H20.0012C21.5456 18.5499 22.8012 17.2944 22.8012 15.75V4.49995C22.8012 2.95552 21.5456 1.69995 20.0012 1.69995H5.00117C3.45674 1.69995 2.20117 2.95552 2.20117 4.49995V15.75C2.20117 17.2944 3.45674 18.5499 5.00117 18.5499H5.95117V21.375C5.95117 21.7333 6.15876 22.0614 6.4852 22.2135C6.6081 22.2703 6.74231 22.2999 6.87617 22.2999ZM11.3761 16.6999C11.1595 16.6999 10.9504 16.7759 10.7841 16.9145L7.80115 19.4006V17.6249C7.80115 17.1142 7.38683 16.6999 6.87615 16.6999H5.00115C4.47808 16.6999 4.05115 16.273 4.05115 15.7499V4.49993C4.05115 3.97686 4.47808 3.54993 5.00115 3.54993H20.0011C20.5242 3.54993 20.9511 3.97686 20.9511 4.49993V15.7499C20.9511 16.273 20.5242 16.6999 20.0011 16.6999H11.3761Z" fill="currentColor"/>
</svg>
