<svg width="1em" height="1em" viewBox="0 0 9 8" fill="none" xmlns="http://www.w3.org/2000/svg">
<path d="M3.61606 7.86148C3.88493 7.86148 4.11307 7.7313 4.27602 7.47894L7.99955 1.62707C8.09733 1.4643 8.19512 1.28524 8.19512 1.10618C8.19512 0.739933 7.86914 0.503906 7.53516 0.503906C7.32324 0.503906 7.11958 0.634129 6.96481 0.870156L3.58346 6.29064L1.97836 4.21525C1.78281 3.95481 1.60356 3.8897 1.38357 3.8897C1.02507 3.8897 0.748047 4.17456 0.748047 4.53267C0.748047 4.71173 0.821376 4.88265 0.935446 5.03725L2.9235 7.47894C3.12719 7.74755 3.34718 7.86148 3.61606 7.86148Z" fill='currentColor'/>
</svg>
