<svg width="1em" height="1em" viewBox="0 0 22 22" fill="none" xmlns="http://www.w3.org/2000/svg">
	<path fill-rule="evenodd" clip-rule="evenodd" d="M21.9832 10.9958C21.9832 17.0042 17.0042 21.9832 10.9873 21.9832C4.9789 21.9832 0 17.0042 0 10.9958C0 4.9789 4.97046 0 10.9789 0C16.9958 0 21.9832 4.9789 21.9832 10.9958ZM8.97075 15.8394C9.21548 16.1516 9.4602 16.2866 9.78088 16.2866C10.1016 16.2866 10.3631 16.1347 10.5572 15.8394L15.8483 7.544C15.9581 7.36678 16.0678 7.14737 16.0678 6.94484C16.0678 6.51446 15.6965 6.22754 15.2914 6.22754C15.0382 6.22754 14.7935 6.37944 14.6247 6.65792L9.74709 14.4132L7.31671 11.3752C7.08886 11.0799 6.87789 10.987 6.61629 10.987C6.19435 10.987 5.86523 11.333 5.86523 11.7549C5.86523 11.966 5.94963 12.1769 6.09308 12.3625L8.97075 15.8394Z" fill="currentColor"/>
</svg>