<svg width="1em" height="1em" viewBox="0 0 14 15" fill="none" xmlns="http://www.w3.org/2000/svg">
<path d="M5.35294 14.1796C4.85294 14.1796 4.44117 13.9739 4.05881 13.4594L0.367643 8.93222C0.147062 8.63826 0.0147095 8.31481 0.0147095 7.97675C0.0147095 7.31539 0.529404 6.7715 1.19118 6.7715C1.61764 6.7715 1.94117 6.90379 2.30881 7.38884L5.2941 11.2399L11.5734 1.1566C11.8529 0.715648 12.2353 0.480469 12.6176 0.480469C13.2647 0.480469 13.8677 0.921417 13.8677 1.61226C13.8677 1.93563 13.6764 2.2737 13.4999 2.58238L6.58822 13.4594C6.2794 13.9445 5.85293 14.1796 5.35294 14.1796Z" fill="currentColor"/>
</svg>