<svg width="1em" height="1em" viewBox="0 0 48 67" fill="none" xmlns="http://www.w3.org/2000/svg">
<path d="M12.3655 30.0238C13.6612 30.0238 14.7089 28.9761 14.7089 27.6802C14.7089 26.3844 13.6612 25.3368 12.3655 25.3368C11.0973 25.3368 10.022 26.412 10.022 27.6802C10.022 28.9484 11.0973 30.0238 12.3655 30.0238ZM12.3655 39.7834C13.6612 39.7834 14.7089 38.7357 14.7089 37.4399C14.7089 36.1441 13.6612 35.1241 12.3655 35.1241C11.0697 35.1241 10.022 36.1717 10.022 37.4399C10.022 38.7357 11.0697 39.7834 12.3655 39.7834ZM12.3655 50.1221C13.6612 50.1221 14.7089 49.0744 14.7089 47.7786C14.7089 46.4828 13.6612 45.4354 12.3655 45.4354C11.0973 45.4354 10.022 46.5104 10.022 47.7786C10.022 49.0468 11.0973 50.1221 12.3655 50.1221ZM19.7266 29.3897H36.2686C37.2059 29.3897 37.978 28.6175 37.978 27.6802C37.978 26.7428 37.2059 25.9433 36.2686 25.9433H19.7266C18.7893 25.9433 17.9897 26.7428 17.9897 27.6802C17.9897 28.6175 18.7893 29.3897 19.7266 29.3897ZM19.7266 39.177H36.2686C37.2336 39.177 37.978 38.4049 37.978 37.4399C37.978 36.5026 37.2336 35.7582 36.2686 35.7582H19.7266C18.7617 35.7582 17.9897 36.5026 17.9897 37.4399C17.9897 38.4049 18.7617 39.177 19.7266 39.177ZM19.7266 49.488H36.2686C37.2059 49.488 37.978 48.7162 37.978 47.7786C37.978 46.8413 37.2336 46.0695 36.2686 46.0695H19.7266C18.7617 46.0695 17.9897 46.8413 17.9897 47.7786C17.9897 48.7162 18.7893 49.488 19.7266 49.488ZM9.36033 66.8019H38.6395C44.3465 66.8019 47.1863 63.9347 47.1863 58.145V16.349C47.1863 10.6971 44.4569 7.69201 38.943 7.69201H38.2812C38.3086 7.91256 38.3086 8.16069 38.3086 8.38126V10.8626C38.3086 11.3037 38.2812 11.7448 38.1985 12.1308H38.8603C41.4517 12.1308 42.7475 13.8125 42.7475 16.4041V58.0899C42.7475 60.8467 41.2862 62.3631 38.419 62.3631H9.5809C6.71361 62.3631 5.25243 60.8467 5.25243 58.0899V16.4041C5.25243 13.8125 6.54821 12.1308 9.13978 12.1308H9.80145C9.71876 11.7448 9.69117 11.3037 9.69117 10.8626V8.38126C9.69117 8.16069 9.69117 7.91256 9.71876 7.69201H9.05706C3.54308 7.69201 0.81366 10.6971 0.81366 16.349V58.145C0.81366 63.9347 3.65336 66.8019 9.36033 66.8019ZM15.4809 14.0055H32.5192C34.1182 14.0055 35.0832 12.9854 35.0832 11.2761V8.38126C35.0832 6.67192 34.1182 5.65183 32.5192 5.65183H29.9826C29.7897 2.53644 27.1981 0 24 0C20.8019 0 18.2103 2.53644 18.0173 5.65183H15.4809C13.8818 5.65183 12.9169 6.67192 12.9169 8.38126V11.2761C12.9169 12.9854 13.8818 14.0055 15.4809 14.0055ZM24 8.27099C22.6766 8.27099 21.6014 7.16818 21.6014 5.8724C21.6014 4.52146 22.6766 3.44623 24 3.44623C25.3233 3.44623 26.3986 4.52146 26.3986 5.8724C26.3986 7.16818 25.3233 8.27099 24 8.27099Z" fill="currentColor" />
</svg>
