<svg xmlns="http://www.w3.org/2000/svg" width="1em" height="1em" viewBox="0 0 12 16" fill="none">
    <path d="M3.25874 7.08313C2.95626 7.08313 2.7042 6.82476 2.7042 6.52857C2.7042 6.22608 2.95626 5.97401 3.25874 5.97401C3.56123 5.97401 3.8133 6.21978 3.8133 6.52857C3.8133 6.83102 3.56123 7.08313 3.25874 7.08313ZM3.25874 9.38322C2.94996 9.38322 2.7042 9.13117 2.7042 8.82865C2.7042 8.5262 2.94996 8.28041 3.25874 8.28041C3.56123 8.28041 3.8133 8.51988 3.8133 8.82865C3.8133 9.13117 3.56123 9.38322 3.25874 9.38322ZM3.25874 11.8157C2.95626 11.8157 2.7042 11.5636 2.7042 11.2612C2.7042 10.965 2.95626 10.7066 3.25874 10.7066C3.56123 10.7066 3.8133 10.9586 3.8133 11.2612C3.8133 11.5699 3.56123 11.8157 3.25874 11.8157ZM4.99802 6.93188C4.77115 6.93188 4.5821 6.74913 4.5821 6.52857C4.5821 6.308 4.77115 6.11265 4.99802 6.11265H8.89246C9.11302 6.11265 9.29577 6.308 9.29577 6.52857C9.29577 6.74913 9.11302 6.93188 8.89246 6.93188H4.99802ZM4.99802 9.23829C4.76485 9.23829 4.5821 9.05554 4.5821 8.82865C4.5821 8.60183 4.76485 8.42534 4.99802 8.42534H8.89246C9.11934 8.42534 9.29577 8.60183 9.29577 8.82865C9.29577 9.05554 9.11934 9.23829 8.89246 9.23829H4.99802ZM4.99802 11.6707C4.77115 11.6707 4.5821 11.4817 4.5821 11.2612C4.5821 11.0406 4.76485 10.8578 4.99802 10.8578H8.89246C9.11934 10.8578 9.29577 11.0406 9.29577 11.2612C9.29577 11.4817 9.11302 11.6707 8.89246 11.6707H4.99802ZM2.65378 15.269H9.34616C10.6506 15.269 11.2997 14.6136 11.2997 13.2903V3.73061C11.2997 2.40725 10.6506 1.75187 9.40921 1.75187H9.26428C9.26428 1.77708 9.26428 1.80858 9.26428 1.8338V2.57739C9.26428 3.37141 8.72862 3.93226 7.94723 3.93226H4.05276C3.27135 3.93226 2.73571 3.37141 2.73571 2.57739V1.8338C2.73571 1.80858 2.73571 1.77708 2.73571 1.75187H2.59077C1.34933 1.75187 0.700256 2.40725 0.700256 3.73061V13.2903C0.700256 14.6136 1.34933 15.269 2.65378 15.269ZM4.05276 3.20126H7.94723C8.31273 3.20126 8.53329 2.9681 8.53329 2.57739V1.91572C8.53329 1.52501 8.31273 1.29185 7.94723 1.29185H7.36743C7.32336 0.579757 6.73098 0 5.99998 0C5.26899 0 4.67663 0.579757 4.63252 1.29185H4.05276C3.68726 1.29185 3.4667 1.52501 3.4667 1.91572V2.57739C3.4667 2.9681 3.68726 3.20126 4.05276 3.20126ZM5.99998 1.89051C5.6975 1.89051 5.45174 1.63844 5.45174 1.34226C5.45174 1.03348 5.6975 0.78771 5.99998 0.78771C6.30247 0.78771 6.54823 1.03348 6.54823 1.34226C6.54823 1.63844 6.30247 1.89051 5.99998 1.89051Z" fill="currentColor"/>
</svg>