<svg width="1em" height="1em" viewBox="0 0 12 12" fill="currentColor" xmlns="http://www.w3.org/2000/svg">
<path d="M0.275828 11.7287C0.643295 12.0888 1.26889 12.0818 1.61495 11.7357L6.00079 7.34991L10.3819 11.7334C10.7374 12.0888 11.3563 12.0915 11.7187 11.7264C12.0812 11.3589 12.0835 10.75 11.7281 10.3923L7.34693 6.00377L11.7281 1.62262C12.0835 1.26719 12.0862 0.653297 11.7187 0.290848C11.3512 -0.076618 10.7374 -0.0789581 10.3819 0.28149L6.00079 4.66264L1.61495 0.27915C1.26889 -0.0695996 0.638276 -0.0839757 0.275828 0.288509C-0.0842815 0.655976 -0.0772629 1.27421 0.268809 1.62028L4.65464 6.00377L0.268809 10.3969C-0.0772629 10.7407 -0.0892998 11.3662 0.275828 11.7287Z" fill="currentColor"/>
</svg>
