<svg width="1em" height="1em" viewBox="0 0 21 29" fill="none" xmlns="http://www.w3.org/2000/svg">
<path d="M0 25.7241C0 27.1813 0.84422 28.1133 2.18969 28.1133H18.8234C20.1558 28.1133 21 27.1813 21 25.7241V2.51559C21 1.05848 20.1558 0.126465 18.8234 0.126465H2.18969C0.84422 0.126465 0 1.05848 0 2.51559V25.7241ZM2.12375 25.2385V3.00129C2.12375 2.4762 2.36118 2.23992 2.88881 2.23992H18.1244C18.6388 2.23992 18.8762 2.4762 18.8762 3.00129V25.2385C18.8762 25.7505 18.6388 25.9998 18.1244 25.9998H2.88881C2.36118 25.9998 2.12375 25.7505 2.12375 25.2385ZM5.90954 26.9975H7.63756V22.6131C7.63756 22.3374 7.78265 22.193 8.05966 22.193H12.9403C13.2305 22.193 13.3624 22.3374 13.3624 22.6131V26.9975H15.0905V22.1274C15.0905 20.9984 14.5892 20.4734 13.5075 20.4734H7.49246C6.41079 20.4734 5.90954 20.9984 5.90954 22.1274V26.9975ZM6.12059 7.97643H8.69283C9.00941 7.97643 9.23366 7.7664 9.23366 7.43823V4.95722C9.23366 4.64217 9.00941 4.419 8.69283 4.419H6.12059C5.80402 4.419 5.60615 4.64217 5.60615 4.95722V7.43823C5.60615 7.7664 5.80402 7.97643 6.12059 7.97643ZM12.3071 7.97643H14.8662C15.1827 7.97643 15.4069 7.7664 15.4069 7.43823V4.95722C15.4069 4.64217 15.1827 4.419 14.8662 4.419H12.3071C11.9774 4.419 11.7795 4.64217 11.7795 4.95722V7.43823C11.7795 7.7664 11.9774 7.97643 12.3071 7.97643ZM6.12059 13.1747H8.69283C9.00941 13.1747 9.23366 12.9647 9.23366 12.6365V10.1555C9.23366 9.84048 9.00941 9.61731 8.69283 9.61731H6.12059C5.80402 9.61731 5.60615 9.84048 5.60615 10.1555V12.6365C5.60615 12.9647 5.80402 13.1747 6.12059 13.1747ZM12.3071 13.1747H14.8662C15.1827 13.1747 15.4069 12.9647 15.4069 12.6365V10.1555C15.4069 9.84048 15.1827 9.61731 14.8662 9.61731H12.3071C11.9774 9.61731 11.7795 9.84048 11.7795 10.1555V12.6365C11.7795 12.9647 11.9774 13.1747 12.3071 13.1747ZM6.12059 18.3731H8.69283C9.00941 18.3731 9.23366 18.1499 9.23366 17.8348V15.3538C9.23366 15.0257 9.00941 14.8156 8.69283 14.8156H6.12059C5.80402 14.8156 5.60615 15.0257 5.60615 15.3538V17.8348C5.60615 18.1499 5.80402 18.3731 6.12059 18.3731ZM12.3071 18.3731H14.8662C15.1827 18.3731 15.4069 18.1499 15.4069 17.8348V15.3538C15.4069 15.0257 15.1827 14.8156 14.8662 14.8156H12.3071C11.9774 14.8156 11.7795 15.0257 11.7795 15.3538V17.8348C11.7795 18.1499 11.9774 18.3731 12.3071 18.3731Z" fill="currentColor"/>
</svg>
