<svg width="1em" height="1em" viewBox="0 0 16 14" fill="none" xmlns="http://www.w3.org/2000/svg">
<path d="M3.91666 1.16988L0.679487 4.47115C0.570513 4.58654 0.5 4.75321 0.5 4.89423C0.5 5.23397 0.730769 5.46474 1.0641 5.46474C1.23077 5.46474 1.35897 5.40705 1.46795 5.29808L2.80128 3.91987L3.83332 2.72757L3.76923 4.20833V12.4455C3.76923 12.7852 4.00641 13.0224 4.34615 13.0224C4.67948 13.0224 4.91666 12.7852 4.91666 12.4455V4.20833L4.85896 2.72757L5.8846 3.91987L7.22432 5.29808C7.33335 5.40705 7.45511 5.46474 7.62178 5.46474C7.9551 5.46474 8.18589 5.23397 8.18589 4.89423C8.18589 4.75321 8.12176 4.58654 8.00637 4.47115L4.77563 1.16988C4.53845 0.919877 4.16025 0.907056 3.91666 1.16988ZM12.0897 12.8365L15.3205 9.52243C15.4359 9.41347 15.5 9.24681 15.5 9.09938C15.5 8.75962 15.2692 8.53526 14.9359 8.53526C14.7692 8.53526 14.6474 8.58652 14.5384 8.69549L13.2051 10.0737L12.1731 11.2724L12.2308 9.79163V1.55449C12.2308 1.22116 11.9936 0.977569 11.6603 0.977569C11.3205 0.977569 11.0833 1.22116 11.0833 1.55449V9.79163L11.1474 11.2724L10.1153 10.0737L8.78205 8.69549C8.67308 8.58652 8.54488 8.53526 8.38459 8.53526C8.05126 8.53526 7.8141 8.75962 7.8141 9.09938C7.8141 9.24681 7.8846 9.41347 8 9.52243L11.2308 12.8365C11.4679 13.0865 11.8397 13.0929 12.0897 12.8365Z" fill="currentColor" />
</svg>
