<svg height="1em" width="1em" viewBox="0 0 32 32" fill="none" xmlns="http://www.w3.org/2000/svg">
<path d="M6.78889 22.3625H9.86739C10.6078 22.3625 11.1046 21.8656 11.1046 21.1642V18.8262C11.1046 18.1247 10.6078 17.6279 9.86739 17.6279H6.78889C6.0485 17.6279 5.55166 18.1247 5.55166 18.8262V21.1642C5.55166 21.8656 6.0485 22.3625 6.78889 22.3625ZM2.22961 12.9907H29.7997V10.1655H2.22961V12.9907ZM5.123 26.5906H26.8673C29.3905 26.5906 30.6667 25.3144 30.6667 22.8301V9.17177C30.6667 6.68754 29.3905 5.41134 26.8673 5.41134H5.123C2.60956 5.41134 1.33334 6.67781 1.33334 9.17177V22.8301C1.33334 25.3241 2.60956 26.5906 5.123 26.5906ZM5.16197 24.8565C3.79808 24.8565 3.05769 24.1355 3.05769 22.7424V9.25945C3.05769 7.8566 3.79808 7.13568 5.16197 7.13568H26.838C28.1727 7.13568 28.9326 7.8566 28.9326 9.25945V22.7424C28.9326 24.1355 28.1727 24.8565 26.838 24.8565H5.16197Z" fill="currentColor"/>
</svg>
