<svg  height="1em" width="1em" viewBox="0 0 36 33" fill="none" xmlns="http://www.w3.org/2000/svg">
<path d="M19.548 24.4283C22.9802 24.4283 25.4779 22.5108 25.4779 19.8359C25.4779 17.58 24.2371 16.3715 21.1594 15.6302L18.8713 15.0663C17.0665 14.6151 16.2931 13.9866 16.2931 12.907C16.2931 11.5535 17.55 10.6189 19.4191 10.6189C21.1111 10.6189 22.1423 11.344 22.7063 12.8909C22.9641 13.4549 23.3992 13.7127 23.8503 13.7127C24.6883 13.7127 25.1716 12.9715 24.8816 12.0047C24.4304 10.2966 22.4968 8.49188 19.4191 8.49188C16.148 8.49188 13.8116 10.3772 13.8116 13.0037C13.8116 15.2113 15.2296 16.5649 18.1783 17.2577L20.4826 17.8055C22.2874 18.2245 22.9641 18.8368 22.9641 20.0131C22.9641 21.399 21.6267 22.3012 19.548 22.3012C17.6627 22.3012 16.5187 21.5922 15.9386 20.0615C15.6969 19.5137 15.2618 19.2558 14.8106 19.2558C13.9888 19.2558 13.5537 19.9164 13.731 20.8832C14.1177 22.8652 16.4381 24.4283 19.548 24.4283ZM18.5972 26.0074C18.5972 26.5392 19.0323 26.9903 19.5642 26.9903C20.096 26.9903 20.5471 26.5392 20.5471 26.0074V6.88052C20.5471 6.34878 20.096 5.89759 19.5642 5.89759C19.0323 5.89759 18.5972 6.34878 18.5972 6.88052V26.0074ZM19.5642 32.8719C28.5394 32.8719 36 25.4112 36 16.4359C36 7.4445 28.5394 0 19.5642 0C10.5727 0 3.12822 7.42838 3.12822 16.4198H5.86755C5.86755 8.81416 11.9585 2.75543 19.5642 2.75543C27.1698 2.75543 33.2608 8.83027 33.2608 16.4359C33.2608 24.0415 27.1698 30.1646 19.5642 30.1325C14.9717 30.1165 10.9433 27.8927 8.47795 24.4605C7.97842 23.7998 7.22109 23.5904 6.54431 23.9932C5.89977 24.3961 5.72251 25.2824 6.27039 25.9914C9.33196 30.1003 14.1338 32.8719 19.5642 32.8719ZM1.14624 13.326C-0.0139396 13.326 -0.303985 14.1156 0.324447 15.0179L3.9339 20.142C4.46566 20.8832 5.23911 20.8672 5.75475 20.142L9.3642 15.0018C9.97652 14.1156 9.68647 13.326 8.5424 13.326H1.14624Z" fill="currentColor" />
</svg>
