<svg width="1em" height="1em" viewBox="0 0 66 67" fill="none" xmlns="http://www.w3.org/2000/svg">
<path d="M2.797 38.2878H17.1918C18.654 38.2878 19.5314 37.6376 19.8563 36.3379L26.1276 7.48337H23.6581L33.2763 65.2575C33.6662 67.5969 37.2732 67.5647 37.728 65.2575L47.0537 21.4883L45.0067 21.4558L47.9311 36.078C48.2236 37.5727 49.0684 38.2878 50.5957 38.2878H63.2031C64.5028 38.2878 65.5426 37.2802 65.5426 36.0132C65.5426 34.7132 64.5354 33.706 63.2031 33.706H47.8659L52.5452 37.5078L47.9634 17.1666C47.4762 14.9245 44.1292 14.9245 43.5769 17.264L34.0886 59.6685H36.3958L26.875 1.92692C26.5175 -0.347653 23.2032 -0.412643 22.6833 1.92692L14.9822 37.5078L19.6613 33.706H2.797C1.46475 33.706 0.457436 34.7458 0.457436 36.0132C0.457436 37.2802 1.46475 38.2878 2.797 38.2878Z" fill="currentColor"/>
</svg>
