<svg width="1em" height="1em" viewBox="0 0 17 14" fill="none" xmlns="http://www.w3.org/2000/svg">
<path d="M16.9082 6.74085L16.7866 6.6286C16.5901 6.44151 16.3563 6.34796 16.1037 6.34796H14.7941C14.8128 6.57247 14.8222 6.79698 14.8222 7.04019C14.8222 7.28341 14.8128 7.50791 14.7941 7.74178H15.6827C16.3563 7.74178 16.9082 8.37788 16.9082 9.173V9.52847L16.7866 9.40687C16.5901 9.22913 16.3563 9.13559 16.1037 9.13559H14.5976C13.8773 12.2881 11.361 13.9999 7.39474 13.9999H2.30592C2.30592 13.9999 2.99815 13.4667 2.99815 11.68V9.13559H2.1469C1.46402 9.13559 0.912109 8.49014 0.912109 7.70436V7.34889L1.04307 7.46115C1.23016 7.63888 1.46402 7.74178 1.71659 7.74178H2.99815V6.34796H2.1469C1.46402 6.34796 0.912109 5.7025 0.912109 4.91673V4.56127L1.04307 4.68287C1.23016 4.86061 1.46402 4.95415 1.71659 4.95415H2.99815V2.51264C2.99815 0.669819 2.30592 0.0898438 2.30592 0.0898438H7.39474C11.2488 0.0898438 13.8305 1.78299 14.5883 4.95415H15.6827C16.3563 4.95415 16.9082 5.59026 16.9082 6.38538V6.74085ZM7.20765 0.782072H5.0842V4.95415H12.2216C11.7352 2.05427 10.0795 0.782072 7.20765 0.782072ZM12.39 7.04019C12.39 6.79698 12.3807 6.57247 12.3713 6.34796H5.0842V7.74178H12.3713C12.3807 7.50791 12.39 7.28341 12.39 7.04019ZM5.0842 13.2983H7.22636C10.2666 13.2235 11.7633 11.7642 12.2216 9.13559H5.0842V13.2983Z" fill="currentColor" />
</svg>