<svg width="1em" height="1em" viewBox="0 0 8 15" fill="none" xmlns="http://www.w3.org/2000/svg">
<path id="Vector" d="M3.9945 13.017C6.21677 13.017 8 11.8816 8 9.86836C8 8.29995 7.00321 7.39534 4.81051 6.8783L3.63986 6.60657C2.30248 6.29444 1.67562 5.77466 1.67562 4.92834C1.67562 4.02977 2.52823 3.28227 3.99722 3.28227C5.19166 3.28227 6.00224 3.82669 6.33999 4.8231C6.48737 5.18453 6.73677 5.36641 7.09589 5.36641C7.5359 5.36641 7.79022 5.10123 7.79022 4.69286C7.79022 4.57542 7.7735 4.45404 7.73602 4.32872C7.35861 2.94871 5.9124 1.98988 3.98835 1.98988C1.76435 1.98988 0.168083 3.21969 0.168083 5.04109C0.168083 6.5606 1.16918 7.48354 3.24874 7.97598L4.4194 8.24771C5.90921 8.59964 6.49576 9.06848 6.49576 10.0012C6.49576 11.0961 5.56775 11.7246 4.01348 11.7246C2.62571 11.7246 1.74377 11.1567 1.45357 10.1232C1.31334 9.76116 1.07453 9.56709 0.708794 9.56709C0.258281 9.56709 0 9.85284 0 10.2818C0 10.3886 0.0178676 10.5133 0.0608732 10.6442C0.451255 12.0842 2.01968 13.017 3.9945 13.017ZM3.98921 14.4654C4.24022 14.4654 4.43307 14.2703 4.43307 14.0159V1.01467C4.43307 0.760328 4.24022 0.570312 3.98921 0.570312C3.73819 0.570312 3.5504 0.760328 3.5504 1.01467V14.0159C3.5504 14.2703 3.73819 14.4654 3.98921 14.4654Z" fill="currentColor"/>
</svg>
