<svg width="1em" height="1em" viewBox="0 0 46 65" fill="none" xmlns="http://www.w3.org/2000/svg">
<path d="M0.0495453 50.9412C0.0495453 59.005 5.18197 64.2218 13.0794 64.2218C19.1263 64.2218 23.7002 61.3623 26.4988 56.0638L28.8036 51.7694C35.3078 39.1699 45.9505 38.4281 45.9505 23.5C45.9505 9.47462 36.9195 0.156982 23.3314 0.156982C9.4735 0.156982 0.0495453 9.66833 0.0495453 23.7359V50.9412ZM3.63097 50.7397V23.7359C3.63097 11.7437 11.5278 3.72893 23.3314 3.72893C34.7475 3.72893 42.3691 11.6868 42.3691 23.5C42.3691 36.4932 32.306 37.7932 25.6258 50.1273L23.3274 54.2634C21.0727 58.4596 17.7067 60.5653 13.227 60.5653C7.33737 60.5653 3.63097 56.7653 3.63097 50.7397ZM10.4614 38.995C11.43 38.995 12.2532 38.1718 12.2532 37.1937V23.3631C12.2532 17.0228 16.6413 12.8012 23.244 12.8012C29.6928 12.8012 33.8154 16.9638 33.8154 23.3631C33.8154 24.3317 34.627 25.1549 35.5954 25.1549C36.5641 25.1549 37.3967 24.3317 37.3967 23.3631C37.3967 14.8811 31.7565 9.22925 23.244 9.22925C14.5775 9.22925 8.6812 14.938 8.6812 23.3631V37.1937C8.6812 38.1718 9.4833 38.995 10.4614 38.995ZM10.3401 29.5885H21.151C23.5129 29.5885 25.0636 31.0591 25.0636 33.1862C25.0636 34.2469 24.5179 35.6631 23.7277 36.6249L20.0326 41.2673C19.7206 41.6825 19.5541 42.1092 19.5541 42.5761C19.5541 43.5639 20.3868 44.3373 21.3648 44.3373C21.9161 44.3373 22.4273 44.056 22.852 43.5279L26.8242 38.4863C28.0107 36.9922 28.7978 34.7835 28.7978 33.0029C28.7978 28.8047 25.7462 26.0071 21.0898 26.0071H10.3401V29.5885Z" fill="currentColor" />
</svg>
