<svg width="1em" height="1em" viewBox="0 0 15 16" fill="none" xmlns="http://www.w3.org/2000/svg">
<path d="M7.49999 15.4961C11.603 15.4961 15 12.0917 15 7.99609C15 3.89315 11.5956 0.496094 7.49264 0.496094C3.39706 0.496094 0 3.89315 0 7.99609C0 12.0917 3.4044 15.4961 7.49999 15.4961ZM7.49999 14.2461C4.02941 14.2461 1.25735 11.4667 1.25735 7.99609C1.25735 4.5255 4.02206 1.74609 7.49264 1.74609C10.9632 1.74609 13.75 4.5255 13.75 7.99609C13.75 11.4667 10.9706 14.2461 7.49999 14.2461ZM6.21323 12.1137H9.2059C9.50738 12.1137 9.74267 11.8931 9.74267 11.5916C9.74267 11.3049 9.50738 11.0769 9.2059 11.0769H8.29409V7.33432C8.29409 6.93726 8.09561 6.67255 7.72057 6.67255H6.33823C6.03676 6.67255 5.80146 6.9005 5.80146 7.18726C5.80146 7.48873 6.03676 7.70932 6.33823 7.70932H7.12499V11.0769H6.21323C5.91176 11.0769 5.67646 11.3049 5.67646 11.5916C5.67646 11.8931 5.91176 12.1137 6.21323 12.1137ZM7.43382 5.45197C7.97055 5.45197 8.38971 5.0255 8.38971 4.48873C8.38971 3.95197 7.97055 3.5255 7.43382 3.5255C6.9044 3.5255 6.47794 3.95197 6.47794 4.48873C6.47794 5.0255 6.9044 5.45197 7.43382 5.45197Z" fill="currentColor"/>
</svg>
