<svg xmlns="http://www.w3.org/2000/svg" width="1em" height="1em" viewBox="0 0 22 22" fill="none">
  <path fill-rule="evenodd" clip-rule="evenodd" d="M21.9891 10.9946C21.9891 16.9985 17.0093 21.9891 10.9946 21.9891C4.99068 21.9891 0 16.9985 0 10.9946C0 4.9799 4.9799 0 10.9838 0C16.9985 0 21.9891 4.9799 21.9891 10.9946ZM10.1114 12.1156C10.1221 12.6869 10.4348 12.9995 10.9952 12.9995C11.5342 12.9995 11.8468 12.6977 11.8575 12.1156L12.0085 6.25181C12.0192 5.68051 11.5773 5.26013 10.9845 5.26013C10.3809 5.26013 9.96043 5.66973 9.97119 6.24103L10.1114 12.1156ZM9.78796 15.4571C9.78796 16.0931 10.3485 16.6104 10.9952 16.6104C11.6419 16.6104 12.2025 16.1038 12.2025 15.4571C12.2025 14.8104 11.6528 14.293 10.9952 14.293C10.3377 14.293 9.78796 14.8211 9.78796 15.4571Z" fill="currentColor"/>
</svg>