<svg width="1em" height="1em" viewBox="0 0 20 20" fill="none" xmlns="http://www.w3.org/2000/svg">
    <path
        d="M7.72372 7.03693C8.02557 7.03693 8.26527 7.27663 8.26527 7.5696V17.131L8.22976 18.4183L8.69141 17.93L10.5291 16.0302C10.6268 15.9237 10.7688 15.8704 10.902 15.8704C11.1861 15.8704 11.3991 16.0746 11.3991 16.3498C11.3991 16.5007 11.3459 16.6072 11.2393 16.7138L8.12322 19.7678C7.99006 19.9009 7.86577 19.9453 7.72372 19.9453C7.59055 19.9453 7.46626 19.9009 7.3331 19.7678L4.2081 16.7138C4.10156 16.6072 4.0483 16.5007 4.0483 16.3498C4.0483 16.0746 4.25249 15.8704 4.53658 15.8704C4.66974 15.8704 4.82067 15.9237 4.91832 16.0302L6.74716 17.9212L7.22656 18.4183L7.18217 17.131V7.5696C7.18217 7.27663 7.43075 7.03693 7.72372 7.03693ZM2.61896 0.224077H12.6584V1.32493H2.63672C1.6424 1.32493 1.10085 1.84872 1.10085 2.87855V11.8363C1.10085 12.8572 1.6424 13.3899 2.63672 13.3899H5.15803V14.4908H2.61896C0.887784 14.4908 0 13.6119 0 11.8896V2.81641C0 1.10298 0.887784 0.224077 2.61896 0.224077ZM18.6881 9.23824C19.3894 9.23824 19.851 8.71445 19.851 8.07524C19.851 7.88881 19.7978 7.6935 19.6912 7.50706L15.8649 0.697759C15.643 0.316012 15.2612 0.1207 14.8706 0.1207C14.48 0.1207 14.0893 0.316012 13.8674 0.697759L10.0499 7.50706C9.94338 7.6935 9.89899 7.88881 9.89899 8.07524C9.89899 8.71445 10.3518 9.23824 11.0531 9.23824H18.6881ZM14.8706 5.85578C14.6042 5.85578 14.4089 5.66935 14.4001 5.39414L14.3379 2.7663C14.329 2.44669 14.551 2.22475 14.8706 2.22475C15.1991 2.22475 15.421 2.44669 15.4121 2.7663L15.35 5.39414C15.3411 5.66935 15.1458 5.85578 14.8706 5.85578ZM14.8706 7.87993C14.4888 7.87993 14.1781 7.56033 14.1781 7.17858C14.1781 6.79684 14.4888 6.48611 14.8706 6.48611C15.2523 6.48611 15.5719 6.80571 15.5719 7.17858C15.5631 7.56033 15.2523 7.87993 14.8706 7.87993ZM12.8374 14.4677C14.5685 14.4677 15.4563 13.5799 15.4563 11.8665V10.2685H14.3555V11.8132C14.3555 12.8342 13.7962 13.3668 12.8107 13.3668H10.3072V14.4677H12.8374Z"
        fill="currentColor" />
</svg>