<svg height="1em" width="1em" viewBox="0 0 16 12" fill="none" xmlns="http://www.w3.org/2000/svg">
<path d="M8.00204 11.0571C9.14715 11.0571 10.1692 10.8365 11.1185 10.4912L10.5079 9.88062C9.7288 10.1472 8.90977 10.3116 8.00204 10.3116C3.94845 10.3116 0.820984 6.87631 0.820984 6.00303C0.820984 5.52873 1.94348 4.05377 3.77305 2.96601L3.19682 2.38977C1.19811 3.61337 0 5.28399 0 6.00303C0 7.19812 3.34749 11.0571 8.00204 11.0571ZM8.00204 0.950791C6.90629 0.950791 5.95389 1.15907 5.04116 1.49164L5.65029 2.09665C6.39242 1.84463 7.13403 1.69265 8.00204 1.69265C12.0663 1.69265 15.1809 5.21833 15.1809 6.00303C15.1809 6.5207 14.0921 7.93583 12.3402 8.99485L12.9142 9.56881C14.8374 8.35299 16 6.70976 16 6.00303C16 4.80386 12.6977 0.950791 8.00204 0.950791ZM8.00204 9.3357C8.57619 9.3357 9.115 9.17873 9.5836 8.91811L5.06726 4.40177C4.80249 4.87219 4.65337 5.41697 4.65337 6.00303C4.66302 7.81833 6.14278 9.3357 8.00204 9.3357ZM10.9642 7.4851C11.2062 7.04341 11.3425 6.53381 11.3425 6.00303C11.3425 4.14379 9.84386 2.67222 8.00204 2.67222C7.46121 2.67222 6.9557 2.8049 6.51401 3.03493L10.9642 7.4851ZM12.748 11.1698C12.8861 11.312 13.1093 11.3203 13.2515 11.1698C13.4038 11.0157 13.3896 10.8085 13.2515 10.6663L3.16822 0.587189C3.03197 0.450935 2.80653 0.445394 2.66061 0.587189C2.52663 0.721179 2.52663 0.954843 2.66061 1.09068L12.748 11.1698Z" fill="currentColor" />
</svg>
