<svg  height="1em" width="1em" viewBox="0 0 16 11" fill="none" xmlns="http://www.w3.org/2000/svg">
<path d="M8.00291 10.5191C12.7332 10.5191 16 6.69622 16 5.50193C16 4.30178 12.7274 0.484741 8.00291 0.484741C3.33699 0.484741 0 4.30178 0 5.50193C0 6.69622 3.33113 10.5191 8.00291 10.5191ZM8.00291 9.59414C4.14489 9.59414 1.02451 6.32739 1.02451 5.50193C1.02451 4.80526 4.14489 1.40973 8.00291 1.40973C11.8434 1.40973 14.9755 4.80526 14.9755 5.50193C14.9755 6.32739 11.8434 9.59414 8.00291 9.59414ZM8.00291 8.7804C9.82361 8.7804 11.2872 7.2875 11.2872 5.50193C11.2872 3.66952 9.82361 2.22349 8.00291 2.22349C6.17052 2.22349 4.70105 3.66952 4.70691 5.50193C4.71861 7.2875 6.17052 8.7804 8.00291 8.7804ZM8.00291 6.59083C7.39407 6.59083 6.90231 6.09907 6.90231 5.50193C6.90231 4.89893 7.39407 4.41302 8.00291 4.41302C8.60593 4.41302 9.09769 4.89893 9.09769 5.50193C9.09769 6.09907 8.60593 6.59083 8.00291 6.59083Z" fill="currentColor"/>
</svg>
