<svg width="1em" height="1em" viewBox="0 0 24 25" fill="none" xmlns="http://www.w3.org/2000/svg">
<path d="M24 20.7494V6.74938C24 5.95373 23.6839 5.19067 23.1213 4.62806C22.5587 4.06545 21.7956 3.74938 21 3.74938H20C19.9999 3.2851 19.8921 2.82719 19.6849 2.41167C19.4778 1.99615 19.1771 1.63438 18.8064 1.35482C18.4357 1.07526 18.0052 0.885552 17.5488 0.800622C17.0923 0.715692 16.6224 0.73786 16.176 0.865382L13.176 1.72338C12.7394 1.84825 12.3372 2.07126 12 2.37538C11.6628 2.07126 11.2606 1.84825 10.824 1.72338L7.824 0.865382C7.37758 0.73786 6.90765 0.715692 6.45121 0.800622C5.99477 0.885552 5.56427 1.07526 5.19359 1.35482C4.82292 1.63438 4.52218 1.99615 4.31507 2.41167C4.10795 2.82719 4.0001 3.2851 4 3.74938H3C2.20435 3.74938 1.44129 4.06545 0.87868 4.62806C0.31607 5.19067 0 5.95373 0 6.74938L0 20.7494H11V22.7494H7V24.7494H17V22.7494H13V20.7494H24ZM13 4.60738C13.0001 4.3902 13.0709 4.17895 13.2017 4.00557C13.3325 3.83219 13.5162 3.70611 13.725 3.64638L16.725 2.78938C16.8144 2.7635 16.9069 2.75004 17 2.74938C17.2652 2.74938 17.5196 2.85474 17.7071 3.04227C17.8946 3.22981 18 3.48416 18 3.74938V9.99538L13 11.4234V4.60738ZM6 3.74938C6.00022 3.5947 6.03633 3.44218 6.10547 3.30381C6.17462 3.16544 6.27492 3.045 6.3985 2.95195C6.52207 2.85891 6.66554 2.7958 6.81763 2.7676C6.96972 2.73939 7.12628 2.74684 7.275 2.78938L10.275 3.64638C10.4838 3.70611 10.6675 3.83219 10.7983 4.00557C10.9291 4.17895 10.9999 4.3902 11 4.60738V11.4234L6 9.99538V3.74938ZM2 6.74938C2 6.48417 2.10536 6.22981 2.29289 6.04227C2.48043 5.85474 2.73478 5.74938 3 5.74938H4V11.5034L12 13.7894L20 11.5034V5.74938H21C21.2652 5.74938 21.5196 5.85474 21.7071 6.04227C21.8946 6.22981 22 6.48417 22 6.74938V18.7494H2V6.74938Z" fill="none" style="fill:currentColor;fill-opacity:1;"/>
</svg>
