<svg width="1em" height="1em" viewBox="0 0 24 25" fill="none" xmlns="http://www.w3.org/2000/svg">
<path d="M21 0.75H3C2.20435 0.75 1.44129 1.06607 0.87868 1.62868C0.31607 2.19129 0 2.95435 0 3.75L0 20.75H6.9L10.708 23.968C11.069 24.2731 11.5264 24.4405 11.999 24.4405C12.4716 24.4405 12.929 24.2731 13.29 23.968L17.1 20.75H24V3.75C24 2.95435 23.6839 2.19129 23.1213 1.62868C22.5587 1.06607 21.7956 0.75 21 0.75V0.75ZM22 18.75H16.366L12 22.44L7.634 18.75H2V3.75C2 3.48478 2.10536 3.23043 2.29289 3.04289C2.48043 2.85536 2.73478 2.75 3 2.75H21C21.2652 2.75 21.5196 2.85536 21.7071 3.04289C21.8946 3.23043 22 3.48478 22 3.75V18.75Z" fill="currentColor" style="fill:currentColor;fill-opacity:1;"/>
<path d="M12 5.75H6V7.75H12V5.75Z" fill="none" style="fill:currentColor;fill-opacity:1;"/>
<path d="M18 9.75H6V11.75H18V9.75Z" fill="none" style="fill:currentColor;fill-opacity:1;"/>
<path d="M18 13.75H6V15.75H18V13.75Z" fill="none" style="fill:currentColor;fill-opacity:1;"/>
</svg>
