<svg width="1em" height="1em" viewBox="0 0 24 25" fill="none" xmlns="http://www.w3.org/2000/svg">
<path d="M8 8.75V6.75H16V8.75H8ZM5 22.75C4.73478 22.75 4.48043 22.6446 4.29289 22.4571C4.10536 22.2696 4 22.0152 4 21.75V3.75C4 3.48478 4.10536 3.23043 4.29289 3.04289C4.48043 2.85536 4.73478 2.75 5 2.75H20V12.25C20.7426 12.5625 21.4207 13.0101 22 13.57V0.75H5C4.20435 0.75 3.44129 1.06607 2.87868 1.62868C2.31607 2.19129 2 2.95435 2 3.75V21.75C2 22.5456 2.31607 23.3087 2.87868 23.8713C3.44129 24.4339 4.20435 24.75 5 24.75H17.5C16.6254 24.7499 15.76 24.5726 14.9558 24.2289C14.1516 23.8852 13.4254 23.3821 12.821 22.75H5ZM22.543 24.707L19.886 22.05C19.1732 22.505 18.3456 22.7477 17.5 22.75C16.61 22.75 15.74 22.4861 14.9999 21.9916C14.2599 21.4971 13.6831 20.7943 13.3425 19.9721C13.0019 19.1498 12.9128 18.245 13.0865 17.3721C13.2601 16.4992 13.6887 15.6974 14.318 15.068C14.9474 14.4387 15.7492 14.0101 16.6221 13.8365C17.495 13.6628 18.3998 13.7519 19.2221 14.0925C20.0443 14.4331 20.7471 15.0099 21.2416 15.7499C21.7361 16.49 22 17.36 22 18.25C21.9977 19.0956 21.755 19.9232 21.3 20.636L23.957 23.293L22.543 24.707ZM17.5 20.75C17.9945 20.75 18.4778 20.6034 18.8889 20.3287C19.3 20.054 19.6205 19.6635 19.8097 19.2067C19.9989 18.7499 20.0484 18.2472 19.952 17.7623C19.8555 17.2773 19.6174 16.8319 19.2678 16.4822C18.9181 16.1326 18.4727 15.8945 17.9877 15.798C17.5028 15.7016 17.0001 15.7511 16.5433 15.9403C16.0865 16.1295 15.696 16.45 15.4213 16.8611C15.1466 17.2722 15 17.7555 15 18.25C15 18.913 15.2634 19.5489 15.7322 20.0178C16.2011 20.4866 16.837 20.75 17.5 20.75Z" fill="none" style="fill:currentColor;fill-opacity:1;"/>
</svg>
