<svg width="1em" height="1em" viewBox="0 0 24 25" fill="none" xmlns="http://www.w3.org/2000/svg">
<path d="M21 24.75H3V21.75C3.0598 20.0206 3.4868 18.3238 4.25265 16.7721C5.0185 15.2204 6.10567 13.8493 7.442 12.75C6.10567 11.6507 5.0185 10.2796 4.25265 8.72794C3.4868 7.17624 3.0598 5.47937 3 3.75C3 2.95435 3.31607 2.19129 3.87868 1.62868C4.44129 1.06607 5.20435 0.75 6 0.75L18 0.75C18.7956 0.75 19.5587 1.06607 20.1213 1.62868C20.6839 2.19129 21 2.95435 21 3.75C20.941 5.47779 20.516 7.1734 19.7532 8.72482C18.9905 10.2762 17.9072 11.6482 16.575 12.75C17.9072 13.8518 18.9905 15.2238 19.7532 16.7752C20.516 18.3266 20.941 20.0222 21 21.75V24.75ZM5 22.75H19V21.75C19 17.976 16.5 15.198 14.408 13.533L13.424 12.75L14.408 11.967C16.5 10.302 19 7.524 19 3.75C19 3.48478 18.8946 3.23043 18.7071 3.04289C18.5196 2.85536 18.2652 2.75 18 2.75H6C5.73478 2.75 5.48043 2.85536 5.29289 3.04289C5.10536 3.23043 5 3.48478 5 3.75C5 7.524 7.508 10.301 9.612 11.966L10.6 12.75L9.609 13.534C7.508 15.199 5 17.976 5 21.75V22.75ZM12.018 16.732C12.7566 17.3108 13.4106 17.99 13.961 18.75H10.068L12.018 16.732ZM12.014 14.263C10.377 15.336 7.585 17.593 7.08 20.75H16.922C16.422 17.566 13.634 15.32 12.014 14.263Z" fill="none" style="fill:currentColor;fill-opacity:1;"/>
</svg>
