<svg width="1em" height="1em" viewBox="0 0 24 25" fill="currentColor" xmlns="http://www.w3.org/2000/svg">
<path d="M24.0009 12.25C23.9985 11.5758 23.8438 10.9109 23.5484 10.3048C23.253 9.69877 22.8245 9.16728 22.2949 8.75004C23.0276 8.17246 23.5617 7.38058 23.8228 6.48488C24.0838 5.58918 24.0588 4.63433 23.7512 3.75353C23.4436 2.87273 22.8687 2.10991 22.1068 1.57149C21.3448 1.03307 20.4339 0.745903 19.5009 0.750044H4.50089C3.56793 0.745903 2.65694 1.03307 1.89501 1.57149C1.13307 2.10991 0.558201 2.87273 0.250583 3.75353C-0.0570363 4.63433 -0.0820586 5.58918 0.179006 6.48488C0.440071 7.38058 0.974203 8.17246 1.70689 8.75004C1.17543 9.16562 0.745596 9.69676 0.449977 10.3032C0.154358 10.9096 0.00072159 11.5754 0.00072159 12.25C0.00072159 12.9247 0.154358 13.5905 0.449977 14.1969C0.745596 14.8033 1.17543 15.3345 1.70689 15.75C0.974203 16.3276 0.440071 17.1195 0.179006 18.0152C-0.0820586 18.9109 -0.0570363 19.8658 0.250583 20.7466C0.558201 21.6274 1.13307 22.3902 1.89501 22.9286C2.65694 23.467 3.56793 23.7542 4.50089 23.75H19.5009C20.4339 23.7542 21.3448 23.467 22.1068 22.9286C22.8687 22.3902 23.4436 21.6274 23.7512 20.7466C24.0588 19.8658 24.0838 18.9109 23.8228 18.0152C23.5617 17.1195 23.0276 16.3276 22.2949 15.75C22.8245 15.3328 23.253 14.8013 23.5484 14.1953C23.8438 13.5892 23.9985 12.9243 24.0009 12.25ZM2.00089 5.25004C2.00089 4.587 2.26428 3.95112 2.73312 3.48228C3.20196 3.01344 3.83785 2.75004 4.50089 2.75004H5.00089V3.75004C5.00089 4.01526 5.10625 4.26961 5.29378 4.45715C5.48132 4.64469 5.73567 4.75004 6.00089 4.75004C6.26611 4.75004 6.52046 4.64469 6.708 4.45715C6.89553 4.26961 7.00089 4.01526 7.00089 3.75004V2.75004H9.00089V3.75004C9.00089 4.01526 9.10625 4.26961 9.29378 4.45715C9.48132 4.64469 9.73567 4.75004 10.0009 4.75004C10.2661 4.75004 10.5205 4.64469 10.708 4.45715C10.8955 4.26961 11.0009 4.01526 11.0009 3.75004V2.75004H19.5009C20.1639 2.75004 20.7998 3.01344 21.2687 3.48228C21.7375 3.95112 22.0009 4.587 22.0009 5.25004C22.0009 5.91309 21.7375 6.54897 21.2687 7.01781C20.7998 7.48665 20.1639 7.75004 19.5009 7.75004H4.50089C3.83785 7.75004 3.20196 7.48665 2.73312 7.01781C2.26428 6.54897 2.00089 5.91309 2.00089 5.25004ZM22.0009 19.25C22.0009 19.9131 21.7375 20.549 21.2687 21.0178C20.7998 21.4867 20.1639 21.75 19.5009 21.75H4.50089C3.83785 21.75 3.20196 21.4867 2.73312 21.0178C2.26428 20.549 2.00089 19.9131 2.00089 19.25C2.00089 18.587 2.26428 17.9511 2.73312 17.4823C3.20196 17.0134 3.83785 16.75 4.50089 16.75H5.00089V17.75C5.00089 18.0153 5.10625 18.2696 5.29378 18.4572C5.48132 18.6447 5.73567 18.75 6.00089 18.75C6.26611 18.75 6.52046 18.6447 6.708 18.4572C6.89553 18.2696 7.00089 18.0153 7.00089 17.75V16.75H9.00089V17.75C9.00089 18.0153 9.10625 18.2696 9.29378 18.4572C9.48132 18.6447 9.73567 18.75 10.0009 18.75C10.2661 18.75 10.5205 18.6447 10.708 18.4572C10.8955 18.2696 11.0009 18.0153 11.0009 17.75V16.75H19.5009C20.1639 16.75 20.7998 17.0134 21.2687 17.4823C21.7375 17.9511 22.0009 18.587 22.0009 19.25ZM4.50089 14.75C3.83785 14.75 3.20196 14.4867 2.73312 14.0178C2.26428 13.549 2.00089 12.9131 2.00089 12.25C2.00089 11.587 2.26428 10.9511 2.73312 10.4823C3.20196 10.0134 3.83785 9.75004 4.50089 9.75004H5.00089V10.75C5.00089 11.0153 5.10625 11.2696 5.29378 11.4572C5.48132 11.6447 5.73567 11.75 6.00089 11.75C6.26611 11.75 6.52046 11.6447 6.708 11.4572C6.89553 11.2696 7.00089 11.0153 7.00089 10.75V9.75004H9.00089V10.75C9.00089 11.0153 9.10625 11.2696 9.29378 11.4572C9.48132 11.6447 9.73567 11.75 10.0009 11.75C10.2661 11.75 10.5205 11.6447 10.708 11.4572C10.8955 11.2696 11.0009 11.0153 11.0009 10.75V9.75004H19.5009C20.1639 9.75004 20.7998 10.0134 21.2687 10.4823C21.7375 10.9511 22.0009 11.587 22.0009 12.25C22.0009 12.9131 21.7375 13.549 21.2687 14.0178C20.7998 14.4867 20.1639 14.75 19.5009 14.75H4.50089Z" fill="none" style="fill:currentColor;fill-opacity:1;"/>
</svg>
