<svg width="1em" height="1em" viewBox="0 0 34 44" fill="none" xmlns="http://www.w3.org/2000/svg">
<path d="M5.58993 43.9997H27.9911C31.6647 43.9997 33.5809 42.0719 33.5809 38.3923V18.0696C33.5809 16.3911 33.2991 15.6312 32.2799 14.6004L19.0925 1.35478C18.0816 0.347174 17.281 0.0537109 15.6865 0.0537109H5.58993C1.96694 0.0537109 0 1.9874 0 5.66692V38.3923C0 42.0777 1.91623 43.9997 5.58993 43.9997ZM5.66058 42.4493C2.9513 42.4493 1.55051 41.0368 1.55051 38.345V5.7143C1.55051 3.1031 2.9513 1.60422 5.66642 1.60422H16.0373V14.6969C16.0373 16.7619 17.0623 17.6614 18.9869 17.6614H32.0305V38.345C32.0305 41.0368 30.6297 42.4493 27.9145 42.4493H5.66058ZM19.1066 16.1542C17.976 16.1542 17.5296 15.7169 17.5296 14.5713V1.9642L31.6704 16.1542H19.1066Z" fill="currentColor"/>
</svg>
