<svg fill="none" height="1em" width="1em" viewBox="0 0 19 24" xmlns="http://www.w3.org/2000/svg">
  <path d="M3.81754 23.5H15.1825C17.3978 23.5 18.5 22.374 18.5 20.1422V10.4018C18.5 9.01811 18.3391 8.41751 17.4829 7.53735L11.5868 1.51876C10.7737 0.682453 10.0995 0.5 8.90047 0.5H3.81754C1.61314 0.5 0.5 1.637 0.5 3.86872V20.1422C0.5 22.3841 1.6022 23.5 3.81754 23.5ZM3.89253 21.7726C2.79033 21.7726 2.22321 21.1829 2.22321 20.1101V3.90082C2.22321 2.839 2.79033 2.22743 3.90346 2.22743H8.66534V8.46058C8.66534 9.81213 9.33947 10.4777 10.6776 10.4777H16.7776V20.1109C16.7776 21.1837 16.2105 21.7734 15.0973 21.7734H3.89253V21.7726ZM10.8697 8.8568C10.4417 8.8568 10.2815 8.68531 10.2815 8.2562V2.55944L16.4456 8.8568H10.8697Z" fill="currentColor"/>
  <path d="M13.3921 13.7673H4.65578C4.30762 13.7673 4.02539 14.0503 4.02539 14.3993V14.4C4.02539 14.749 4.30762 15.032 4.65578 15.032H13.3921C13.7403 15.032 14.0225 14.749 14.0225 14.4V14.3993C14.0225 14.0503 13.7403 13.7673 13.3921 13.7673Z" fill="currentColor"/>
  <path d="M9.77405 16.1204H4.48724C4.21113 16.1204 3.9873 16.3447 3.9873 16.6215V16.8838C3.9873 17.1606 4.21113 17.385 4.48724 17.385H9.77405C10.0502 17.385 10.274 17.1606 10.274 16.8838V16.6215C10.274 16.3447 10.0502 16.1204 9.77405 16.1204Z" fill="currentColor"/>
</svg>
