<svg width="1em" height="1em" viewBox="0 0 16 20" fill="currentColor" xmlns="http://www.w3.org/2000/svg">
<path d="M3.23945 10.8452C3.44428 10.8225 3.64154 10.8073 3.83879 10.8073C4.04362 10.8073 4.24087 10.8225 4.46088 10.8452V4.26772C4.46088 3.51665 4.86297 3.08422 5.65197 3.08422H9.02798V7.492C9.02798 8.4479 9.50591 8.91829 10.4542 8.91829H14.7785V15.731C14.7785 16.4897 14.3765 16.9069 13.5875 16.9069H8.57282C8.47416 17.3393 8.30729 17.7566 8.08728 18.1283H13.6482C15.2186 18.1283 16 17.3317 16 15.7537V8.86516C16 7.8865 15.8862 7.46166 15.2793 6.83956L11.0991 2.58351C10.5225 1.99176 10.0446 1.86279 9.19485 1.86279H5.59128C4.02845 1.86279 3.23945 2.66696 3.23945 4.24496V10.8452ZM10.1735 7.34785V3.31941L14.5434 7.7727H10.5908C10.2874 7.7727 10.1735 7.65132 10.1735 7.34785ZM3.85396 19.5621C5.94025 19.5621 7.70792 17.8097 7.70792 15.7082C7.70792 13.5916 5.97061 11.8543 3.85396 11.8543C1.73732 11.8543 0 13.5916 0 15.7082C0 17.8249 1.73732 19.5621 3.85396 19.5621ZM3.85396 18.1208C3.57326 18.1208 3.39118 17.931 3.39118 17.658V16.171H1.90422C1.63111 16.171 1.44144 15.9889 1.44144 15.7082C1.44144 15.4275 1.63111 15.2378 1.90422 15.2378H3.39118V13.7584C3.39118 13.4854 3.57326 13.2957 3.85396 13.2957C4.13467 13.2957 4.31674 13.4854 4.31674 13.7584V15.2378H5.79611C6.07682 15.2378 6.26648 15.4275 6.26648 15.7082C6.26648 15.9889 6.07682 16.171 5.79611 16.171H4.31674V17.658C4.31674 17.931 4.13467 18.1208 3.85396 18.1208Z" fill="currentColor"/>
</svg>
