<svg height="1em" width="1em" viewBox="0 0 16 16" fill="none" xmlns="http://www.w3.org/2000/svg">
<path d="M8 -0.000488281C6.41775 -0.000488281 4.87104 0.468704 3.55544 1.34775C2.23985 2.22681 1.21447 3.47624 0.608967 4.93805C0.00346629 6.39985 -0.15496 8.00839 0.153721 9.56024C0.462403 11.1121 1.22433 12.5375 2.34315 13.6564C3.46197 14.7752 4.88743 15.5371 6.43928 15.8458C7.99113 16.1545 9.59966 15.9961 11.0615 15.3905C12.5233 14.785 13.7727 13.7597 14.6518 12.4441C15.5308 11.1285 16 9.58176 16 7.99951C15.9977 5.87848 15.1541 3.84499 13.6543 2.34519C12.1545 0.845397 10.121 0.00180577 8 -0.000488281ZM13.7647 4.66618H11.6173C11.1366 3.55217 10.5037 2.51024 9.73667 1.57018C11.4343 2.03213 12.8815 3.14449 13.7647 4.66618ZM11 7.99951C10.9945 8.67827 10.8876 9.3524 10.6827 9.99951H5.31734C5.11244 9.3524 5.00548 8.67827 5 7.99951C5.00548 7.32075 5.11244 6.64663 5.31734 5.99951H10.6827C10.8876 6.64663 10.9945 7.32075 11 7.99951ZM5.852 11.3328H10.148C9.58216 12.45 8.85877 13.4801 8 14.3915C7.14092 13.4803 6.4175 12.4502 5.852 11.3328ZM5.852 4.66618C6.41785 3.54903 7.14123 2.51895 8 1.60751C8.85909 2.51869 9.58251 3.54882 10.148 4.66618H5.852ZM6.26667 1.57018C5.49844 2.51003 4.86439 3.55198 4.38267 4.66618H2.23534C3.11924 3.1438 4.56778 2.03135 6.26667 1.57018ZM1.64067 5.99951H3.93334C3.76051 6.65228 3.67091 7.32427 3.66667 7.99951C3.67091 8.67475 3.76051 9.34675 3.93334 9.99951H1.64067C1.2309 8.69766 1.2309 7.30136 1.64067 5.99951ZM2.23534 11.3328H4.38267C4.86439 12.447 5.49844 13.489 6.26667 14.4288C4.56778 13.9677 3.11924 12.8552 2.23534 11.3328ZM9.73667 14.4288C10.5037 13.4888 11.1366 12.4469 11.6173 11.3328H13.7647C12.8815 12.8545 11.4343 13.9669 9.73667 14.4288ZM14.3593 9.99951H12.0667C12.2395 9.34675 12.3291 8.67475 12.3333 7.99951C12.3291 7.32427 12.2395 6.65228 12.0667 5.99951H14.358C14.7678 7.30136 14.7678 8.69766 14.358 9.99951H14.3593Z" fill="currentColor"/>
</svg>
