<svg fill="currentColor" height="1em" width="1em" viewBox="0 0 25 24" xmlns="http://www.w3.org/2000/svg">
  <path d="M23.15 18.13C23.05 17.7299 22.65 17.4799 22.25 17.5799C21.85 17.6799 21.6 18.08 21.69 18.48C21.73 18.65 21.75 18.8199 21.75 18.9999C21.75 20.2399 20.74 21.2499 19.5 21.2499C18.26 21.2499 17.25 20.2399 17.25 18.9999C17.25 17.8999 18.04 16.99 19.09 16.79C18.99 17.02 19 17.2999 19.16 17.5199C19.31 17.7199 19.54 17.8299 19.77 17.8299C19.92 17.8299 20.08 17.7799 20.21 17.6899L21.38 16.8399C21.39 16.8299 21.39 16.82 21.4 16.82C21.41 16.81 21.42 16.8099 21.43 16.7999C21.46 16.7699 21.48 16.74 21.5 16.7C21.53 16.66 21.57 16.6299 21.59 16.5799C21.61 16.5399 21.62 16.49 21.64 16.45C21.65 16.4 21.67 16.3599 21.68 16.3099C21.69 16.2599 21.68 16.22 21.67 16.17C21.67 16.12 21.67 16.0699 21.65 16.0199C21.64 15.9699 21.61 15.93 21.59 15.89C21.57 15.85 21.56 15.8099 21.54 15.7799C21.53 15.7699 21.52 15.77 21.51 15.76C21.5 15.75 21.5 15.74 21.49 15.73L20.49 14.5799C20.22 14.2699 19.74 14.23 19.43 14.51C19.21 14.71 19.13 14.9999 19.21 15.2699C17.28 15.4199 15.75 17.0199 15.75 18.9899C15.75 21.0599 17.43 22.7399 19.5 22.7399C21.57 22.7399 23.25 21.0599 23.25 18.9899C23.25 18.7099 23.22 18.41 23.15 18.13Z" fill="currentColor"/>
  <path d="M2.52975 14.6299C2.52975 14.6599 2.50977 14.6999 2.50977 14.7299C3.42977 16.5699 4.92974 18.0799 6.76974 18.9899C6.79975 18.9899 6.83975 18.9699 6.86975 18.9699C6.52975 17.8099 6.26974 16.6199 6.07974 15.4299C4.87974 15.2299 3.68975 14.9699 2.52975 14.6299Z" fill="currentColor"/>
  <path d="M19.5701 6.42993C18.6301 4.45993 17.0401 2.86994 15.0801 1.93994C15.4401 3.12994 15.7401 4.34995 15.9401 5.56995C17.1601 5.76995 18.3801 6.05993 19.5701 6.42993Z" fill="currentColor"/>
  <path d="M2.42969 6.43002C3.62969 6.07002 4.8497 5.77004 6.0697 5.57004C6.2697 4.38004 6.51968 3.20004 6.85968 2.04004C6.82968 2.04004 6.7897 2.02002 6.7597 2.02002C4.8797 2.95002 3.34969 4.52002 2.42969 6.43002Z" fill="currentColor"/>
  <path d="M14.3197 5.36023C14.0797 4.06023 13.7797 2.76024 13.3497 1.50024C13.3297 1.43024 13.3297 1.37025 13.3197 1.29025C12.5797 1.11025 11.7997 0.990234 10.9997 0.990234C10.1897 0.990234 9.41971 1.10025 8.66971 1.29025C8.65971 1.36025 8.66969 1.42024 8.64969 1.50024C8.22969 2.76024 7.91969 4.06023 7.67969 5.36023C9.88969 5.12023 12.1097 5.12023 14.3197 5.36023Z" fill="currentColor"/>
  <path d="M5.86023 7.18018C4.55023 7.42018 3.26024 7.72018 2.00024 8.15018C1.93024 8.17018 1.87025 8.17018 1.79025 8.18018C1.61025 8.92018 1.49023 9.70018 1.49023 10.5002C1.49023 11.3102 1.60025 12.0802 1.79025 12.8302C1.86025 12.8402 1.92024 12.8302 2.00024 12.8502C3.26024 13.2702 4.55023 13.5802 5.86023 13.8202C5.62023 11.6102 5.62023 9.39018 5.86023 7.18018Z" fill="currentColor"/>
  <path d="M20.2009 8.18018C20.1309 8.18018 20.0708 8.17018 19.9908 8.15018C18.7308 7.73018 17.4309 7.42018 16.1309 7.18018C16.3809 9.39018 16.3809 11.6102 16.1309 13.8102C17.4309 13.5702 18.7308 13.2702 19.9908 12.8402C20.0608 12.8202 20.1209 12.8302 20.2009 12.8202C20.3809 12.0702 20.5009 11.3002 20.5009 10.4902C20.5009 9.70017 20.3909 8.93018 20.2009 8.18018Z" fill="currentColor"/>
  <path d="M7.67969 15.6401C7.91969 16.9501 8.21969 18.2401 8.64969 19.5001C8.66969 19.5701 8.65971 19.6301 8.66971 19.7101C9.41971 19.8901 10.1897 20.0101 10.9997 20.0101C11.7997 20.0101 12.5797 19.9001 13.3197 19.7101C13.3297 19.6401 13.3297 19.5801 13.3497 19.5001C13.7697 18.2401 14.0797 16.9501 14.3197 15.6401C13.2197 15.7601 12.1097 15.8501 10.9997 15.8501C9.88969 15.8401 8.77969 15.7601 7.67969 15.6401Z" fill="currentColor"/>
  <path d="M7.44961 6.9501C7.14961 9.3101 7.14961 11.6901 7.44961 14.0601C9.80961 14.3601 12.1896 14.3601 14.5596 14.0601C14.8596 11.7001 14.8596 9.3201 14.5596 6.9501C12.1896 6.6501 9.80961 6.6501 7.44961 6.9501Z" fill="currentColor"/>
</svg>
