<svg height="1em" width="1em" viewBox="0 0 24 20" fill="none" xmlns="http://www.w3.org/2000/svg">
<path d="M20.5002 10.424V10.7502L20.7987 10.8816C21.7427 11.2973 22.5152 12.0246 22.9869 12.9418C23.4587 13.859 23.6011 14.9104 23.3902 15.92C23.1793 16.9297 22.628 17.8362 21.8286 18.4879C21.0293 19.1395 20.0305 19.4968 18.9993 19.5C18.9991 19.5 18.9989 19.5 18.9987 19.5L14.0002 19.5C13.8676 19.5 13.7404 19.4473 13.6466 19.3536C13.5529 19.2598 13.5002 19.1326 13.5002 19C13.5002 18.8674 13.5529 18.7402 13.6466 18.6464C13.7404 18.5527 13.8676 18.5 14.0002 18.5H17.0002H17.5002V18V12C17.5002 11.6022 17.6582 11.2206 17.9395 10.9393C18.2208 10.658 18.6024 10.5 19.0002 10.5H19.5002V10V9C19.5002 7.01088 18.71 5.10322 17.3035 3.6967C15.897 2.29018 13.9893 1.5 12.0002 1.5C10.0111 1.5 8.10342 2.29018 6.69689 3.6967C5.29037 5.10322 4.50019 7.01088 4.50019 9V10V10.5H5.00019C5.39802 10.5 5.77955 10.658 6.06085 10.9393C6.34216 11.2206 6.50019 11.6022 6.50019 12V18C6.50019 18.3978 6.34216 18.7794 6.06085 19.0607C5.77974 19.3418 5.39853 19.4998 5.001 19.5C3.96983 19.4968 2.97105 19.1395 2.17179 18.4879C1.37236 17.8362 0.821058 16.9297 0.610191 15.92C0.399324 14.9104 0.541688 13.859 1.01345 12.9418C1.48521 12.0246 2.25773 11.2973 3.20169 10.8816L3.50019 10.7502V10.424V9C3.50019 6.74566 4.39573 4.58365 5.98979 2.98959C7.58385 1.39553 9.74585 0.5 12.0002 0.5C14.2545 0.5 16.4165 1.39553 18.0106 2.98959C19.6047 4.58365 20.5002 6.74566 20.5002 9V10.424ZM5.00019 18.5H5.50019V18V12V11.5H5.00019C4.07194 11.5 3.1817 11.8687 2.52532 12.5251C1.86894 13.1815 1.50019 14.0717 1.50019 15C1.50019 15.9283 1.86894 16.8185 2.52532 17.4749C3.1817 18.1313 4.07194 18.5 5.00019 18.5ZM18.5002 18V18.5H19.0002C19.9285 18.5 20.8187 18.1313 21.4751 17.4749C22.1314 16.8185 22.5002 15.9283 22.5002 15C22.5002 14.0717 22.1314 13.1815 21.4751 12.5251C20.8187 11.8687 19.9285 11.5 19.0002 11.5H18.5002V12V18Z" fill="currentColor" stroke="currentColor"/>
</svg>
