<svg width="1rem" height="1rem" viewBox="0 0 70 66" fill="none" xmlns="http://www.w3.org/2000/svg">
<path d="M0 21.8954C0 36.8629 13.0794 51.5681 32.8034 64.3431C33.4464 64.7433 34.3458 65.1571 34.9999 65.1571C35.654 65.1571 36.5534 64.7433 37.21 64.3431C56.9205 51.5681 70 36.8629 70 21.8954C70 9.60307 61.5388 0.868164 50.2237 0.868164C43.7343 0.868164 38.0906 4.19611 34.9999 9.34586C31.959 4.22087 26.2654 0.868164 19.7762 0.868164C8.46118 0.868164 0 9.60307 0 21.8954ZM4.44685 21.8954C4.44685 12.0179 10.9368 5.30386 19.7266 5.30386C26.3904 5.30386 30.548 9.43961 32.9917 13.5549C33.7611 14.7356 34.2715 15.0862 34.9999 15.0862C35.7283 15.0862 36.1892 14.7108 36.9971 13.5549C39.5758 9.48919 43.6232 5.30386 50.2733 5.30386C59.063 5.30386 65.5531 12.0179 65.5531 21.8954C65.5531 35.3577 51.5033 49.5944 35.6429 60.1588C35.3505 60.3659 35.1436 60.5119 34.9999 60.5119C34.8562 60.5119 34.6493 60.3659 34.3817 60.1588C18.4964 49.5944 4.44685 35.3577 4.44685 21.8954Z" fill="currentColor"/>
</svg>
