<svg width="1rem" height="1rem" viewBox="0 0 15 16" fill="none" xmlns="http://www.w3.org/2000/svg">
<path d="M7.49999 15.4927C11.603 15.4927 15 12.0899 15 7.99634C15 3.8954 11.5956 0.5 7.49264 0.5C3.39706 0.5 0 3.8954 0 7.99634C0 12.0899 3.4044 15.4927 7.49999 15.4927ZM5.67646 4.64503C6.49264 4.64503 7.11763 5.10805 7.49999 5.79889C7.875 5.10805 8.5147 4.64503 9.32351 4.64503C10.6029 4.64503 11.5368 5.61515 11.5368 6.96008C11.5368 8.9444 9.41913 10.7597 7.875 11.7666C7.75732 11.8548 7.61027 11.9503 7.5147 11.9503C7.41911 11.9503 7.24999 11.8474 7.11763 11.7666C5.56617 10.7817 3.46323 8.9444 3.46323 6.96008C3.46323 5.61515 4.3897 4.64503 5.67646 4.64503Z" fill="currentColor"/>
</svg>

