<svg width="1em" height="1em" viewBox="0 0 24 25" fill="none" xmlns="http://www.w3.org/2000/svg">
<path d="M23.437 10.6004L14.939 1.41344C14.5645 1.00822 14.1102 0.684875 13.6046 0.463728C13.0991 0.242581 12.5533 0.128418 12.0015 0.128418C11.4497 0.128418 10.9039 0.242581 10.3984 0.463728C9.89283 0.684875 9.43852 1.00822 9.064 1.41344L0.581 10.5974C0.208713 10.9723 -0.000155505 11.4792 8.68665e-08 12.0074V21.1134C8.68665e-08 21.9091 0.316071 22.6722 0.87868 23.2348C1.44129 23.7974 2.20435 24.1134 3 24.1134H7V18.1134C7.00335 17.2152 7.24932 16.3346 7.71192 15.5647C8.17451 14.7948 8.83653 14.1641 9.628 13.7394C9.678 13.7114 9.728 13.6834 9.78 13.6564C9.96671 13.5634 10.1591 13.4823 10.356 13.4134C10.491 13.3644 10.628 13.3224 10.769 13.2854C10.91 13.2484 11.08 13.2154 11.24 13.1854C11.328 13.1714 11.41 13.1414 11.5 13.1324C11.654 13.1174 11.8 13.1144 11.955 13.1134C11.971 13.1134 11.985 13.1084 12 13.1084H12.018C12.3275 13.1108 12.6362 13.142 12.94 13.2014C12.974 13.2084 13.008 13.2114 13.04 13.2184C13.325 13.2807 13.6041 13.3677 13.874 13.4784C13.912 13.4934 13.95 13.5074 13.988 13.5244C14.2462 13.6365 14.4945 13.7703 14.73 13.9244L14.841 13.9984C15.0696 14.1574 15.2847 14.335 15.484 14.5294C15.516 14.5604 15.546 14.5914 15.577 14.6234C15.7722 14.8239 15.9508 15.04 16.111 15.2694L16.179 15.3694C16.3364 15.6084 16.4732 15.8603 16.588 16.1224C16.601 16.1544 16.612 16.1864 16.625 16.2224C16.7393 16.4988 16.8283 16.785 16.891 17.0774C16.891 17.0994 16.898 17.1224 16.902 17.1444C16.9663 17.4635 16.9991 17.788 17 18.1134V24.1134H21C21.7956 24.1134 22.5587 23.7974 23.1213 23.2348C23.6839 22.6722 24 21.9091 24 21.1134V11.9924C24.0002 11.4729 23.7983 10.9737 23.437 10.6004Z" fill="currentColor"/>
<path d="M12 15.1134C11.2044 15.1134 10.4413 15.4295 9.87868 15.9921C9.31607 16.5547 9 17.3178 9 18.1134V24.1134H15V18.1134C15 17.3178 14.6839 16.5547 14.1213 15.9921C13.5587 15.4295 12.7956 15.1134 12 15.1134Z" fill="currentColor"/>
</svg>
