<svg  width="1em" height="1em" viewBox="0 0 40 40" fill="none">
  <rect x="0.449219" y="0.25293" width="39" height="39" rx="6" fill="#4B4D59" style="fill-opacity:1;"/>
  <path d="M11.4492 15.4529C11.4492 14.6042 11.7864 13.7903 12.3865 13.1902C12.9866 12.5901 13.8005 12.2529 14.6492 12.2529H24.2492C25.0979 12.2529 25.9118 12.5901 26.512 13.1902C27.1121 13.7903 27.4492 14.6042 27.4492 15.4529V25.0529C27.4492 25.9016 27.1121 26.7156 26.512 27.3157C25.9118 27.9158 25.0979 28.2529 24.2492 28.2529H14.6492C13.8005 28.2529 12.9866 27.9158 12.3865 27.3157C11.7864 26.7156 11.4492 25.9016 11.4492 25.0529V15.4529Z" stroke="currentColor" style="stroke-opacity:1;" stroke-linecap="round" stroke-linejoin="round"/>
  <path d="M16.6494 19.4541C17.754 19.4541 18.6494 18.5587 18.6494 17.4541C18.6494 16.3495 17.754 15.4541 16.6494 15.4541C15.5448 15.4541 14.6494 16.3495 14.6494 17.4541C14.6494 18.5587 15.5448 19.4541 16.6494 19.4541Z" stroke="currentColor" style="stroke-opacity:1;" stroke-linecap="round" stroke-linejoin="round"/>
  <path d="M21.4702 20.7492L14.6494 28.2524H24.3558C25.1763 28.2524 25.9632 27.9265 26.5433 27.3463C27.1235 26.7661 27.4494 25.9793 27.4494 25.1588V25.0524C27.4494 24.6796 27.3094 24.5364 27.0574 24.2604L23.8334 20.7444C23.6832 20.5805 23.5004 20.4497 23.2968 20.3604C23.0931 20.271 22.8731 20.2251 22.6508 20.2256C22.4284 20.226 22.2086 20.2728 22.0053 20.363C21.802 20.4531 21.6198 20.5847 21.4702 20.7492V20.7492Z" stroke="currentColor" style="stroke-opacity:1;" stroke-linecap="round" stroke-linejoin="round"/>
</svg>