<svg height="1em" width="1em" viewBox="0 0 24 20" fill="none" xmlns="http://www.w3.org/2000/svg">
<path d="M1 18.7147V5.28613H1.85714V14.6433C1.85714 15.4717 2.52872 16.1433 3.35714 16.1433H20.6429C21.4713 16.1433 22.1429 15.4717 22.1429 14.6433V10.429H23V18.7147H22.1429V17.929C22.1429 17.1006 21.4713 16.429 20.6429 16.429H3.35714C2.52872 16.429 1.85714 17.1006 1.85714 17.929V18.7147H1Z" fill="currentColor" stroke="currentColor" stroke-width="2"/>
<path d="M4.28571 11.5709V11.2852H10V11.5709H4.28571Z" fill="currentColor" stroke="currentColor" stroke-width="2"/>
<path d="M11.4281 0.785156C11.4574 0.785156 11.4813 0.789086 11.4995 0.794031V5.49057C11.4813 5.49551 11.4574 5.49944 11.4281 5.49944C11.3989 5.49944 11.375 5.49551 11.3567 5.49057V0.794031C11.375 0.789086 11.3989 0.785156 11.4281 0.785156Z" fill="currentColor" stroke="currentColor"/>
<path d="M13.7854 3.14174C13.7854 3.171 13.7815 3.19487 13.7765 3.21317L9.07999 3.21317C9.07504 3.19487 9.07111 3.171 9.07111 3.14174C9.07111 3.11248 9.07504 3.08861 9.07999 3.07031L13.7765 3.07031C13.7815 3.08861 13.7854 3.11248 13.7854 3.14174Z" fill="currentColor" stroke="currentColor"/>
</svg>