<svg width="16" height="16" viewBox="0 0 16 16" fill="none" xmlns="http://www.w3.org/2000/svg">
<g clip-path="url(#clip0_7010_3677)">
<path d="M8.00003 0C10.209 0 12.2091 0.895649 13.6568 2.3432C15.1044 3.79088 16 5.79098 16 8C16 10.209 15.1044 12.2091 13.6567 13.6567C12.2091 15.1044 10.209 16 8.00003 16C5.79101 16 3.79088 15.1044 2.3432 13.6568C0.895649 12.2091 0 10.209 0 8C0 5.79098 0.895649 3.79088 2.3432 2.3432C3.79088 0.895649 5.79101 0 8.00003 0Z" fill="white" style="fill:white;fill-opacity:1;"/>
<path d="M8.00006 0.676819C12.0445 0.676819 15.3233 3.9555 15.3233 8.00008C15.3233 12.0446 12.0445 15.3233 8.00006 15.3233C3.95544 15.3233 0.676758 12.0446 0.676758 8.00008C0.676758 3.9555 3.95544 0.676819 8.00006 0.676819Z" fill="#006C35" style="fill:#006C35;fill:color(display-p3 0.0000 0.4235 0.2078);fill-opacity:1;"/>
<path d="M10.8005 10.7471C10.7644 10.7471 10.6666 10.847 10.6666 10.8832C10.6666 10.9108 10.7155 10.9661 10.7559 10.998V11.081H3.86622C4.11075 11.3255 4.47436 11.3319 5.20589 11.3319H10.7559V11.4149C10.7134 11.4489 10.6666 11.502 10.6666 11.5297C10.6666 11.5658 10.7644 11.6658 10.8005 11.6658C10.8303 11.6658 10.8835 11.6126 10.9175 11.568H11.2237C11.2434 11.5998 11.29 11.6207 11.3417 11.6207C11.3935 11.6207 11.4401 11.5998 11.4597 11.568H11.8234C11.868 11.619 11.9276 11.6211 11.9637 11.6211C12.0679 11.6211 12.1339 11.5764 12.1339 11.3319C12.1339 11.1022 12.0318 11.081 11.7808 11.081H10.8452V10.998C10.8856 10.9661 10.9345 10.9108 10.9345 10.8832C10.9345 10.8471 10.8367 10.7471 10.8005 10.7471ZM10.8452 11.3319H11.7808C11.7638 11.3957 11.7638 11.4446 11.7808 11.4914H11.4598C11.4401 11.4595 11.3935 11.4387 11.3417 11.4387C11.29 11.4387 11.2434 11.4595 11.2237 11.4914L10.9175 11.4914C10.9005 11.468 10.8686 11.4319 10.8452 11.4149V11.3319ZM11.6316 7.81934C11.8901 7.72032 12.1477 7.61989 12.4063 7.52107C12.3927 7.55759 12.3748 7.59938 12.3289 7.61782C12.0905 7.70882 11.8526 7.80053 11.6142 7.89145C11.5985 7.89772 11.5829 7.90455 11.5658 7.90787C11.5815 7.88283 11.5963 7.85751 11.6114 7.83234C11.6147 7.8253 11.6238 7.82252 11.6315 7.81934H11.6316ZM10.8265 7.47508C10.8822 7.50882 10.9328 7.54733 10.9683 7.58889C11.034 7.66896 11.0509 7.77274 11.0101 7.86279C11.0066 7.8702 10.9991 7.87568 10.9927 7.88161C11.0054 7.83176 11.0091 7.77897 10.9893 7.73C10.9622 7.65884 10.9008 7.59911 10.8189 7.56415C10.8203 7.53305 10.8245 7.50165 10.8265 7.47508ZM8.69356 7.43177C8.72822 7.40855 8.77634 7.40632 8.81969 7.40639C8.86324 7.40879 8.9093 7.41031 8.94767 7.42869C8.96584 7.44541 8.94858 7.4652 8.92997 7.47569C8.85447 7.51881 8.77133 7.5562 8.71008 7.61281C8.69346 7.62743 8.70206 7.65024 8.72307 7.6588C8.75485 7.67139 8.7916 7.672 8.82652 7.67129C8.9094 7.66774 8.98902 7.6429 9.0584 7.60754C9.07772 7.59779 9.09505 7.58567 9.11501 7.57664C9.07112 7.61874 9.0229 7.65608 8.97116 7.68804C8.92649 7.71461 8.8761 7.73765 8.82019 7.74455C8.7762 7.7475 8.72886 7.74584 8.69086 7.72615C8.64852 7.70635 8.62869 7.66195 8.64436 7.6253C8.65384 7.60473 8.67133 7.5873 8.68974 7.57122C8.73729 7.53139 8.79539 7.5009 8.85336 7.4715C8.81407 7.47001 8.77427 7.46835 8.73522 7.47211C8.70971 7.47414 8.69258 7.4893 8.67448 7.50158C8.66903 7.47769 8.66889 7.44933 8.69356 7.43177ZM7.13786 7.37177C7.17235 7.35844 7.21989 7.36037 7.24706 7.38361C7.2698 7.4049 7.27224 7.43421 7.27055 7.46087C7.25234 7.48009 7.23136 7.49776 7.21607 7.5187C7.18412 7.52337 7.15055 7.51928 7.11932 7.52669C7.10362 7.53393 7.08307 7.53833 7.07553 7.55288C7.06565 7.5717 7.07025 7.59261 7.07441 7.61207C7.09065 7.68005 7.12067 7.74686 7.11911 7.81687C7.11739 7.84144 7.11532 7.86692 7.10064 7.88915C7.09722 7.8502 7.07989 7.81342 7.06734 7.77596C7.04362 7.7077 7.02484 7.63769 7.02206 7.56676C7.01895 7.53945 7.03878 7.51593 7.05881 7.49535C7.08839 7.46263 7.14142 7.45305 7.18849 7.44598C7.17624 7.43705 7.1624 7.42676 7.14429 7.42876C7.11898 7.43163 7.10186 7.44842 7.08795 7.46385C7.08544 7.42977 7.09722 7.3895 7.13786 7.37177ZM9.39392 7.35857C9.39518 7.35763 9.39662 7.35696 9.39815 7.3566C9.39968 7.35624 9.40127 7.35619 9.40282 7.35647C9.38942 7.36862 9.38208 7.38389 9.37179 7.39766C9.34248 7.44148 9.30858 7.48801 9.31639 7.53958C9.31721 7.56381 9.33443 7.59508 9.37017 7.59491C9.38763 7.58801 9.39213 7.57038 9.40089 7.55769C9.39978 7.59545 9.39277 7.64134 9.34793 7.66293C9.31071 7.65819 9.28276 7.63207 9.28127 7.60253C9.27369 7.51329 9.32089 7.42531 9.39392 7.35857ZM2.71613 6.85584C2.73745 6.82576 2.75748 6.793 2.79481 6.7731C2.74953 6.84542 2.70242 6.91872 2.68266 6.99858C2.67609 7.0291 2.67278 7.06437 2.69772 7.09063C2.71711 7.10707 2.74821 7.11008 2.77477 7.10497C2.81501 7.09794 2.83376 7.0646 2.85037 7.03817C2.86313 7.0579 2.84993 7.07919 2.84408 7.09888C2.82739 7.14051 2.8075 7.18561 2.76144 7.21265C2.72608 7.23407 2.67538 7.22551 2.64134 7.20666C2.59654 7.17895 2.59549 7.12863 2.60337 7.08792C2.62107 7.00552 2.66686 6.92904 2.71613 6.85584ZM5.99836 6.53324C6.01149 6.51348 6.03724 6.49003 6.06888 6.49991C6.10688 6.50898 6.1521 6.53284 6.14604 6.56861C6.13585 6.58079 6.12279 6.59124 6.11125 6.60258C6.09893 6.58414 6.08516 6.56055 6.05633 6.55663C6.01876 6.56637 5.9963 6.59619 5.98445 6.62458C5.95951 6.68657 5.95396 6.75209 5.94702 6.81652C5.93792 6.82034 5.92885 6.82413 5.91958 6.82759C5.91982 6.76826 5.90354 6.70529 5.85322 6.6593C5.84181 6.64407 5.8165 6.65172 5.79938 6.64437C5.76743 6.63531 5.75583 6.60773 5.74811 6.58414C5.74425 6.5682 5.73735 6.54901 5.75082 6.5348C5.77907 6.5284 5.80124 6.548 5.82141 6.56038C5.87332 6.59943 5.90919 6.64969 5.93856 6.70085C5.95095 6.64373 5.96401 6.58515 5.99836 6.53324ZM11.399 6.3767C11.4383 6.36597 11.4796 6.38005 11.5117 6.39798C11.5654 6.42939 11.6073 6.47203 11.6396 6.51785C11.6569 6.54441 11.6766 6.57351 11.6696 6.60438C11.6655 6.62519 11.6635 6.64749 11.6477 6.66525C11.6304 6.68224 11.5977 6.68052 11.5758 6.6704C11.5508 6.65916 11.527 6.6464 11.5008 6.6369C11.4655 6.71293 11.3909 6.77283 11.3102 6.82031C11.2555 6.85344 11.1955 6.88065 11.1348 6.90609C11.0973 6.9221 11.0558 6.93066 11.0156 6.94105C10.9755 6.95005 10.9346 6.96193 10.8922 6.95865C10.919 6.9574 10.9401 6.94369 10.9627 6.93391C11.0801 6.87983 11.1952 6.8217 11.2998 6.75276C11.3553 6.71473 11.412 6.67514 11.4494 6.62448C11.4253 6.62029 11.401 6.61685 11.3767 6.61419C11.357 6.56898 11.3568 6.51368 11.3992 6.47629C11.3781 6.46343 11.3756 6.44015 11.3721 6.42079C11.3691 6.40391 11.3762 6.38252 11.399 6.3767H11.399ZM11.5043 6.48868C11.5123 6.52214 11.5147 6.55629 11.5154 6.59033C11.5485 6.59409 11.5814 6.60448 11.6151 6.6015C11.6324 6.5995 11.6317 6.5816 11.6221 6.57311C11.5908 6.53893 11.5472 6.51318 11.5043 6.48868ZM11.3922 6.54329C11.4091 6.5681 11.4475 6.57443 11.4789 6.58238C11.4853 6.56637 11.4936 6.54962 11.4905 6.53263C11.4792 6.5151 11.4638 6.4922 11.4353 6.4923C11.4107 6.50228 11.401 6.52407 11.3922 6.54329ZM9.21914 6.32949C9.23866 6.30953 9.27169 6.29978 9.30286 6.29903C9.32452 6.29887 9.33501 6.31727 9.33995 6.33128C9.34939 6.36435 9.35105 6.40035 9.33067 6.43118C9.34127 6.43724 9.35189 6.4434 9.36269 6.44942C9.35976 6.47056 9.35797 6.49184 9.35734 6.51318C9.33582 6.50404 9.31927 6.48952 9.30086 6.47731C9.23886 6.56151 9.15347 6.62564 9.05532 6.6617C9.00012 6.6837 8.93694 6.69334 8.87549 6.68728C8.99187 6.65436 9.10493 6.60685 9.18936 6.53395C9.21762 6.50968 9.24287 6.48209 9.26455 6.45179C9.24817 6.43798 9.22861 6.42617 9.21585 6.41003C9.20567 6.38418 9.19819 6.35328 9.21914 6.32949ZM9.25108 6.35501C9.25951 6.37389 9.27568 6.38949 9.2925 6.40418C9.29958 6.3878 9.30885 6.37003 9.29849 6.35321C9.28259 6.35078 9.26661 6.35213 9.25108 6.35501ZM2.7229 6.55977C2.95646 6.44374 3.19097 6.32875 3.42498 6.21332C3.41828 6.25362 3.40082 6.30025 3.35175 6.32042C3.13514 6.42668 2.91798 6.53233 2.70171 6.63896C2.69602 6.64134 2.69015 6.64327 2.68415 6.64471C2.69792 6.61663 2.70841 6.58756 2.7229 6.55977ZM7.6125 5.94679C7.63088 5.92555 7.65131 5.90617 7.67348 5.88893C7.65673 5.91901 7.66672 5.95183 7.67453 5.98256C7.68333 6.0162 7.69528 6.04923 7.70858 6.08195C7.71792 6.10659 7.75369 6.11528 7.78228 6.12012C7.7994 6.12445 7.82042 6.11433 7.81379 6.09887C7.79752 6.05845 7.77777 6.01952 7.75477 5.98253C7.76296 5.95728 7.77223 5.93231 7.78008 5.90703C7.79091 5.90703 7.80187 5.90713 7.81287 5.90723C7.82235 5.95397 7.85047 5.99637 7.87639 6.03836C7.87646 6.08378 7.87304 6.13112 7.85267 6.1742C7.8391 6.20472 7.79362 6.2142 7.7569 6.21176C7.70814 6.20432 7.67582 6.17105 7.64722 6.14178C7.63298 6.18015 7.59271 6.20993 7.54506 6.22195C7.50472 6.23366 7.45823 6.21663 7.4366 6.18851C7.41288 6.15731 7.40838 6.11968 7.40946 6.08398C7.4116 6.03298 7.42408 5.97349 7.48195 5.94287L7.49816 5.9429C7.49559 5.94385 7.49031 5.94564 7.48774 5.94655C7.45258 5.99745 7.45038 6.06141 7.48161 6.11383C7.49071 6.13041 7.51369 6.14232 7.53694 6.13846C7.56594 6.13291 7.58885 6.1166 7.60865 6.09978C7.60936 6.04875 7.60909 5.99769 7.6125 5.94679ZM3.00448 5.84023C3.0569 5.83126 3.10465 5.85718 3.14191 5.88324C3.19185 5.92182 3.23344 5.96781 3.2598 6.01911C3.26779 6.03461 3.27131 6.05153 3.26837 6.06818C3.26454 6.09031 3.26238 6.11457 3.24461 6.13295C3.22373 6.14821 3.1908 6.14489 3.16864 6.13315C3.14661 6.12164 3.12363 6.11129 3.09967 6.10252C3.06373 6.17782 2.9903 6.23731 2.91024 6.28482C2.84736 6.32245 2.77883 6.35403 2.70797 6.3812C2.65721 6.39646 2.6053 6.40956 2.55261 6.41995C2.53163 6.42448 2.5098 6.42401 2.48828 6.42353C2.5009 6.4212 2.51437 6.42045 2.52591 6.41528C2.64121 6.36377 2.75366 6.30787 2.85843 6.24374C2.92922 6.19866 2.99951 6.15088 3.04972 6.09031C3.02533 6.08594 3.00079 6.08181 2.97585 6.07992C2.95622 6.03461 2.95561 5.97948 2.99704 5.94145C2.97707 5.92764 2.97419 5.9049 2.97057 5.88544C2.96678 5.86656 2.97896 5.84419 3.00448 5.84023ZM3.10235 5.95302C3.11165 5.98679 3.11253 6.02151 3.11429 6.05589C3.14918 6.05901 3.18434 6.0721 3.2195 6.06527C3.23581 6.05802 3.22434 6.04148 3.21585 6.03302C3.1837 6.00178 3.14299 5.97684 3.10235 5.95302ZM3.01663 5.96754C3.00516 5.98097 2.99182 5.99647 2.99362 6.01342C3.01392 6.03363 3.04817 6.04205 3.07917 6.04645C3.08221 6.03677 3.0858 6.0273 3.0882 6.01759C3.09669 5.99779 3.07737 5.98006 3.06191 5.96628C3.05037 5.95525 3.02661 5.95488 3.01663 5.96754ZM6.90575 5.80125C6.93996 5.82382 6.96078 5.85627 6.98389 5.88588C7.04307 5.96828 7.09353 6.0544 7.14236 6.1409C7.24947 6.32655 7.31992 6.52475 7.35874 6.7263C7.36967 6.78877 7.38087 6.85161 7.37863 6.91489C7.38513 7.04054 7.40402 7.16897 7.47027 7.2846C7.51904 7.36314 7.60198 7.43285 7.66692 7.48381C7.69788 7.50074 7.71098 7.49674 7.71914 7.48984C7.72418 7.48554 7.72218 7.43045 7.73247 7.40456C7.74715 7.36206 7.78079 7.32588 7.81656 7.29289C7.85656 7.25824 7.90184 7.22643 7.95527 7.20551C8.06234 7.16254 8.1733 7.12599 8.28538 7.09215C8.36978 7.06741 8.45557 7.04541 8.54328 7.02948C8.16677 7.03157 7.79023 7.03401 7.41366 7.03743C7.43248 6.96504 7.45159 6.89272 7.47098 6.82048C7.51092 6.77899 7.56117 6.74491 7.61078 6.71101C7.82664 6.57006 8.07591 6.46573 8.32836 6.37233C8.29878 6.33568 8.2577 6.30154 8.2512 6.25653C8.23594 6.19335 8.26911 6.13085 8.31087 6.07826C8.33557 6.04841 8.35868 6.01579 8.39675 5.99525C8.43496 5.9743 8.48663 5.97292 8.52842 5.98781C8.66839 6.03752 8.81278 6.12506 8.91952 6.20367C8.93021 6.21223 8.94395 6.21961 8.95061 6.23078C8.92551 6.29514 8.89897 6.35927 8.87464 6.42387C8.76334 6.44357 8.65143 6.46238 8.54297 6.49064C8.55401 6.54502 8.57363 6.60434 8.54413 6.65703C8.53384 6.65591 8.51986 6.65449 8.5181 6.64451C8.51394 6.59879 8.48609 6.5572 8.45749 6.51829C8.31909 6.5614 8.18099 6.606 8.0505 6.66268C7.94532 6.70891 7.83866 6.75906 7.76072 6.83303C8.33963 6.83317 8.91864 6.83317 9.49757 6.83303C9.46045 6.89753 9.42079 6.96119 9.38299 7.02545C9.00391 7.09851 8.62558 7.17665 8.25787 7.2805C8.10356 7.32527 7.94935 7.37448 7.81247 7.44747C7.79829 7.45603 7.79013 7.47184 7.80042 7.48466C7.82167 7.51048 7.86045 7.52114 7.89297 7.53586C7.9637 7.56686 8.04211 7.58375 8.11913 7.60182C8.17432 7.61471 8.22951 7.62757 8.28464 7.6406C8.28007 7.71792 8.27929 7.79545 8.27337 7.87264C8.22823 7.87264 8.18217 7.86631 8.13676 7.86316C8.04779 7.85481 7.95747 7.84919 7.87169 7.8276C7.75487 7.79833 7.64959 7.74279 7.56716 7.67136C7.47667 7.5943 7.41122 7.50077 7.36432 7.40277C7.30029 7.26693 7.26463 7.10057 7.25224 6.95631C7.24659 6.9557 7.2452 6.98443 7.23972 6.98396C7.22438 7.04609 7.20373 7.10679 7.178 7.16538C7.17289 7.17996 7.15935 7.19106 7.14744 7.20237C7.05999 7.28237 6.96848 7.35783 6.87326 7.42842C6.77489 7.50097 6.67236 7.57038 6.56156 7.63082C6.44505 7.69406 6.319 7.75095 6.17961 7.77484C6.10472 7.78713 6.01954 7.78946 5.95393 7.75359C5.88063 7.71393 5.84486 7.64503 5.82557 7.57897C5.75866 7.61942 5.69102 7.65864 5.62266 7.6966C5.56057 7.72956 5.49871 7.76442 5.42761 7.78432C5.24981 7.83657 5.06484 7.87081 4.88082 7.90611C4.74884 7.92976 4.6168 7.95345 4.48391 7.97369C4.60702 7.91839 4.73202 7.8656 4.85459 7.80956C5.18714 7.65901 5.51475 7.50084 5.82747 7.32551C5.8701 7.16389 5.93894 7.00132 6.07233 6.87165L6.0791 6.87016C6.06848 6.88802 6.06337 6.90765 6.05244 6.92545C5.97207 7.03685 5.91491 7.15996 5.89467 7.28754C6.03704 7.20561 6.17595 7.11976 6.30671 7.0264C6.38749 6.96911 6.46336 6.90755 6.53266 6.84149C6.55175 6.82281 6.57764 6.80674 6.58484 6.78217C6.58803 6.7662 6.58623 6.75632 6.57476 6.72319C6.49392 6.54641 6.3792 6.32587 6.30299 6.17044C6.32908 6.0919 6.35324 6.01295 6.37957 5.93447C6.4147 5.95278 6.43757 5.98151 6.46255 6.0075C6.51354 6.06676 6.56153 6.12774 6.60464 6.19085C6.62874 6.22557 6.6333 6.26587 6.64214 6.30421C6.60755 6.27958 6.58346 6.24621 6.54505 6.22516C6.54674 6.23078 6.54904 6.23623 6.55205 6.24157C6.6128 6.33643 6.65435 6.43859 6.68129 6.54265C6.6979 6.60448 6.70511 6.66789 6.70048 6.73107C6.69699 6.79957 6.68521 6.86975 6.64549 6.93154C6.61019 6.98643 6.56271 7.0356 6.5131 7.08281C6.34498 7.23891 6.14797 7.37346 5.94787 7.503C5.94811 7.51055 5.95894 7.51258 5.96537 7.51671C6.03701 7.55207 6.12658 7.54852 6.20658 7.53749C6.26688 7.52645 6.32894 7.51803 6.38414 7.49468C6.52901 7.43471 6.65533 7.35109 6.77726 7.26588C6.93712 7.15076 7.08771 7.02768 7.23136 6.89997C7.18315 6.7651 7.1336 6.63072 7.08274 6.49683C7.05519 6.42682 7.02957 6.35619 6.99658 6.28763C6.94189 6.19724 6.88934 6.10574 6.84166 6.01295C6.86091 5.94205 6.88514 5.87194 6.90568 5.80121L6.90575 5.80125ZM8.36271 6.16587C8.34518 6.17136 8.33049 6.18665 8.33784 6.20202C8.34058 6.21362 8.35658 6.21765 8.36504 6.22628C8.39985 6.25805 8.43285 6.29176 8.46389 6.32722C8.5401 6.3053 8.61746 6.28628 8.69434 6.26618C8.63712 6.22289 8.57353 6.18174 8.49712 6.16215C8.45288 6.15055 8.40624 6.15184 8.36271 6.16587ZM10.0484 6.07271C10.283 5.95772 10.5164 5.84118 10.7514 5.72666C10.7447 5.7624 10.7318 5.80155 10.6947 5.82507C10.4672 5.93735 10.2384 6.04811 10.011 6.16056C10.0207 6.13061 10.036 6.10202 10.0484 6.07271ZM8.86453 5.63932C8.88622 5.6294 8.91806 5.63008 8.93275 5.64822C8.95295 5.67238 8.95836 5.70399 8.94743 5.7317C8.92672 5.78669 8.88107 5.83343 8.83129 5.8741C8.77075 5.9209 8.69827 5.96402 8.61262 5.97454C8.62697 5.9605 8.64798 5.95268 8.66646 5.9426C8.71952 5.91431 8.77062 5.8831 8.81519 5.84669C8.83857 5.82527 8.86385 5.80216 8.86804 5.77285C8.86967 5.74828 8.84155 5.72727 8.81282 5.72321C8.77092 5.72906 8.74483 5.75769 8.71404 5.77783C8.70673 5.76006 8.72636 5.74757 8.73796 5.73451C8.77485 5.69905 8.81204 5.66098 8.86453 5.63932ZM5.80831 5.52027C5.88005 5.48528 5.95041 5.44826 6.02306 5.41442C6.01589 5.45056 6.0011 5.49242 5.9567 5.51039C5.79799 5.58724 5.64101 5.66639 5.48175 5.74243C5.49952 5.71363 5.51705 5.68453 5.53661 5.65651C5.62639 5.61025 5.71789 5.56578 5.80831 5.5203V5.52027ZM12.7201 5.29516C12.8247 5.35087 12.911 5.43039 12.9576 5.52348C13.0037 5.61374 13.0033 5.71617 12.9662 5.80839C12.9612 5.81901 12.9504 5.82703 12.9414 5.83559C12.9575 5.77302 12.9631 5.70734 12.9407 5.64524C12.909 5.5469 12.8183 5.46518 12.7081 5.41577C12.7136 5.37564 12.7148 5.3353 12.7201 5.2952V5.29516ZM10.1995 5.3356C10.2175 5.31821 10.235 5.30054 10.2547 5.28437C10.2359 5.31902 10.2502 5.35669 10.2591 5.39181C10.2692 5.42396 10.279 5.45645 10.2943 5.48731C10.3134 5.50714 10.347 5.51722 10.3779 5.51645C10.3923 5.51641 10.3991 5.50311 10.3941 5.49357C10.379 5.45486 10.3593 5.41723 10.337 5.38078C10.3413 5.35405 10.3539 5.32829 10.3627 5.3022C10.3734 5.30298 10.3843 5.30369 10.3952 5.30454C10.4024 5.35202 10.4337 5.39405 10.4583 5.43665C10.4573 5.47096 10.4543 5.50545 10.4459 5.53919C10.4396 5.56267 10.4286 5.58988 10.3986 5.60047C10.373 5.60836 10.343 5.61272 10.3172 5.60325C10.2793 5.58995 10.2523 5.56375 10.229 5.53756C10.2143 5.57458 10.1768 5.60396 10.1308 5.61695C10.093 5.63072 10.047 5.61631 10.023 5.5911C9.99557 5.56139 9.99073 5.52311 9.99025 5.48741C9.99181 5.4531 9.99523 5.4178 10.0139 5.3863C10.026 5.36515 10.0447 5.34437 10.0736 5.33645C10.0551 5.36014 10.044 5.38867 10.0414 5.41857C10.0389 5.44848 10.0451 5.47848 10.0593 5.50494C10.0674 5.5202 10.0842 5.53499 10.1067 5.5355C10.1407 5.53414 10.1672 5.51472 10.1897 5.49631C10.1892 5.45256 10.1917 5.40887 10.1917 5.36508C10.1934 5.3552 10.1896 5.34332 10.1995 5.3356ZM4.51555 4.98028C4.60116 5.02417 4.66928 5.0909 4.70187 5.16772C4.72834 5.22978 4.72647 5.29811 4.70289 5.36051C4.69974 5.37066 4.6901 5.37824 4.68147 5.38569C4.69883 5.32677 4.69697 5.26291 4.6658 5.20701C4.63406 5.14928 4.57582 5.1017 4.50682 5.07091C4.51057 5.04072 4.51243 5.01043 4.51555 4.98028ZM7.27823 4.91477C7.29762 4.89575 7.31495 4.87389 7.3407 4.86001C7.32368 4.88045 7.33085 4.9057 7.33491 4.9282C7.34446 4.97023 7.3586 5.01162 7.37535 5.05226C7.38063 5.06921 7.40273 5.07645 7.42097 5.08299C7.43745 5.08786 7.45728 5.09239 7.47403 5.0859C7.48459 5.07855 7.47961 5.06603 7.47589 5.05696C7.45978 5.0214 7.4433 4.9857 7.42063 4.95236L7.44665 4.8748C7.45799 4.87551 7.46933 4.87612 7.48087 4.8767C7.48608 4.92444 7.51924 4.9661 7.54313 5.00898C7.54232 5.04552 7.53897 5.08238 7.52899 5.11815C7.5233 5.13923 7.51098 5.1615 7.48581 5.17212C7.45687 5.18119 7.42242 5.18542 7.39417 5.1728C7.36138 5.15794 7.33515 5.13524 7.31461 5.1105C7.29813 5.14847 7.2585 5.17852 7.21038 5.1909C7.17729 5.20075 7.13793 5.19026 7.11532 5.16952C7.08653 5.14586 7.07881 5.11161 7.07604 5.08008C7.0738 5.0395 7.07793 4.99768 7.09793 4.95991C7.11077 4.9361 7.13174 4.91769 7.15701 4.90803C7.13042 4.94982 7.11674 4.99842 7.13163 5.04458C7.1382 5.06881 7.14916 5.09967 7.18321 5.10728C7.21999 5.11101 7.24926 5.08887 7.27295 5.06972C7.27739 5.01815 7.27461 4.96627 7.27823 4.91473V4.91477ZM10.1264 4.84942C10.2503 4.80702 10.3741 4.76421 10.5008 4.72749C10.497 4.75027 10.4865 4.77629 10.4585 4.78712C10.2786 4.8479 10.098 4.90759 9.92193 4.97507C9.88694 4.99037 9.851 5.00607 9.82376 5.02962C9.84322 5.04657 9.87232 5.05294 9.89861 5.06058C9.89828 5.07703 9.89834 5.09351 9.89834 5.11002C9.86112 5.10288 9.82383 5.09212 9.79496 5.07158C9.79665 5.0482 9.79611 5.02468 9.80017 5.00143C9.80437 4.98032 9.83161 4.9704 9.85131 4.95893C9.93858 4.91592 10.0331 4.88313 10.1264 4.84939L10.1264 4.84942ZM4.55257 4.64425L4.55765 4.64827C4.54644 4.65954 4.55216 4.67443 4.55399 4.68736C4.56008 4.71524 4.56885 4.74286 4.58096 4.76952C4.58495 4.78144 4.60062 4.78715 4.61392 4.79111C4.6256 4.79304 4.64448 4.79758 4.64928 4.78526C4.6413 4.75636 4.62211 4.73057 4.61027 4.70286C4.61585 4.68685 4.61852 4.6697 4.6281 4.65487C4.63456 4.65497 4.64113 4.65518 4.64769 4.65552C4.65412 4.68662 4.67453 4.71396 4.68922 4.74266C4.6884 4.77216 4.68722 4.80279 4.67318 4.8305C4.66444 4.84929 4.63653 4.85426 4.61412 4.85402C4.58133 4.85037 4.55981 4.82844 4.54042 4.80939C4.52793 4.8372 4.49599 4.85896 4.45876 4.86279C4.42746 4.86407 4.40093 4.84407 4.39267 4.8213C4.38178 4.79118 4.383 4.75883 4.39186 4.72848C4.39873 4.70729 4.4122 4.68435 4.43992 4.67619C4.41805 4.7054 4.41264 4.7413 4.42489 4.77389C4.42966 4.78736 4.43849 4.80421 4.45856 4.80614C4.48086 4.80644 4.49741 4.79301 4.51331 4.78255C4.51744 4.74922 4.51247 4.71558 4.51768 4.68232C4.52573 4.66797 4.54191 4.65738 4.55257 4.64425ZM5.57898 4.58682C5.59265 4.58973 5.6025 4.59853 5.61376 4.60482C5.68205 4.64929 5.73894 4.70716 5.76605 4.77436C5.79143 4.83521 5.78987 4.90201 5.76726 4.96323C5.76418 4.97382 5.75566 4.98238 5.74821 4.99125C5.74764 4.99013 5.74645 4.98783 5.74581 4.98671C5.76232 4.93013 5.75985 4.86925 5.73109 4.81541C5.69996 4.75646 5.64168 4.70763 5.57133 4.6769C5.57316 4.64685 5.5761 4.61677 5.57901 4.58679L5.57898 4.58682ZM6.19842 4.53433C6.21578 4.50093 6.26116 4.47291 6.30851 4.47931C6.33216 4.48337 6.34871 4.49982 6.35713 4.51691C6.37368 4.55207 6.37612 4.59037 6.37033 4.62736C6.39937 4.65491 6.43094 4.68276 6.44312 4.71846C6.46566 4.76536 6.44549 4.81548 6.4263 4.86079C6.40177 4.92072 6.35514 4.97514 6.34644 5.03886C6.34339 5.05459 6.35108 5.07178 6.37141 5.07723C6.40414 5.06959 6.40921 5.03879 6.41595 5.01639C6.42617 5.01443 6.44221 5.01358 6.44576 5.02383C6.45134 5.05216 6.43564 5.07943 6.42295 5.10525C6.41148 5.12488 6.39558 5.14806 6.36613 5.15246C6.34262 5.15588 6.32465 5.13957 6.31524 5.12461C6.28844 5.0816 6.2969 5.0306 6.3193 4.98762C6.35422 4.9192 6.40035 4.8503 6.39608 4.77436C6.39622 4.74211 6.3791 4.71132 6.35172 4.6878C6.31081 4.77521 6.24465 4.85402 6.16847 4.92455C6.12905 4.96326 6.07244 4.98691 6.01839 5.0105C5.97003 5.03033 5.92093 5.04986 5.86943 5.06417C5.96861 5.00769 6.06374 4.946 6.14607 4.87429C6.21396 4.81399 6.27642 4.74604 6.3016 4.66651L6.29994 4.66205C6.26323 4.64327 6.2191 4.62672 6.19998 4.59359C6.19186 4.57474 6.19287 4.55356 6.19842 4.53433ZM6.23521 4.54391C6.22573 4.54875 6.23223 4.55802 6.23998 4.56117C6.26309 4.57183 6.28688 4.58171 6.31091 4.59108C6.3103 4.57193 6.3147 4.54814 6.29351 4.5345C6.27514 4.52236 6.25003 4.53285 6.23521 4.54391ZM10.1565 4.50127C10.1688 4.48418 10.1879 4.46313 10.2163 4.46608C10.2464 4.47146 10.2758 4.48425 10.2943 4.50422C10.3037 4.5167 10.3115 4.53576 10.2949 4.54675C10.2861 4.55352 10.2798 4.56499 10.269 4.56841C10.2539 4.55278 10.2421 4.52486 10.2115 4.52567C10.1732 4.53684 10.152 4.56757 10.1405 4.59674C10.1168 4.65697 10.1119 4.72049 10.1045 4.78286C10.0969 4.78908 10.0866 4.79257 10.0775 4.79697C10.0775 4.73372 10.059 4.66601 10.0017 4.61927C9.97411 4.61657 9.94132 4.61399 9.92589 4.59284C9.90707 4.56587 9.89354 4.53261 9.90657 4.50222C9.93574 4.49769 9.95939 4.51501 9.97919 4.52939C10.0316 4.56746 10.0655 4.61785 10.0961 4.66797C10.109 4.61105 10.1221 4.55288 10.1564 4.50124L10.1565 4.50127ZM2.69806 4.52178C2.71403 4.49948 2.73166 4.4765 2.75938 4.46215C2.71518 4.53758 2.66378 4.61251 2.64736 4.69572C2.64219 4.72293 2.64202 4.75413 2.66405 4.777C2.68466 4.79754 2.72215 4.79792 2.75132 4.79074C2.78398 4.78039 2.79917 4.75264 2.81443 4.72959C2.82127 4.72973 2.82269 4.73609 2.82597 4.73991C2.80875 4.79338 2.79213 4.85138 2.7412 4.89189C2.69386 4.93148 2.60046 4.91111 2.57721 4.86194C2.56033 4.82658 2.56594 4.78743 2.57586 4.75135C2.60022 4.6701 2.64632 4.59413 2.69806 4.52181V4.52178ZM7.1404 4.43704C7.2253 4.48296 7.29491 4.54922 7.3274 4.62709C7.34351 4.66797 7.3494 4.71152 7.34317 4.75413C7.33853 4.78516 7.33227 4.81737 7.31031 4.84407C7.30723 4.83592 7.3093 4.82756 7.31122 4.81947C7.31863 4.78821 7.31904 4.7557 7.31244 4.72426C7.30583 4.69282 7.29237 4.66322 7.27302 4.63758C7.23972 4.59237 7.19045 4.55447 7.13248 4.52943C7.1336 4.49857 7.13739 4.46784 7.1404 4.43704ZM8.32511 4.39556C8.35861 4.40933 8.38051 4.43444 8.4021 4.45799C8.45472 4.51894 8.49939 4.5874 8.53956 4.65389C8.54345 4.66269 8.54365 4.67359 8.54643 4.70283C8.52223 4.68198 8.49387 4.66184 8.45787 4.65575C8.45147 4.66692 8.45154 4.6789 8.45699 4.69034C8.50372 4.80384 8.55661 4.91575 8.60189 5.02962C8.63076 5.1039 8.65607 5.18018 8.65705 5.25835C8.65905 5.3309 8.64338 5.40339 8.61634 5.47259C8.58913 5.5376 8.54748 5.60206 8.47797 5.64497C8.42078 5.68172 8.34444 5.69695 8.27164 5.69157C8.18285 5.68632 8.09872 5.65242 8.03706 5.60206C8.00417 5.57726 7.97744 5.54795 7.9524 5.5181L7.96197 5.51631L7.95148 5.51733C7.89582 5.44311 7.85453 5.36213 7.83071 5.27791C7.83284 5.26698 7.80654 5.26792 7.80918 5.27875C7.77524 5.40163 7.7211 5.52281 7.63142 5.62748C7.57904 5.68761 7.51129 5.74128 7.42723 5.77302C7.33562 5.80723 7.22774 5.80947 7.13133 5.78757C7.03445 5.76544 6.95766 5.7049 6.91607 5.63353C6.85577 5.5313 6.84656 5.41557 6.8532 5.30444C6.86612 5.21462 6.89448 5.12684 6.92216 5.03933C6.93154 5.01243 6.93983 4.98346 6.92778 4.95615L6.91245 4.94982C6.89949 4.95653 6.88616 4.96309 6.87607 4.97246C6.80508 5.03443 6.76477 5.11361 6.73256 5.19215C6.70825 5.2548 6.68948 5.31946 6.67645 5.38538C6.6595 5.48873 6.63354 5.5933 6.57347 5.68697C6.54089 5.73678 6.49192 5.78849 6.41818 5.79993C6.34982 5.80713 6.2768 5.79018 6.22675 5.75204C6.16543 5.7067 6.13856 5.64074 6.12238 5.57736C6.09663 5.46355 6.10462 5.34691 6.12079 5.23263C6.13162 5.16221 6.14705 5.09229 6.16631 5.02302C6.1727 5.02258 6.1791 5.0222 6.1855 5.0219C6.16001 5.13869 6.14242 5.25723 6.14688 5.37591C6.15084 5.44352 6.16093 5.51242 6.19561 5.57502C6.2192 5.61786 6.2592 5.65776 6.31477 5.67624C6.36729 5.69313 6.43206 5.6962 6.48123 5.67096C6.53205 5.64456 6.55588 5.59743 6.57476 5.55377C6.61192 5.45709 6.62833 5.35655 6.6575 5.25831C6.68809 5.15865 6.73208 5.06167 6.78606 4.9684C6.81699 4.91402 6.85107 4.86055 6.89479 4.81186C6.93364 4.76848 6.9693 4.72086 7.02443 4.68902L7.04081 4.68966C7.05093 4.72235 7.03901 4.75616 7.03719 4.78925C7.03377 4.8439 7.00866 4.89521 6.99424 4.94813C6.97634 5.00871 6.96101 5.06975 6.94568 5.13073C6.92196 5.21808 6.90511 5.31022 6.93492 5.39807C6.95746 5.46701 7.01756 5.52778 7.09871 5.55919C7.15146 5.58115 7.21065 5.59232 7.27004 5.59397C7.35352 5.60064 7.4408 5.59272 7.51545 5.56091C7.60543 5.52379 7.66912 5.45655 7.71044 5.38467C7.74985 5.31459 7.77377 5.23687 7.78059 5.15676C7.78147 5.00116 7.7678 4.84259 7.70056 4.69504C7.692 4.67467 7.68079 4.65349 7.6857 4.63166C7.69633 4.57166 7.72164 4.51393 7.75132 4.45833C7.75321 4.45197 7.76286 4.45149 7.76864 4.44825C7.80042 4.5233 7.83125 4.59887 7.85054 4.6767C7.8748 4.77785 7.88878 4.88035 7.90316 4.98258C7.91456 5.05554 7.91788 5.12965 7.94103 5.20122C7.96021 5.26058 7.99009 5.31868 8.03706 5.36785C8.09412 5.43059 8.17977 5.47716 8.27506 5.49496C8.35658 5.50995 8.44369 5.49066 8.51228 5.45465C8.54836 5.43516 8.58578 5.40237 8.57377 5.36521C8.45959 5.12752 8.36569 4.88414 8.27236 4.64096C8.26616 4.6209 8.25439 4.60168 8.25246 4.58103C8.26457 4.51674 8.29303 4.45508 8.32511 4.39549V4.39556ZM5.13425 4.59535C5.17327 4.5256 5.21225 4.45586 5.25211 4.38642C5.3292 4.52679 5.39194 4.67203 5.43898 4.82049C5.4445 4.8505 5.43329 4.88066 5.43465 4.91081C5.40775 4.87301 5.37682 4.8371 5.34859 4.79988C5.35587 4.86797 5.36907 4.93571 5.37709 5.00377C5.4311 5.40563 5.47843 5.80836 5.51905 6.21179C5.56547 6.1852 5.60091 6.14702 5.6208 6.10456C5.64676 6.05677 5.67478 6.00923 5.71271 5.96652C5.72696 5.95116 5.74578 5.9315 5.77332 5.93623C5.78892 5.93694 5.79633 5.95018 5.79789 5.96097C5.80476 5.9988 5.76858 6.03149 5.77474 6.06906C5.77643 6.09989 5.80689 6.12635 5.8431 6.13565C5.9057 6.15356 5.97372 6.14554 6.03792 6.13836C6.06692 6.13332 6.1031 6.12899 6.11721 6.10516C6.10212 6.06665 6.08516 6.02889 6.06638 5.99204C6.09352 5.93735 6.12448 5.88385 6.15277 5.82947C6.16005 5.81664 6.16495 5.80246 6.17693 5.79167C6.19748 5.85383 6.20262 5.91837 6.21094 5.98205C6.21951 6.08506 6.19863 6.19196 6.13372 6.28259C6.09873 6.32895 6.04651 6.37111 5.97836 6.38452C5.91897 6.39578 5.85369 6.39064 5.79985 6.36716C5.74237 6.34139 5.69684 6.29471 5.67251 6.2366C5.63773 6.30036 5.59219 6.35762 5.5379 6.40587C5.54446 6.48546 5.5518 6.56502 5.55681 6.64468C5.56057 6.73351 5.53177 6.82055 5.49847 6.90464C5.4823 6.94078 5.46639 6.97709 5.44643 7.01208C5.26893 7.24159 5.03429 7.44493 4.75273 7.59674C4.56844 7.69691 4.36459 7.77457 4.15058 7.82557C4.03867 7.85125 3.92429 7.8722 3.80791 7.87893C3.68778 7.88025 3.56586 7.86797 3.45357 7.83311C3.3482 7.80059 3.25615 7.74137 3.19706 7.66486C2.98918 7.68203 2.78069 7.69093 2.5721 7.69153C2.75826 7.63877 2.94252 7.58172 3.12373 7.51894C3.02154 7.10447 3.26475 6.6508 3.44461 6.40902C3.3197 6.61344 3.23889 6.82092 3.22052 7.03161C3.2103 7.17421 3.22322 7.32392 3.30721 7.45295C3.53053 7.37035 3.74792 7.27753 3.95637 7.17333C4.13312 7.08376 4.30384 6.98599 4.45904 6.87395C4.53257 6.82014 4.60407 6.76397 4.66448 6.70058C4.68235 6.68397 4.67365 6.66025 4.66783 6.64136C4.65406 6.60954 4.63931 6.57816 4.6236 6.54725C4.51795 6.58109 4.40543 6.60431 4.29085 6.6039C4.22838 6.60532 4.16408 6.59588 4.11024 6.56986C4.06405 6.54732 4.02977 6.51033 4.01586 6.46885C3.99661 6.4144 4.00497 6.35697 4.01651 6.30208C4.03481 6.22266 4.07177 6.1432 4.14205 6.08307C4.19139 6.04107 4.2567 6.00875 4.32909 6.00029C4.41098 6.0006 4.48807 6.0322 4.54648 6.07606C4.62089 6.13186 4.67165 6.20425 4.71067 6.27849C4.78353 6.24492 4.85354 6.20516 4.90779 6.15356C4.96099 6.10977 5.01574 6.06506 5.08369 6.03566C5.10065 6.02794 5.12988 6.01945 5.14115 6.03742C5.15344 6.06415 5.14173 6.09349 5.13347 6.12005C5.11158 6.15877 5.13804 6.20279 5.17076 6.2324C5.21631 6.27308 5.29117 6.277 5.35458 6.26787C5.28812 5.72741 5.22058 5.18701 5.15405 4.64655C5.15266 4.62841 5.14278 4.61186 5.13425 4.59528V4.59535ZM4.22899 6.25487C4.1964 6.26597 4.15566 6.28245 4.15082 6.31345C4.15847 6.33707 4.19352 6.34435 4.21985 6.34939C4.30455 6.36238 4.39261 6.36215 4.47724 6.34898C4.47572 6.34658 4.4725 6.34184 4.47088 6.33944C4.42675 6.29991 4.37051 6.26587 4.30367 6.25589C4.27911 6.25298 4.25305 6.24743 4.22899 6.25487ZM4.78366 6.47561C4.79243 6.58576 4.7729 6.6971 4.72905 6.80173C4.71209 6.83808 4.69798 6.87652 4.66604 6.90681C4.50895 7.07293 4.30655 7.20866 4.09329 7.32781C3.9003 7.43438 3.69962 7.52639 3.49293 7.60307C3.52877 7.61687 3.56636 7.62797 3.60548 7.63457C3.71022 7.65295 3.81837 7.64307 3.92328 7.63109C4.25173 7.59217 4.56106 7.47871 4.82745 7.32368C5.00407 7.22091 5.16498 7.10118 5.30538 6.96792C5.35232 6.92085 5.41011 6.87483 5.42155 6.81286C5.41035 6.70772 5.39553 6.60282 5.38318 6.49774C5.31012 6.52096 5.21973 6.52637 5.15344 6.48766C5.07296 6.43961 5.04237 6.35761 5.02968 6.28188C4.96031 6.35562 4.87872 6.42248 4.78363 6.47565L4.78366 6.47561ZM8.80507 4.44567C8.82331 4.42175 8.8407 4.39529 8.8718 4.38019C8.82659 4.45187 8.78047 4.52472 8.76009 4.60384C8.75218 4.63802 8.74947 4.67964 8.78497 4.7053C8.80558 4.71325 8.82933 4.71799 8.85184 4.71173C8.89292 4.70442 8.9121 4.67061 8.92814 4.64316C8.93261 4.6542 8.93556 4.6656 8.93078 4.6769C8.91617 4.72452 8.89671 4.77436 8.85272 4.8104C8.80317 4.85237 8.70328 4.82824 8.68443 4.77443C8.66788 4.7256 8.68301 4.67443 8.70118 4.62723C8.72757 4.56405 8.76415 4.50374 8.80507 4.44567ZM3.58586 4.57988C3.62978 4.51251 3.67198 4.44445 3.71482 4.37667C3.7844 4.52046 3.83945 4.66865 3.87766 4.81961C3.88016 4.84709 3.87069 4.87443 3.86761 4.90177C3.83617 4.8681 3.81729 4.82759 3.78528 4.79402C3.80274 4.90742 3.809 5.0217 3.8204 5.13557C3.83309 5.28278 3.84507 5.43009 3.85698 5.57736C3.95238 5.56474 4.0381 5.52013 4.09569 5.45929C4.18232 5.36816 4.22077 5.25351 4.23166 5.14126C4.23095 4.9971 4.22121 4.85044 4.16395 4.71244C4.15383 4.68421 4.13522 4.65687 4.13562 4.62699C4.14246 4.57139 4.16594 4.51806 4.19082 4.46611C4.19711 4.454 4.20124 4.43857 4.21978 4.43495C4.24807 4.50412 4.27731 4.57322 4.29613 4.64445C4.3253 4.75606 4.33941 4.86969 4.35565 4.98285C4.36645 5.05135 4.3697 5.12096 4.39159 5.18806C4.41998 5.27831 4.47758 5.36626 4.57237 5.42366C4.64367 5.46646 4.73476 5.49577 4.82546 5.4844C4.88941 5.4753 4.95415 5.45516 4.99892 5.41652C5.01916 5.39939 5.03307 5.37432 5.02444 5.35087C4.93287 5.1643 4.85804 4.97294 4.78245 4.78205C4.7567 4.71564 4.73119 4.64915 4.70593 4.58256C4.69872 4.5657 4.70813 4.54834 4.71158 4.53166C4.72752 4.4808 4.7481 4.43041 4.77659 4.3831C4.80759 4.39488 4.82766 4.41816 4.84789 4.43921C4.90887 4.50872 4.9575 4.58445 5.0022 4.66113C5.00011 4.67095 4.99804 4.68076 4.99635 4.69064C4.97368 4.66838 4.94457 4.64841 4.90809 4.64276C4.90535 4.64797 4.90388 4.65375 4.90379 4.65964C4.9037 4.66552 4.905 4.67134 4.90759 4.67663C4.94816 4.77372 4.99144 4.8701 5.03273 4.96698C5.06785 5.05334 5.11005 5.17892 5.10765 5.23259C5.10027 5.30796 5.08691 5.40785 5.05811 5.47814C5.0264 5.54054 4.97121 5.61509 4.89608 5.6494C4.83158 5.6801 4.75199 5.68483 4.6793 5.67353C4.58367 5.65837 4.50164 5.60944 4.44286 5.5492C4.36029 5.4643 4.3096 5.36227 4.27958 5.25855L4.26154 5.25909C4.23346 5.36349 4.19075 5.46626 4.12483 5.55966C4.06568 5.64321 3.98395 5.72216 3.87123 5.76199C3.89092 6.02043 3.91153 6.2788 3.92564 6.53747C3.92771 6.66505 3.92121 6.79253 3.91319 6.91997C3.91309 6.9373 3.90392 6.95334 3.89712 6.96955C3.87497 7.02506 3.85151 7.08004 3.82676 7.13445C3.82284 7.14359 3.81776 7.15252 3.81049 7.16034C3.80724 6.91679 3.78118 6.67385 3.76037 6.43098C3.74142 6.21711 3.72271 6.00321 3.70426 5.7893C3.61401 5.78771 3.52109 5.76683 3.45449 5.71668C3.37689 5.66016 3.33726 5.57868 3.31831 5.49824C3.30156 5.42701 3.29804 5.35398 3.30505 5.28187C3.32051 5.18769 3.35097 5.09561 3.38004 5.00356C3.38403 4.98712 3.38694 4.96982 3.38224 4.95328C3.38041 4.94725 3.37869 4.94011 3.36985 4.93842C3.35632 4.93703 3.3463 4.94505 3.33713 4.95155C3.2865 4.99026 3.25341 5.04035 3.22448 5.0905C3.16969 5.19412 3.1374 5.30454 3.11981 5.41577C3.10526 5.48914 3.084 5.56216 3.04922 5.6313C3.0216 5.68267 2.98712 5.73556 2.92722 5.76778C2.87609 5.79566 2.80844 5.79224 2.75251 5.77624C2.68164 5.75546 2.63122 5.70521 2.60442 5.65079C2.55786 5.55719 2.55481 5.45479 2.55765 5.35557C2.56429 5.23926 2.58513 5.12359 2.61731 5.01003C2.62334 5.00901 2.62946 5.00803 2.63552 5.00712C2.6095 5.1374 2.58831 5.26948 2.6006 5.40152C2.60662 5.45875 2.61948 5.51655 2.65041 5.56893C2.67667 5.6137 2.72279 5.6539 2.78388 5.66852C2.83579 5.68118 2.89731 5.68016 2.94147 5.65252C2.98952 5.62213 3.01226 5.57455 3.02986 5.52941C3.07121 5.41499 3.08675 5.29581 3.12955 5.1817C3.17108 5.06986 3.22759 4.96133 3.29747 4.85869C3.33798 4.8055 3.3818 4.75348 3.43266 4.70607C3.44775 4.69362 3.46288 4.67596 3.48684 4.67575C3.49997 4.68242 3.49527 4.69704 3.4956 4.7075C3.4889 4.75897 3.48826 4.81159 3.4688 4.8614C3.43324 4.96356 3.40928 5.06799 3.38319 5.17188C3.36512 5.25273 3.36028 5.33912 3.39936 5.41668C3.42816 5.47584 3.48806 5.52386 3.56034 5.55056C3.59959 5.56524 3.64206 5.57421 3.68504 5.57912C3.66132 5.29056 3.63442 5.00218 3.60988 4.71362C3.60426 4.66871 3.60795 4.62239 3.58586 4.57988ZM13.154 4.581C13.1928 4.50831 13.2286 4.43478 13.2677 4.36226C13.3277 4.51877 13.3864 4.67572 13.4353 4.83463C13.4427 4.86198 13.4522 4.88915 13.4559 4.91703C13.4508 4.9391 13.4423 4.96075 13.4416 4.98343C13.4202 4.9508 13.3986 4.91828 13.377 4.88587C13.4046 5.29256 13.4369 5.69892 13.4741 6.10486C13.4855 6.23548 13.5022 6.36584 13.5082 6.4967C13.5193 6.73913 13.5086 6.98684 13.4155 7.21986C13.3806 7.30409 13.336 7.38619 13.2795 7.46283C13.2035 7.56192 13.0906 7.64006 12.9665 7.70005C12.7455 7.8053 12.4925 7.86005 12.2399 7.89382C12.2255 7.89795 12.2198 7.88482 12.2116 7.87883C12.437 7.79298 12.6537 7.69207 12.8559 7.57549C12.9571 7.51556 13.056 7.45241 13.1412 7.3782C13.2386 7.2913 13.3122 7.1867 13.3456 7.07316C13.3823 6.95899 13.3696 6.84021 13.3616 6.724C13.3405 6.45616 13.3143 6.18855 13.292 5.92073C13.2577 5.50805 13.2231 5.09527 13.1887 4.68259C13.1815 4.65359 13.1586 4.62875 13.148 4.60053C13.1452 4.59359 13.1517 4.58736 13.154 4.581H13.154ZM12.5832 4.65183C12.7149 4.54242 12.8426 4.43001 12.9692 4.31674C12.9748 4.41853 12.9086 4.5121 12.8348 4.59159C12.7952 4.63782 12.7394 4.6724 12.6893 4.71085C12.6655 4.72802 12.642 4.74565 12.6189 4.76374C12.6255 4.79095 12.6356 4.81775 12.6393 4.84536C12.6374 4.87101 12.6322 4.89649 12.6283 4.92204C12.5999 4.88678 12.5796 4.84742 12.5472 4.8144C12.5615 4.92983 12.5684 5.04576 12.5782 5.1615C12.6035 5.50132 12.6268 5.84121 12.6487 6.18117C12.6474 6.18993 12.6571 6.19548 12.6634 6.20171C12.7571 6.28415 12.8504 6.36692 12.9381 6.45345C13.007 6.526 13.0723 6.60102 13.1276 6.68068C13.2001 6.78495 13.2575 6.89791 13.2744 7.01692C13.2836 7.09181 13.2791 7.16907 13.2483 7.24074C13.194 7.0443 13.0941 6.86569 12.9778 6.7418C12.8799 6.63625 12.7728 6.53284 12.6647 6.43375C12.6722 6.55497 12.6798 6.67618 12.6856 6.79743C12.6914 6.95384 12.6841 7.11029 12.6757 7.26653C12.6758 7.29614 12.6589 7.32321 12.6502 7.3515C12.625 7.41502 12.6048 7.48002 12.5725 7.54158C12.5673 7.39725 12.5611 7.25279 12.5501 7.10863C12.5303 6.85039 12.5095 6.59226 12.4908 6.33406C12.4881 6.31372 12.4895 6.29298 12.4846 6.27298C12.4135 6.20719 12.3367 6.14533 12.2625 6.08181C12.1316 5.97369 11.9994 5.86656 11.8623 5.76351C11.8883 6.03325 11.9152 6.30296 11.9396 6.5728C11.95 6.6953 11.9638 6.81784 11.9652 6.94071C11.9671 7.04758 11.9657 7.15448 11.9627 7.26132C11.9631 7.32873 11.9643 7.3984 11.9341 7.4625C11.8894 7.54192 11.8092 7.60821 11.7125 7.64912C11.637 7.68083 11.5517 7.69772 11.4663 7.69826C11.4086 7.69928 11.3513 7.68713 11.3003 7.66632C11.2111 7.62649 11.1475 7.5586 11.1065 7.48554C11.0787 7.43632 11.0588 7.38307 11.0474 7.32771C11.0411 7.30389 11.0344 7.27637 11.0075 7.26148C10.9861 7.25008 10.9606 7.25918 10.9399 7.26683C10.8896 7.28805 10.8412 7.31363 10.8048 7.34883C10.6862 7.46168 10.6299 7.60571 10.5946 7.74743C10.5773 7.80858 10.55 7.86939 10.5019 7.91988C10.4671 7.95585 10.4173 7.9903 10.3584 7.99122C10.3123 7.99193 10.2678 7.97639 10.2266 7.96029C10.1356 7.92228 10.0724 7.85257 10.0348 7.77816C10.0247 7.75826 10.0124 7.74171 9.99269 7.67129C9.97144 7.59532 9.9641 7.47992 9.97232 7.3625C9.97631 7.35113 9.96142 7.347 9.95327 7.34067C9.92081 7.31867 9.90751 7.28372 9.90799 7.25079C9.90707 7.12995 9.92924 7.00704 9.9935 6.89648C10.0456 6.80532 10.1237 6.72573 10.1997 6.6464C10.2068 6.63784 10.2195 6.63104 10.2229 6.62102C10.1756 6.57828 10.1256 6.5373 10.0751 6.4969C10.0463 6.47054 10.0113 6.44912 9.98294 6.42252C9.87642 6.33115 9.77171 6.23853 9.66701 6.14581C9.67699 6.2814 9.68461 6.41714 9.69317 6.55284C9.69967 6.67852 9.7107 6.8041 9.70843 6.92995C9.70887 7.0421 9.70251 7.15418 9.69672 7.26619C9.69639 7.29411 9.68217 7.32013 9.67314 7.34673C9.64776 7.41231 9.62485 7.47867 9.59405 7.54287C9.5883 7.48977 9.59179 7.4363 9.58752 7.38317C9.57588 7.11804 9.54965 6.85347 9.53104 6.58861C9.5152 6.38597 9.50123 6.1832 9.48434 5.98067C9.4146 5.91217 9.34096 5.84588 9.272 5.77674C9.19122 5.6961 9.11051 5.61492 9.0429 5.5269C8.94581 5.3887 8.83684 5.25449 8.70229 5.1371C8.69461 5.13138 8.69702 5.12288 8.69708 5.11557C8.70172 5.0396 8.70537 4.9636 8.71015 4.88763C8.80591 4.93697 8.89725 4.99165 8.98506 5.04959C9.05308 5.09601 9.11782 5.14583 9.17288 5.20214C9.2013 5.22874 9.2275 5.26268 9.21795 5.29902C9.18564 5.28887 9.1522 5.28075 9.12161 5.26762C9.10903 5.26225 9.09574 5.25875 9.08215 5.25723C9.08012 5.27848 9.09843 5.29523 9.11213 5.31195C9.21193 5.42758 9.31599 5.54078 9.42279 5.65238C9.43653 5.66673 9.45165 5.68037 9.46221 5.69648C9.45544 5.56562 9.44282 5.43489 9.43385 5.30406C9.41873 5.10207 9.40319 4.90008 9.38807 4.69809C9.38529 4.6679 9.38719 4.63677 9.37186 4.60838C9.36445 4.59707 9.37538 4.58672 9.38143 4.57694C9.4179 4.52095 9.45353 4.46442 9.4883 4.40737C9.48996 4.40341 9.49801 4.39315 9.50048 4.403C9.56542 4.53687 9.61733 4.67668 9.65551 4.82049C9.66718 4.85446 9.6528 4.88912 9.6485 4.92312C9.6239 4.88465 9.59598 4.84759 9.56867 4.8103C9.60366 5.16505 9.62393 5.52064 9.65016 5.8758C9.66786 5.89935 9.69503 5.91799 9.71669 5.93952C9.92569 6.13024 10.1427 6.31524 10.3596 6.50028C10.5212 6.35862 10.6836 6.21794 10.8469 6.07826C10.8539 6.07305 10.8588 6.06672 10.8562 6.0588C10.8071 5.61722 10.7579 5.17557 10.7087 4.73399C10.7024 4.68932 10.7041 4.64337 10.6829 4.601C10.7232 4.53254 10.7673 4.46547 10.8073 4.39688C10.8292 4.43288 10.8443 4.47136 10.8615 4.50899C10.9021 4.60269 10.9372 4.69795 10.965 4.79453C10.9708 4.81629 10.9803 4.83825 10.9765 4.86076C10.9736 4.8811 10.97 4.9014 10.9673 4.92177C10.9404 4.8858 10.9145 4.84932 10.8874 4.81341C10.9259 5.16908 10.965 5.61692 10.9999 5.94693C11.1692 5.80459 11.3373 5.66118 11.5074 5.51946C11.526 5.50264 11.5473 5.48761 11.5645 5.46975C11.4817 5.38176 11.4045 5.29056 11.3275 5.1994C11.3007 5.16938 11.2799 5.13645 11.2543 5.10586C11.2004 5.03977 11.1454 4.97297 11.0715 4.91974C11.0651 4.83389 11.0616 4.74787 11.0569 4.66191C11.2306 4.78198 11.407 4.89971 11.5758 5.02417C11.5919 5.03564 11.6048 5.04969 11.6138 5.06539C11.5986 4.93111 11.5847 4.79677 11.5704 4.66242C11.5686 4.6501 11.5691 4.63724 11.5626 4.62574C11.5583 4.61389 11.5464 4.60127 11.556 4.58919C11.596 4.52422 11.6337 4.45836 11.6732 4.39319C11.7423 4.52263 11.7961 4.65707 11.8387 4.79345C11.8431 4.8126 11.8537 4.83142 11.8505 4.85118C11.8473 4.87301 11.8454 4.8949 11.8423 4.91673C11.8179 4.88461 11.7935 4.8525 11.7693 4.82035C11.7652 4.8154 11.7613 4.81026 11.7577 4.80495C11.7797 4.95862 11.7942 5.11287 11.8114 5.26691C11.9387 5.16007 12.0693 5.05585 12.2009 4.95236C12.2595 4.90847 12.3203 4.86638 12.3765 4.82049C12.3712 4.76086 12.3681 4.70113 12.3622 4.64154C12.3611 4.62262 12.3391 4.60357 12.3546 4.58547C12.3957 4.52307 12.4356 4.45987 12.4742 4.39589C12.5196 4.47846 12.5503 4.56577 12.5832 4.65183ZM11.8254 5.40034C11.8274 5.42443 11.83 5.44853 11.8328 5.47259C11.8742 5.51336 11.9166 5.55315 11.9598 5.59194C12.1263 5.74064 12.2986 5.88524 12.4675 6.03217C12.4413 5.66876 12.412 5.30538 12.386 4.94194C12.1962 5.09115 12.0094 5.24398 11.8254 5.40034ZM11.4658 5.0707C11.5194 5.13748 11.5755 5.20218 11.6341 5.26467C11.6293 5.2064 11.6222 5.14823 11.6157 5.09006C11.6125 5.0952 11.609 5.10038 11.6063 5.10563C11.5661 5.08238 11.5169 5.06414 11.4658 5.0707ZM11.1236 6.01075C11.089 6.0429 11.0506 6.07258 11.0181 6.10601C11.0258 6.20905 11.0424 6.31183 11.0526 6.41484C11.0577 6.58509 11.0219 6.76583 10.8896 6.90515C10.8934 6.88298 10.8916 6.86055 10.892 6.83821C10.8918 6.76183 10.8958 6.68542 10.8954 6.60898C10.8949 6.53575 10.8966 6.54076 10.893 6.38929C10.8915 6.32604 10.8816 6.27585 10.8751 6.23135C10.829 6.26997 10.785 6.31024 10.7389 6.34898C10.6483 6.42908 10.5519 6.50492 10.459 6.58336C10.5534 6.66376 10.6126 6.76962 10.6279 6.87852C10.6433 6.99435 10.6068 7.11756 10.5107 7.20758C10.4259 7.28653 10.3043 7.33637 10.178 7.35932C10.1188 7.36971 10.0554 7.37685 9.99665 7.36114C10.0038 7.40997 10.0134 7.4584 10.0255 7.50625C10.0466 7.58716 10.0741 7.66885 10.1287 7.74016C10.1579 7.7766 10.1979 7.8119 10.2529 7.82262C10.3117 7.83393 10.3715 7.81058 10.4129 7.77856C10.4497 7.75244 10.4668 7.7145 10.4823 7.67843C10.529 7.57217 10.5448 7.45803 10.6066 7.35583C10.6499 7.27475 10.705 7.19607 10.7845 7.1336C10.8257 7.09966 10.8731 7.07073 10.9228 7.04494C10.9569 7.0287 10.9984 7.01523 11.0386 7.0247C11.0769 7.0336 11.1028 7.06037 11.1205 7.08731C11.1608 7.14802 11.1713 7.21743 11.204 7.28054C11.2279 7.33265 11.2595 7.38561 11.3158 7.42077C11.3727 7.4563 11.4477 7.4672 11.5186 7.46483C11.6424 7.46063 11.846 7.38081 11.8563 7.35827C11.867 7.33488 11.8387 7.1577 11.8277 7.05753C11.7738 6.56817 11.7223 6.07863 11.6696 5.58924C11.6678 5.5758 11.6525 5.56666 11.645 5.55526C11.468 5.7048 11.2965 5.85833 11.1236 6.01075H11.1236ZM10.3169 6.71287C10.2799 6.74671 10.2449 6.78204 10.21 6.8173C10.1438 6.88802 10.0774 6.95956 10.0284 7.03888C10.016 7.05902 10.0047 7.08413 10.0189 7.10555C10.0357 7.12744 10.0717 7.13073 10.1012 7.13076C10.2314 7.12663 10.3529 7.08051 10.4587 7.02291C10.494 7.0091 10.5273 6.97855 10.5139 6.94538C10.4964 6.90078 10.4632 6.86143 10.4308 6.82285C10.3968 6.78445 10.3611 6.74762 10.3238 6.71246L10.3169 6.7129V6.71287Z" fill="white" style="fill:white;fill-opacity:1;"/>
</g>
<defs>
<clipPath id="clip0_7010_3677">
<rect width="16" height="16" fill="white" style="fill:white;fill-opacity:1;"/>
</clipPath>
</defs>
</svg>
