<svg width="1em" height="1em" viewBox="0 0 14 13" fill="none" xmlns="http://www.w3.org/2000/svg">
<path d="M5.88002 11.715C5.973 11.6222 6.04675 11.5119 6.09708 11.3905C6.1474 11.2691 6.17331 11.1389 6.17331 11.0075C6.17331 10.8761 6.1474 10.746 6.09708 10.6246C6.04675 10.5032 5.973 10.3929 5.88002 10.3L2.58802 7.00703L13 7.00003C13.2652 7.00003 13.5196 6.89467 13.7071 6.70713C13.8947 6.5196 14 6.26524 14 6.00003C14 5.73481 13.8947 5.48046 13.7071 5.29292C13.5196 5.10538 13.2652 5.00003 13 5.00003L2.58602 5.00703L5.88002 1.71503C6.06766 1.52752 6.17313 1.27315 6.17322 1.00788C6.17332 0.74261 6.06803 0.488167 5.88052 0.300527C5.69301 0.112886 5.43864 0.00741805 5.17337 0.00732428C4.9081 0.00723051 4.65366 0.112519 4.46602 0.300027L0.880019 3.88603C0.60139 4.16461 0.380366 4.49535 0.22957 4.85936C0.078774 5.22337 0.00115967 5.61352 0.00115967 6.00753C0.00115967 6.40153 0.078774 6.79168 0.22957 7.15569C0.380366 7.5197 0.60139 7.85044 0.880019 8.12903L4.46602 11.715C4.65355 11.9025 4.90786 12.0078 5.17302 12.0078C5.43818 12.0078 5.69249 11.9025 5.88002 11.715Z" fill="currentColor"/>
</svg>
