<svg xmlns="http://www.w3.org/2000/svg" width="1em" height="1em" viewBox="0 0 60 68" fill="none">
<path d="M41.8863 55.8682V58.651C41.8693 61.6713 39.4683 64.1487 36.4479 64.2421H8.38232C5.30257 64.2251 2.80823 61.7307 2.79126 58.651V8.38232C2.80823 5.30257 5.30257 2.80823 8.38232 2.79126H36.4395C39.5192 2.80823 42.0135 5.30257 42.0305 8.38232V11.3094" stroke="currentColor" stroke-width="5" stroke-miterlimit="333.33"/>
<path d="M27.9298 8.22709H16.7562C15.1951 8.15073 13.9734 6.86113 13.9734 5.30005H30.7381C30.7381 6.86962 29.4994 8.15921 27.9298 8.22709Z" fill="#4B4D59"/>
<mask id="mask0_2371_17522" style="mask-type:luminance" maskUnits="userSpaceOnUse" x="23" y="14" width="37" height="38">
<path d="M59.9915 14.8643H23.4927V51.3801H59.9915V14.8643Z" fill="white"/>
</mask>
<g mask="url(#mask0_2371_17522)">
<path d="M41.7507 51.3631C51.7365 51.3631 60.0001 43.0826 60.0001 33.1137C60.0001 23.1448 51.7195 14.8643 41.7337 14.8643C31.7478 14.8643 23.5012 23.1278 23.5012 33.1137C23.5012 43.0996 31.7818 51.3631 41.7507 51.3631Z" fill="#DC3628"/>
<path d="M41.7507 36.4479C40.8174 36.4479 40.2999 35.9304 40.2829 34.9802L40.0538 25.2319C40.0369 24.2816 40.7326 23.6029 41.7337 23.6029C42.7348 23.6029 43.4475 24.2986 43.4305 25.2488L43.176 34.9802C43.159 35.9474 42.6415 36.4479 41.7422 36.4479H41.7507ZM41.7507 42.4462C40.6732 42.4462 39.7484 41.5893 39.7484 40.5288C39.7484 39.4683 40.6647 38.5944 41.7507 38.5944C42.8366 38.5944 43.7529 39.4513 43.7529 40.5288C43.7529 41.6063 42.8197 42.4462 41.7507 42.4462Z" fill="white"/>
</g>
<path d="M23.3059 57.9299C24.8288 57.9299 26.0633 56.6954 26.0633 55.1725C26.0633 53.6497 24.8288 52.4152 23.3059 52.4152C21.7831 52.4152 20.5486 53.6497 20.5486 55.1725C20.5486 56.6954 21.7831 57.9299 23.3059 57.9299Z" fill="#4B4D59"/>
</svg>