<svg 
  width="1em" 
  height="1em" 
  viewBox="0 0 6 10" 
  fill="currentColor" 
  xmlns="http://www.w3.org/2000/svg">
<path d="M0.645721 0.209319C0.511694 0.343388 0.436401 0.525199 0.436401 0.714771C0.436401 0.904344 0.511694 1.08615 0.645721 1.22022L3.92436 4.49886C4.05483 4.63479 4.12768 4.81591 4.12768 5.00432C4.12768 5.19273 4.05483 5.37384 3.92436 5.50977L0.645721 8.78841C0.515492 8.92325 0.443432 9.10384 0.445061 9.29129C0.44669 9.47874 0.521877 9.65805 0.65443 9.7906C0.786983 9.92316 0.966295 9.99834 1.15375 9.99997C1.3412 10.0016 1.52179 9.92954 1.65662 9.79931L4.93527 6.52138C5.13446 6.32222 5.29248 6.08577 5.40029 5.82553C5.5081 5.56529 5.56358 5.28636 5.56358 5.00467C5.56358 4.72299 5.5081 4.44406 5.40029 4.18382C5.29248 3.92358 5.13446 3.68713 4.93527 3.48796L1.65662 0.209319C1.52256 0.0752916 1.34074 0 1.15117 0C0.9616 0 0.779789 0.0752916 0.645721 0.209319Z" 
/>
</svg>
