<svg width="1em" height="1em" viewBox="0 0 25 24" fill="none" xmlns="http://www.w3.org/2000/svg">
<path d="M21.2898 0H3.28979C2.49415 0 1.73108 0.31607 1.16847 0.87868C0.605865 1.44129 0.289795 2.20435 0.289795 3L0.289795 20H3.28979L7.0978 23.218C7.45878 23.5231 7.91615 23.6905 8.38879 23.6905C8.86144 23.6905 9.31881 23.5231 9.67979 23.218L13.4898 20H24.2898V3C24.2898 2.20435 23.9737 1.44129 23.4111 0.87868C22.8485 0.31607 22.0854 0 21.2898 0ZM22.2898 18H12.7558L8.3898 21.69L4.02379 18H2.28979V3C2.28979 2.73478 2.39515 2.48043 2.58269 2.29289C2.77022 2.10536 3.02458 2 3.28979 2H21.2898C21.555 2 21.8094 2.10536 21.9969 2.29289C22.1844 2.48043 22.2898 2.73478 22.2898 3V18Z" fill="currentColor"/>
<path d="M12.2898 5.00015H6.28979V7.00015H12.2898V5.00015Z" fill="currentColor"/>
<path d="M18.2898 9H6.28979V11H18.2898V9Z" fill="currentColor"/>
<path d="M18.2898 12.9999H6.28979V14.9999H18.2898V12.9999Z" fill="currentColor"/>
</svg>
