<svg width="1em" height="1em" viewBox="0 0 24 24" fill="none" xmlns="http://www.w3.org/2000/svg">
<path d="M13.0001 1V2.051C15.0133 2.23149 16.9376 2.9642 18.5611 4.16842C20.1845 5.37263 21.444 7.00161 22.2009 8.87588C22.9577 10.7501 23.1825 12.797 22.8505 14.7908C22.6955 15.721 22.343 16.7085 21.961 17.5612L20.6871 15.3526C21.0488 14.0173 21.099 12.6112 20.8271 11.2442C20.4799 9.49836 19.6227 7.89471 18.364 6.63604C17.1053 5.37737 15.5017 4.5202 13.7559 4.17293C12.01 3.82567 10.2004 4.0039 8.5559 4.68508C6.91137 5.36627 5.50576 6.51983 4.51683 7.99987C3.52789 9.47991 3.00005 11.22 3.00005 13C3.00296 15.3861 3.95211 17.6735 5.63931 19.3607C7.3265 21.0479 9.614 21.9971 12.0001 22H12.4363C12.1087 22.661 12.1784 23.676 13.2702 24.001H12.0051C9.58089 24.001 7.22559 23.1947 5.31005 21.709C5.24593 21.7371 5.17884 21.7579 5.11005 21.771C4.80257 21.794 4.51574 21.9345 4.30907 22.1633C4.1024 22.3922 3.99174 22.6918 4.00005 23C4.00005 23.2652 3.8947 23.5196 3.70716 23.7071C3.51962 23.8946 3.26527 24 3.00005 24C2.73484 24 2.48048 23.8946 2.29295 23.7071C2.10541 23.5196 2.00005 23.2652 2.00005 23C1.97816 22.4173 2.12519 21.8407 2.42344 21.3397C2.72168 20.8387 3.15842 20.4345 3.68105 20.176C2.35766 18.6482 1.48169 16.7847 1.14965 14.7908C0.817611 12.797 1.0424 10.7501 1.79924 8.87588C2.55608 7.00161 3.8156 5.37263 5.43904 4.16842C7.06248 2.9642 8.98682 2.23149 11.0001 2.051V1C11.0001 0.734784 11.1054 0.48043 11.2929 0.292893C11.4805 0.105357 11.7348 0 12.0001 0C12.2653 0 12.5196 0.105357 12.7072 0.292893C12.8947 0.48043 13.0001 0.734784 13.0001 1Z" fill="currentColor"/>
<path d="M19.215 1.14529e-06C18.9497 1.14529e-06 18.6954 0.105358 18.5079 0.292894C18.3203 0.480431 18.215 0.734785 18.215 1C18.215 1.26522 18.3203 1.51957 18.5079 1.70711C18.6954 1.89464 18.9497 2 19.215 2C19.5637 1.97349 19.9141 2.01788 20.2452 2.13048C20.5763 2.24309 20.8812 2.42157 21.1414 2.65518C21.4017 2.88879 21.6119 3.17269 21.7594 3.48975C21.907 3.80681 21.9888 4.15047 22 4.5C22 4.76522 22.1053 5.01957 22.2929 5.20711C22.4804 5.39464 22.7347 5.5 23 5.5C23.2652 5.5 23.5195 5.39464 23.7071 5.20711C23.8946 5.01957 24 4.76522 24 4.5C23.9872 3.8885 23.8526 3.28568 23.604 2.72683C23.3554 2.16798 22.9979 1.66431 22.5523 1.24529C22.1068 0.826265 21.5821 0.500308 21.0091 0.286485C20.436 0.0726628 19.8261 -0.0247312 19.215 1.14529e-06Z" fill="currentColor"/>
<path d="M2 4.5C2.01115 4.15047 2.09296 3.80681 2.24052 3.48975C2.38807 3.17269 2.59831 2.88879 2.85855 2.65518C3.11879 2.42157 3.42365 2.24309 3.75474 2.13048C4.08583 2.01788 4.43629 1.97349 4.785 2C5.05022 2 5.30457 1.89464 5.49211 1.70711C5.67964 1.51957 5.785 1.26522 5.785 1C5.785 0.734785 5.67964 0.480431 5.49211 0.292894C5.30457 0.105358 5.05022 1.14529e-06 4.785 1.14529e-06C4.17386 -0.0247312 3.56393 0.0726628 2.99088 0.286485C2.41784 0.500308 1.89319 0.826265 1.44763 1.24529C1.00207 1.66431 0.644547 2.16798 0.395981 2.72683C0.147415 3.28568 0.0127962 3.8885 0 4.5C0 4.76522 0.105357 5.01957 0.292893 5.20711C0.48043 5.39464 0.734784 5.5 1 5.5C1.26522 5.5 1.51957 5.39464 1.70711 5.20711C1.89464 5.01957 2 4.76522 2 4.5Z" fill="currentColor"/>
<path d="M12.2024 11.5566L7.91989 9.91614C7.67223 9.82127 7.39701 9.82867 7.1548 9.93671C6.91259 10.0448 6.72322 10.2446 6.62835 10.4923C6.53347 10.7399 6.54087 11.0151 6.64892 11.2573C6.75696 11.4996 6.95679 11.6889 7.20446 11.7838L11.8736 13.5724C12.1213 13.6672 12.3965 13.6597 12.6386 13.5517L16.5133 11.8233C16.7509 11.7124 16.9353 11.5125 17.027 11.2669C17.1187 11.0212 17.1102 10.7494 17.0034 10.5099C16.8965 10.2705 16.6999 10.0825 16.4559 9.9866C16.2119 9.89068 15.9399 9.89445 15.6987 9.99709L12.2024 11.5566Z" fill="currentColor"/>
<path fill-rule="evenodd" clip-rule="evenodd" d="M22.4888 24.0011H14.4129C13.5826 24.0011 13.0796 23.4182 13.0796 22.6797C13.0796 22.4402 13.1435 22.1967 13.2792 21.9651L17.3151 14.9072C17.5666 14.4641 18.0057 14.2446 18.4528 14.2446C18.896 14.2446 19.3391 14.4641 19.5906 14.9072L23.6265 21.9651C23.7582 22.1927 23.8261 22.4402 23.8261 22.6797C23.8261 23.4182 23.3231 24.0011 22.4888 24.0011ZM18.0896 20.2086C18.0936 20.4482 18.2213 20.5839 18.4529 20.5839C18.6724 20.5839 18.8042 20.4521 18.8082 20.2086L18.872 17.4023C18.8761 17.1627 18.6964 16.9871 18.4489 16.9871C18.1974 16.9871 18.0217 17.1587 18.0257 17.3983L18.0896 20.2086ZM17.9299 21.7456C17.9299 22.021 18.1695 22.2486 18.4529 22.2486C18.7323 22.2486 18.9758 22.025 18.9758 21.7456C18.9758 21.4621 18.7363 21.2386 18.4529 21.2386C18.1655 21.2386 17.9299 21.4661 17.9299 21.7456Z" fill="currentColor"/>
</svg>
