<svg width="1em" height="1em" viewBox="0 0 25 25" fill="none" xmlns="http://www.w3.org/2000/svg">
<path d="M7.03979 2.35869V3.85869H8.53979V20.3587C8.53979 20.9554 8.77685 21.5277 9.1988 21.9497C9.62076 22.3716 10.1931 22.6087 10.7898 22.6087H13.7898C14.3865 22.6087 14.9588 22.3716 15.3808 21.9497C15.8027 21.5277 16.0398 20.9554 16.0398 20.3587V3.85869H17.5398V2.35869H7.03979ZM14.5398 20.3587C14.5398 20.5576 14.4608 20.7484 14.3201 20.889C14.1795 21.0297 13.9887 21.1087 13.7898 21.1087H10.7898C10.5909 21.1087 10.4001 21.0297 10.2595 20.889C10.1188 20.7484 10.0398 20.5576 10.0398 20.3587V16.9387L14.5398 18.6262V20.3587ZM14.5398 5.35869H12.2898V6.85869H14.5398V8.35869H12.2898V9.85869H14.5398V11.3587H12.2898V12.8587H14.5398V14.3587H12.2898V15.8587H14.5398V17.0287L10.0398 15.3412V3.85869H14.5398V5.35869Z" fill="currentColor"/>
<path d="M14.5398 18.6262V20.3587C14.5398 20.5576 14.4608 20.7484 14.3201 20.889C14.1795 21.0297 13.9887 21.1087 13.7898 21.1087H10.7898C10.5909 21.1087 10.4001 21.0297 10.2595 20.889C10.1188 20.7484 10.0398 20.5576 10.0398 20.3587V16.9387L14.5398 18.6262Z" fill="currentColor"/>
</svg>
