<svg width="1em" height="1em" viewBox="0 0 14 14" fill="none" xmlns="http://www.w3.org/2000/svg">
<path d="M1.41397 10.7929H12.586C12.7837 10.7929 12.977 10.7342 13.1414 10.6243C13.3058 10.5144 13.434 10.3582 13.5096 10.1755C13.5853 9.99285 13.6051 9.79182 13.5666 9.59786C13.528 9.40391 13.4328 9.22575 13.293 9.08589L7.70697 3.49989C7.51944 3.31242 7.26514 3.20711 6.99997 3.20711C6.73481 3.20711 6.4805 3.31242 6.29297 3.49989L0.706971 9.08589C0.567162 9.22575 0.471956 9.40391 0.433388 9.59786C0.39482 9.79182 0.414624 9.99285 0.490294 10.1755C0.565964 10.3582 0.694103 10.5144 0.858513 10.6243C1.02292 10.7342 1.21622 10.7929 1.41397 10.7929Z" fill="currentColor"/>
</svg>
