<svg width="1em" height="1em" viewBox="0 0 14 14" fill="none" xmlns="http://www.w3.org/2000/svg">
<path d="M9.08594 13.293L3.49994 7.707C3.31247 7.51947 3.20715 7.26517 3.20715 7C3.20715 6.73484 3.31247 6.48053 3.49994 6.293L9.08594 0.707002C9.22579 0.567193 9.40396 0.471986 9.59791 0.433419C9.79186 0.394851 9.99289 0.414654 10.1756 0.490324C10.3583 0.565994 10.5145 0.694134 10.6243 0.858544C10.7342 1.02295 10.7929 1.21625 10.7929 1.414V12.586C10.7929 12.7838 10.7342 12.977 10.6243 13.1415C10.5145 13.3059 10.3583 13.434 10.1756 13.5097C9.99289 13.5853 9.79186 13.6052 9.59791 13.5666C9.40396 13.528 9.22579 13.4328 9.08594 13.293Z" fill="currentColor"/>
</svg>
