<svg width="1em" height="1em" viewBox="0 0 24 24" fill="none" xmlns="http://www.w3.org/2000/svg">
<path d="M8.25 9.6H9.5C9.83152 9.6 10.1495 9.47357 10.3839 9.24853C10.6183 9.02348 10.75 8.71826 10.75 8.4C10.75 8.08174 10.6183 7.77652 10.3839 7.55147C10.1495 7.32643 9.83152 7.2 9.5 7.2H8.25C7.91848 7.2 7.60054 7.32643 7.36612 7.55147C7.1317 7.77652 7 8.08174 7 8.4C7 8.71826 7.1317 9.02348 7.36612 9.24853C7.60054 9.47357 7.91848 9.6 8.25 9.6ZM8.25 12C7.91848 12 7.60054 12.1264 7.36612 12.3515C7.1317 12.5765 7 12.8817 7 13.2C7 13.5183 7.1317 13.8235 7.36612 14.0485C7.60054 14.2736 7.91848 14.4 8.25 14.4H15.75C16.0815 14.4 16.3995 14.2736 16.6339 14.0485C16.8683 13.8235 17 13.5183 17 13.2C17 12.8817 16.8683 12.5765 16.6339 12.3515C16.3995 12.1264 16.0815 12 15.75 12H8.25ZM22 8.328C21.987 8.21776 21.9618 8.10916 21.925 8.004V7.896C21.8649 7.77262 21.7847 7.6592 21.6875 7.56L14.1875 0.36C14.0842 0.266659 13.966 0.189697 13.8375 0.132C13.8002 0.126912 13.7623 0.126912 13.725 0.132C13.598 0.0620895 13.4578 0.017213 13.3125 0H5.75C4.75544 0 3.80161 0.379285 3.09835 1.05442C2.39509 1.72955 2 2.64522 2 3.6V20.4C2 21.3548 2.39509 22.2705 3.09835 22.9456C3.80161 23.6207 4.75544 24 5.75 24H18.25C19.2446 24 20.1984 23.6207 20.9017 22.9456C21.6049 22.2705 22 21.3548 22 20.4V8.4C22 8.4 22 8.4 22 8.328ZM14.5 4.092L17.7375 7.2H15.75C15.4185 7.2 15.1005 7.07357 14.8661 6.84853C14.6317 6.62348 14.5 6.31826 14.5 6V4.092ZM19.5 20.4C19.5 20.7183 19.3683 21.0235 19.1339 21.2485C18.8995 21.4736 18.5815 21.6 18.25 21.6H5.75C5.41848 21.6 5.10054 21.4736 4.86612 21.2485C4.6317 21.0235 4.5 20.7183 4.5 20.4V3.6C4.5 3.28174 4.6317 2.97652 4.86612 2.75147C5.10054 2.52643 5.41848 2.4 5.75 2.4H12V6C12 6.95478 12.3951 7.87045 13.0983 8.54559C13.8016 9.22072 14.7554 9.6 15.75 9.6H19.5V20.4ZM15.75 16.8H8.25C7.91848 16.8 7.60054 16.9264 7.36612 17.1515C7.1317 17.3765 7 17.6817 7 18C7 18.3183 7.1317 18.6235 7.36612 18.8485C7.60054 19.0736 7.91848 19.2 8.25 19.2H15.75C16.0815 19.2 16.3995 19.0736 16.6339 18.8485C16.8683 18.6235 17 18.3183 17 18C17 17.6817 16.8683 17.3765 16.6339 17.1515C16.3995 16.9264 16.0815 16.8 15.75 16.8Z" fill="currentColor"/>
</svg>
