<svg width="1em" height="1em" viewBox="0 0 24 24" fill="none" xmlns="http://www.w3.org/2000/svg">
<path d="M6.90518 22.131L9.96768 18.4922C10.2681 18.1314 10.322 18.0438 10.4426 17.6684L10.6311 17.0846L8.94818 14.9735L8.46668 17.1937L5.45341 20.7651C4.46547 21.9511 6.09348 23.1089 6.90518 22.131ZM14.2967 21.8206C14.945 23.1308 16.8789 22.3209 16.1766 20.8965L14.1033 16.6978C13.9408 16.3826 13.7297 16.0392 13.5298 15.7534L12.2281 13.9073L12.3131 13.6505C12.653 12.5838 12.7945 11.9518 12.873 10.9059L13.0776 7.96581C13.1799 6.54398 12.3334 5.47726 10.8877 5.47726C9.80731 5.47726 9.06575 6.0261 8.07841 6.99334L6.52114 8.52691C6.01149 9.02651 5.84167 9.4411 5.78962 10.1159L5.60514 12.518C5.55128 13.1463 5.90457 13.59 6.48255 13.6101C7.07238 13.6521 7.43391 13.2988 7.48597 12.634L7.71708 10.0134L8.42709 9.37196C8.6803 9.14527 9.01109 9.29338 8.99743 9.56287L8.83846 11.7435C8.74802 12.8661 9.00386 13.4186 9.79284 14.4021L11.8561 16.9851C12.0553 17.2446 12.079 17.3414 12.1713 17.5094L14.2967 21.8206ZM17.864 9.44492H15.532L14.113 7.87236L13.9331 10.408L14.4327 10.9058C14.7651 11.2381 15.0591 11.344 15.6783 11.344H17.864C18.4976 11.344 18.9176 10.9825 18.9176 10.3945C18.9176 9.82474 18.4858 9.44492 17.864 9.44492ZM12.042 4.61452C13.2822 4.61452 14.2858 3.60085 14.2858 2.3607C14.2858 1.11231 13.2822 0.108688 12.042 0.108688C10.7937 0.108688 9.78822 1.11231 9.78822 2.3607C9.78822 3.60085 10.7937 4.61452 12.042 4.61452Z" fill="currentColor"/>
</svg>
