<svg width="1em" height="1em" viewBox="0 0 24 24" fill="none" xmlns="http://www.w3.org/2000/svg">
<path d="M8.25 9.59436H9.5C9.83152 9.59436 10.1495 9.46801 10.3839 9.2431C10.6183 9.01818 10.75 8.71314 10.75 8.39507C10.75 8.07699 10.6183 7.77195 10.3839 7.54704C10.1495 7.32212 9.83152 7.19577 9.5 7.19577H8.25C7.91848 7.19577 7.60054 7.32212 7.36612 7.54704C7.1317 7.77195 7 8.07699 7 8.39507C7 8.71314 7.1317 9.01818 7.36612 9.2431C7.60054 9.46801 7.91848 9.59436 8.25 9.59436ZM15.75 11.993H8.25C7.91848 11.993 7.60054 12.1193 7.36612 12.3442C7.1317 12.5691 7 12.8742 7 13.1922C7 13.5103 7.1317 13.8154 7.36612 14.0403C7.60054 14.2652 7.91848 14.3915 8.25 14.3915H15.75C16.0815 14.3915 16.3995 14.2652 16.6339 14.0403C16.8683 13.8154 17 13.5103 17 13.1922C17 12.8742 16.8683 12.5691 16.6339 12.3442C16.3995 12.1193 16.0815 11.993 15.75 11.993ZM15.75 16.7901H8.25C7.91848 16.7901 7.60054 16.9165 7.36612 17.1414C7.1317 17.3663 7 17.6714 7 17.9894C7 18.3075 7.1317 18.6125 7.36612 18.8375C7.60054 19.0624 7.91848 19.1887 8.25 19.1887H15.75C16.0815 19.1887 16.3995 19.0624 16.6339 18.8375C16.8683 18.6125 17 18.3075 17 17.9894C17 17.6714 16.8683 17.3663 16.6339 17.1414C16.3995 16.9165 16.0815 16.7901 15.75 16.7901ZM21.6375 21.9351C21.5781 21.8835 21.5155 21.8355 21.45 21.7912C21.3803 21.7458 21.3047 21.7095 21.225 21.6833L21 21.5873C20.7563 21.5417 20.5039 21.5667 20.275 21.6593C20.1199 21.7131 19.979 21.7991 19.8624 21.911C19.7457 22.0229 19.6561 22.1581 19.6 22.3069C19.5261 22.4565 19.4917 22.6212 19.5 22.7866C19.4978 22.965 19.5371 23.1417 19.6151 23.3036C19.6931 23.4656 19.8078 23.6089 19.9508 23.7229C20.0938 23.837 20.2615 23.919 20.4418 23.963C20.622 24.007 20.8102 24.0118 20.9926 23.9772C21.175 23.9425 21.3471 23.8693 21.4963 23.7627C21.6455 23.6562 21.768 23.5191 21.8549 23.3613C21.9419 23.2036 21.991 23.0293 21.9988 22.851C22.0066 22.6727 21.9729 22.495 21.9 22.3309C21.8367 22.1855 21.7479 22.0517 21.6375 21.9351ZM22 8.32311C21.987 8.21293 21.9618 8.10439 21.925 7.9993V7.89136C21.8649 7.76805 21.7847 7.6547 21.6875 7.55556L14.1875 0.359788C14.0842 0.266503 13.966 0.189586 13.8375 0.131922C13.8002 0.126838 13.7623 0.126838 13.725 0.131922C13.598 0.062053 13.4578 0.0172029 13.3125 0H5.75C4.75544 0 3.80161 0.379062 3.09835 1.0538C2.39509 1.72853 2 2.64367 2 3.59789V20.388C2 21.3422 2.39509 22.2574 3.09835 22.9321C3.80161 23.6068 4.75544 23.9859 5.75 23.9859H15.75C16.0815 23.9859 16.3995 23.8596 16.6339 23.6346C16.8683 23.4097 17 23.1047 17 22.7866C17 22.4685 16.8683 22.1635 16.6339 21.9386C16.3995 21.7137 16.0815 21.5873 15.75 21.5873H5.75C5.41848 21.5873 5.10054 21.461 4.86612 21.236C4.6317 21.0111 4.5 20.7061 4.5 20.388V3.59789C4.5 3.27981 4.6317 2.97477 4.86612 2.74986C5.10054 2.52494 5.41848 2.39859 5.75 2.39859H12V5.99648C12 6.95069 12.3951 7.86583 13.0983 8.54057C13.8016 9.2153 14.7554 9.59436 15.75 9.59436H19.5V11.993C19.5 12.311 19.6317 12.6161 19.8661 12.841C20.1005 13.0659 20.4185 13.1922 20.75 13.1922C21.0815 13.1922 21.3995 13.0659 21.6339 12.841C21.8683 12.6161 22 12.311 22 11.993V8.39507C22 8.39507 22 8.39507 22 8.32311ZM15.75 7.19577C15.4185 7.19577 15.1005 7.06942 14.8661 6.84451C14.6317 6.61959 14.5 6.31455 14.5 5.99648V4.0896L17.7375 7.19577H15.75ZM20.75 15.5908C20.4185 15.5908 20.1005 15.7172 19.8661 15.9421C19.6317 16.167 19.5 16.4721 19.5 16.7901V19.1887C19.5 19.5068 19.6317 19.8118 19.8661 20.0368C20.1005 20.2617 20.4185 20.388 20.75 20.388C21.0815 20.388 21.3995 20.2617 21.6339 20.0368C21.8683 19.8118 22 19.5068 22 19.1887V16.7901C22 16.4721 21.8683 16.167 21.6339 15.9421C21.3995 15.7172 21.0815 15.5908 20.75 15.5908Z" fill="currentColor"/>
</svg>
