<svg width="25" height="25" viewBox="0 0 25 25" fill="none" xmlns="http://www.w3.org/2000/svg">
<path fill-rule="evenodd" clip-rule="evenodd" d="M19.625 6.5C20.0392 6.5 20.375 6.83579 20.375 7.25V17.75C20.375 18.1642 20.0392 18.5 19.625 18.5H4.625C4.21079 18.5 3.875 18.1642 3.875 17.75V7.25C3.875 6.83579 4.21079 6.5 4.625 6.5L19.625 6.5ZM21.875 7.25C21.875 6.00736 20.8676 5 19.625 5L4.625 5C3.38236 5 2.375 6.00736 2.375 7.25V17.75C2.375 18.9926 3.38236 20 4.625 20H19.625C20.8676 20 21.875 18.9926 21.875 17.75V7.25Z" fill="currentColor"/>
<path fill-rule="evenodd" clip-rule="evenodd" d="M2.375 9.5C2.375 9.91421 2.71079 10.25 3.125 10.25H21.125C21.5392 10.25 21.875 9.91421 21.875 9.5C21.875 9.08579 21.5392 8.75 21.125 8.75H3.125C2.71079 8.75 2.375 9.08579 2.375 9.5Z" fill="currentColor"/>
</svg>
