<svg width="1em" height="1em" viewBox="0 0 14 14" fill="none" xmlns="http://www.w3.org/2000/svg">
<path d="M3.20715 12.586V1.414C3.2072 1.21625 3.26587 1.02295 3.37575 0.858544C3.48564 0.694134 3.6418 0.565994 3.8245 0.490324C4.0072 0.414654 4.20823 0.394851 4.40218 0.433419C4.59614 0.471986 4.7743 0.567193 4.91415 0.707002L10.5002 6.293C10.6876 6.48053 10.7929 6.73484 10.7929 7C10.7929 7.26517 10.6876 7.51947 10.5002 7.707L4.91415 13.293C4.7743 13.4328 4.59614 13.528 4.40218 13.5666C4.20823 13.6052 4.0072 13.5853 3.8245 13.5097C3.6418 13.434 3.48564 13.3059 3.37575 13.1415C3.26587 12.977 3.2072 12.7838 3.20715 12.586Z" fill="currentColor"/>
</svg>
