<svg width="1em" height="1em" viewBox="0 0 24 25" fill="currentColor" xmlns="http://www.w3.org/2000/svg">

<path d="M5.30987 12.5996C5.30987 8.63621 8.53544 5.41064 12.4989 5.41064C13.6884 5.41064 14.8107 5.70371 15.8003 6.21746C15.921 5.61234 15.9986 4.9555 15.9986 4.22626C15.9986 0.843806 13.4143 0.10077 12.3885 0.10077C11.4987 0.10077 10.8984 0.2383 10.2863 0.378528C9.64969 0.52437 9.00035 0.673132 7.99928 0.673132C6.9982 0.673132 6.34887 0.52437 5.71228 0.378528C5.10019 0.2383 4.49988 0.10077 3.61002 0.10077C2.58425 0.10077 0 0.842083 0 4.22626C0 6.28196 0.597361 7.77994 1.11138 9.06893C1.39959 9.79166 1.66161 10.4487 1.77743 11.1015C1.85151 11.5198 1.93973 12.231 2.04715 13.0971C2.46221 16.4432 3.16393 22.1005 4.44443 22.1005C5.13527 22.1005 5.36171 20.415 5.62031 18.4901C5.74116 17.5905 5.86904 16.6387 6.05463 15.7821C5.57881 14.8219 5.31159 13.7426 5.31159 12.6014L5.30987 12.5996ZM13.9498 13.0947C13.7972 14.3257 13.6058 15.8699 13.3609 17.3302H13.3591C13.0798 17.382 12.7919 17.4096 12.4971 17.4096C11.6369 17.4096 10.8301 17.182 10.1318 16.7855C9.79911 14.7615 9.27502 12.9324 7.99755 12.9324C7.89411 12.9324 7.79584 12.9462 7.70275 12.9686C7.69413 12.8479 7.68723 12.7238 7.68723 12.5996C7.68723 9.94816 9.84566 7.78973 12.4971 7.78973C13.4522 7.78973 14.3418 8.07074 15.09 8.55173C15.021 8.72948 14.9519 8.90285 14.8842 9.07261L14.8842 9.07269C14.5967 9.79364 14.3352 10.4495 14.2194 11.0998C14.1454 11.5177 14.0572 12.2287 13.9499 13.0946L13.9498 13.0947ZM10.5215 19.5094C11.149 19.6904 11.8127 19.7886 12.4989 19.7886H12.5006C12.6213 19.7886 12.742 19.7835 12.8626 19.7766C12.5109 21.1385 12.0834 22.0988 11.5559 22.0988C10.9904 22.0988 10.737 20.9713 10.5215 19.5094ZM17.8915 16.2235L23.6324 21.9643L23.6341 21.966C24.122 22.4522 24.122 23.2452 23.6341 23.7331C23.3979 23.9693 23.0841 24.0986 22.7497 24.0986C22.4152 24.0986 22.1015 23.9693 21.8653 23.7331L16.1244 17.9923C15.0883 18.6905 13.8401 19.0991 12.4989 19.0991C8.91472 19.0991 5.99947 16.1838 5.99947 12.5996C5.99947 9.01548 8.91472 6.10023 12.4989 6.10023C16.083 6.10023 18.9983 9.01548 18.9983 12.5996C18.9983 13.9409 18.5897 15.1873 17.8915 16.2235ZM6.99938 12.5996C6.99938 15.6321 9.4664 18.0991 12.4989 18.0991C15.5314 18.0991 17.9984 15.6321 17.9984 12.5996C17.9984 9.56716 15.5314 7.10014 12.4989 7.10014C9.4664 7.10014 6.99938 9.56716 6.99938 12.5996Z" fill="currentColor"/>
</svg>