<svg width="1em" height="1em" viewBox="0 0 14 14" fill="none" xmlns="http://www.w3.org/2000/svg">
<path d="M1.41397 3.20711H12.586C12.7837 3.20715 12.977 3.26582 13.1414 3.37571C13.3058 3.48559 13.434 3.64175 13.5096 3.82445C13.5853 4.00715 13.6051 4.20819 13.5666 4.40214C13.528 4.59609 13.4328 4.77426 13.293 4.91411L7.70697 10.5001C7.51944 10.6876 7.26514 10.7929 6.99997 10.7929C6.73481 10.7929 6.4805 10.6876 6.29297 10.5001L0.706971 4.91411C0.567162 4.77426 0.471956 4.59609 0.433388 4.40214C0.39482 4.20819 0.414624 4.00715 0.490294 3.82445C0.565964 3.64175 0.694103 3.48559 0.858513 3.37571C1.02292 3.26582 1.21622 3.20715 1.41397 3.20711Z" fill="currentColor"/>
</svg>
