<svg width="1em" height="1em" viewBox="0 0 24 24" fill="none" xmlns="http://www.w3.org/2000/svg">
<path d="M19.949 5.53599L16.465 2.04999C15.8163 1.39813 15.0449 0.881323 14.1952 0.529452C13.3456 0.17758 12.4346 -0.00237439 11.515 -7.4689e-06H7C5.67441 0.00158039 4.40356 0.528874 3.46622 1.46621C2.52888 2.40355 2.00159 3.6744 2 4.99999V19C2.00159 20.3256 2.52888 21.5964 3.46622 22.5338C4.40356 23.4711 5.67441 23.9984 7 24H17C18.3256 23.9984 19.5964 23.4711 20.5338 22.5338C21.4711 21.5964 21.9984 20.3256 22 19V10.485C22.0025 9.56542 21.8225 8.65448 21.4704 7.80497C21.1184 6.95545 20.6012 6.18423 19.949 5.53599ZM18.535 6.94999C18.8404 7.26414 19.103 7.61718 19.316 7.99999H15C14.7348 7.99999 14.4804 7.89464 14.2929 7.7071C14.1054 7.51956 14 7.26521 14 6.99999V2.68399C14.3829 2.89692 14.7363 3.15915 15.051 3.46399L18.535 6.94999ZM20 19C20 19.7956 19.6839 20.5587 19.1213 21.1213C18.5587 21.6839 17.7956 22 17 22H7C6.20435 22 5.44129 21.6839 4.87868 21.1213C4.31607 20.5587 4 19.7956 4 19V4.99999C4 4.20434 4.31607 3.44128 4.87868 2.87867C5.44129 2.31606 6.20435 1.99999 7 1.99999H11.515C11.679 1.99999 11.838 2.03199 12 2.04699V6.99999C12 7.79564 12.3161 8.5587 12.8787 9.12131C13.4413 9.68392 14.2044 9.99999 15 9.99999H19.953C19.968 10.162 20 10.32 20 10.485V19Z" fill="currentColor"/>
</svg>
