<svg width="1em" height="1em" viewBox="0 0 24 25" fill="none" xmlns="http://www.w3.org/2000/svg">
<path d="M2.19531 15.5706C2.19531 18.4613 4.00195 20.8831 6.42383 20.8831H8.14258C6.38476 19.6038 5.66211 17.6702 5.66211 15.473C5.67187 13.0316 6.61914 11.2835 7.45898 10.2288H6.0625C3.88476 10.2288 2.19531 12.5726 2.19531 15.5706ZM7.00976 15.4925C7.00976 19.057 9.79297 21.8109 14.334 21.8109H15.6621C16.9219 21.8109 17.8594 21.723 18.3867 21.5765C19.1484 21.3909 19.8808 20.9222 19.8808 20.0042C19.8808 19.6234 19.7832 19.3499 19.666 19.1449C19.5879 19.0179 19.6074 18.9202 19.7246 18.8714C20.3301 18.6175 20.8281 18.0511 20.8281 17.2796C20.8281 16.8402 20.7012 16.4495 20.4863 16.1859C20.3789 16.0394 20.3887 15.9027 20.5742 15.805C21.0039 15.5511 21.3164 15.0042 21.3164 14.3695C21.3164 13.9105 21.1699 13.432 20.916 13.1976C20.7598 13.0609 20.7891 12.9632 20.9453 12.8167C21.248 12.5628 21.4433 12.1234 21.4433 11.5667C21.4433 10.6292 20.7109 9.85772 19.7441 9.85772H16.3066C15.4375 9.85772 14.8613 9.4085 14.8613 8.68585C14.8613 7.38702 16.4922 4.98468 16.4922 3.26593C16.4922 2.35773 15.9062 1.83038 15.1445 1.83038C14.4414 1.83038 14.0996 2.3089 13.7285 3.04132C12.2734 5.86358 10.3398 8.14874 8.86523 10.1019C7.61523 11.762 7.00976 13.1976 7.00976 15.4925Z" fill="currentColor"/>
</svg>
