<svg width="1em" height="1em" viewBox="0 0 24 25" fill="none" xmlns="http://www.w3.org/2000/svg">
<path d="M20.56 7.67969L12.56 2.27969C12.3946 2.16791 12.1996 2.10818 12 2.10818C11.8004 2.10818 11.6054 2.16791 11.44 2.27969L3.44 7.67969C3.30443 7.77132 3.19342 7.89483 3.11671 8.03936C3.03999 8.1839 2.99992 8.34505 3 8.50869V21.1087C3 21.3739 3.10536 21.6283 3.29289 21.8158C3.48043 22.0033 3.73478 22.1087 4 22.1087H20C20.2652 22.1087 20.5196 22.0033 20.7071 21.8158C20.8946 21.6283 21 21.3739 21 21.1087V8.50869C21.0001 8.34505 20.96 8.1839 20.8833 8.03936C20.8066 7.89483 20.6956 7.77132 20.56 7.67969ZM19 20.1087H5V9.04069L12 4.31469L19 9.04069V20.1087ZM13 10.1087V12.1087H15V14.1087H13V16.1087H11V14.1087H9V12.1087H11V10.1087H13Z" fill="currentColor"/>
</svg>
