<svg width="1em" height="1em" viewBox="0 0 25 25" fill="none" xmlns="http://www.w3.org/2000/svg">
<path d="M12.5795 0.108688C10.0798 0.111524 7.68321 1.10581 5.9156 2.87341C4.148 4.64102 3.15371 7.03759 3.15088 9.53735C3.15088 17.6053 11.7224 23.6986 12.0878 23.9536C12.2319 24.0545 12.4036 24.1087 12.5795 24.1087C12.7555 24.1087 12.9272 24.0545 13.0713 23.9536C13.4367 23.6986 22.0082 17.6053 22.0082 9.53735C22.0054 7.03759 21.0111 4.64102 19.2435 2.87341C17.4759 1.10581 15.0793 0.111524 12.5795 0.108688ZM12.5795 6.10875C13.2577 6.10875 13.9205 6.30983 14.4844 6.68657C15.0482 7.06331 15.4877 7.59879 15.7472 8.22528C16.0067 8.85178 16.0746 9.54116 15.9423 10.2062C15.81 10.8713 15.4834 11.4822 15.0039 11.9617C14.5244 12.4412 13.9135 12.7678 13.2484 12.9001C12.5833 13.0324 11.894 12.9645 11.2675 12.705C10.641 12.4455 10.1055 12.006 9.72876 11.4422C9.35202 10.8784 9.15094 10.2155 9.15094 9.53735C9.15094 8.62803 9.51217 7.75595 10.1552 7.11296C10.7981 6.46998 11.6702 6.10875 12.5795 6.10875Z" fill="currentColor"/>
</svg>
