<svg width="1em" height="1em" viewBox="0 0 24 25" fill="currentColor" xmlns="http://www.w3.org/2000/svg">

<path d="M16.6363 5.99605C16.6363 8.5571 14.5598 10.6328 11.9996 10.6328L12.0004 10.6336C9.43934 10.6336 7.36364 8.55791 7.36364 5.99685C7.36364 3.4358 9.44015 1.3601 12.0004 1.3601C12.5739 1.3601 13.1224 1.46526 13.6296 1.65535C13.8852 0.7623 14.7054 0.108688 15.6802 0.108688C16.8588 0.108688 17.8141 1.06403 17.8141 2.24263C17.8141 3.20283 17.1799 4.01418 16.3079 4.28274C16.5191 4.81259 16.6363 5.39097 16.6363 5.99605ZM13.5034 11.957C15.5637 11.957 17.4 13.4414 18.0876 15.6611L18.0884 15.6619L19.1853 19.2042C19.7297 20.962 18.6651 22.8015 17.0813 22.9657C17.0627 22.9738 17.0424 22.9786 17.0214 22.9786H16.8612H16.8507H13.2114C13.2097 22.9875 13.2089 22.9956 13.2065 23.0045C13.0496 23.6646 12.4607 24.1087 11.8111 24.1087C11.7011 24.1087 11.5903 24.0966 11.4786 24.0699L6.57089 22.905C6.5666 22.9041 6.56287 22.902 6.5592 22.8999C6.55665 22.8985 6.55413 22.8971 6.55148 22.8961C5.17549 22.5094 4.31399 20.822 4.81471 19.2034L5.91081 15.6611C6.59839 13.4406 8.43465 11.957 10.495 11.957H13.5034ZM11.9761 20.1086H16.7617C17.184 19.7348 17.4517 19.1896 17.4517 18.5813C17.4517 17.4529 16.5368 16.5388 15.4092 16.5388C14.3867 16.5388 13.5422 17.2911 13.3926 18.2715C12.8012 18.159 12.125 18.1623 11.4269 18.3055C10.1916 18.5595 9.18938 19.1912 8.69513 19.9346C8.59401 20.0859 8.51393 20.2436 8.45892 20.403L9.5356 20.6586L10.6778 20.9296L12.1403 21.2766C12.7357 21.4166 13.1555 21.91 13.2324 22.4819C13.2542 22.6429 13.2478 22.8104 13.2122 22.9778H13.7307C13.7687 22.7392 13.7622 22.4973 13.7137 22.2651C13.6668 22.0508 13.5851 21.8437 13.4662 21.652C13.1928 21.2087 12.7648 20.8997 12.2593 20.78L11.0078 20.4839C11.2635 20.2517 11.6016 20.1086 11.9761 20.1086Z" fill="currentColor"/>
</svg>