<svg width="25" height="25" viewBox="0 0 25 25" fill="none" xmlns="http://www.w3.org/2000/svg">
<path fill-rule="evenodd" clip-rule="evenodd" d="M18.125 20.75C18.125 21.1642 17.7892 21.5 17.375 21.5H8.375C7.96079 21.5 7.625 21.1642 7.625 20.75L7.625 4.25C7.625 3.83579 7.96079 3.5 8.375 3.5H17.375C17.7892 3.5 18.125 3.83579 18.125 4.25V20.75ZM17.375 23C18.6176 23 19.625 21.9926 19.625 20.75V4.25C19.625 3.00736 18.6176 2 17.375 2H8.375C7.13236 2 6.125 3.00736 6.125 4.25L6.125 20.75C6.125 21.9926 7.13236 23 8.375 23H17.375Z" fill="currentColor"/>
<path d="M12.875 17.75C13.4963 17.75 14 18.2537 14 18.875C14 19.4963 13.4963 20 12.875 20C12.2537 20 11.75 19.4963 11.75 18.875C11.75 18.2537 12.2537 17.75 12.875 17.75Z" fill="currentColor"/>
</svg>
