<svg width="1em" height="1em" viewBox="0 0 24 28" fill="none" xmlns="http://www.w3.org/2000/svg">
<path d="M12.5679 7.8401L14.3514 10.1487C13.8843 10.1567 13.4159 10.3225 13.0779 10.6553C12.8364 10.8832 12.6714 11.1537 12.5941 11.4384C12.1305 10.8657 11.6501 10.2691 11.2929 9.82905C11.177 9.68625 10.9684 9.74746 10.9684 9.91065C10.9684 10.9817 11.0263 13.2459 11.2234 14.3679C11.4552 15.6429 13.1359 21.8239 13.217 22.0994C13.4257 22.7419 12.9736 23.3335 12.2317 23.3335C11.687 23.3335 11.3161 23.0683 11.1191 22.436C10.7249 21.1814 9.55426 16.9077 9.16016 15.8775C8.89357 15.1431 8.70811 14.8575 8.23288 14.8575C7.75763 14.8575 7.57218 15.1431 7.30559 15.8775C6.92308 16.9077 5.7408 21.1814 5.34669 22.436C5.14965 23.0683 4.77873 23.3335 4.23395 23.3335C3.49212 23.3335 3.04008 22.7419 3.24872 22.0994C3.32985 21.8239 5.02215 15.6429 5.25397 14.3679C5.45102 13.2459 5.49738 10.9918 5.49738 9.92085C5.49738 9.74746 5.27715 9.69646 5.17283 9.82905C4.3035 10.9102 2.71552 12.8992 2.40257 13.2256C2.05483 13.5723 1.51005 13.6335 1.04641 13.4092C0.455263 13.1338 0.316169 12.5728 0.559583 12.1852C0.663902 12.0322 0.779812 11.8792 0.895724 11.7262L3.89781 7.8401C4.85987 6.60593 6.03057 6.05514 8.23288 6.05514C10.4352 6.05514 11.6175 6.60593 12.5679 7.8401ZM10.7365 2.79122C10.7365 4.01519 9.6238 4.98417 8.23288 4.98417C6.84194 4.98417 5.7408 4.01519 5.7408 2.79122C5.7408 1.56725 6.84194 0.588076 8.23288 0.588076C9.6238 0.588076 10.7365 1.56725 10.7365 2.79122Z" fill="currentColor"/>
<path d="M17.9815 12.0325C19.0015 12.0325 19.8477 11.2982 19.8477 10.4006C19.8477 9.50299 19.0015 8.76862 17.9815 8.76862C16.9615 8.76862 16.1269 9.50299 16.1269 10.4006C16.1269 11.2982 16.9615 12.0325 17.9815 12.0325ZM15.4082 23.3338C15.8487 23.3338 16.2196 23.1095 16.3587 22.5995C16.6022 21.8345 17.3092 19.2029 17.541 18.5604C17.7033 18.1422 17.7381 18.1116 17.8655 18.1116C17.9931 18.1116 18.0279 18.1422 18.1902 18.5604C18.4103 19.2029 19.129 21.8345 19.3725 22.5995C19.5116 23.1095 19.8825 23.3338 20.323 23.3338C20.9836 23.3338 21.3661 22.7933 21.2038 22.2628C21.1459 22.0895 20.1374 18.3054 19.9752 17.5098C19.894 17.0202 19.8477 16.1634 19.8477 15.8064C19.8477 15.6432 20.0563 15.5922 20.1606 15.7249L21.6442 17.6118C21.9572 18.0096 22.4673 18.0197 22.8034 17.8056C23.1048 17.622 23.2555 17.2446 22.9656 16.8571L21.0532 14.2459C20.3809 13.3483 19.3377 12.9913 18.2712 12.9913H17.8655C17.0889 12.9913 16.7528 12.7771 16.2313 12.2876L15.0026 11.1349C14.6897 10.8494 14.0753 10.8391 13.7276 11.1961C13.4146 11.4818 13.3102 11.9 13.5769 12.257C13.7044 12.4303 14.7708 13.4809 15.6053 14.3988C15.7908 14.6029 15.8951 14.7967 15.8951 15.0925C15.8951 15.6025 15.872 16.8774 15.756 17.5098C15.5938 18.3054 14.5854 22.0895 14.5273 22.2628C14.3651 22.7933 14.7476 23.3338 15.4082 23.3338Z" fill="currentColor"/>
</svg>
