<svg width="1em" height="1em" viewBox="0 0 24 24" fill="currentColor" xmlns="http://www.w3.org/2000/svg">
<path d="M23.8593 11.3107C23.8057 11.3839 22.5225 13.1252 20.4404 14.8852C20.1537 15.1276 19.8656 15.3581 19.5764 15.5774L18.5341 14.5352C20.3703 13.1716 21.7397 11.6177 22.343 10.8807C21.1407 9.41502 16.9001 4.71248 12 4.71248C7.09985 4.71248 2.85734 9.41353 1.6569 10.8798C2.85867 12.3449 7.09939 17.048 11.9999 17.048C12.7349 17.048 13.4546 16.9421 14.1514 16.758L15.3185 17.9251C14.1965 18.3103 13.085 18.5059 11.9998 18.5059C10.47 18.5059 8.88789 18.1192 7.29744 17.3567C6.04862 16.7579 4.7909 15.9264 3.55936 14.8853C1.47745 13.1252 0.194243 11.384 0.140627 11.3107C-0.0468755 11.0543 -0.0468755 10.7062 0.140627 10.4498C0.194243 10.3766 1.47745 8.63529 3.55951 6.87528C4.79106 5.83421 6.0487 5.00274 7.2976 4.40394C8.88804 3.6414 10.4701 3.2547 12 3.2547C13.5299 3.2547 15.112 3.6414 16.7024 4.40394C17.9512 5.00274 19.2089 5.83421 20.4405 6.87528C22.5226 8.63529 23.8058 10.3766 23.8594 10.4498C24.0469 10.7062 24.0469 11.0543 23.8594 11.3107H23.8593ZM20.9118 17.8007C21.5707 18.4596 21.6111 19.5332 20.9705 20.21C20.3058 20.9121 19.1975 20.9236 18.5183 20.2444L15.3782 17.1045C15.2013 16.9277 15.2013 16.6409 15.3782 16.4639L15.7309 16.1112L15.0712 15.4515C14.193 16.0433 13.1361 16.3891 11.9999 16.3891C8.96206 16.3891 6.49061 13.9179 6.49061 10.8802C6.49061 7.84258 8.96206 5.37131 11.9999 5.37131C15.0378 5.37131 17.5092 7.84258 17.5092 10.8802C17.5092 12.2352 17.0171 13.4773 16.2027 14.4379L16.8035 15.0387L17.1562 14.686C17.3331 14.5092 17.6199 14.5092 17.7969 14.686L20.9118 17.8007ZM12 14.9314C14.2339 14.9314 16.0514 13.1141 16.0514 10.8802C16.0514 8.64638 14.234 6.8291 12 6.8291C9.766 6.8291 7.94858 8.64638 7.94858 10.8802C7.94858 13.1141 9.766 14.9314 12 14.9314ZM12 8.31509C11.6072 8.31509 11.2351 8.40364 10.9023 8.56151C11.1752 8.71539 11.3598 9.00745 11.3598 9.34304C11.3598 9.83853 10.9581 10.2402 10.4626 10.2402C10.127 10.2402 9.83485 10.0556 9.68104 9.78265C9.52324 10.1154 9.4346 10.4875 9.4346 10.8803C9.4346 12.2971 10.5831 13.4455 12 13.4455C13.4169 13.4455 14.5654 12.2971 14.5654 10.8803C14.5654 9.46355 13.4169 8.31509 12 8.31509Z" fill="currentColor"/>
</svg>