<svg width="1em" height="1em" viewBox="0 0 24 25" fill="none" xmlns="http://www.w3.org/2000/svg">
<path d="M7 14.3067C7 14.7962 7.38184 15.1781 7.87138 15.1781C8.35114 15.1781 8.73298 14.7962 8.73298 14.3067V10.5372C8.73298 10.361 8.87984 10.2239 9.05607 10.2239C9.2323 10.2239 9.36938 10.361 9.36938 10.5372V21.9533C9.36938 22.4821 9.80017 22.9031 10.3289 22.9031C10.8576 22.9031 11.2884 22.4821 11.2884 21.9533V15.0117C11.2884 14.8354 11.4352 14.6788 11.6115 14.6788C11.7877 14.6788 11.9444 14.8354 11.9444 15.0117V21.9533C11.9444 22.4821 12.3654 22.9031 12.8941 22.9031C13.4228 22.9031 13.8536 22.4821 13.8536 21.9533V10.5372C13.8536 10.361 13.9906 10.2239 14.1669 10.2239C14.3431 10.2239 14.49 10.361 14.49 10.5372V14.3067C14.49 14.7962 14.8718 15.1781 15.3516 15.1781C15.8411 15.1781 16.2229 14.7962 16.2229 14.3067V10.0967C16.2229 7.93289 14.6368 6.50343 12.3164 6.50343H10.9065C8.58611 6.50343 7 7.93289 7 10.0967V14.3067ZM11.6115 5.37748C12.7962 5.37748 13.7459 4.42778 13.7459 3.24309C13.7459 2.0584 12.7962 1.10869 11.6115 1.10869C10.4268 1.10869 9.47707 2.0584 9.47707 3.24309C9.47707 4.42778 10.4268 5.37748 11.6115 5.37748Z" fill="currentColor"/>
</svg>
