<svg width="1em" height="1em" viewBox="0 0 25 24" fill="none" xmlns="http://www.w3.org/2000/svg">
<path d="M21.6737 14.7205C21.0513 13.69 19.6752 11.7182 19.1507 11.0013C18.8424 10.5796 18.3951 10.4197 18.0795 10.3594C18.0278 10.2878 17.9695 10.2233 17.904 10.1666C17.0515 9.42945 15.4469 9.2086 14.561 9.26381C13.6752 9.31902 9.56336 8.93224 8.87814 8.36102C8.19292 7.7898 7.52421 6.3343 6.97273 5.83679C6.42125 5.33929 6.03682 5.33929 6.03682 5.33929C6.03682 5.33929 5.66916 4.25206 5.46855 4.12314C5.26794 3.99421 5.33481 5.44971 5.33481 5.44971C5.33481 5.44971 4.74976 5.67086 4.46577 5.855C4.1815 6.03914 4.1149 6.51844 4.04803 6.66587C3.98116 6.8133 3.02846 7.01594 2.92801 7.05265C2.82757 7.08936 2.71062 7.20008 2.77749 7.45793C2.84436 7.71579 3.07827 7.97394 3.07827 7.97394C3.07827 7.97394 3.11157 8.2318 3.24531 8.32401C3.37905 8.41623 4.54915 8.45294 4.76628 8.60037C4.98367 8.7478 5.13393 9.11638 5.13393 9.11638L5.40141 8.84002C5.40141 8.84002 5.23437 10.2218 5.76906 11.1431C6.2109 11.9044 6.67547 12.6499 7.12705 13.4041C7.14979 13.4423 7.17307 13.4808 7.20285 13.5121C7.21666 13.5268 7.23182 13.5399 7.24211 13.5575C7.25186 13.5739 7.25646 13.5933 7.26106 13.6121C7.37233 14.0678 7.47765 14.5259 7.59216 14.9808C7.86912 16.0799 8.78203 16.8747 8.59793 18.1085C8.55813 18.3747 8.50263 18.6388 8.44307 18.9002C8.44307 18.9002 8.16314 18.9325 7.97931 19.0614C7.79548 19.1903 7.72807 19.6189 7.7454 19.803C7.75785 19.9367 8.86947 19.8582 9.02812 19.849C9.22359 19.8376 9.81378 18.0894 9.78021 17.6841C9.74772 17.2907 9.79402 14.1395 9.79673 13.9526C9.78102 13.8043 9.75612 13.6572 9.71903 13.5124C9.71199 13.4847 9.70387 13.4575 9.69601 13.4301C9.6416 13.2826 9.57879 13.1394 9.52735 12.9896C9.49242 12.9409 9.4594 12.8911 9.43557 12.8353C9.43368 12.8308 9.43286 12.8266 9.43151 12.8224C9.62617 12.9776 9.79267 13.1659 9.9283 13.3808C9.94725 13.4345 9.96485 13.4892 9.98136 13.5441C10.0304 13.7055 10.0642 13.87 10.0888 14.0362C10.417 14.1254 11.0017 14.2436 11.736 14.2203C12.6058 14.1926 13.8368 13.9867 14.3894 13.887C14.3166 13.6312 14.2562 13.3686 14.2186 13.103C14.4081 13.5494 14.6601 13.961 14.9625 14.3209C15.1052 14.5149 15.3131 14.7572 15.6136 15.0309C15.9821 15.3664 16.4118 15.6132 16.7748 15.9555C17.2491 16.4029 17.6536 16.9293 18.0941 17.4152C18.1593 17.4871 18.2257 17.5569 18.282 17.6378C18.3158 17.6862 18.3459 17.7378 18.3721 17.7915C18.3762 17.7169 18.3802 17.6402 18.3838 17.5632C18.5516 18.0676 18.5013 18.6648 18.4885 18.845C18.4718 19.0847 18.1374 19.0847 17.9371 19.4162C17.7364 19.7478 17.77 19.8767 17.77 19.8767C17.77 19.8767 18.5557 19.8952 18.7563 19.8767C18.9569 19.8582 19.1908 19.4162 19.3078 19.2318C19.4247 19.0477 19.4415 16.6344 19.4415 16.6338C19.4423 16.5252 19.2168 16.2417 19.1597 16.1304C19.0546 15.9259 18.958 15.7164 18.8724 15.5013C18.7089 15.09 18.5857 14.6591 18.5175 14.2159C18.3719 13.2725 18.5497 12.3133 18.4228 11.3666C18.5652 11.5964 18.6948 11.8647 18.7701 12.1593C19.0111 13.1006 19.3581 15.1228 20.95 16.5351C21.9284 17.4029 22.2403 17.7796 22.2403 17.7796C22.2403 17.7796 22.2961 15.7511 21.674 14.7208L21.6737 14.7205Z" fill="currentColor" />
</svg>
