<svg width="1em" height="1em" viewBox="0 0 25 24" fill="none" xmlns="http://www.w3.org/2000/svg">
<path d="M20.8096 8.99763C20.7065 9.13822 20.6933 9.3956 20.6021 9.56303C20.4938 9.76173 20.3374 9.92612 20.1573 10.0609C19.7379 10.3756 19.203 10.3772 18.8168 10.3191C18.452 9.97732 17.863 9.77364 16.9729 9.78498C15.9523 9.79771 14.6508 9.9264 13.9364 10.0548C13.222 10.1832 12.316 9.90066 11.6016 9.93913C10.8872 9.9776 10.7918 9.86884 10.5172 9.6181C9.96859 9.11719 9.30339 7.81148 9.30339 7.81148C9.30339 7.81148 9.2289 7.08308 8.79872 6.29739C8.36882 5.51142 8.20115 4.73956 8.0835 4.832C7.96586 4.92471 7.83062 5.50616 7.77784 5.88171C7.72507 6.25753 7.86305 6.49581 7.86305 6.49581C7.86305 6.49581 7.85563 6.49554 7.84216 6.49526C7.7531 6.39674 7.66075 6.29656 7.5967 6.22903C7.48648 6.11252 6.88395 5.23771 6.77813 5.21308C6.67257 5.18845 6.63354 6.01012 6.71408 6.38733C6.74102 6.51353 6.78032 6.62008 6.82101 6.70559C6.70886 6.75983 6.60083 6.82819 6.50518 6.91371C5.99803 7.3673 6.05906 8.11729 5.95488 8.18814C5.8507 8.25899 5.05274 8.57503 4.99612 8.69071C4.93922 8.8064 5.05824 9.12383 5.05824 9.12383C5.05824 9.12383 5.2556 9.46008 5.33147 9.50768C5.40706 9.55528 5.61129 9.6383 5.61129 9.6383C5.61129 9.6383 5.60194 9.67788 5.81964 9.86026C6.03734 10.0426 6.56867 10.2009 6.81111 10.2264C7.73579 10.3238 8.25557 11.5448 8.41198 12.0837C8.65441 12.9186 8.76931 13.3553 8.98619 13.6894C9.03566 13.7657 9.10218 13.8283 9.16678 13.8911C9.20664 13.9301 9.25831 13.9492 9.30037 13.9855C9.65633 14.291 9.90646 14.7014 10.0604 15.1431C10.2572 15.7074 10.3408 16.3348 10.2011 16.9226C10.1354 17.1994 10.1 17.4836 10.0222 17.7603C9.98233 17.9023 9.93478 18.1827 9.80256 18.2751C9.63681 18.3908 9.22835 18.4677 9.04996 18.7375C8.87129 19.0074 8.9095 19.1358 8.9095 19.1358C8.9095 19.1358 10.4661 19.2385 10.6701 18.9944C10.8743 18.7503 11.2698 16.5667 11.4994 15.9371C11.5802 15.7154 11.6695 15.4968 11.7665 15.2815C11.8688 15.0548 11.968 14.816 11.9414 14.5617C11.9139 14.3013 11.7737 14.0707 11.6668 13.8377C11.5804 13.6492 11.3583 13.4348 11.3957 13.2053C11.4642 13.1959 11.5071 13.2551 11.5618 13.2969C11.7484 13.4397 11.9097 13.6221 12.0244 13.8286C12.0554 13.8845 12.2676 14.4679 12.2605 14.4692C12.8693 14.3685 13.9628 14.1704 14.4466 13.9719C14.866 13.7998 15.3091 13.6979 15.7511 13.6047C15.7819 13.598 15.8141 13.5911 15.8391 13.5712C15.8935 13.5272 15.8918 13.3409 15.9111 13.2715C15.9438 13.1536 15.988 13.0373 16.0452 12.9291C16.1343 12.7611 16.286 12.5533 16.4941 12.5215C16.5639 12.6535 16.3627 12.8749 16.3231 13.0077C16.2767 13.1635 16.1964 13.4281 16.2393 13.5903C16.3797 14.1194 16.7002 14.5788 17.0774 14.9652C17.4545 15.3515 17.9036 15.6559 18.2868 16.0345C18.4012 16.1475 18.4965 16.2515 18.5664 16.396C18.7865 16.7668 18.9622 17.1321 19.0394 17.3889C19.167 17.8129 19.0905 18.3396 18.8863 18.468C18.6821 18.5964 18.3888 18.6736 18.2995 18.8278C18.2101 18.9819 18.1975 19.1554 18.1975 19.1554C18.1975 19.1554 19.5306 19.239 19.601 19.0655C19.67 18.8953 19.6648 17.4919 19.7414 17.0679C19.8181 16.6439 19.8946 16.3102 19.8946 16.3102C19.8946 16.3102 19.3588 15.6678 19.2439 15.0512C19.129 14.4346 19.5501 12.8547 19.6395 12.4307C19.6922 12.1808 19.5675 11.6984 19.3855 11.2551C19.4267 11.3547 20.0034 11.0284 20.0655 10.9913C20.5369 10.7121 20.9457 10.0424 20.9391 9.48332C20.9374 9.3372 20.9256 9.09864 20.8096 8.99708V8.99763Z" fill="currentColor"/>
</svg>
