<svg width="1em" height="1em" viewBox="0 0 25 24" fill="none" xmlns="http://www.w3.org/2000/svg">
<path d="M22.395 16.3231C22.0681 15.8855 21.1762 15.1732 20.5099 14.4985C19.8436 13.8239 19.2159 12.0359 18.9892 11.4489C18.9005 11.216 18.6822 10.9486 18.4514 10.7095C18.3574 10.5184 18.2383 10.346 18.0911 10.1988C17.312 9.42383 15.5908 9.3737 15.2075 9.44263C14.8242 9.51156 12.7323 9.54811 11.8143 9.51156C10.8973 9.47396 10.3312 9.23688 10.3312 9.23688L10.4378 9.04367C10.4378 9.04367 10.2748 9.08753 10.1934 9.08753C10.1119 9.08753 9.97926 9.08127 9.97926 9.08127L10.162 8.91312C10.162 8.91312 9.83514 8.95072 9.59701 8.97578C9.35785 9.00085 8.96829 8.96952 8.86803 8.88283C8.76777 8.7951 8.22677 7.90737 7.97611 7.61494C7.73486 7.33295 7.33172 6.5977 6.85026 6.28438C6.83668 6.12668 6.78759 5.88751 6.62467 5.65252C6.3479 5.24939 5.78184 4.94965 5.78184 4.94965C5.78184 4.94965 5.74425 5.24939 5.73171 5.71205C5.72754 5.86976 5.73902 5.99926 5.75678 6.10057C5.54268 6.13294 5.3338 6.19247 5.1479 6.25618C4.65808 6.42433 4.41264 7.14914 4.41264 7.14914C4.41264 7.14914 3.55833 7.49901 3.3317 7.53661C3.10506 7.57421 3.05493 7.7246 3.05493 7.83635C3.05493 7.9481 3.2941 8.21129 3.2941 8.21129C3.2941 8.21129 3.55833 8.66142 3.98549 8.76168C4.41264 8.86194 5.11656 8.98623 5.11656 8.98623C5.11656 8.98623 5.13014 9.03323 5.15103 9.11364C5.15103 9.18571 5.13641 9.2515 5.14581 9.31208C5.20847 9.68806 5.18027 10.1309 5.06539 10.4954C5.0539 10.5309 4.94633 10.7084 5.01108 10.7251C5.02152 10.7283 5.03301 10.7251 5.04346 10.722C5.12701 10.6969 5.19385 10.6426 5.26905 10.6019C5.23876 10.6938 5.15938 11.262 5.07479 11.4009C5.20012 11.381 5.31918 11.3434 5.43928 11.3037C5.40691 11.3842 5.30456 11.9857 5.26278 11.9857C5.32753 11.9857 5.39124 11.9742 5.45599 11.9586C5.45599 11.9617 5.45495 11.9648 5.4539 11.969C5.48001 12.463 5.51343 12.9476 5.5573 13.2359C5.65756 13.898 7.00274 15.0479 7.19073 15.2735C7.37872 15.498 7.34112 17.7236 7.2158 18.0484C7.09047 18.3732 6.86384 18.2364 6.54947 18.4359C6.23511 18.6364 6.24764 18.9111 6.27271 18.9738C6.29777 19.0364 6.90143 19.049 7.31606 19.0364C7.73068 19.0239 7.91972 18.7868 7.99491 18.649C8.03773 18.5717 8.10771 18.344 8.16097 18.1602C8.14217 18.1101 8.13591 18.0526 8.1474 17.9889C8.20588 17.6787 8.27586 17.3445 8.40014 17.0437C8.46594 16.8829 8.5474 16.7283 8.64975 16.5884C8.75001 16.4505 8.89727 16.3377 8.93591 16.1643C8.99544 15.9032 8.83983 15.5471 8.78552 15.2944C8.74897 15.1283 8.8367 15.004 8.95576 14.9445C8.94427 14.7763 8.96307 14.6239 8.96307 14.6239C8.96307 14.6239 10.9673 14.9299 11.9417 14.7617C12.5213 14.6615 13.0905 14.5111 13.6545 14.3471C13.7934 14.3064 13.9312 14.2646 14.0702 14.2228C14.2007 14.1831 14.397 14.1612 14.5119 14.0881C14.5673 14.0526 14.5746 14.0547 14.5631 13.9878C14.5537 13.9293 14.4931 13.8583 14.4618 13.8082C14.3918 13.6996 14.3125 13.5972 14.2425 13.4897C13.9887 13.1011 13.8164 12.6458 13.8477 12.1789C13.9177 12.5048 14.042 12.8338 14.2487 13.099C14.4712 13.3842 14.7407 13.6348 14.8743 13.9784C14.8837 14.0045 14.8931 14.0306 14.9025 14.0568C15.0425 14.2865 15.4926 14.9957 16.0075 15.4876C16.6289 16.0808 17.2514 16.4432 17.6973 16.5999C18.1433 16.7565 18.4764 17.6307 18.4263 18.062C18.3762 18.4933 18.0744 18.5059 17.924 18.5675C17.7736 18.6302 17.7234 18.955 17.7297 18.9926C17.736 19.0302 18.5276 19.073 18.9046 19.0364C19.2817 18.9988 19.2629 18.7931 19.2691 18.5811C19.2754 18.368 19.2691 16.7315 19.2629 16.5936C19.2566 16.4557 18.6728 16.1748 18.3584 15.6181C18.0441 15.0615 18.5778 14.156 18.7167 13.3309C18.7532 13.1147 18.7804 12.8515 18.7887 12.5654C18.7804 12.8484 18.8702 13.1711 18.8994 13.4541C18.9882 14.3137 19.2932 15.2651 19.8916 15.8448C20.1537 16.0985 20.7992 16.4484 20.7992 16.4484C20.7992 16.4484 20.5611 15.7382 20.6363 15.8322C20.935 16.2072 20.9005 16.5497 21.3924 16.7868C21.8843 17.0239 22.8399 17.3821 22.865 17.4824C22.7992 17.2129 22.6394 16.6489 22.3981 16.3252L22.395 16.3231Z" fill="currentColor"/>
</svg>
