<svg width="1em" height="1em" viewBox="0 0 20 24" fill="none" xmlns="http://www.w3.org/2000/svg">
<path id="Vector" d="M12.4134 2.47339C15.4616 2.47339 17.5804 5.40034 17.2218 8.29446C16.9238 10.686 14.7999 12.5649 12.3882 12.5649H9.53445V15.3429H12.3882C15.752 15.3429 18.737 13.0624 19.6891 9.85011C19.9846 8.85258 20.0755 7.79446 19.9467 6.76154C19.8609 6.0721 19.6816 5.39529 19.4164 4.75384C18.5426 2.64007 16.7647 0.930368 14.5019 0.299016C12.8125 -0.17071 10.9714 -0.0873716 9.33747 0.551557C8.48388 0.884911 7.68588 1.36726 7.00147 1.97589C6.58225 2.34712 6.25902 2.77897 5.961 3.24617H9.80722C10.5522 2.77392 11.4639 2.47339 12.4134 2.47339Z" fill="currentColor"/>
<path id="Vector_2" d="M6.40297 11.6332V15.8355C7.0318 15.987 7.8172 16.2017 8.67584 16.4971V11.6332C12.0523 11.1256 14.7015 8.39057 15.0778 4.97369C15.1283 4.52669 14.7747 4.13525 14.3252 4.13525H9.13801H5.66303H0.75363C0.301582 4.13525 -0.0494499 4.52669 0.00105828 4.97369C0.377344 8.39057 3.02397 11.1256 6.40297 11.6332Z" fill="currentColor"/>
<path id="Vector_3" d="M9.7744 23.9999C10.0093 23.9999 10.1861 23.7902 10.1482 23.5579C10.0371 22.8963 9.68099 22.3179 9.17591 21.9189C9.09509 21.8558 9.01176 21.7977 8.92337 21.7421C8.84255 21.6916 8.75666 21.6462 8.67083 21.6032V21.0855C7.87027 20.7522 7.06972 20.5703 6.39796 20.3784V21.6032C6.31209 21.6436 6.2262 21.6916 6.14542 21.7421C6.05703 21.7952 5.97366 21.8558 5.89288 21.9189C5.38779 22.3179 5.03169 22.8963 4.92059 23.5579C4.88271 23.7877 5.05949 23.9999 5.29435 23.9999H9.7744Z" fill="currentColor"/>
<path id="Vector_4" d="M5.51406 15.3604V12.5698C3.69322 12.6431 2.61237 14.1482 2.61237 15.9867C2.61237 17.1585 3.24119 18.2823 4.23873 18.896C4.72361 19.1965 5.27162 19.3127 5.81711 19.449C5.81711 19.449 5.81711 19.449 5.81964 19.449C8.28949 20.0678 10.7997 21.1082 12.7468 22.7775C13.0095 23.0023 13.3302 23.1134 13.6509 23.1134C14.0424 23.1134 14.4313 22.9493 14.7066 22.6285C14.7394 22.5906 14.7672 22.5528 14.795 22.5124C14.8404 22.4467 14.8783 22.3785 14.9111 22.3078C14.9212 22.2851 14.9313 22.2598 14.9414 22.2371C14.9641 22.1815 14.9818 22.1234 14.997 22.0679C15.1233 21.5729 14.9692 21.0274 14.5551 20.6713C12.8403 19.2015 10.7947 18.1535 8.67085 17.4085C8.00919 17.1762 7.33741 16.9716 6.6581 16.7999C6.41061 16.7367 6.15807 16.6736 5.90805 16.6206C4.79682 16.3756 4.79682 15.5221 5.51406 15.3604Z" fill="currentColor"/>
</svg>
