<svg width="1em" height="1em" viewBox="0 0 24 25" fill="none" xmlns="http://www.w3.org/2000/svg">
<path d="M16.8484 5.12661C17.7504 5.12661 18.48 4.37637 18.48 3.44901C18.48 2.52741 17.7499 1.77669 16.8484 1.77669C15.9532 1.77669 15.2227 2.52693 15.2227 3.44901C15.2227 4.37637 15.9528 5.12661 16.8484 5.12661ZM18.0609 5.50197H15.6844L11.6342 1.33509C11.3179 0.992846 10.7923 0.976526 10.4592 1.30725C10.1265 1.63269 10.1102 2.17365 10.4275 2.51589L14.6601 6.87573V21.3247C14.6601 21.8488 15.0681 22.2679 15.5721 22.2679C16.0819 22.2679 16.4894 21.8488 16.4894 21.3247V13.4877H17.2296L17.2353 21.3252C17.2353 21.8493 17.6481 22.2684 18.1521 22.2684C18.6576 22.2684 19.0646 21.8493 19.0646 21.3252L19.0593 6.87669L23.2924 2.51685C23.6088 2.17461 23.5924 1.63365 23.2598 1.30821C22.9276 0.977486 22.4016 0.993326 22.0848 1.33605L18.0609 5.50197ZM9.45019 11.8764C9.20347 11.6167 8.86507 11.4626 8.49019 11.4626H5.08267C4.70731 11.4626 4.36939 11.6172 4.12795 11.8764L0.709873 15.3924C0.393553 15.7346 0.404593 16.2751 0.737233 16.601C1.06939 16.9264 1.60123 16.9154 1.91227 16.5732L4.56235 13.8468V17.489H1.59019C1.04347 17.489 0.602353 17.9412 0.602353 18.5047C0.602353 18.797 0.709873 19.0567 0.903313 19.2444L4.25083 22.6879C4.54603 23.1352 5.12539 23.2788 5.58715 23.0023C6.07483 22.7157 6.23659 22.0812 5.95723 21.5848L4.04731 19.625L4.08475 19.6303H9.56779L7.65259 21.5896C7.37899 22.0864 7.53979 22.721 8.02219 23.0076C8.48395 23.284 9.06907 23.141 9.36427 22.6936L12.7118 19.2501C12.9043 19.062 13.0123 18.8023 13.0123 18.5104C13.0123 17.9469 12.5721 17.4952 12.0254 17.4952H9.05803V13.8909L11.6601 16.5784C11.9769 16.9212 12.502 16.9322 12.8347 16.6063C13.1673 16.2808 13.1788 15.7399 12.862 15.3981L9.45019 11.8764ZM6.82171 11.1036C7.71739 11.1036 8.44171 10.3538 8.44171 9.43125C8.44171 8.50389 7.71739 7.75893 6.82171 7.75893C5.92507 7.75893 5.19499 8.50389 5.19499 9.43125C5.19499 10.3538 5.92555 11.1036 6.82171 11.1036Z" fill="currentColor"/>
</svg>
