<svg width="1em" height="1em" viewBox="0 0 24 24" fill="none" xmlns="http://www.w3.org/2000/svg">
<path d="M21 10H17.6931L13.4461 1.563C13.1879 1.0899 12.8071 0.695072 12.3436 0.420035C11.8801 0.144997 11.351 -9.79883e-05 10.8121 2.51169e-06H10.6301C10.2219 -0.000561488 9.81929 0.0938665 9.45396 0.275812C9.08864 0.457759 8.77066 0.722231 8.52522 1.0483C8.27977 1.37437 8.11358 1.75309 8.03979 2.15449C7.96599 2.55589 7.98663 2.96896 8.10008 3.361L10.0281 10H7.64407C7.24983 10.001 6.85928 9.92388 6.49505 9.77301C6.13082 9.62212 5.80011 9.40051 5.52207 9.121L4.10507 7.70001C3.74289 7.33819 3.27486 7.10116 2.76888 7.02331C2.2629 6.94545 1.74527 7.03081 1.29107 7.267C1.01003 7.41199 0.76161 7.61295 0.561095 7.85749C0.360576 8.10202 0.212195 8.385 0.12507 8.689C0.0287116 9.01516 -0.000761908 9.35743 0.0384166 9.69528C0.0775966 10.0331 0.184622 10.3596 0.35307 10.655L1.96707 13.48C2.40524 14.2446 3.03724 14.8802 3.79938 15.3226C4.56151 15.765 5.42682 15.9987 6.30807 16.0001H10.0191L8.35107 20.4469C8.20175 20.8447 8.15105 21.2727 8.20331 21.6943C8.25557 22.116 8.40924 22.5187 8.65114 22.8679C8.89306 23.2171 9.21602 23.5026 9.59237 23.6998C9.9687 23.8969 10.3872 24 10.8121 24C11.3417 24.0028 11.8625 23.8641 12.3205 23.598C12.7785 23.3321 13.1571 22.9485 13.4171 22.4869L17.4641 16.0001H21C21.7958 16.0001 22.5588 15.684 23.1215 15.1213C23.684 14.5587 24 13.7956 24 13C24 12.2044 23.684 11.4413 23.1215 10.8787C22.5588 10.3161 21.7958 10 21 10ZM10.0251 2.805C9.99794 2.71119 9.993 2.61234 10.0106 2.51628C10.0282 2.42022 10.068 2.32957 10.1266 2.2515C10.1853 2.17342 10.2614 2.11006 10.3487 2.06641C10.4361 2.02278 10.5324 2.00004 10.6301 2.00001H10.8121C10.9864 1.99849 11.1581 2.04313 11.3097 2.12935C11.4612 2.21559 11.5873 2.34034 11.6751 2.491L15.4551 10H12.1101L10.0251 2.805ZM21 14H16.909C16.7394 14.0001 16.5725 14.0434 16.4241 14.1258C16.2758 14.2082 16.1508 14.3269 16.0611 14.4709L11.6901 21.4789C11.604 21.6367 11.4771 21.7683 11.3226 21.8599C11.1681 21.9516 10.9917 22.0001 10.8121 22.0001C10.7104 22.0001 10.6103 21.9754 10.5202 21.9283C10.4301 21.8812 10.3529 21.8129 10.2951 21.7293C10.2372 21.6458 10.2006 21.5493 10.1882 21.4483C10.1758 21.3475 10.1881 21.2451 10.2241 21.15L12.3981 15.3499C12.4546 15.1987 12.4736 15.036 12.4536 14.8758C12.4335 14.7154 12.3749 14.5624 12.2828 14.4298C12.1907 14.2971 12.0679 14.1887 11.9248 14.1139C11.7817 14.039 11.6226 14 11.4611 14H6.30807C5.77995 13.9991 5.26143 13.8589 4.8049 13.5934C4.34836 13.3279 3.97002 12.9466 3.70808 12.488L2.08907 9.66201C2.0552 9.60174 2.0336 9.53536 2.02553 9.46671C2.01746 9.39805 2.02308 9.32847 2.04207 9.262C2.05209 9.21769 2.07134 9.17601 2.09856 9.13965C2.12579 9.10329 2.16038 9.07309 2.20007 9.051C2.26172 9.01828 2.3303 9.00079 2.40008 9C2.5074 9.00075 2.61026 9.04303 2.68707 9.118L4.10407 10.535C4.56792 11.0012 5.11965 11.3707 5.7273 11.6222C6.33495 11.8736 6.98644 12.0021 7.64407 12H21C21.2653 12 21.5196 12.1054 21.7073 12.2929C21.8948 12.4804 22.0001 12.7348 22.0001 13C22.0001 13.2652 21.8948 13.5196 21.7073 13.7071C21.5196 13.8946 21.2653 14 21 14Z" fill="currentColor"/>
</svg>
