<svg width="1em" height="1em" viewBox="0 0 24 24" fill="none" xmlns="http://www.w3.org/2000/svg">
<path d="M11.8914 21.5937H4.63047C4.30952 21.5937 4.00171 21.4673 3.77476 21.2424C3.54781 21.0174 3.42031 20.7123 3.42031 20.3941V3.59896C3.42031 3.28079 3.54781 2.97565 3.77476 2.75067C4.00171 2.5257 4.30952 2.3993 4.63047 2.3993H10.6813V5.99826C10.6813 6.95276 11.0638 7.86817 11.7446 8.54311C12.4254 9.21804 13.3489 9.59722 14.3117 9.59722H17.9422V15.5955C17.9422 15.9136 18.0697 16.2188 18.2966 16.4438C18.5236 16.6687 18.8314 16.7951 19.1524 16.7951C19.4733 16.7951 19.7811 16.6687 20.0081 16.4438C20.235 16.2188 20.3625 15.9136 20.3625 15.5955V8.39757C20.3625 8.39757 20.3625 8.39756 20.3625 8.32559C20.3499 8.21538 20.3256 8.10681 20.2899 8.00168V7.89371C20.2317 7.77036 20.1541 7.65698 20.06 7.55781L12.799 0.359896C12.699 0.266582 12.5846 0.189642 12.4602 0.131962C12.4202 0.125015 12.3792 0.125015 12.3392 0.131962C12.2215 0.0695835 12.095 0.0250991 11.964 0H4.63047C3.66761 0 2.74419 0.379175 2.06334 1.05411C1.3825 1.72905 1 2.64445 1 3.59896V20.3941C1 21.3486 1.3825 22.264 2.06334 22.9389C2.74419 23.6139 3.66761 23.993 4.63047 23.993H11.8914C12.2124 23.993 12.5202 23.8667 12.7471 23.6417C12.9741 23.4167 13.1016 23.1116 13.1016 22.7934C13.1016 22.4752 12.9741 22.1701 12.7471 21.9451C12.5202 21.7201 12.2124 21.5937 11.8914 21.5937ZM13.1016 4.09081L16.2359 7.19791H14.3117C13.9908 7.19791 13.683 7.07152 13.456 6.84654C13.2291 6.62156 13.1016 6.31643 13.1016 5.99826V4.09081ZM7.05079 14.3958H14.3117C14.6327 14.3958 14.9405 14.2694 15.1674 14.0445C15.3944 13.8195 15.5219 13.5143 15.5219 13.1962C15.5219 12.878 15.3944 12.5729 15.1674 12.3479C14.9405 12.1229 14.6327 11.9965 14.3117 11.9965H7.05079C6.72983 11.9965 6.42202 12.1229 6.19508 12.3479C5.96813 12.5729 5.84063 12.878 5.84063 13.1962C5.84063 13.5143 5.96813 13.8195 6.19508 14.0445C6.42202 14.2694 6.72983 14.3958 7.05079 14.3958ZM11.8914 16.7951H7.05079C6.72983 16.7951 6.42202 16.9215 6.19508 17.1465C5.96813 17.3715 5.84063 17.6766 5.84063 17.9948C5.84063 18.313 5.96813 18.6181 6.19508 18.8431C6.42202 19.068 6.72983 19.1944 7.05079 19.1944H11.8914C12.2124 19.1944 12.5202 19.068 12.7471 18.8431C12.9741 18.6181 13.1016 18.313 13.1016 17.9948C13.1016 17.6766 12.9741 17.3715 12.7471 17.1465C12.5202 16.9215 12.2124 16.7951 11.8914 16.7951ZM7.05079 9.59722H8.26094C8.5819 9.59722 8.8897 9.47083 9.11665 9.24585C9.3436 9.02087 9.4711 8.71573 9.4711 8.39757C9.4711 8.0794 9.3436 7.77426 9.11665 7.54928C8.8897 7.32431 8.5819 7.19791 8.26094 7.19791H7.05079C6.72983 7.19791 6.42202 7.32431 6.19508 7.54928C5.96813 7.77426 5.84063 8.0794 5.84063 8.39757C5.84063 8.71573 5.96813 9.02087 6.19508 9.24585C6.42202 9.47083 6.72983 9.59722 7.05079 9.59722ZM23.642 17.143C23.5295 17.0306 23.3957 16.9413 23.2482 16.8804C23.1008 16.8195 22.9426 16.7882 22.7828 16.7882C22.6231 16.7882 22.4649 16.8195 22.3174 16.8804C22.17 16.9413 22.0361 17.0306 21.9236 17.143L17.9422 21.1019L16.3811 19.5423C16.2683 19.4305 16.1343 19.3418 15.9869 19.2812C15.8395 19.2207 15.6815 19.1895 15.5219 19.1895C15.3623 19.1895 15.2043 19.2207 15.0569 19.2812C14.9095 19.3418 14.7755 19.4305 14.6627 19.5423C14.5498 19.6542 14.4603 19.787 14.3993 19.9331C14.3382 20.0793 14.3068 20.2359 14.3068 20.3941C14.3068 20.5523 14.3382 20.7089 14.3993 20.8551C14.4603 21.0012 14.5498 21.134 14.6627 21.2458L17.083 23.6451C17.1955 23.7576 17.3293 23.8468 17.4768 23.9077C17.6243 23.9686 17.7824 24 17.9422 24C18.102 24 18.2601 23.9686 18.4076 23.9077C18.5551 23.8468 18.6889 23.7576 18.8014 23.6451L23.642 18.8465C23.7555 18.735 23.8455 18.6023 23.9069 18.4561C23.9684 18.31 24 18.1532 24 17.9948C24 17.8364 23.9684 17.6796 23.9069 17.5334C23.8455 17.3872 23.7555 17.2546 23.642 17.143Z" fill="currentColor"/>
</svg>
