<svg width="1em" height="1em" viewBox="0 0 25 24" fill="none" xmlns="http://www.w3.org/2000/svg">
<path fill-rule="evenodd" clip-rule="evenodd" d="M21.6175 17.6341C21.4646 17.5194 20.4576 16.5506 20.1906 16.1769C19.9237 15.8032 19.7939 13.4603 19.8321 13.1551C19.8703 12.85 19.9086 11.5912 19.9086 11.5912C19.9086 11.5912 20.1682 11.866 20.3508 12.6061C20.534 13.3462 20.5083 15.2015 20.7021 15.7953C21.0151 16.7568 22.846 17.7487 22.846 17.7487C22.846 17.7487 21.3275 16.3449 21.083 15.6121C20.8853 15.0196 20.8695 12.9646 20.77 12.3155C20.6711 11.667 20.1669 10.8735 19.7398 10.5604C19.3128 10.2474 19.2212 10.3238 18.9312 10.1637C18.6412 10.0035 17.4661 9.35499 16.5276 9.39322C15.589 9.43144 13.3304 9.20275 12.5593 9.17969C11.7889 9.15662 9.59087 8.25635 9.28572 8.01975C8.98057 7.78315 8.39268 6.65418 7.99592 6.05115C7.59916 5.44811 7.21756 5.2728 7.21756 5.2728C7.21756 5.2728 7.14902 4.40285 6.85903 3.87626C6.56904 3.34968 6.29421 2.75455 6.18019 2.92986C6.06551 3.10517 6.07342 3.64691 6.05826 3.94481C6.04311 4.2427 5.92118 4.44107 5.92118 4.44107C5.92118 4.44107 5.28782 4.48655 4.92137 4.79235C4.67884 4.99468 4.63929 5.38748 4.3493 5.62408C4.05931 5.86068 3.83061 5.86068 3.56303 5.97536C3.29611 6.09003 3.05951 6.25018 3.07467 6.40242C3.08982 6.55533 3.18934 6.71548 3.18934 6.71548C3.18934 6.71548 3.40288 7.44769 3.50965 7.60059C3.61642 7.75349 4.15092 7.88266 4.44091 7.81412C4.7309 7.74558 4.9596 7.67704 5.15798 7.52414C5.35636 7.37124 5.55474 7.37914 5.76102 7.34092C5.96731 7.30269 6.1881 7.11948 6.1881 7.11948C6.1881 7.11948 6.52357 8.03491 6.53148 8.31764C6.53938 8.59972 6.54663 9.7445 6.47018 10.1412C6.39373 10.538 6.37857 12.0413 6.62309 12.5903C6.8676 13.14 7.57675 14.1621 7.65321 14.5207C7.72966 14.8792 7.9511 16.5427 7.95835 16.8709C7.96626 17.1991 8.03481 18.191 8.08819 18.4045C8.14158 18.618 8.10335 19.6027 7.96626 19.8847C7.82918 20.1668 7.5616 20.1516 7.32499 20.4265C7.08839 20.7013 6.96646 21.0216 7.14177 21.0519C7.31708 21.0822 8.21737 21.0974 8.37818 20.9682C8.53833 20.8384 8.74462 20.4265 8.81317 20.0376C8.88171 19.6488 8.80526 19.2672 8.92784 19.1374C9.04977 19.0075 9.16445 18.9772 9.16445 18.9772C9.16445 18.9772 9.01945 17.8786 9.08075 16.8636C9.14204 15.8487 9.46959 14.6736 9.46959 14.6736L9.38656 14.377C9.35624 14.2893 9.32987 14.2004 9.30944 14.1088C9.24419 13.8122 9.11766 13.54 9.00759 13.2592C9.14929 13.3996 9.27517 13.5545 9.38062 13.7272C9.46235 13.8616 9.51705 14.0488 9.62645 14.1641C9.63832 14.2043 9.65084 14.2445 9.66468 14.2841C10.3092 14.263 11.8258 14.1951 12.6061 14.0178C13.3838 13.8412 14.7652 13.542 15.5693 13.5163C15.3893 13.4201 15.2015 13.337 15.0255 13.2329C14.8245 13.1142 14.5418 12.9383 14.4759 12.701C14.7092 12.8987 14.9478 13.0114 15.2483 13.0965C15.6372 13.2065 16.0379 13.3897 16.2909 13.7173C16.7345 14.1496 17.2835 15.2819 17.642 15.7261C18.0539 16.2375 19.3437 17.0159 20.0536 17.7098C20.7634 18.4045 21.0072 19.343 20.9769 19.747C20.9466 20.1516 20.6639 20.3573 20.4121 20.5174C20.1603 20.6776 20.0766 21.0137 20.1221 21.0671C20.1676 21.1205 21.2517 21.1125 21.4119 21.0368C21.5721 20.9603 21.5872 19.6784 21.694 19.5031C21.8007 19.3278 21.6103 18.8012 21.7019 18.4882C21.7935 18.1751 21.7704 17.7481 21.6182 17.6334L21.6175 17.6341Z" fill="currentColor"/>
</svg>
