<svg width="1em" height="1em" viewBox="0 0 25 24" fill="none" xmlns="http://www.w3.org/2000/svg">
<path d="M4.60132 22C4.3361 22 4.08175 21.8946 3.89421 21.7071C3.70668 21.5196 3.60132 21.2652 3.60132 21V2.99999C3.60132 2.73478 3.70668 2.48042 3.89421 2.29289C4.08175 2.10535 4.3361 1.99999 4.60132 1.99999H19.6013V11.5C20.3439 11.8125 21.022 12.2601 21.6013 12.82V-7.62939e-06H4.60132C3.80567 -7.62939e-06 3.04261 0.316063 2.48 0.878672C1.91739 1.44128 1.60132 2.20434 1.60132 2.99999V21C1.60132 21.7956 1.91739 22.5587 2.48 23.1213C3.04261 23.6839 3.80567 24 4.60132 24H17.1013C16.2268 23.9999 15.3613 23.8226 14.5571 23.4789C13.7529 23.1352 13.0267 22.6321 12.4223 22H4.60132ZM22.1443 23.957L19.4873 21.3C18.7745 21.755 17.947 21.9977 17.1013 22C16.2113 22 15.3413 21.7361 14.6013 21.2416C13.8612 20.7471 13.2845 20.0443 12.9439 19.2221C12.6033 18.3998 12.5142 17.495 12.6878 16.6221C12.8614 15.7492 13.29 14.9473 13.9193 14.318C14.5487 13.6887 15.3505 13.2601 16.2234 13.0865C17.0963 12.9128 18.0011 13.0019 18.8234 13.3425C19.6457 13.6831 20.3485 14.2599 20.8429 14.9999C21.3374 15.7399 21.6013 16.61 21.6013 17.5C21.5991 18.3456 21.3563 19.1732 20.9013 19.886L23.5583 22.543L22.1443 23.957ZM17.1013 20C17.5958 20 18.0791 19.8534 18.4902 19.5787C18.9014 19.304 19.2218 18.9135 19.411 18.4567C19.6002 17.9999 19.6497 17.4972 19.5533 17.0123C19.4568 16.5273 19.2187 16.0819 18.8691 15.7322C18.5195 15.3826 18.074 15.1445 17.589 15.048C17.1041 14.9516 16.6014 15.0011 16.1446 15.1903C15.6878 15.3795 15.2973 15.6999 15.0226 16.1111C14.7479 16.5222 14.6013 17.0055 14.6013 17.5C14.6013 18.163 14.8647 18.7989 15.3336 19.2678C15.8024 19.7366 16.4383 20 17.1013 20Z" fill="currentColor"/>
<path d="M5.37061 4.44037V6.44037H17.8475V4.44037H5.37061Z" fill="currentColor"/>
<path d="M5.37061 7.37966V9.37966H17.8475V7.37966H5.37061Z" fill="currentColor"/>
<path d="M5.37061 10.3187V12.3187H14.3085V10.3187H5.37061Z" fill="currentColor"/>
</svg>
