<svg width="1em" height="1em" viewBox="0 0 24 24" fill="none" xmlns="http://www.w3.org/2000/svg">
<path d="M6 7.2C5.68174 7.2 5.37652 7.32643 5.15147 7.55147C4.92643 7.77652 4.8 8.08174 4.8 8.4C4.8 8.71826 4.92643 9.02348 5.15147 9.24853C5.37652 9.47357 5.68174 9.6 6 9.6H7.2C7.51826 9.6 7.82348 9.47357 8.04853 9.24853C8.27357 9.02348 8.4 8.71826 8.4 8.4C8.4 8.08174 8.27357 7.77652 8.04853 7.55147C7.82348 7.32643 7.51826 7.2 7.2 7.2H6ZM12 21.6H3.6C3.28174 21.6 2.97652 21.4736 2.75147 21.2485C2.52643 21.0235 2.4 20.7183 2.4 20.4V3.6C2.4 3.28174 2.52643 2.97652 2.75147 2.75147C2.97652 2.52643 3.28174 2.4 3.6 2.4H9.6V6C9.6 6.95478 9.97928 7.87045 10.6544 8.54559C11.3295 9.22072 12.2452 9.6 13.2 9.6H16.8V10.8C16.8 11.1183 16.9264 11.4235 17.1515 11.6485C17.3765 11.8736 17.6817 12 18 12C18.3183 12 18.6235 11.8736 18.8485 11.6485C19.0736 11.4235 19.2 11.1183 19.2 10.8V8.4C19.2 8.4 19.2 8.4 19.2 8.328C19.1875 8.21776 19.1634 8.10916 19.128 8.004V7.896C19.0703 7.77262 18.9933 7.6592 18.9 7.56L11.7 0.36C11.6008 0.266659 11.4874 0.189697 11.364 0.132C11.3282 0.126912 11.2918 0.126912 11.256 0.132L10.872 0H3.6C2.64522 0 1.72955 0.379285 1.05442 1.05442C0.379285 1.72955 0 2.64522 0 3.6V20.4C0 21.3548 0.379285 22.2705 1.05442 22.9456C1.72955 23.6207 2.64522 24 3.6 24H12C12.3183 24 12.6235 23.8736 12.8485 23.6485C13.0736 23.4235 13.2 23.1183 13.2 22.8C13.2 22.4817 13.0736 22.1765 12.8485 21.9515C12.6235 21.7264 12.3183 21.6 12 21.6ZM12 4.092L15.108 7.2H13.2C12.8817 7.2 12.5765 7.07357 12.3515 6.84853C12.1264 6.62348 12 6.31826 12 6V4.092ZM22.596 15.804C21.6809 14.931 20.4647 14.444 19.2 14.444C17.9353 14.444 16.7191 14.931 15.804 15.804C15.1332 16.4755 14.6766 17.3308 14.4918 18.2618C14.3071 19.1927 14.4024 20.1576 14.7659 21.0343C15.1293 21.9111 15.7446 22.6605 16.5338 23.1876C17.3231 23.7148 18.2509 23.9962 19.2 23.9962C20.1491 23.9962 21.0769 23.7148 21.8662 23.1876C22.6554 22.6605 23.2707 21.9111 23.6341 21.0343C23.9976 20.1576 24.0929 19.1927 23.9082 18.2618C23.7234 17.3308 23.2668 16.4755 22.596 15.804ZM16.8 19.2C16.8 18.5635 17.0529 17.953 17.5029 17.5029C17.953 17.0529 18.5635 16.8 19.2 16.8C19.4067 16.8027 19.6122 16.8309 19.812 16.884L16.884 19.812C16.8309 19.6122 16.8027 19.4067 16.8 19.2ZM20.892 20.892C20.5945 21.1818 20.2269 21.3894 19.8252 21.4945C19.4235 21.5997 19.0013 21.5988 18.6 21.492L21.516 18.588C21.5691 18.7878 21.5973 18.9933 21.6 19.2C21.5973 19.8355 21.3427 20.444 20.892 20.892ZM10.8 19.2C11.1183 19.2 11.4235 19.0736 11.6485 18.8485C11.8736 18.6235 12 18.3183 12 18C12 17.6817 11.8736 17.3765 11.6485 17.1515C11.4235 16.9264 11.1183 16.8 10.8 16.8H6C5.68174 16.8 5.37652 16.9264 5.15147 17.1515C4.92643 17.3765 4.8 17.6817 4.8 18C4.8 18.3183 4.92643 18.6235 5.15147 18.8485C5.37652 19.0736 5.68174 19.2 6 19.2H10.8ZM13.2 12H6C5.68174 12 5.37652 12.1264 5.15147 12.3515C4.92643 12.5765 4.8 12.8817 4.8 13.2C4.8 13.5183 4.92643 13.8235 5.15147 14.0485C5.37652 14.2736 5.68174 14.4 6 14.4H13.2C13.5183 14.4 13.8235 14.2736 14.0485 14.0485C14.2736 13.8235 14.4 13.5183 14.4 13.2C14.4 12.8817 14.2736 12.5765 14.0485 12.3515C13.8235 12.1264 13.5183 12 13.2 12Z" fill="currentColor"/>
</svg>
