<svg width="1em" height="1em" viewBox="0 0 24 24" fill="none" xmlns="http://www.w3.org/2000/svg">
<path d="M12.344 12.7459C12.9269 12.2297 13.3944 11.5912 13.7149 10.8738C14.0353 10.1565 14.2011 9.37697 14.2011 8.58824C14.2011 7.10614 13.6256 5.68475 12.6013 4.63676C11.577 3.58876 10.1877 3 8.73914 3C7.29054 3 5.90127 3.58876 4.87695 4.63676C3.85263 5.68475 3.27718 7.10614 3.27718 8.58824C3.27717 9.37697 3.443 10.1565 3.76343 10.8738C4.08385 11.5912 4.55137 12.2297 5.13424 12.7459C3.60505 13.4543 2.30764 14.5984 1.39715 16.0413C0.486656 17.4842 0.00160784 19.1649 0 20.8824C0 21.1788 0.115091 21.4631 0.319954 21.6726C0.524818 21.8822 0.802672 22 1.09239 22C1.38211 22 1.65997 21.8822 1.86483 21.6726C2.06969 21.4631 2.18478 21.1788 2.18478 20.8824C2.18478 19.1038 2.87533 17.3982 4.10451 16.1406C5.33369 14.883 7.00082 14.1765 8.73914 14.1765C10.4775 14.1765 12.1446 14.883 13.3738 16.1406C14.6029 17.3982 15.2935 19.1038 15.2935 20.8824C15.2935 21.1788 15.4086 21.4631 15.6134 21.6726C15.8183 21.8822 16.0962 22 16.3859 22C16.6756 22 16.9535 21.8822 17.1583 21.6726C17.3632 21.4631 17.4783 21.1788 17.4783 20.8824C17.4767 19.1649 16.9916 17.4842 16.0811 16.0413C15.1706 14.5984 13.8732 13.4543 12.344 12.7459ZM8.73914 11.9412C8.09097 11.9412 7.45737 11.7445 6.91844 11.3761C6.37951 11.0077 5.95946 10.484 5.71142 9.87135C5.46338 9.25868 5.39848 8.58452 5.52493 7.93411C5.65138 7.2837 5.9635 6.68627 6.42183 6.21735C6.88015 5.74843 7.46408 5.42909 8.09979 5.29972C8.7355 5.17035 9.39443 5.23675 9.99326 5.49052C10.5921 5.7443 11.1039 6.17405 11.464 6.72544C11.8241 7.27683 12.0163 7.92509 12.0163 8.58824C12.0163 9.47749 11.671 10.3303 11.0565 10.9591C10.4419 11.5879 9.6083 11.9412 8.73914 11.9412ZM19.379 12.2988C20.0781 11.4934 20.5348 10.4984 20.6941 9.43356C20.8533 8.36876 20.7084 7.27955 20.2767 6.29706C19.8451 5.31456 19.145 4.48065 18.2609 3.89571C17.3768 3.31076 16.3463 2.99971 15.2935 3C15.0038 3 14.7259 3.11775 14.5211 3.32735C14.3162 3.53695 14.2011 3.82123 14.2011 4.11765C14.2011 4.41407 14.3162 4.69834 14.5211 4.90794C14.7259 5.11754 15.0038 5.23529 15.2935 5.23529C16.1627 5.23529 16.9962 5.58855 17.6108 6.21735C18.2254 6.84615 18.5707 7.69898 18.5707 8.58824C18.5691 9.17527 18.417 9.7516 18.1294 10.2596C17.8419 10.7676 17.429 11.1894 16.9321 11.4829C16.7701 11.5785 16.6349 11.715 16.5392 11.8794C16.4436 12.0438 16.3908 12.2305 16.3859 12.4218C16.3813 12.6115 16.424 12.7993 16.5101 12.9675C16.5961 13.1356 16.7225 13.2786 16.8775 13.3829L17.3035 13.6735L17.4455 13.7518C18.7623 14.3907 19.8731 15.4014 20.6473 16.6647C21.4214 17.928 21.8266 19.3913 21.8151 20.8824C21.8151 21.1788 21.9302 21.4631 22.135 21.6726C22.3399 21.8822 22.6177 22 22.9075 22C23.1972 22 23.475 21.8822 23.6799 21.6726C23.8848 21.4631 23.9999 21.1788 23.9999 20.8824C24.0088 19.1672 23.5889 17.4783 22.7802 15.976C21.9714 14.4736 20.8006 13.2078 19.379 12.2988Z" fill="currentColor"/>
</svg>
