<svg width="1em" height="1em" viewBox="0 0 24 25" fill="none" xmlns="http://www.w3.org/2000/svg">
<path fill-rule="evenodd" clip-rule="evenodd" d="M12.0054 2.68016C15.667 2.68016 18.7929 4.98105 20.0196 8.21677C22.3098 8.82213 24 10.9114 24 13.3944C24 16.3543 21.6027 18.7516 18.6455 18.7516H17.5714C17.4536 18.7516 17.3571 18.6552 17.3571 18.5373V16.9302C17.3571 16.8123 17.4536 16.7159 17.5714 16.7159H18.6455C19.0815 16.717 19.5134 16.6317 19.9162 16.4648C20.3189 16.2979 20.6846 16.0527 20.992 15.7436C21.6187 15.1168 21.9643 14.2811 21.9643 13.3944C21.9643 11.8891 20.9491 10.5686 19.4973 10.1775L18.4848 9.90962L18.1152 8.93195C17.8848 8.32391 17.5634 7.7507 17.1589 7.23373C16.7598 6.72213 16.2884 6.27213 15.7554 5.89713C14.6545 5.12302 13.358 4.7132 12.0054 4.7132C10.6527 4.7132 9.35625 5.12302 8.25536 5.89713C7.72407 6.27092 7.25108 6.72134 6.85179 7.23373C6.44732 7.7507 6.12589 8.32123 5.89554 8.93195L5.52321 9.9123L4.50804 10.1775C3.81161 10.3623 3.18482 10.7775 2.7375 11.348C2.30089 11.9078 2.05982 12.5721 2.03571 13.2793C2.00625 14.1846 2.34107 15.0578 2.97054 15.7061C3.60268 16.3569 4.45179 16.7159 5.35446 16.7159H6.42857C6.54643 16.7159 6.64286 16.8123 6.64286 16.9302V18.5373C6.64286 18.6552 6.54643 18.7516 6.42857 18.7516H5.35446C2.39732 18.7516 0 16.3543 0 13.3944C0 10.9087 1.69554 8.81677 3.99107 8.21409C5.21786 4.97837 8.34375 2.68016 12.0054 2.68016ZM12.0942 10.6284C12.1234 10.6427 12.149 10.6634 12.1691 10.689L15.1691 14.4872C15.2789 14.6265 15.1798 14.8328 15.0003 14.8328H13.0155V21.3229C13.0155 21.4408 12.9191 21.5372 12.8012 21.5372H11.1941C11.0762 21.5372 10.9798 21.4408 10.9798 21.3229V14.8301H9.00034C8.96023 14.8302 8.9209 14.819 8.88685 14.7978C8.85281 14.7765 8.82542 14.7462 8.80781 14.7101C8.79021 14.6741 8.78311 14.6338 8.78731 14.5939C8.79152 14.554 8.80686 14.5161 8.83159 14.4846L11.8316 10.689C11.8516 10.6634 11.8772 10.6427 11.9065 10.6284C11.9357 10.6142 11.9678 10.6068 12.0003 10.6068C12.0329 10.6068 12.065 10.6142 12.0942 10.6284Z" fill="currentColor"/>
</svg>
