<svg width="1em" height="1em" viewBox="0 0 24 24" fill="none" xmlns="http://www.w3.org/2000/svg">
<path d="M13.2183 21.6H4.66549C4.34144 21.6 4.03066 21.4736 3.80152 21.2485C3.57239 21.0235 3.44366 20.7183 3.44366 20.4V3.6C3.44366 3.28174 3.57239 2.97652 3.80152 2.75147C4.03066 2.52643 4.34144 2.4 4.66549 2.4H10.7746V6C10.7746 6.95478 11.1608 7.87045 11.8482 8.54559C12.5356 9.22072 13.468 9.6 14.4401 9.6H18.1056V12C18.1056 12.3183 18.2343 12.6235 18.4635 12.8485C18.6926 13.0736 19.0034 13.2 19.3274 13.2C19.6515 13.2 19.9623 13.0736 20.1914 12.8485C20.4205 12.6235 20.5493 12.3183 20.5493 12V8.4C20.5493 8.4 20.5493 8.4 20.5493 8.328C20.5365 8.21776 20.512 8.10916 20.4759 8.004V7.896C20.4172 7.77262 20.3388 7.6592 20.2438 7.56L12.9128 0.36C12.8118 0.266659 12.6963 0.189697 12.5707 0.132C12.5342 0.126912 12.4972 0.126912 12.4608 0.132C12.3366 0.0620895 12.1996 0.017213 12.0575 0H4.66549C3.69334 0 2.76101 0.379285 2.0736 1.05442C1.38618 1.72955 1 2.64522 1 3.6V20.4C1 21.3548 1.38618 22.2705 2.0736 22.9456C2.76101 23.6207 3.69334 24 4.66549 24H13.2183C13.5423 24 13.8531 23.8736 14.0822 23.6485C14.3114 23.4235 14.4401 23.1183 14.4401 22.8C14.4401 22.4817 14.3114 22.1765 14.0822 21.9515C13.8531 21.7264 13.5423 21.6 13.2183 21.6ZM13.2183 4.092L16.3828 7.2H14.4401C14.1161 7.2 13.8053 7.07357 13.5762 6.84853C13.347 6.62348 13.2183 6.31826 13.2183 6V4.092ZM7.10914 7.2C6.78509 7.2 6.47432 7.32643 6.24518 7.55147C6.01604 7.77652 5.88731 8.08174 5.88731 8.4C5.88731 8.71826 6.01604 9.02348 6.24518 9.24853C6.47432 9.47357 6.78509 9.6 7.10914 9.6H8.33097C8.65502 9.6 8.9658 9.47357 9.19493 9.24853C9.42407 9.02348 9.5528 8.71826 9.5528 8.4C9.5528 8.08174 9.42407 7.77652 9.19493 7.55147C8.9658 7.32643 8.65502 7.2 8.33097 7.2H7.10914ZM14.4401 12H7.10914C6.78509 12 6.47432 12.1264 6.24518 12.3515C6.01604 12.5765 5.88731 12.8817 5.88731 13.2C5.88731 13.5183 6.01604 13.8235 6.24518 14.0485C6.47432 14.2736 6.78509 14.4 7.10914 14.4H14.4401C14.7642 14.4 15.0749 14.2736 15.3041 14.0485C15.5332 13.8235 15.6619 13.5183 15.6619 13.2C15.6619 12.8817 15.5332 12.5765 15.3041 12.3515C15.0749 12.1264 14.7642 12 14.4401 12ZM22.6386 18.348L20.1949 15.948C20.0787 15.8388 19.9417 15.7531 19.7917 15.696C19.4943 15.576 19.1606 15.576 18.8631 15.696C18.7132 15.7531 18.5761 15.8388 18.4599 15.948L16.0163 18.348C15.7862 18.574 15.6569 18.8804 15.6569 19.2C15.6569 19.5196 15.7862 19.826 16.0163 20.052C16.2463 20.278 16.5584 20.4049 16.8838 20.4049C17.2091 20.4049 17.5212 20.278 17.7513 20.052L18.1056 19.692V22.8C18.1056 23.1183 18.2343 23.4235 18.4635 23.6485C18.6926 23.8736 19.0034 24 19.3274 24C19.6515 24 19.9623 23.8736 20.1914 23.6485C20.4205 23.4235 20.5493 23.1183 20.5493 22.8V19.692L20.9036 20.052C21.0172 20.1645 21.1523 20.2537 21.3012 20.3147C21.4501 20.3756 21.6098 20.407 21.7711 20.407C21.9324 20.407 22.0921 20.3756 22.241 20.3147C22.3899 20.2537 22.525 20.1645 22.6386 20.052C22.7531 19.9404 22.844 19.8077 22.906 19.6615C22.9681 19.5153 23 19.3584 23 19.2C23 19.0416 22.9681 18.8847 22.906 18.7385C22.844 18.5923 22.7531 18.4596 22.6386 18.348ZM11.9965 19.2C12.3205 19.2 12.6313 19.0736 12.8604 18.8485C13.0896 18.6235 13.2183 18.3183 13.2183 18C13.2183 17.6817 13.0896 17.3765 12.8604 17.1515C12.6313 16.9264 12.3205 16.8 11.9965 16.8H7.10914C6.78509 16.8 6.47432 16.9264 6.24518 17.1515C6.01604 17.3765 5.88731 17.6817 5.88731 18C5.88731 18.3183 6.01604 18.6235 6.24518 18.8485C6.47432 19.0736 6.78509 19.2 7.10914 19.2H11.9965Z" fill="currentColor"/>
</svg>
