<svg width="1em" height="1em" viewBox="0 0 24 24" fill="none" xmlns="http://www.w3.org/2000/svg">
<path d="M7.49018 14.2394L8.61972 13.1601L2.27527 6.78408C1.57338 6.08219 1.58328 5.38801 2.26458 4.69681L3.74902 3.20246C4.42398 2.51939 5.13796 2.52751 5.83808 3.2195L12.6201 9.99515L13.7179 8.88861L7.0443 2.17261C5.57768 0.71412 4.00763 0.706986 2.58243 2.13218L1.18617 3.53201C-0.239023 4.95721 -0.233673 6.52191 1.2266 7.98218L7.49018 14.2394ZM7.07622 9.90339C7.25337 10.0806 7.53754 10.077 7.70478 9.90518C7.8756 9.73792 7.88373 9.46188 7.70657 9.28473L4.09006 5.66465C3.93273 5.51366 3.644 5.50098 3.46684 5.66288C3.29602 5.84637 3.28612 6.13411 3.46328 6.30492L7.07622 9.90339ZM8.32703 8.6607C8.49606 8.83786 8.79826 8.81804 8.95559 8.66249C9.13454 8.47087 9.13632 8.19304 8.96729 8.02222L5.349 4.41384C5.17541 4.24025 4.8966 4.24838 4.73569 4.41206C4.55496 4.58565 4.56309 4.86704 4.73034 5.03608L8.32703 8.6607ZM20.9879 23.8082L22.872 21.924C23.114 21.674 23.0878 21.3069 22.8666 20.9659L20.7796 17.8443C20.5555 17.5121 20.2099 17.2799 19.8265 17.2232L18.9562 17.0863L14.4057 12.5376L13.3308 13.7404L18.2816 18.6714L19.3913 18.8579L21.2178 21.2925L20.3447 22.1656L17.9218 20.3355L17.7254 19.2276L12.817 14.313L11.7359 15.5058L16.1403 19.9022L16.2772 20.7707C16.3321 21.156 16.576 21.5034 16.8964 21.7158L20.0316 23.8305C20.3808 24.0583 20.7361 24.0619 20.9879 23.8082ZM1.82822 22.6105C3.58791 24.3503 5.96073 24.3399 7.66395 22.6267C9.81166 20.461 9.75953 17.6556 16.4106 11.1145L15.3756 10.0732C8.02085 17.4523 8.87337 19.1323 6.51778 21.4897C5.47682 22.5369 4.06549 22.5718 2.95537 21.4815C1.85517 20.3615 1.89995 18.9602 2.931 17.9209C5.30462 15.5572 6.98286 16.4143 14.3538 9.05961L13.3223 8.0246C6.74031 14.7166 3.97414 14.6234 1.8084 16.763C0.087149 18.4662 0.0766475 20.8472 1.82822 22.6105ZM4.70913 20.9281C5.3597 20.9281 5.89139 20.3946 5.89139 19.7459C5.89139 19.097 5.3597 18.5699 4.70913 18.5699C4.06034 18.5699 3.53323 19.097 3.53323 19.7459C3.53323 20.3946 4.06034 20.9281 4.70913 20.9281ZM14.0738 10.3568C16.3731 12.6579 20.0449 12.7407 22.2713 10.5207C24.1136 8.68013 24.4029 5.75383 22.9647 3.43214L21.8484 4.55652C22.7003 6.21793 22.4443 8.17461 21.1848 9.44227C19.5656 11.0615 16.8786 10.9822 15.1604 9.27839C13.4466 7.56644 13.379 4.86506 15.0063 3.25399C16.2659 1.99267 18.2452 1.73664 19.8642 2.59667L20.9885 1.4723C18.6831 0.0439284 15.7667 0.325125 13.9262 2.17379C11.7061 4.38571 11.7791 8.05571 14.0738 10.3568ZM17.1152 5.89195L18.5602 7.32349C19.3005 8.06205 20.2525 8.08187 20.9532 7.37304L23.0839 5.23603L22.1264 4.28663L20.2428 6.15215C19.9896 6.40362 19.6901 6.41808 19.4224 6.15393L18.3028 5.02974C18.0315 4.75033 18.009 4.44099 18.2604 4.18595L20.1584 2.3024L19.1783 1.34666L17.0639 3.4692C16.3289 4.19784 16.3488 5.14348 17.1152 5.89195Z" fill="currentColor"/>
</svg>
