<svg width="1em" height="1em" viewBox="0 0 25 24" fill="none" xmlns="http://www.w3.org/2000/svg">
<path fill-rule="evenodd" clip-rule="evenodd" d="M9.60414 3.49982C9.56122 3.34583 9.53853 3.17274 9.53853 2.97845C9.53853 1.60964 10.6648 0.5 12.0542 0.5C13.4435 0.5 14.5698 1.60964 14.5698 2.97845C14.5698 3.18865 14.5432 3.37403 14.4932 3.53726C15.5036 3.84348 16.4693 4.3068 17.1995 4.91147C18.5567 6.03546 19.5007 7.58328 19.8813 9.30857C20.1411 10.4863 20.1605 12.6612 20.1728 14.0417V14.0418C20.1785 14.6837 20.1827 15.1538 20.2089 15.272C20.2263 15.3511 20.269 15.4801 20.3233 15.6439C20.5244 16.2515 20.8839 17.3377 20.7008 18.1276C20.6146 18.4993 20.4465 18.8467 20.2089 19.1443C19.9713 19.4419 19.6702 19.6822 19.3278 19.8473C18.9854 20.0124 18.6105 20.0981 18.2307 20.0982H16.0559C15.8618 21.0585 15.3433 21.9218 14.5881 22.5419C13.8445 23.1526 12.9166 23.4896 11.9571 23.4998V23.5L11.9354 23.4999L11.9126 23.5V23.4997C10.9983 23.4891 10.0785 23.1521 9.37082 22.5419C8.65165 21.9218 8.15781 21.0585 7.97298 20.0982H5.90167C5.88194 20.0982 5.86222 20.0979 5.84252 20.0974H5.59827V20.0779C5.34166 20.0436 5.09127 19.9659 4.85688 19.8473C4.53081 19.6822 4.24404 19.4419 4.01772 19.1443C3.79141 18.8467 3.63132 18.4993 3.54927 18.1276C3.37481 17.3377 3.71723 16.2515 3.9088 15.6439C3.96044 15.4801 4.00112 15.3511 4.01776 15.272C4.04264 15.1537 4.04663 14.6836 4.05208 14.0417C4.0638 12.6612 4.08226 10.4863 4.32968 9.30857C4.69215 7.58328 5.59124 6.03546 6.88384 4.91147C7.60818 4.28162 8.58798 3.80513 9.60414 3.49982ZM12.9274 3.19192C12.9477 3.13653 12.9598 3.0675 12.9598 2.97845C12.9598 2.48568 12.5543 2.08621 12.0542 2.08621C11.554 2.08621 11.1485 2.48568 11.1485 2.97845C11.1485 3.05451 11.1574 3.11597 11.1726 3.1668C11.4254 3.13522 11.6732 3.11527 11.9126 3.10724V3.10588L11.9354 3.10651L11.9571 3.10588V3.10717C12.2702 3.11709 12.5959 3.14553 12.9274 3.19192ZM9.65128 20.0982L9.65107 20.0974H14.2939L14.2937 20.0982C14.1194 20.5934 13.7971 21.0225 13.3709 21.3266C12.9508 21.6263 12.4502 21.7896 11.9354 21.7964C11.444 21.7896 10.9302 21.6263 10.5301 21.3266C10.1242 21.0225 9.81724 20.5934 9.65128 20.0982ZM5.86732 18.3983H18.2668C18.381 18.3934 18.4932 18.3652 18.5965 18.3154C18.7107 18.2603 18.811 18.1802 18.8903 18.081C18.9695 17.9818 19.0999 17.7427 19.0999 17.5495C19.0998 17.0379 19.0128 16.836 18.8767 16.5203L18.8767 16.5203C18.7879 16.3144 18.6783 16.0601 18.5583 15.6398C18.4055 15.1048 18.3992 13.9436 18.3928 12.7487V12.7487C18.3864 11.5658 18.3798 10.3501 18.2307 9.67644C17.9311 8.32239 17.1896 7.10783 16.124 6.22584C15.0643 5.3487 13.3121 4.84691 11.9354 4.80568C10.6238 4.84691 8.91736 5.3487 7.90812 6.22584C6.89328 7.10783 6.18705 8.32239 5.90168 9.67644C5.75971 10.3501 5.75346 11.5658 5.74738 12.7487C5.74123 13.9436 5.73526 15.1048 5.58976 15.6398C5.47546 16.0601 5.37103 16.3144 5.28648 16.5203C5.15685 16.836 5.07396 17.0379 5.07395 17.5495C5.07394 17.7427 5.19812 17.9818 5.27356 18.081C5.34901 18.1802 5.44461 18.2603 5.55333 18.3154C5.6517 18.3652 5.75854 18.3934 5.86732 18.3983Z" fill="currentColor"/>
</svg>
