<svg height="1em" viewBox="0 0 23 22" fill="none" xmlns="http://www.w3.org/2000/svg">
<path d="M13.4118 21.291H20.6248C21.5627 21.291 22.112 20.6976 22.112 19.6953V7.61279C22.112 6.61054 21.5627 6.01709 20.6248 6.01709H14.1301V7.22305H20.2828C20.7182 7.22305 20.903 7.41465 20.903 7.85303V19.4551C20.903 19.8935 20.7182 20.0851 20.2828 20.0851H13.4118V21.291ZM17.0589 11.037H18.7401C18.9173 11.037 19.0328 10.9154 19.0328 10.7413V9.0998C19.0328 8.92568 18.9173 8.8041 18.7401 8.8041H17.0589C16.878 8.8041 16.776 8.92568 16.776 9.0998V10.7413C16.776 10.9154 16.878 11.037 17.0589 11.037ZM17.0589 14.7705H18.7401C18.9173 14.7705 19.0328 14.6489 19.0328 14.4748V12.8333C19.0328 12.6592 18.9173 12.5376 18.7401 12.5376H17.0589C16.878 12.5376 16.776 12.6592 16.776 12.8333V14.4748C16.776 14.6489 16.878 14.7705 17.0589 14.7705ZM17.0589 18.504H18.7401C18.9173 18.504 19.0328 18.3824 19.0328 18.2083V16.5668C19.0328 16.3927 18.9173 16.2711 18.7401 16.2711H17.0589C16.878 16.2711 16.776 16.3927 16.776 16.5668V18.2083C16.776 18.3824 16.878 18.504 17.0589 18.504ZM0 19.6953C0 20.6976 0.549317 21.291 1.49395 21.291H13.4118C14.3497 21.291 14.899 20.6976 14.899 19.6953V2.32373C14.899 1.32148 14.3497 0.728027 13.4118 0.728027H1.49395C0.549317 0.728027 0 1.32148 0 2.32373V19.6953ZM1.20899 19.4551V2.56397C1.20899 2.11885 1.39082 1.93399 1.83594 1.93399H13.0698C13.5082 1.93399 13.69 2.11885 13.69 2.56397V19.4551C13.69 19.8935 13.5082 20.0851 13.0698 20.0851H1.83594C1.39082 20.0851 1.20899 19.8935 1.20899 19.4551ZM4.0874 20.6577H5.1003V17.5201C5.1003 17.2696 5.22891 17.1441 5.47637 17.1441H9.42568C9.68291 17.1441 9.80176 17.2696 9.80176 17.5201V20.6577H10.8147V17.2799C10.8147 16.4915 10.4647 16.1281 9.70332 16.1281H5.19873C4.43731 16.1281 4.0874 16.4915 4.0874 17.2799V20.6577ZM4.22549 6.41348H6.25088C6.46104 6.41348 6.60586 6.27236 6.60586 6.05547V4.07354C6.60586 3.86338 6.46104 3.71553 6.25088 3.71553H4.22549C4.01533 3.71553 3.88399 3.86338 3.88399 4.07354V6.05547C3.88399 6.27236 4.01533 6.41348 4.22549 6.41348ZM8.64512 6.41348H10.6668C10.877 6.41348 11.0218 6.27236 11.0218 6.05547V4.07354C11.0218 3.86338 10.877 3.71553 10.6668 3.71553H8.64512C8.42823 3.71553 8.29991 3.86338 8.29991 4.07354V6.05547C8.29991 6.27236 8.42823 6.41348 8.64512 6.41348ZM4.22549 10.4472H6.25088C6.46104 10.4472 6.60586 10.3061 6.60586 10.0892V8.11025C6.60586 7.9001 6.46104 7.75225 6.25088 7.75225H4.22549C4.01533 7.75225 3.88399 7.9001 3.88399 8.11025V10.0892C3.88399 10.3061 4.01533 10.4472 4.22549 10.4472ZM8.64512 10.4472H10.6668C10.877 10.4472 11.0218 10.3061 11.0218 10.0892V8.11025C11.0218 7.9001 10.877 7.75225 10.6668 7.75225H8.64512C8.42823 7.75225 8.29991 7.9001 8.29991 8.11025V10.0892C8.29991 10.3061 8.42823 10.4472 8.64512 10.4472ZM4.22549 14.4839H6.25088C6.46104 14.4839 6.60586 14.3361 6.60586 14.1259V12.144C6.60586 11.9301 6.46104 11.789 6.25088 11.789H4.22549C4.01533 11.789 3.88399 11.9301 3.88399 12.144V14.1259C3.88399 14.3361 4.01533 14.4839 4.22549 14.4839ZM8.64512 14.4839H10.6668C10.877 14.4839 11.0218 14.3361 11.0218 14.1259V12.144C11.0218 11.9301 10.877 11.789 10.6668 11.789H8.64512C8.42823 11.789 8.29991 11.9301 8.29991 12.144V14.1259C8.29991 14.3361 8.42823 14.4839 8.64512 14.4839Z" fill="currentColor"/>
</svg>
