<svg 
  xmlns="http://www.w3.org/2000/svg"
  height="1em" 
  width="1em" 
  fill="currentColor" 
  viewBox="0 0 15 16" 
>
<path d="M7.49999 15.9961C11.603 15.9961 15 12.5917 15 8.49609C15 4.39315 11.5956 0.996094 7.49264 0.996094C3.39706 0.996094 0 4.39315 0 8.49609C0 12.5917 3.4044 15.9961 7.49999 15.9961ZM7.49999 14.7461C4.02941 14.7461 1.25735 11.9667 1.25735 8.49609C1.25735 5.0255 4.02206 2.24609 7.49264 2.24609C10.9632 2.24609 13.75 5.0255 13.75 8.49609C13.75 11.9667 10.9706 14.7461 7.49999 14.7461ZM6.21323 12.6137H9.2059C9.50738 12.6137 9.74267 12.3931 9.74267 12.0916C9.74267 11.8049 9.50738 11.5769 9.2059 11.5769H8.29409V7.83432C8.29409 7.43726 8.09561 7.17255 7.72057 7.17255H6.33823C6.03676 7.17255 5.80146 7.4005 5.80146 7.68726C5.80146 7.98873 6.03676 8.20932 6.33823 8.20932H7.12499V11.5769H6.21323C5.91176 11.5769 5.67646 11.8049 5.67646 12.0916C5.67646 12.3931 5.91176 12.6137 6.21323 12.6137ZM7.43382 5.95197C7.97055 5.95197 8.38971 5.5255 8.38971 4.98873C8.38971 4.45197 7.97055 4.0255 7.43382 4.0255C6.9044 4.0255 6.47794 4.45197 6.47794 4.98873C6.47794 5.5255 6.9044 5.95197 7.43382 5.95197Z" 
/>
</svg>
