<svg width="1em" height="1em" viewBox="0 0 24 25" fill="none" xmlns="http://www.w3.org/2000/svg">
<path fill-rule="evenodd" clip-rule="evenodd" d="M23.9482 12.0712C23.9482 18.6103 18.5342 24.0244 11.9951 24.0244C5.46777 24.0244 0.0419922 18.6103 0.0419922 12.0712C0.0419922 5.54395 5.45605 0.118164 11.9834 0.118164C18.5225 0.118164 23.9482 5.54395 23.9482 12.0712ZM5.76074 17.4502C5.76074 17.8955 5.9834 18.2119 6.47558 18.2119H17.5147C18.0068 18.2119 18.2295 17.8955 18.2295 17.4502C18.2295 16.1376 16.2373 12.7041 11.9951 12.7041C7.75293 12.7041 5.76074 16.1376 5.76074 17.4502ZM8.88965 8.30956C8.88965 10.2548 10.2842 11.6962 11.9951 11.708C13.7061 11.7197 15.1006 10.2548 15.1006 8.30956C15.1006 6.50488 13.7061 5.00488 11.9951 5.00488C10.2842 5.00488 8.88965 6.50488 8.88965 8.30956Z" fill="currentColor"/>
</svg>
