<svg width="1em" height="1em" viewBox="0 0 70 62" fill="none" xmlns="http://www.w3.org/2000/svg">
<path d="M4.19594 45.4032C9.84473 50.9928 17.2089 51.0222 22.769 45.4622L44.8319 23.3993C50.3919 17.8392 50.3919 10.3864 44.7726 4.82632C39.1535 -0.763337 31.7598 -0.763337 26.1997 4.79673L4.16636 26.83C-1.39371 32.3901 -1.39371 39.8429 4.19594 45.4032ZM7.59706 42.0019C4.07765 38.4825 4.19595 33.573 7.86324 29.9059L29.2754 8.49361C32.9428 4.79673 37.8522 4.67844 41.3716 8.22744C44.9207 11.7764 44.8022 16.6563 41.1054 20.3531L19.7227 41.7357C16.0259 45.4325 11.146 45.5509 7.59706 42.0019ZM15.6118 19.6138L30.0148 33.987L33.4158 30.5861L19.013 16.2126L15.6118 19.6138ZM53.8225 61.8468C62.7838 61.8468 70 54.6303 70 45.6987C70 36.8559 62.7541 29.61 53.8225 29.61C44.95 29.61 37.7044 36.8559 37.7044 45.6987C37.7044 54.6009 44.95 61.8468 53.8225 61.8468ZM53.8225 57.0852C47.5527 57.0852 42.4658 51.9686 42.4658 45.6987C42.4658 39.4586 47.5824 34.3717 53.8225 34.3717C60.122 34.3717 65.2386 39.4586 65.2386 45.6987C65.2386 52.0279 60.1517 57.0852 53.8225 57.0852ZM40.3955 48.1239H67.2792V43.3032H40.3955V48.1239Z" fill="currentColor"/>
</svg>
