<svg width="1em" height="1em" viewBox="0 0 22 22" fill="none" xmlns="http://www.w3.org/2000/svg">
<path fill-rule="evenodd" clip-rule="evenodd" d="M15.3789 0.111816C17.3828 0.111816 19.0703 0.299316 20.2656 1.49463C21.4609 2.68994 21.6367 4.35401 21.6367 6.35791V15.4634C21.6367 17.4673 21.4609 19.143 20.2656 20.3384C19.0703 21.5337 17.3828 21.7212 15.3789 21.7212H6.27343C4.28125 21.7212 2.59375 21.5337 1.39843 20.3384C0.203125 19.143 0.0273438 17.4673 0.0273438 15.4634V6.33448C0.0273438 4.36573 0.203125 2.68994 1.39843 1.49463C2.59375 0.299316 4.28125 0.111816 6.25 0.111816H15.3789ZM6.13281 9.89697C5.51172 9.89697 5.08984 10.3188 5.08984 10.9282C5.08984 11.5259 5.52343 11.9243 6.13281 11.9243H9.80078V15.604C9.80078 16.2016 10.1992 16.6352 10.7968 16.6352C11.4062 16.6352 11.8281 16.2134 11.8281 15.604V11.9243H15.5078C16.1054 11.9243 16.539 11.5259 16.539 10.9282C16.539 10.3188 16.1054 9.89697 15.5078 9.89697H11.8281V6.229C11.8281 5.61963 11.4062 5.18604 10.7968 5.18604C10.1992 5.18604 9.80078 5.61963 9.80078 6.229V9.89697H6.13281Z" fill="currentColor" fill-opacity="0.85"/>
</svg>
