<svg 
  height="1em" 
  width="1em"
  viewBox="0 0 17 17" 
  fill="none" 
  xmlns="http://www.w3.org/2000/svg">
<path 
  d="M0.892395 8.49634C0.892395 8.86529 1.20564 9.17158 1.57456 9.17158H7.54007V15.1371C7.54007 15.506 7.84635 15.8192 8.21525 15.8192C8.59118 15.8192 8.89747 15.506 8.89747 15.1371V9.17158H14.8629C15.2319 9.17158 15.5451 8.86529 15.5451 8.49634C15.5451 8.12046 15.2319 7.81418 14.8629 7.81418H8.89747V1.84867C8.89747 1.47974 8.59118 1.1665 8.21525 1.1665C7.84635 1.1665 7.54007 1.47974 7.54007 1.84867V7.81418H1.57456C1.20564 7.81418 0.892395 8.12046 0.892395 8.49634Z" 
  fill="currentColor"/>
</svg>
