<svg 
  xmlns="http://www.w3.org/2000/svg"
  height="1em" 
  width="1em" 
  fill="currentColor" 
  viewBox="0 0 6 10" 
>
<path d="M5.35416 9.79068C5.48818 9.65661 5.56348 9.4748 5.56348 9.28523C5.56348 9.09566 5.48818 8.91385 5.35416 8.77978L2.07551 5.50114C1.94505 5.36521 1.8722 5.18409 1.8722 4.99568C1.8722 4.80727 1.94505 4.62616 2.07551 4.49023L5.35416 1.21159C5.48439 1.07675 5.55645 0.896163 5.55482 0.708712C5.55319 0.521261 5.478 0.341949 5.34545 0.209397C5.2129 0.0768439 5.03358 0.00165592 4.84613 2.70259e-05C4.65868 -0.00160187 4.47809 0.0704588 4.34325 0.200688L1.06461 3.47862C0.865413 3.67778 0.707397 3.91423 0.59959 4.17447C0.491782 4.43471 0.436294 4.71364 0.436294 4.99533C0.436294 5.27701 0.491782 5.55594 0.59959 5.81618C0.707397 6.07642 0.865413 6.31287 1.06461 6.51204L4.34325 9.79068C4.47732 9.92471 4.65913 10 4.84871 10C5.03828 10 5.22009 9.92471 5.35416 9.79068Z" 
/>
</svg>
