<svg height="1em" width="1em" viewBox="0 0 5 9" fill="none" xmlns="http://www.w3.org/2000/svg">
<path d="M2.3455 6.06906C1.95579 6.06906 1.7352 5.86323 1.7352 5.4664C1.7352 5.43697 1.7352 5.40024 1.7352 5.37082C1.7352 4.62126 2.14697 4.22435 2.69105 3.84219C3.35289 3.37918 3.66905 3.1293 3.66905 2.61485C3.66905 2.0416 3.22052 1.65208 2.5367 1.65208C2.02932 1.65208 1.63962 1.90196 1.36756 2.34292L1.2352 2.52665C1.0955 2.70303 0.926379 2.82798 0.669032 2.82798C0.419033 2.82798 0.146973 2.64424 0.146973 2.30617C0.146973 2.17388 0.176383 2.04894 0.213149 1.93135C0.419033 1.23317 1.27197 0.623169 2.58082 0.623169C3.8749 0.623169 4.99987 1.29196 4.99987 2.55605C4.99987 3.46737 4.47048 3.90833 3.73523 4.39339C3.20576 4.73881 2.96316 5.01071 2.96316 5.43697C2.96316 5.45902 2.96316 5.49582 2.96316 5.52517C2.96316 5.8265 2.72787 6.06906 2.3455 6.06906ZM2.33079 8.32527C1.88962 8.32527 1.50726 7.97254 1.50726 7.53891C1.50726 7.10527 1.88226 6.74517 2.33079 6.74517C2.7793 6.74517 3.15434 7.09797 3.15434 7.53891C3.15434 7.97984 2.77199 8.32527 2.33079 8.32527Z" fill="currentColor"/>
</svg>
