<svg
	width="1em"
	height="1em"
	viewBox="0 0 15 16"
	fill="none"
	xmlns="http://www.w3.org/2000/svg"
>
	<path
		d="M7.49999 15.4927C11.603 15.4927 15 12.0899 15 7.99634C15 3.8954 11.5956 0.5 7.49264 0.5C3.39706 0.5 0 3.8954 0 7.99634C0 12.0899 3.4044 15.4927 7.49999 15.4927ZM7.49999 14.2433C4.02941 14.2433 1.25735 11.4652 1.25735 7.99634C1.25735 4.52744 4.02206 1.74939 7.49264 1.74939C10.9632 1.74939 13.75 4.52744 13.75 7.99634C13.75 11.4652 10.9706 14.2433 7.49999 14.2433Z"
		fill="currentColor"
		fill-opacity="0.85"
	/>
	<path
		d="M7.34558 9.51769C7.7132 9.51769 7.94119 9.28251 7.94119 8.99593C7.94119 8.9665 7.94119 8.92978 7.94119 8.90773C7.94119 8.49614 8.17648 8.23154 8.69119 7.8935C9.40438 7.42314 9.91178 6.99687 9.91178 6.11495C9.91178 4.89496 8.82356 4.23352 7.57353 4.23352C6.30882 4.23352 5.47794 4.83617 5.27941 5.51231C5.24264 5.6299 5.22058 5.74749 5.22058 5.87242C5.22058 6.20314 5.47794 6.37953 5.72059 6.37953C5.97058 6.37953 6.13235 6.26194 6.2647 6.08556L6.39705 5.90917C6.65441 5.48291 7.03676 5.23303 7.5294 5.23303C8.19854 5.23303 8.63231 5.6152 8.63231 6.17375C8.63231 6.6735 8.32353 6.91603 7.68383 7.36434C7.1544 7.73181 6.75735 8.12136 6.75735 8.84157C6.75735 8.87092 6.75735 8.90773 6.75735 8.93708C6.75735 9.31931 6.97058 9.51769 7.34558 9.51769ZM7.33088 11.7078C7.75732 11.7078 8.12498 11.3698 8.12498 10.9435C8.12498 10.5172 7.7647 10.1791 7.33088 10.1791C6.89706 10.1791 6.53676 10.5246 6.53676 10.9435C6.53676 11.3624 6.9044 11.7078 7.33088 11.7078Z"
		fill="currentColor"
		fill-opacity="0.85"
	/>
</svg>