<svg
	height="1em"
	width="1em"
	viewBox="0 0 13 17"
	fill="none"
	xmlns="http://www.w3.org/2000/svg"
>
	<path
		d="M3.5794 3.54034H4.6372V2.11664C4.6372 1.73743 4.90331 1.49127 5.30247 1.49127H7.68418C8.08332 1.49127 8.34949 1.73743 8.34949 2.11664V3.54034H9.40726V2.05011C9.40726 1.08545 8.78188 0.5 7.75735 0.5H5.2293C4.20476 0.5 3.5794 1.08545 3.5794 2.05011V3.54034ZM0.55902 4.07256H12.4476C12.7204 4.07256 12.9399 3.83971 12.9399 3.56695C12.9399 3.29418 12.7204 3.06799 12.4476 3.06799H0.55902C0.292907 3.06799 0.0600586 3.29418 0.0600586 3.56695C0.0600586 3.84637 0.292907 4.07256 0.55902 4.07256ZM3.453 15.3158H9.55359C10.505 15.3158 11.1436 14.6971 11.1902 13.7458L11.6559 3.94616H10.5848L10.1391 13.6326C10.1258 14.0318 9.83972 14.3112 9.44718 14.3112H3.54614C3.16693 14.3112 2.88085 14.0252 2.86089 13.6326L2.38854 3.94616H1.34405L1.8164 13.7524C1.86297 14.7038 2.48833 15.3158 3.453 15.3158ZM4.53075 13.1736C4.78355 13.1736 4.94987 13.0139 4.94323 12.7811L4.73698 5.66258C4.73034 5.42974 4.56402 5.27672 4.32452 5.27672C4.0717 5.27672 3.90539 5.43639 3.91204 5.66924L4.11163 12.7811C4.11827 13.0206 4.2846 13.1736 4.53075 13.1736ZM6.49998 13.1736C6.75279 13.1736 6.93242 13.0139 6.93242 12.7811V5.66924C6.93242 5.43639 6.75279 5.27672 6.49998 5.27672C6.24718 5.27672 6.0742 5.43639 6.0742 5.66924V12.7811C6.0742 13.0139 6.24718 13.1736 6.49998 13.1736ZM8.47586 13.1736C8.71539 13.1736 8.88168 13.0206 8.88835 12.7811L9.08796 5.66924C9.09457 5.43639 8.92828 5.27672 8.67546 5.27672C8.43594 5.27672 8.26965 5.42974 8.26297 5.66924L8.06336 12.7811C8.05676 13.0139 8.22305 13.1736 8.47586 13.1736Z"
		fill="currentColor"
	/>
</svg>
