<svg width="1em" height="1em" viewBox="0 0 24 25" fill="none" xmlns="http://www.w3.org/2000/svg">
<path fill-rule="evenodd" clip-rule="evenodd" d="M10.0419 2.83625L2.72284 10.1553C1.64139 11.2367 1.64139 12.9901 2.72284 14.0715L10.0419 21.3906C11.1233 22.472 12.8767 22.472 13.9581 21.3906L21.2772 14.0715C22.3586 12.9901 22.3586 11.2367 21.2771 10.1553L13.9581 2.83625C12.8767 1.7548 11.1233 1.7548 10.0419 2.83625ZM1.41741 8.84983C-0.385011 10.6523 -0.38501 13.5746 1.41741 15.377L8.73642 22.696C10.5388 24.4984 13.4611 24.4984 15.2636 22.696L22.5826 15.377C24.385 13.5746 24.385 10.6523 22.5826 8.84983L15.2636 1.53082C13.4611 -0.271602 10.5388 -0.2716 8.73642 1.53082L1.41741 8.84983Z" fill="currentColor"/>
<path d="M12.7622 8.23313C12.6348 8.36063 12.5631 8.53353 12.5631 8.71382C12.5631 8.89411 12.6348 9.06702 12.7622 9.19452L15.0005 11.4335L7.92057 11.4382C7.74025 11.4382 7.56731 11.5099 7.4398 11.6374C7.31229 11.7649 7.24066 11.9378 7.24066 12.1181C7.24066 12.2985 7.31229 12.4714 7.4398 12.5989C7.56731 12.7264 7.74025 12.798 7.92057 12.798L15.0012 12.7933L12.7622 15.0322C12.6973 15.0949 12.6455 15.17 12.6098 15.2529C12.5742 15.3359 12.5555 15.4251 12.5547 15.5154C12.5539 15.6057 12.5711 15.6952 12.6053 15.7787C12.6395 15.8623 12.6899 15.9382 12.7538 16.0021C12.8176 16.0659 12.8935 16.1164 12.9771 16.1506C13.0607 16.1847 13.1502 16.202 13.2405 16.2012C13.3307 16.2004 13.42 16.1816 13.5029 16.146C13.5859 16.1104 13.6609 16.0586 13.7236 15.9936L16.1618 13.5561C16.3512 13.3667 16.5015 13.1419 16.604 12.8944C16.7065 12.6469 16.7593 12.3816 16.7593 12.1137C16.7593 11.8458 16.7065 11.5806 16.604 11.3331C16.5015 11.0856 16.3512 10.8607 16.1618 10.6713L13.7236 8.23313C13.5961 8.10566 13.4232 8.03406 13.2429 8.03406C13.0626 8.03406 12.8897 8.10566 12.7622 8.23313Z" fill="currentColor"/>
<path fill-rule="evenodd" clip-rule="evenodd" d="M7.92057 12.9826C7.69128 12.9826 7.47139 12.8915 7.30926 12.7294C7.14713 12.5672 7.05605 12.3473 7.05605 12.1181C7.05605 11.8888 7.14713 11.6689 7.30926 11.5067C7.47136 11.3446 7.69121 11.2536 7.92045 11.2535M7.92045 11.2535L14.5552 11.2491L12.6317 9.32497C12.4696 9.16284 12.3785 8.94299 12.3785 8.71375C12.3785 8.4845 12.4696 8.26465 12.6317 8.10253L12.7622 8.23305C12.6348 8.36055 12.5631 8.53346 12.5631 8.71375C12.5631 8.89403 12.6348 9.06694 12.7622 9.19444L15.0005 11.4334L7.92057 11.4381C7.74025 11.4381 7.56731 11.5098 7.4398 11.6373C7.31229 11.7648 7.24066 11.9377 7.24066 12.1181C7.24066 12.2984 7.31229 12.4713 7.4398 12.5988C7.56731 12.7263 7.74025 12.798 7.92057 12.798L15.0012 12.7932L12.7622 15.0322C12.6973 15.0949 12.6455 15.1699 12.6098 15.2528C12.5742 15.3358 12.5555 15.425 12.5547 15.5153C12.5539 15.6056 12.5711 15.6951 12.6053 15.7787C12.6395 15.8622 12.6899 15.9381 12.7538 16.002C12.8176 16.0658 12.8935 16.1163 12.9771 16.1505C13.0607 16.1847 13.1502 16.2019 13.2405 16.2011C13.3307 16.2003 13.42 16.1815 13.5029 16.1459C13.5859 16.1103 13.6609 16.0585 13.7236 15.9935L16.1618 13.5561C16.3512 13.3667 16.5015 13.1418 16.604 12.8943C16.7065 12.6468 16.7593 12.3815 16.7593 12.1136C16.7593 11.8457 16.7065 11.5805 16.604 11.333C16.5015 11.0855 16.3512 10.8606 16.1618 10.6712L13.7236 8.23305C13.5961 8.10559 13.4232 8.03398 13.2429 8.03398C13.0626 8.03398 12.8897 8.10559 12.7622 8.23305L12.6317 8.10253C12.7938 7.94045 13.0137 7.84937 13.2429 7.84937C13.4722 7.84937 13.692 7.94041 13.8541 8.10249L16.2923 10.5407C16.2923 10.5407 16.2923 10.5407 16.2923 10.5407C16.4989 10.7472 16.6628 10.9924 16.7746 11.2623C16.8864 11.5322 16.9439 11.8215 16.9439 12.1136C16.9439 12.4058 16.8864 12.695 16.7746 12.9649C16.6628 13.2348 16.4989 13.4801 16.2923 13.6866L13.8552 16.123C13.7757 16.205 13.6807 16.2705 13.5758 16.3155C13.4703 16.3609 13.3569 16.3847 13.2421 16.3857C13.1273 16.3867 13.0134 16.3648 12.9072 16.3214C12.8009 16.2779 12.7044 16.2137 12.6232 16.1325C12.5421 16.0513 12.4779 15.9548 12.4344 15.8486C12.3909 15.7423 12.3691 15.6285 12.3701 15.5137C12.3711 15.3989 12.3949 15.2855 12.4402 15.18C12.4853 15.075 12.5507 14.9801 12.6327 14.9005L14.5552 12.9781L7.92057 12.9826" fill="currentColor"/>
</svg>
