<svg height="1em" width="1em" viewBox="0 0 10 9" fill="currentColor" xmlns="http://www.w3.org/2000/svg">
<path d="M5.7475 0.694825C5.62252 0.819843 5.55231 0.989382 5.55231 1.16616C5.55231 1.34293 5.62252 1.51247 5.7475 1.63749L7.94216 3.83283L1.00016 3.83749C0.823352 3.83749 0.653783 3.90773 0.528758 4.03275C0.403734 4.15778 0.333496 4.32735 0.333496 4.50416C0.333496 4.68097 0.403734 4.85054 0.528758 4.97556C0.653783 5.10059 0.823352 5.17083 1.00016 5.17083L7.94283 5.16616L5.7475 7.36149C5.68382 7.42299 5.63303 7.49655 5.59809 7.57789C5.56316 7.65923 5.54476 7.74671 5.544 7.83523C5.54323 7.92374 5.56009 8.01153 5.59362 8.09346C5.62714 8.17539 5.67664 8.24983 5.73923 8.31242C5.80183 8.37502 5.87626 8.42452 5.95819 8.45804C6.04012 8.49156 6.12791 8.50843 6.21643 8.50766C6.30495 8.50689 6.39243 8.4885 6.47377 8.45356C6.5551 8.41862 6.62866 8.36783 6.69016 8.30416L9.08083 5.91416C9.26658 5.72844 9.41393 5.50794 9.51446 5.26527C9.61499 5.0226 9.66674 4.7625 9.66674 4.49983C9.66674 4.23715 9.61499 3.97705 9.51446 3.73438C9.41393 3.49171 9.26658 3.27121 9.08083 3.08549L6.69016 0.694825C6.56514 0.569844 6.39561 0.499634 6.21883 0.499634C6.04205 0.499634 5.87251 0.569844 5.7475 0.694825Z" fill='currentColor'/>
</svg>
