<svg width="1em" height="1em" viewBox="0 0 19 20" fill="none" xmlns="http://www.w3.org/2000/svg">
<path d="M6.44655 5.08576L6.44655 5.08501C6.44337 2.92883 8.07181 1.3623 9.82702 1.3623C11.5892 1.3623 13.2094 2.89894 13.2094 5.06671C13.2094 7.31326 11.5683 8.89367 9.82702 8.89367C8.07831 8.89367 6.44816 7.31266 6.44655 5.08576ZM17.0506 18.9999H2.59647C2.12951 18.9999 1.88654 18.8879 1.78246 18.8058C1.708 18.747 1.64502 18.6625 1.64502 18.4613C1.64502 17.4557 2.31489 16.0543 3.75739 14.8655C5.16873 13.7023 7.23732 12.8225 9.81811 12.8225C12.4047 12.8225 14.4756 13.7026 15.8876 14.8657C17.3307 16.0544 18.0001 17.4556 18.0001 18.4613C18.0001 18.6634 17.9369 18.7478 17.8631 18.8062C17.7597 18.8879 17.5176 18.9999 17.0506 18.9999Z" stroke="currentColor" stroke-width="2"/>
</svg>
