<svg
    width="1em"
    height="1em"
    viewBox="0 0 19 21"
    fill="none"
    xmlns="http://www.w3.org/2000/svg"
  >
    <g clip-path="url(#clip0_6764_6974)">
      <path
        d="M12.1891 17.8297C11.8679 18.5419 11.6556 19.3148 11.5742 20.1254L18.3716 18.6804C18.6928 17.9684 18.9049 17.1953 18.9864 16.3848L12.1891 17.8297Z"
        fill="currentColor"
      />
      <path
        d="M18.3734 14.3516C18.6946 13.6395 18.9069 12.8664 18.9883 12.0559L13.6934 13.182V11.0172L18.3733 10.0227C18.6945 9.3106 18.9068 8.53753 18.9881 7.72699L13.6932 8.85217V1.0667C12.8819 1.52225 12.1613 2.12863 11.5756 2.8439V9.30244L9.45796 9.75254V0.0078125C8.64662 0.463201 7.92606 1.06974 7.34034 1.78501V10.2025L2.60215 11.2093C2.28095 11.9214 2.06847 12.6945 1.98696 13.505L7.34034 12.3673V15.0936L1.60315 16.3128C1.28195 17.0248 1.06962 17.7979 0.988281 18.6084L6.99351 17.3323C7.48237 17.2306 7.90253 16.9416 8.1757 16.5438L9.27702 14.911V14.9107C9.39135 14.7418 9.45796 14.5381 9.45796 14.3188V11.9172L11.5756 11.4671V15.7968L18.3733 14.3513L18.3734 14.3516Z"
        fill="currentColor"
      />
    </g>
</svg>