<svg xmlns="http://www.w3.org/2000/svg" width="1em" height="1em" viewBox="0 0 25 24" fill="none">
  <path d="M1.5 9.8244C1.5 14.6813 5.45877 18.6401 10.3244 18.6401C12.2864 18.6401 14.0914 17.9948 15.5563 16.9049L21.3026 22.6599C21.5206 22.8866 21.8258 23 22.1397 23C22.8285 23 23.2907 22.4768 23.2907 21.8228C23.2907 21.5002 23.1773 21.2212 22.9681 21.0031L17.2479 15.2568C18.4338 13.7658 19.1488 11.8735 19.1488 9.8244C19.1488 4.95877 15.19 1 10.3244 1C5.45877 1 1.5 4.95877 1.5 9.8244ZM3.13059 9.8244C3.13059 5.85691 6.35691 2.63059 10.3244 2.63059C14.2919 2.63059 17.5095 5.85691 17.5095 9.8244C17.5095 13.7832 14.2919 17.0095 10.3244 17.0095C6.35691 17.0095 3.13059 13.7832 3.13059 9.8244Z" fill="currentColor"/>
</svg>