<svg 
  xmlns="http://www.w3.org/2000/svg"
  height="1em" 
  width="1em" 
  fill="currentColor" 
  viewBox="0 0 16 16" 
>
<path d="M9.89954 16C10.4205 16 10.7896 15.5513 11.0574 14.8566L15.7973 2.47489C15.9275 2.14201 15.9999 1.84531 15.9999 1.59927C15.9999 1.1289 15.7105 0.839432 15.2401 0.839432C14.9941 0.839432 14.6974 0.9118 14.3645 1.04206L1.9176 5.81094C1.30973 6.04251 0.839355 6.41157 0.839355 6.93984C0.839355 7.60562 1.34591 7.82993 2.04062 8.03979L7.26541 9.57393L8.78511 14.7336C9.00216 15.4645 9.22654 16 9.89954 16ZM7.59105 8.47395L2.59784 6.94708C2.48205 6.91089 2.44587 6.88195 2.44587 6.83129C2.44587 6.78064 2.47481 6.74445 2.58337 6.70104L12.3671 2.99592C12.9461 2.77883 13.5033 2.48937 14.0388 2.24332C13.5612 2.6341 12.9678 3.09724 12.5698 3.49525L7.59105 8.47395ZM10.0153 14.408C9.95741 14.408 9.92843 14.3573 9.89227 14.2415L8.36532 9.24832L13.3441 4.26956C13.7348 3.87879 14.2197 3.27091 14.6032 2.77883C14.3572 3.32881 14.0605 3.88602 13.8434 4.47218L10.1383 14.256C10.0949 14.3646 10.066 14.408 10.0153 14.408Z" />
</svg>
