<svg width="1em" height="1em" viewBox="0 0 24 25" fill="none" xmlns="http://www.w3.org/2000/svg">
<path d="M10.8789 24.0931H13.121C14.0335 24.0931 14.7472 23.526 14.958 22.6525L15.4074 20.6975L15.7013 20.5959L17.4071 21.6413C18.1771 22.1222 19.0794 22.0017 19.727 21.3502L21.2799 19.8102C21.9315 19.1507 22.0481 18.2433 21.5671 17.4863L20.5036 15.7936L20.6123 15.5197L22.5634 15.0574C23.4278 14.8426 24 14.1238 24 13.2204V11.0404C24 10.1389 23.4368 9.41619 22.5634 9.20335L20.6304 8.73194L20.5126 8.43999L21.5762 6.74728C22.059 5.99033 21.9406 5.09193 21.2891 4.42338L19.736 2.87434C19.0975 2.23187 18.1952 2.10743 17.4252 2.58327L15.7194 3.62864L15.4074 3.50885L14.958 1.55381C14.7472 0.678397 14.0335 0.113281 13.121 0.113281H10.8789C9.96637 0.113281 9.25274 0.682376 9.04189 1.55381L8.58352 3.50885L8.27145 3.62864L6.57477 2.58327C5.80478 2.11142 4.89334 2.23187 4.25485 2.87434L2.71089 4.42338C2.05935 5.09193 1.93184 5.99033 2.4238 6.74728L3.47823 8.43999L3.36949 8.73194L1.43655 9.20335C0.55915 9.41817 0 10.1389 0 11.0404V13.2204C0 14.1238 0.57219 14.8445 1.43655 15.0574L3.38762 15.5197L3.4873 15.7936L2.43286 17.4863C1.94089 18.2433 2.06842 19.1507 2.71995 19.8102L4.26391 21.3502C4.91147 22.0017 5.8229 22.1222 6.59289 21.6413L8.28958 20.5959L8.58352 20.6975L9.04189 22.6525C9.25274 23.526 9.96637 24.0931 10.8789 24.0931ZM11.1532 22.0908C10.9673 22.0908 10.8718 22.0114 10.8407 21.8407L10.1856 19.118C9.48567 18.9603 8.81403 18.6771 8.27919 18.335L5.88611 19.8038C5.75549 19.9013 5.61581 19.8811 5.48719 19.7526L4.30855 18.5759C4.18699 18.4543 4.18191 18.3238 4.26633 18.177L5.74112 15.802C5.43724 15.2742 5.14197 14.6105 4.97312 13.9107L2.25052 13.2666C2.07968 13.2355 2.00033 13.1399 2.00033 12.954V11.2976C2.00033 11.1027 2.07061 11.0183 2.25052 10.9851L4.96405 10.332C5.13689 9.59785 5.46243 8.91008 5.723 8.43159L4.25727 6.05663C4.16379 5.90082 4.16688 5.7702 4.28843 5.63959L5.47812 4.48106C5.60676 4.35243 5.72831 4.33431 5.88611 4.42979L8.25908 5.87142C8.7601 5.57239 9.48987 5.27227 10.1927 5.0864L10.8407 2.36579C10.8718 2.19495 10.9673 2.1156 11.1532 2.1156H12.8467C13.0327 2.1156 13.1261 2.19495 13.1502 2.36579L13.8164 5.10453C14.5333 5.27934 15.1757 5.56953 15.7227 5.88049L18.0988 4.43376C18.2676 4.33829 18.3782 4.35442 18.5178 4.48504L19.6964 5.64357C19.8271 5.77419 19.8232 5.9048 19.7296 6.06061L18.2678 8.43159C18.5356 8.90808 18.854 9.59785 19.0249 10.3281L21.7494 10.9851C21.9203 11.0183 21.9996 11.1027 21.9996 11.2976V12.954C21.9996 13.1399 21.9092 13.2355 21.7494 13.2666L19.0158 13.9146C18.847 14.6086 18.5607 15.2802 18.2497 15.802L19.7186 18.173C19.805 18.3197 19.809 18.4504 19.6783 18.5719L18.5088 19.7485C18.3671 19.8792 18.2385 19.8953 18.0988 19.7999L15.7157 18.335C15.1709 18.6771 14.5381 18.9522 13.8164 19.118L13.1502 21.8407C13.1261 22.0114 13.0327 22.0908 12.8467 22.0908H11.1532ZM11.999 16.3046C14.2985 16.3046 16.1893 14.4139 16.1893 12.1032C16.1893 9.81267 14.2985 7.92393 11.999 7.92393C9.69938 7.92393 7.79761 9.81267 7.79761 12.1032C7.79761 14.4067 9.69033 16.3046 11.999 16.3046ZM11.999 14.4088C10.7401 14.4088 9.70447 13.3732 9.70447 12.1032C9.70447 10.8534 10.7421 9.81974 11.999 9.81974C13.2377 9.81974 14.2714 10.8574 14.2714 12.1032C14.2714 13.3641 13.2377 14.4088 11.999 14.4088Z" fill="currentColor"/>
</svg>
