<svg width="1em" height="1em" viewBox="0 0 25 24" fill="none" xmlns="http://www.w3.org/2000/svg">
<path d="M15.3884 22.017H20.5436C21.8367 22.017 22.5002 21.3875 22.5002 20.0349V14.9392C22.5002 13.5866 21.8367 12.9486 20.5436 12.9486H15.3884C14.0868 12.9486 13.4317 13.5866 13.4317 14.9392V20.0349C13.4317 21.3875 14.0868 22.017 15.3884 22.017Z" fill="currentColor"/>
<path d="M4.45661 22.017H9.61186C10.9049 22.017 11.5685 21.3875 11.5685 20.0349V14.9392C11.5685 13.5866 10.9049 12.9486 9.61186 12.9486H4.45661C3.16355 12.9486 2.5 13.5866 2.5 14.9392V20.0349C2.5 21.3875 3.16355 22.017 4.45661 22.017Z" fill="currentColor"/>
<path d="M15.3884 11.0855H20.5436C21.8367 11.0855 22.5002 10.456 22.5002 9.10337V4.00766C22.5002 2.65505 21.8367 2.02553 20.5436 2.02553H15.3884C14.0868 2.02553 13.4317 2.65505 13.4317 4.00766V9.10337C13.4317 10.456 14.0868 11.0855 15.3884 11.0855Z" fill="currentColor"/>
<path d="M4.45661 11.0855H9.61186C10.9049 11.0855 11.5685 10.456 11.5685 9.10337V4.00766C11.5685 2.65505 10.9049 2.02553 9.61186 2.02553H4.45661C3.16355 2.02553 2.5 2.65505 2.5 4.00766V9.10337C2.5 10.456 3.16355 11.0855 4.45661 11.0855Z" fill="currentColor"/>
</svg>
