<svg width="1em" height="1em" viewBox="0 0 24 24" fill="none" xmlns="http://www.w3.org/2000/svg">
<path d="M5.80884 22.2381H18.1912C20.2827 22.2381 21.3958 21.1377 21.3958 19.0643V8.18916H2.60767V19.0643C2.60767 21.1558 3.71733 22.2381 5.80884 22.2381ZM8.24625 12.0281C7.81553 12.0281 7.54376 11.7425 7.54376 11.2964V10.9711C7.54376 10.5284 7.81553 10.2471 8.24625 10.2471H15.7615C16.1922 10.2471 16.4717 10.5284 16.4717 10.9711V11.2964C16.4717 11.7425 16.1922 12.0281 15.7615 12.0281H8.24625ZM2.76248 6.88842H21.241C22.3881 6.88842 23 6.18213 23 5.03933V3.87833C23 2.73552 22.3881 2.02924 21.241 2.02924H2.76248C1.65818 2.02924 1 2.73552 1 3.87833V5.03933C1 6.18213 1.61197 6.88842 2.76248 6.88842Z" fill="currentColor"/>
</svg>
