<svg width="1em" height="1em" viewBox="0 0 24 24" fill="none" xmlns="http://www.w3.org/2000/svg">
<path d="M18.047 3.29321C17.6839 2.92084 17.1439 2.93014 16.7901 3.29321L12.0978 8.088C11.9395 8.25555 11.8371 8.49763 11.8371 8.71173C11.8371 9.20518 12.1723 9.53107 12.6564 9.53107C12.8985 9.53107 13.0846 9.45655 13.2336 9.29829L15.1795 7.28733L16.6784 5.55562L16.5853 7.70625L16.5853 20.1447C16.5853 20.6288 16.9298 20.9826 17.4139 20.9826C17.9073 20.9826 18.2518 20.6288 18.2518 20.1447L18.2518 7.70625L18.1587 5.55562L19.6577 7.28733L21.5942 9.29829C21.7525 9.45655 21.9387 9.53107 22.1808 9.53107C22.6648 9.53107 23 9.20518 23 8.71173C23 8.49762 22.8976 8.25555 22.7393 8.088L18.047 3.29321Z" fill="currentColor"/>
<path d="M5.96233 20.7033C6.32543 21.085 6.86542 21.0664 7.2099 20.7033L11.9023 15.9086C12.0698 15.741 12.1722 15.4989 12.1722 15.2941C12.1722 14.8006 11.8278 14.4655 11.3436 14.4655C11.1109 14.4655 10.9247 14.5493 10.7664 14.7075L8.82988 16.7092L7.33093 18.4409L7.42404 16.2903L7.42404 3.8518C7.42404 3.36773 7.07956 3.02325 6.58612 3.02325C6.10199 3.02325 5.75751 3.36773 5.75751 3.8518L5.75751 16.2903L5.8413 18.4409L4.35167 16.7092L2.40584 14.7075C2.24756 14.5493 2.07067 14.4655 1.82861 14.4655C1.34447 14.4655 1.00931 14.8006 1.00931 15.2941C1.00931 15.4989 1.10241 15.741 1.26999 15.9086L5.96233 20.7033Z" fill="currentColor"/>
</svg>
