<svg width="1em" height="1em" viewBox="0 0 24 24" fill="none" xmlns="http://www.w3.org/2000/svg">
<path d="M23 11.9801C23 11.6839 22.8815 11.4114 22.6446 11.1863L14.79 3.35541C14.5293 3.09478 14.2806 3 13.9962 3C13.4157 3 12.9655 3.42649 12.9655 4.01885C12.9655 4.30318 13.0603 4.57566 13.2499 4.76521L15.9036 7.46633L20.6068 11.755L20.8438 11.1626L17.0291 10.9257H2.04254C1.42649 10.9257 1 11.364 1 11.9801C1 12.5961 1.42649 13.0344 2.04254 13.0344H17.0291L20.8438 12.7975L20.6068 12.217L15.9036 16.4937L13.2499 19.1949C13.0603 19.3726 12.9655 19.657 12.9655 19.9412C12.9655 20.5336 13.4157 20.9601 13.9962 20.9601C14.2806 20.9601 14.5293 20.8535 14.7663 20.6283L22.6446 12.7738C22.8815 12.5487 23 12.2762 23 11.9801Z" fill="currentColor"/>
</svg>
