<svg width="1em" height="1em" viewBox="0 0 24 24" fill="none" xmlns="http://www.w3.org/2000/svg">
<path d="M20.6894 17.5627C21.0618 17.1996 21.0525 16.6596 20.6894 16.3058L15.8946 11.6135C15.7271 11.4552 15.485 11.3528 15.2709 11.3528C14.7775 11.3528 14.4516 11.688 14.4516 12.1721C14.4516 12.4142 14.5261 12.6004 14.6843 12.7493L16.6953 14.6952L18.427 16.1941L16.2764 16.101H3.83795C3.35382 16.101 3.00003 16.4455 3.00003 16.9297C3.00003 17.423 3.35382 17.7675 3.83795 17.7675H16.2764L18.427 17.6745L16.6953 19.1734L14.6843 21.1099C14.5261 21.2682 14.4516 21.4544 14.4516 21.6965C14.4516 22.1806 14.7775 22.5157 15.2709 22.5157C15.485 22.5157 15.7271 22.4133 15.8946 22.2551L20.6894 17.5627Z" fill="currentColor"/>
<path d="M3.27935 5.47808C2.89763 5.84118 2.91625 6.38117 3.27935 6.72565L8.0741 11.418C8.24169 11.5856 8.48375 11.688 8.68858 11.688C9.18201 11.688 9.51718 11.3435 9.51718 10.8594C9.51718 10.6267 9.43339 10.4404 9.27512 10.2822L7.27342 8.34562L5.54173 6.84668L7.69238 6.93979H20.1308C20.6149 6.93979 20.9594 6.5953 20.9594 6.10187C20.9594 5.61774 20.6149 5.27326 20.1308 5.27326H7.69238L5.54173 5.35705L7.27342 3.86742L9.27512 1.92158C9.43339 1.76331 9.51718 1.58642 9.51718 1.34435C9.51718 0.860222 9.18201 0.525055 8.68858 0.525055C8.48375 0.525055 8.24169 0.618157 8.0741 0.785741L3.27935 5.47808Z" fill="currentColor"/>
</svg>
