<svg width="1em" height="1em" viewBox="0 0 24 18" fill="none" xmlns="http://www.w3.org/2000/svg">
<path d="M0.897367 17.8638C1.41015 17.8638 1.78558 17.5067 1.78558 16.9939V1.02444C1.78558 0.502503 1.41015 0.13623 0.897367 0.13623C0.37543 0.13623 0 0.502503 0 1.02444V16.9939C0 17.5067 0.37543 17.8638 0.897367 17.8638ZM10.6494 17.8638C11.1439 17.8638 11.5193 17.4975 11.5193 17.0031C11.5193 16.765 11.4369 16.527 11.2811 16.3713L8.06716 13.1206L3.86417 9.25641L3.67189 9.77835L7.00496 9.88824H23.1209C23.6246 9.88824 24 9.51281 24 9.00002C24 8.47808 23.6246 8.11181 23.1209 8.11181H7.00496L3.67189 8.21254L3.86417 8.75279L8.06716 4.87946L11.2811 1.62879C11.4369 1.47312 11.5193 1.23505 11.5193 0.996971C11.5193 0.502503 11.1439 0.13623 10.6494 0.13623C10.4113 0.13623 10.2007 0.218642 9.99927 0.410935L2.0786 8.33157C1.8863 8.52387 1.77642 8.75279 1.77642 9.00002C1.77642 9.24726 1.8863 9.47618 2.0786 9.65927L9.99927 17.5891C10.2007 17.7723 10.4113 17.8638 10.6494 17.8638Z" fill="currentColor"/>
</svg>
