<svg width="1em" height="1em" viewBox="0 0 24 18" fill="none" xmlns="http://www.w3.org/2000/svg">
<path d="M13.3506 17.8638C13.5887 17.8638 13.7993 17.7723 14.0007 17.5891L21.9122 9.65927C22.1137 9.47618 22.2144 9.24726 22.2144 9.00002C22.2144 8.75279 22.1137 8.52387 21.9122 8.33157L14.0007 0.410935C13.7993 0.218642 13.5887 0.13623 13.3506 0.13623C12.8561 0.13623 12.4716 0.502503 12.4716 0.996971C12.4716 1.23505 12.5631 1.47312 12.7189 1.62879L15.9329 4.87946L20.1266 8.75279L20.3189 8.21254L16.995 8.11181H0.879054C0.366272 8.11181 0 8.47808 0 9.00002C0 9.51281 0.366272 9.88824 0.879054 9.88824H16.995L20.3189 9.77835L20.1266 9.25641L15.9329 13.1206L12.7189 16.3713C12.5631 16.527 12.4716 16.765 12.4716 17.0031C12.4716 17.4975 12.8561 17.8638 13.3506 17.8638ZM23.1027 17.8638C23.6154 17.8638 24 17.5067 24 16.9939V1.02444C24 0.502503 23.6154 0.13623 23.1027 0.13623C22.5807 0.13623 22.2052 0.502503 22.2052 1.02444V16.9939C22.2052 17.5067 22.5807 17.8638 23.1027 17.8638Z" fill="currentColor"/>
</svg>
