<svg width="1em" height="1em" viewBox="0 0 24 24" fill="none" xmlns="http://www.w3.org/2000/svg">
<path d="M13.0477 22.9481C19.0454 22.9481 24 17.985 24 11.9958C24 5.99809 19.0454 1.03506 13.0477 1.03506C7.05002 1.03506 2.09542 5.98967 2.09542 11.9873H3.66003C3.66003 6.78039 7.84074 2.6165 13.0477 2.6165C18.2462 2.6165 22.4354 6.78881 22.4354 11.9958C22.4354 17.1944 18.2462 21.4003 13.0477 21.3834C9.82592 21.3751 7.00797 19.76 5.32559 17.2953C5.048 16.9167 4.60217 16.799 4.22363 17.0345C3.85351 17.2532 3.74415 17.758 4.05539 18.1701C6.09948 21.0049 9.33804 22.9481 13.0477 22.9481ZM0.69063 9.96007C0.000853461 9.96007 -0.192621 10.4312 0.202739 10.978L2.59172 14.3764C2.91137 14.839 3.37403 14.8306 3.68526 14.3764L6.07425 10.9695C6.45279 10.4312 6.26772 9.96007 5.58636 9.96007H0.69063Z" fill="currentColor"/>
</svg>
