<svg width="1em" height="1em" viewBox="0 0 24 24" fill="none" xmlns="http://www.w3.org/2000/svg">
<path d="M11.8279 23C12.4335 23 12.8645 22.5807 12.8645 21.9751V6.63683L12.748 3.16623L12.0842 3.39915L16.2651 7.97617L18.9206 10.5849C19.107 10.7713 19.3748 10.8645 19.6542 10.8645C20.2366 10.8645 20.6559 10.4219 20.6559 9.85123C20.6559 9.57171 20.5627 9.32714 20.3414 9.09422L12.6082 1.34939C12.387 1.11646 12.1191 1 11.8279 1C11.5368 1 11.2689 1.11646 11.0476 1.34939L3.3261 9.09422C3.10482 9.32714 3 9.57171 3 9.85123C3 10.4219 3.41927 10.8645 4.00159 10.8645C4.2811 10.8645 4.56061 10.7713 4.73531 10.5849L7.39067 7.97617L11.5601 3.39915L10.9079 3.16623L10.7914 6.63683V21.9751C10.7914 22.5807 11.2223 23 11.8279 23Z" fill="currentColor"/>
</svg>
