<svg width="1em" height="1em" viewBox="0 0 25 24" fill="none" xmlns="http://www.w3.org/2000/svg">
<path d="M1.5 11.9801C1.5 12.2762 1.63032 12.5487 1.86726 12.7738L9.7337 20.6283C9.97063 20.8535 10.2194 20.9601 10.5038 20.9601C11.0843 20.9601 11.5463 20.5336 11.5463 19.9412C11.5463 19.657 11.4397 19.3726 11.2501 19.1949L8.59638 16.4937L3.90495 12.217L3.65616 12.7975L7.47092 13.0344H22.4574C23.0735 13.0344 23.5 12.5961 23.5 11.9801C23.5 11.364 23.0735 10.9257 22.4574 10.9257H7.47092L3.65616 11.1626L3.90495 11.755L8.59638 7.46633L11.2501 4.76521C11.4397 4.57566 11.5463 4.30318 11.5463 4.01885C11.5463 3.42649 11.0843 3 10.5038 3C10.2194 3 9.97063 3.09478 9.71 3.35541L1.86726 11.1863C1.63032 11.4114 1.5 11.6839 1.5 11.9801Z" fill="currentColor"/>
</svg>
