<svg width="1em" height="1em" viewBox="0 0 24 24" fill="none" xmlns="http://www.w3.org/2000/svg">
<path d="M0.184936 12C-0.175706 12.4988 0.000778516 12.9284 0.629983 12.9284H2.0572C2.53294 17.9698 6.8453 21.9906 12.0017 21.9906C15.0403 21.9906 17.772 20.594 19.6135 18.4225C19.9205 18.0695 19.8745 17.6168 19.5522 17.3789C19.2222 17.1411 18.8232 17.2178 18.547 17.5401C16.9816 19.3893 14.6413 20.5633 12.0017 20.5633C7.56658 20.5633 3.95249 17.2255 3.50744 12.9284H5.0958C5.71733 12.9284 5.88615 12.4988 5.54084 12.0077L3.36165 8.90002C3.07774 8.49334 2.65572 8.48566 2.36413 8.90002L0.184936 12ZM4.39753 5.56984C4.08293 5.9228 4.12898 6.36785 4.45892 6.60573C4.78887 6.84359 5.18788 6.76686 5.46412 6.45226C7.02945 4.61068 9.37747 3.43668 12.0017 3.43668C16.4292 3.43668 20.0509 6.77453 20.496 11.0716H18.9076C18.2861 11.0716 18.1172 11.5012 18.4626 11.9923L20.6417 15.1C20.9257 15.5067 21.3477 15.5144 21.6393 15.1L23.8185 12C24.1714 11.5012 24.0027 11.0716 23.3734 11.0716H21.9462C21.4705 6.03023 17.1581 2.00946 12.0017 2.00946C8.97077 2.00946 6.23911 3.39831 4.39753 5.56984Z" fill="currentColor"/>
</svg>