<svg xmlns="http://www.w3.org/2000/svg" width="1em" height="1em" viewBox="0 0 20 23" fill="none">
    <path d="M9.5968 20.8326C14.9004 20.8326 19.1995 16.5335 19.1995 11.2299C19.1995 5.92634 14.9004 1.61719 9.5968 1.61719C4.29324 1.61719 -0.00585938 5.92634 -0.00585938 11.2299C-0.00585938 16.5335 4.29324 20.8326 9.5968 20.8326ZM5.0265 12.3348C4.63476 12.3348 4.33343 12.0335 4.33343 11.6417C4.33343 11.25 4.63476 10.9386 5.0265 10.9386H8.89368V5.55469C8.89368 5.16295 9.19506 4.85157 9.58677 4.85157C9.97848 4.85157 10.2899 5.16295 10.2899 5.55469V11.6417C10.2899 12.0335 9.97848 12.3348 9.58677 12.3348H5.0265ZM1.35017 4.19866C1.50083 4.19866 1.61133 4.17857 1.75195 4.06808L5.11691 1.52679C5.27762 1.40625 5.36802 1.24553 5.36802 1.07478C5.36802 0.863837 5.26758 0.693081 5.09682 0.532366C4.71512 0.190848 4.03209 0 3.42941 0C1.86245 0 0.606864 1.25558 0.606864 2.82255C0.606864 3.19419 0.667131 3.56585 0.777622 3.79688C0.888115 4.04799 1.09905 4.19866 1.35017 4.19866ZM17.8435 4.19866C18.0946 4.19866 18.3055 4.03795 18.4261 3.79688C18.5265 3.5759 18.5868 3.19419 18.5868 2.82255C18.5868 1.25558 17.3413 0 15.7642 0C15.1615 0 14.4785 0.190848 14.0968 0.532366C13.9261 0.693081 13.8256 0.863837 13.8256 1.07478C13.8256 1.24553 13.916 1.40625 14.0868 1.52679L17.4417 4.06808C17.5923 4.17857 17.6928 4.19866 17.8435 4.19866ZM1.1995 20.5413C1.50083 20.8527 1.99302 20.8527 2.30441 20.5312L4.20285 18.6429L3.11802 17.5681L1.20954 19.4565C0.898161 19.7578 0.908206 20.25 1.1995 20.5413ZM17.9941 20.5413C18.2955 20.25 18.2955 19.7578 17.9841 19.4565L16.0756 17.5681L15.0008 18.6429L16.8892 20.5312C17.2006 20.8527 17.6928 20.8527 17.9941 20.5413Z" fill="currentColor"/>
</svg>