<svg width="1em" height="1em" viewBox="0 0 24 24" fill="none" xmlns="http://www.w3.org/2000/svg">
<path d="M11.8279 1C11.2223 1 10.7914 1.41927 10.7914 2.02488V17.3631L10.9079 20.8338L11.5601 20.6008L7.39067 16.0238L4.73531 13.4151C4.56061 13.2287 4.2811 13.1355 4.00159 13.1355C3.41927 13.1355 3 13.5781 3 14.1487C3 14.4283 3.10482 14.6728 3.3261 14.9058L11.0476 22.6506C11.2689 22.8835 11.5368 23 11.8279 23C12.1191 23 12.387 22.8835 12.6082 22.6506L20.3414 14.9058C20.5627 14.6728 20.6559 14.4283 20.6559 14.1487C20.6559 13.5781 20.2366 13.1355 19.6542 13.1355C19.3748 13.1355 19.107 13.2287 18.9206 13.4151L16.2651 16.0238L12.0842 20.6008L12.748 20.8338L12.8645 17.3631V2.02488C12.8645 1.41927 12.4335 1 11.8279 1Z" fill="currentColor"/>
</svg>
