<svg width="1em" height="1em" viewBox="0 0 24 24" fill="none" xmlns="http://www.w3.org/2000/svg">
<path d="M3.23076 20.8333C5.29995 22.9326 8.15263 22.8522 10.5131 20.6625L12.2508 19.0353C11.377 19.2864 10.4931 19.1156 9.50866 18.1413L5.85241 14.475C4.86803 13.5007 4.77763 12.687 5.02874 11.8131L3.40152 13.5509C1.20174 15.9214 1.16156 18.744 3.23076 20.8333ZM10.4529 17.1167C11.4573 18.1212 12.4317 18.1513 13.4562 17.1167L17.1124 13.4505C18.1571 12.4158 18.137 11.4616 17.1326 10.4571L13.6069 6.93146C12.6024 5.927 11.6481 5.90691 10.6136 6.95155L6.94727 10.6078C5.92272 11.6424 5.94281 12.6067 6.94727 13.6112L10.4529 17.1167ZM9.2475 12.7071C8.8658 12.3255 8.8658 11.7429 9.2475 11.3612C9.62919 10.9795 10.2118 10.9895 10.5935 11.3712C10.945 11.7328 10.9551 12.3255 10.5935 12.687C10.1917 13.0888 9.6091 13.0688 9.2475 12.7071ZM11.377 10.5877C10.9953 10.206 10.9953 9.61338 11.3569 9.24173C11.7386 8.86003 12.3212 8.86003 12.7029 9.24173C13.0745 9.61338 13.0845 10.196 12.6928 10.5877C12.3312 10.9393 11.7285 10.9393 11.377 10.5877ZM14.8222 12.7071C14.4507 13.0688 13.8579 13.0688 13.4763 12.687C13.1248 12.3355 13.1248 11.7328 13.4763 11.3712C13.8681 10.9795 14.4507 10.9895 14.8222 11.3612C15.204 11.7429 15.204 12.3255 14.8222 12.7071ZM11.3569 14.8165C10.9953 14.4549 10.9752 13.8723 11.377 13.4805C11.7386 13.1089 12.3312 13.119 12.6928 13.4805C13.0745 13.8522 13.0845 14.4549 12.7029 14.8165C12.3111 15.1982 11.7386 15.1982 11.3569 14.8165ZM19.041 12.2752L20.6582 10.5174C22.8479 8.13682 22.9082 5.32432 20.839 3.23503C18.7598 1.1357 15.9172 1.22611 13.5466 3.40579L11.7988 5.02298C12.6627 4.77186 13.5969 4.97276 14.5812 5.95714L18.2374 9.61338C19.2219 10.5877 19.2921 11.4013 19.041 12.2752Z" fill="currentColor"/>
</svg>
