<svg width="1em" height="1em" viewBox="0 0 24 24" fill="none" xmlns="http://www.w3.org/2000/svg">
<path d="M5.4317 22.9891H18.2952C20.2514 22.9891 21.399 21.8525 21.399 19.6011V8.28963C21.399 6.03826 20.2405 4.90164 17.9672 4.90164H5.4317C3.14754 4.90164 2 6.02733 2 8.28963V19.6011C2 21.8634 3.14754 22.9891 5.4317 22.9891ZM7.38798 5.32787L9.14755 5.3388C9.14755 3.77596 10.1749 2.66121 11.694 2.66121C13.2131 2.66121 14.2514 3.77596 14.2514 5.3388L16.0109 5.32787C16.0109 2.91257 14.1421 1 11.694 1C9.24591 1 7.38798 2.91257 7.38798 5.32787Z" fill="currentColor"/>
</svg>
