<svg width="1em" height="1em" viewBox="0 0 24 24" fill="none" xmlns="http://www.w3.org/2000/svg">
<path d="M3.71737 18.809H20.2827C21.2652 18.809 21.8608 18.3074 21.8608 17.5445C21.8608 16.4993 20.7948 15.5587 19.896 14.6286C19.2063 13.9073 19.0181 12.4233 18.9345 11.2214C18.8613 7.20809 17.7953 4.44894 15.0152 3.44561C14.6182 2.07649 13.5416 1 11.9948 1C10.4585 1 9.37154 2.07649 8.98484 3.44561C6.20479 4.44894 5.13875 7.20809 5.0656 11.2214C4.98198 12.4233 4.79386 13.9073 4.10407 14.6286C3.19481 15.5587 2.13922 16.4993 2.13922 17.5445C2.13922 18.3074 2.7245 18.809 3.71737 18.809ZM11.9948 23C13.7715 23 15.0675 21.7041 15.2033 20.2409H8.79671C8.93259 21.7041 10.2285 23 11.9948 23Z" fill="currentColor"/>
</svg>
