<svg width="1em" height="1em" viewBox="0 0 24 24" fill="none" xmlns="http://www.w3.org/2000/svg">
<path d="M13.0527 22.2053C18.6476 22.2053 23.2983 17.5547 23.2983 11.9598C23.2983 6.35491 18.6476 1.71429 13.0527 1.71429C7.44779 1.71429 2.80716 6.34486 2.80716 11.9498H4.51476C4.51476 7.20871 8.31162 3.43192 13.0527 3.43192C17.7938 3.43192 21.5907 7.21876 21.5907 11.9598C21.5907 16.7009 17.7938 20.5179 13.0527 20.4978C10.19 20.4877 7.67881 19.1016 6.14198 16.9621C5.8306 16.5502 5.3585 16.4196 4.93662 16.6707C4.53484 16.9219 4.42435 17.4743 4.76586 17.9163C6.67435 20.4777 9.66763 22.2053 13.0527 22.2053ZM1.57167 10.0212C0.848458 10.0212 0.667654 10.5134 1.0594 11.0759L3.3094 14.2701C3.64086 14.7321 4.12301 14.7221 4.44444 14.2701L6.69444 11.0659C7.07614 10.5134 6.89533 10.0212 6.18216 10.0212H1.57167Z" fill="currentColor"/>
<path d="M12.8317 5.96317C12.3094 5.96317 11.8875 6.38505 11.8875 6.90737V12.6027C11.8875 12.8438 11.9578 13.0748 12.1587 13.3259L14.5895 16.5402C14.9913 17.0625 15.5337 17.1529 16.0259 16.8214C16.4779 16.51 16.5081 15.9375 16.1565 15.4453L12.671 10.7143L13.7859 14.1495V6.90737C13.7859 6.38505 13.354 5.96317 12.8317 5.96317Z" fill="currentColor"/>
</svg>
