<svg width="1em" height="1em" viewBox="0 0 25 24" fill="none" xmlns="http://www.w3.org/2000/svg">
<path d="M1.06055 14.1005C1.06055 15.3175 1.89652 16.1323 3.12404 16.1323H7.9071V20.9259C7.9071 22.1534 8.72192 22.9788 9.93885 22.9788H14.1716C15.3886 22.9788 16.2034 22.1534 16.2034 20.9259V16.1323H20.997C22.2246 16.1323 23.05 15.3175 23.05 14.1005V9.86771C23.05 8.65079 22.2246 7.83597 20.997 7.83597H16.2034V3.05291C16.2034 1.8254 15.3886 1 14.1716 1H9.93885C8.72192 1 7.9071 1.8254 7.9071 3.05291V7.83597H3.11346C1.88594 7.83597 1.06055 8.65079 1.06055 9.86771V14.1005Z" fill="currentColor"/>
</svg>
