<svg width="1em" height="1em" viewBox="0 0 24 24" fill="none" xmlns="http://www.w3.org/2000/svg">
<path d="M4.4298 8.58806C4.68113 7.43045 5.15331 6.07483 5.47317 5.51125C5.74735 5.03906 6.07483 4.79535 6.66125 4.71919C7.41523 4.61257 9.11355 4.55164 12 4.55164C14.8864 4.55164 16.5848 4.59734 17.3387 4.71919C17.9252 4.80297 18.245 5.03906 18.5268 5.51125C18.8543 6.06721 19.296 7.43045 19.5702 8.58806C19.6539 8.92317 19.5169 9.0831 19.1437 9.05264C17.4834 8.94602 15.5642 8.85462 12 8.85462C8.43577 8.85462 6.51655 8.94602 4.85629 9.05264C4.48311 9.0831 4.35364 8.92317 4.4298 8.58806ZM4.91721 15.6785C4.05662 15.6785 3.40927 15.0387 3.40927 14.1781C3.40927 13.3252 4.05662 12.6778 4.91721 12.6778C5.77019 12.6778 6.41755 13.3252 6.41755 14.1781C6.41755 15.0387 5.77019 15.6785 4.91721 15.6785ZM9.44866 15.3509C8.80894 15.3509 8.37487 14.9092 8.37487 14.2771C8.37487 13.6374 8.80894 13.1957 9.44866 13.1957H14.5513C15.1911 13.1957 15.6328 13.6374 15.6328 14.2771C15.6328 14.9092 15.1911 15.3509 14.5513 15.3509H9.44866ZM19.0904 15.6785C18.2298 15.6785 17.5824 15.0387 17.5824 14.1781C17.5824 13.3252 18.2298 12.6778 19.0904 12.6778C19.9433 12.6778 20.5907 13.3252 20.5907 14.1781C20.5907 15.0387 19.9433 15.6785 19.0904 15.6785ZM12 18.3516C15.2596 18.3516 19.6387 18.184 21.497 17.9708C22.7765 17.8262 23.5 17.1407 23.5 15.9069V14.1781C23.5 12.495 23.142 11.5964 22.2738 10.4692L21.4361 9.38012C21.0781 7.61323 20.4232 5.74734 20.0804 5.02383C19.5626 3.91952 18.5496 3.30264 17.3007 3.13509C16.6381 3.0437 14.4599 2.99039 12 2.99039C9.54006 2.99039 7.36192 3.05131 6.69934 3.13509C5.45033 3.28741 4.43742 3.91952 3.91954 5.02383C3.57682 5.74734 2.92947 7.61323 2.5639 9.38012L1.72616 10.4692C0.857947 11.5964 0.5 12.495 0.5 14.1781V15.9069C0.5 17.1407 1.22351 17.8262 2.50298 17.9708C4.36126 18.184 8.74039 18.3516 12 18.3516ZM1.77947 21.0096H2.92185C3.64536 21.0096 4.20132 20.4536 4.20132 19.7377V17.3311L0.5 15.5566V19.7377C0.5 20.4536 1.05596 21.0096 1.77947 21.0096ZM21.0781 21.0096H22.2205C22.944 21.0096 23.5 20.4536 23.5 19.7377V15.5566L19.7987 17.3311V19.7377C19.7987 20.4536 20.3546 21.0096 21.0781 21.0096Z" fill="currentColor"/>
</svg>
