<svg xmlns="http://www.w3.org/2000/svg" width="1em" height="1em" viewBox="0 0 17 21" fill="none">
    <path fill-rule="evenodd" clip-rule="evenodd" d="M9.30804 20.8036C9.0569 20.9341 8.80579 20.9944 8.64508 20.9944C8.48437 20.9944 8.24329 20.9442 7.98213 20.8036C2.36718 17.6395 0.428558 16.3136 0.428558 12.7076V5.13391C0.428558 4.09931 0.880568 3.75779 1.71427 3.41627C2.88949 2.94417 6.6462 1.54797 7.82142 1.16628C8.08258 1.08592 8.36382 1.02565 8.64508 1.02565C8.92632 1.02565 9.20759 1.07587 9.47879 1.16628C10.644 1.56806 14.4007 2.93413 15.5759 3.41627C16.4196 3.76784 16.8616 4.09931 16.8616 5.13391V12.7076C16.8616 16.3136 15.0234 17.8102 9.30804 20.8036ZM6.63615 15.0581C6.89731 15.4096 7.17856 15.5402 7.52008 15.5402C7.8616 15.5402 8.15289 15.3795 8.36383 15.0581L13.0848 7.61495C13.2154 7.41406 13.3359 7.18304 13.3359 6.952C13.3359 6.48995 12.9241 6.18861 12.4922 6.18861C12.221 6.18861 11.9598 6.33928 11.769 6.65066L7.4799 13.5413L5.44084 10.9096C5.18972 10.5781 4.96874 10.4777 4.68749 10.4777C4.22544 10.4777 3.87387 10.8493 3.87387 11.3114C3.87387 11.5324 3.96427 11.7634 4.11494 11.9643L6.63615 15.0581Z" fill="currentColor"/>
</svg>