<svg width="1em" height="1em" viewBox="0 0 24 24" fill="none" xmlns="http://www.w3.org/2000/svg">
<path d="M12.0063 18.4888C12.323 18.4888 12.6396 18.3621 12.8549 18.1215L22.658 8.07772C22.8733 7.8624 23 7.58377 23 7.26713C23 6.60851 22.506 6.1019 21.8474 6.1019C21.5308 6.1019 21.2395 6.22855 21.0242 6.43121L11.3224 16.3483H12.6776L2.97582 6.43121C2.77317 6.22855 2.48187 6.1019 2.15256 6.1019C1.49395 6.1019 1 6.60851 1 7.26713C1 7.58377 1.12666 7.8624 1.34197 8.09038L11.1451 18.1215C11.3857 18.3621 11.677 18.4888 12.0063 18.4888Z" fill="currentColor"/>
</svg>
