<svg width="1em" height="1em" viewBox="0 0 24 24" fill="none" xmlns="http://www.w3.org/2000/svg">
<path d="M1.34197 15.411C1.12666 15.6137 1 15.905 1 16.2343C1 16.8929 1.49395 17.3869 2.15256 17.3869C2.48187 17.3869 2.78583 17.2729 2.97582 17.0576L12.6776 7.15314H11.3224L21.0242 17.0576C21.2268 17.2729 21.5308 17.3869 21.8474 17.3869C22.506 17.3869 23 16.8929 23 16.2343C23 15.905 22.8733 15.6137 22.658 15.411L12.8549 5.37997C12.6396 5.13932 12.323 5 12.0063 5C11.677 5 11.3731 5.13932 11.1451 5.37997L1.34197 15.411Z" fill="currentColor"/>
</svg>
