<svg width="1em" height="1em" viewBox="0 0 24 24" fill="none" xmlns="http://www.w3.org/2000/svg">
<path d="M6 11.9937C6 12.3103 6.11399 12.5889 6.35463 12.8296L16.3984 22.6454C16.6137 22.8733 16.8923 22.9873 17.2216 22.9873C17.8803 22.9873 18.3869 22.4934 18.3869 21.8348C18.3869 21.5054 18.2475 21.2268 18.0449 21.0115L8.8244 11.9937L18.0449 2.97582C18.2475 2.7605 18.3869 2.4692 18.3869 2.15256C18.3869 1.49395 17.8803 1 17.2216 1C16.8923 1 16.6137 1.11399 16.3984 1.3293L6.35463 11.1577C6.11399 11.3857 6 11.677 6 11.9937Z" fill="currentColor"/>
</svg>
