<svg width="1em" height="1em" viewBox="0 0 25 24" fill="none" xmlns="http://www.w3.org/2000/svg">
<path d="M10.0748 23C10.8852 23 11.5228 22.6787 11.9578 22.0116L23.0531 4.72934C23.3689 4.24422 23.5 3.78942 23.5 3.37101C23.5 2.23705 22.6599 1.41235 21.5217 1.41235C20.7351 1.41235 20.2525 1.6913 19.7698 2.45536L10.0271 18.1125L5.07531 11.8666C4.64031 11.3209 4.15764 11.0783 3.49025 11.0783C2.33424 11.0783 1.5 11.9212 1.5 13.0612C1.5 13.5645 1.65493 14.0132 2.07801 14.5166L8.2335 22.1026C8.74 22.7151 9.318 23 10.0748 23Z" fill="currentColor"/>
</svg>
