<svg width="1em" height="1em" viewBox="0 0 25 24" fill="none" xmlns="http://www.w3.org/2000/svg">
<path d="M7.03979 2.25V3.75H8.53979V20.25C8.53979 20.8467 8.77685 21.419 9.1988 21.841C9.62076 22.2629 10.1931 22.5 10.7898 22.5H13.7898C14.3865 22.5 14.9588 22.2629 15.3808 21.841C15.8027 21.419 16.0398 20.8467 16.0398 20.25V3.75H17.5398V2.25H7.03979ZM14.5398 20.25C14.5398 20.4489 14.4608 20.6397 14.3201 20.7803C14.1795 20.921 13.9887 21 13.7898 21H10.7898C10.5909 21 10.4001 20.921 10.2595 20.7803C10.1188 20.6397 10.0398 20.4489 10.0398 20.25V16.83L14.5398 18.5175V20.25ZM14.5398 5.25H12.2898V6.75H14.5398V8.25H12.2898V9.75H14.5398V11.25H12.2898V12.75H14.5398V14.25H12.2898V15.75H14.5398V16.92L10.0398 15.2325V3.75H14.5398V5.25Z" fill="currentColor"/>
<path d="M14.5398 18.5175V20.25C14.5398 20.4489 14.4608 20.6397 14.3201 20.7803C14.1795 20.921 13.9887 21 13.7898 21H10.7898C10.5909 21 10.4001 20.921 10.2595 20.7803C10.1188 20.6397 10.0398 20.4489 10.0398 20.25V16.83L14.5398 18.5175Z" fill="currentColor"/>
</svg>
