<svg xmlns="http://www.w3.org/2000/svg" width="1em" height="1em" viewBox="0 0 22 18" fill="none">
  <path d="M2.8127 17.0822H19.1873C21.0504 17.0822 22 16.1506 22 14.3054V4.9267C22 3.08143 21.0504 2.1588 19.1873 2.1588H16.6254C15.9177 2.1588 15.7027 2.01547 15.2997 1.56758L14.583 0.7614C14.1352 0.26873 13.6783 0 12.7556 0H9.18162C8.25895 0 7.80211 0.26873 7.35423 0.7614L6.63762 1.56758C6.23453 2.00651 6.01058 2.1588 5.31189 2.1588H2.8127C0.940552 2.1588 0 3.08143 0 4.9267V14.3054C0 16.1506 0.940552 17.0822 2.8127 17.0822ZM11 14.4397C8.28582 14.4397 6.10912 12.272 6.10912 9.5399C6.10912 6.81677 8.28582 4.64902 11 4.64902C13.7142 4.64902 15.8819 6.81677 15.8819 9.5399C15.8819 12.272 13.7052 14.4397 11 14.4397ZM11 13.0782C12.9528 13.0782 14.5293 11.5105 14.5293 9.5399C14.5293 7.57817 12.9528 6.00162 11 6.00162C9.04722 6.00162 7.46172 7.57817 7.46172 9.5399C7.46172 11.5105 9.05618 13.0782 11 13.0782ZM16.4821 6.24348C16.4821 5.63436 17.0195 5.0969 17.6466 5.0969C18.2646 5.0969 18.7932 5.63436 18.7932 6.24348C18.7932 6.87947 18.2646 7.39006 17.6466 7.39902C17.0195 7.39902 16.4821 6.88843 16.4821 6.24348Z" fill="currentColor"/>
</svg>