<svg width="1em" height="1em" viewBox="0 0 24 24" fill="none" xmlns="http://www.w3.org/2000/svg">
<path d="M18.3869 11.9937C18.3869 11.677 18.2602 11.3857 18.0196 11.1577L7.98848 1.3293C7.7605 1.11399 7.48187 1 7.15256 1C6.50662 1 6 1.49395 6 2.15256C6 2.4692 6.12666 2.7605 6.3293 2.97582L15.5498 11.9937L6.3293 21.0115C6.12666 21.2268 6 21.5054 6 21.8348C6 22.4934 6.50662 22.9873 7.15256 22.9873C7.48187 22.9873 7.7605 22.8733 7.98848 22.6454L18.0196 12.8296C18.2602 12.5889 18.3869 12.3103 18.3869 11.9937Z" fill="currentColor"/>
</svg>
