<svg width="1em" height="1em" viewBox="0 0 25 24" fill="none" xmlns="http://www.w3.org/2000/svg">
<path fill-rule="evenodd" clip-rule="evenodd" d="M20.124 21.2035H3.99705C2.03938 21.2035 1.06055 20.2532 1.06055 18.305V9.0584C1.06055 7.11023 2.03938 6.15991 3.99705 6.15991H7.23766V5.40915C7.23766 3.62254 8.27351 2.78625 9.89853 2.78625H14.2131C15.9331 2.78625 16.8739 3.62254 16.8739 5.40915V6.15991H20.124C22.0912 6.15991 23.0605 7.11023 23.0605 9.0584V18.305C23.0605 20.2532 22.0912 21.2035 20.124 21.2035ZM15.4009 6.15991H8.71065V5.30462C8.71065 4.58236 9.1383 4.17373 9.87956 4.17373H14.2415C14.9828 4.17373 15.4009 4.58236 15.4009 5.30462V6.15991ZM7.58924 12.8122V14.5323C7.58924 15.0265 7.93136 15.3685 8.42553 15.3685H10.3737V17.3072C10.3737 17.8109 10.7063 18.1435 11.21 18.1435H12.9206C13.4147 18.1435 13.7568 17.8109 13.7568 17.3072V15.3685H15.6955C16.1992 15.3685 16.5413 15.0265 16.5413 14.5323V12.8122C16.5413 12.318 16.1992 11.9759 15.6955 11.9759H13.7568V10.0467C13.7568 9.53357 13.4147 9.20096 12.9206 9.20096H11.21C10.7063 9.20096 10.3737 9.53357 10.3737 10.0467V11.9759H8.42553C7.92186 11.9759 7.58924 12.318 7.58924 12.8122Z" fill="currentColor"/>
</svg>
