<svg width="1em" height="1em" viewBox="0 0 24 24" fill="none" xmlns="http://www.w3.org/2000/svg">
<path d="M4.77876 22.3504H5.67079C6.64778 22.3504 7.19999 21.8761 7.19999 21.0053C7.19999 20.3823 6.72566 19.8513 5.82654 19.6885V17.5504C5.82654 16.623 6.03185 16.0849 6.57699 15.2212C8.05664 15.7947 9.18228 15.9929 10.4637 15.9929C11.9009 15.9929 13.4584 15.7734 14.3929 15.5115C14.5982 16.2832 14.8177 17.1469 14.8177 17.9328C14.8177 19.0513 14.6903 20.0354 14.6903 20.9345C14.6903 21.8761 15.2071 22.3504 16.1699 22.3504H17.1611C18.1097 22.3504 18.6902 21.8407 18.6902 21.0053C18.6902 20.3115 18.3008 19.8372 17.5151 19.7168V18.7894C17.5151 13.8832 21.0974 15.2496 21.1681 9.0549C22.8318 8.95573 24 7.88673 24 7.09381C24 5.96107 22.8106 4.79292 21.4371 3.81594C21.1611 2.81063 20.623 1.99647 20.1841 1.99647C19.7734 1.99647 19.1504 2.69735 18.7752 3.80886C18.053 4.50974 17.423 5.41594 16.9487 6.25133L16.5239 6.95929C16.2265 7.50443 15.9716 7.83009 15.6106 7.83009C12.1062 7.83009 10.7115 7.32744 7.40527 7.32744C5.78407 7.32744 4.78583 7.90797 4.17699 8.67965C3.86548 9.0549 3.64602 9.13979 3.1292 8.94159C1.95398 8.53806 1.13983 7.42656 1.13983 6.01771C1.13983 4.11328 2.65487 2.78939 4.79999 2.78939C5.60708 2.78939 6.42831 2.9593 7.38403 3.3416C8.19823 3.66726 8.5805 2.58408 7.83713 2.27966C6.75398 1.84072 5.72743 1.64957 4.79999 1.64957C1.95398 1.64957 0 3.42656 0 6.01771C0 7.91504 1.03363 9.39469 2.63362 9.96813C3.0938 10.1452 3.25664 10.4567 3.23539 10.9451C3.18584 11.6318 3.18584 12.0354 3.18584 12.3115C3.18584 15.2212 1.89735 15.7309 2.25133 17.0407L3.36283 21.1327C3.5823 21.9611 4.07079 22.3504 4.77876 22.3504ZM21.2177 6.48496C20.9274 6.48496 20.6938 6.26549 20.6938 5.96815C20.6938 5.68496 20.9274 5.44425 21.2177 5.44425C21.508 5.44425 21.7345 5.68496 21.7345 5.96815C21.7345 6.26549 21.508 6.48496 21.2177 6.48496Z" fill="currentColor"/>
</svg>
