<svg width="1em" height="1em" viewBox="0 0 25 24" fill="none" xmlns="http://www.w3.org/2000/svg">
<path d="M6.8626 13.1588C6.43144 13.1588 6.10808 12.8354 6.10808 12.4042C6.10808 11.9838 6.43144 11.6604 6.8626 11.6604H11.7455V5.13914C11.7455 4.71876 12.0689 4.39539 12.4892 4.39539C12.9096 4.39539 13.2438 4.71876 13.2438 5.13914V12.4042C13.2438 12.8354 12.9096 13.1588 12.4892 13.1588H6.8626ZM12.5 22.9891C18.5147 22.9891 23.4946 17.9985 23.4946 11.9946C23.4946 5.9799 18.504 1 12.4892 1C6.48533 1 1.50543 5.9799 1.50543 11.9946C1.50543 17.9985 6.49612 22.9891 12.5 22.9891Z" fill="currentColor"/>
</svg>
