<svg width="1em" height="1em" viewBox="0 0 24 24" fill="none" xmlns="http://www.w3.org/2000/svg">
<path d="M9.12693 23C9.6629 23 10.0867 22.7632 10.3859 22.3021L22.1649 3.75468C22.3893 3.39321 22.4766 3.11899 22.4766 2.8323C22.4766 2.14675 22.0278 1.69802 21.3422 1.69802C20.8437 1.69802 20.5694 1.86006 20.2703 2.33371L9.07706 20.1705L3.26855 12.5672C2.95694 12.1309 2.64533 11.9564 2.1966 11.9564C1.48612 11.9564 1 12.4425 1 13.1281C1 13.4148 1.12465 13.7388 1.36147 14.0379L7.8306 22.2771C8.20454 22.7632 8.59095 23 9.12693 23Z" fill="currentColor"/>
</svg>
