<svg width="1em" height="1em" viewBox="0 0 24 24" fill="none" xmlns="http://www.w3.org/2000/svg">
<path d="M7.0868 22.3926C7.5836 22.3926 7.94704 22.1493 8.53964 21.6251L12.0099 18.5754H18.4822C21.3551 18.5754 23 16.8959 23 14.0639V6.12518C23 3.28687 21.3551 1.60736 18.4822 1.60736H5.51783C2.63852 1.60736 1 3.28051 1 6.12518V14.0639C1 16.9087 2.67206 18.5754 5.46753 18.5754H5.97287V21.1242C5.97287 21.9 6.38429 22.3926 7.0868 22.3926ZM7.5052 20.4747V17.595C7.5052 17.0684 7.28614 16.8703 6.78545 16.8703H5.5675C3.66256 16.8703 2.70652 15.8633 2.70652 14.0079V6.17486C2.70652 4.31944 3.66256 3.31387 5.5675 3.31387H18.4325C20.3183 3.31387 21.2949 4.31944 21.2949 6.17486V14.0079C21.2949 15.8633 20.3183 16.8703 18.4325 16.8703H11.9355C11.3919 16.8703 11.1232 16.9633 10.7384 17.3518L7.5052 20.4747Z" fill="currentColor"/>
</svg>
