<svg width="1em" height="1em" viewBox="0 0 25 24" fill="none" xmlns="http://www.w3.org/2000/svg">
<path d="M1.5 20.8419C1.5 21.25 1.83457 21.5601 2.22626 21.5601H22.7738C23.1654 21.5601 23.5 21.25 23.5 20.8419C23.5 20.4339 23.1654 20.1239 22.7738 20.1239H2.22626C1.83457 20.1239 1.5 20.4339 1.5 20.8419Z" fill="currentColor"/>
<path d="M18.5468 17.8146C18.5468 18.3449 18.8894 18.6632 19.4444 18.6632H21.8843C22.431 18.6632 22.782 18.3449 22.782 17.8146V10.9845C22.782 10.4622 22.431 10.1276 21.8843 10.1276H19.4444C18.8894 10.1276 18.5468 10.4622 18.5468 10.9845V17.8146Z" fill="currentColor"/>
<path d="M13.1035 17.8145C13.1035 18.3449 13.4463 18.6632 13.993 18.6632H16.4329C16.9878 18.6632 17.3305 18.3449 17.3305 17.8145V6.39017C17.3305 5.85975 16.9878 5.5415 16.4329 5.5415H13.993C13.4463 5.5415 13.1035 5.85975 13.1035 6.39017V17.8145Z" fill="currentColor"/>
<path d="M7.65234 17.8147C7.65234 18.345 8.00323 18.6633 8.54997 18.6633H10.9899C11.5366 18.6633 11.8875 18.345 11.8875 17.8147V4.07279C11.8875 3.54237 11.5366 3.22412 10.9899 3.22412H8.54997C8.00323 3.22412 7.65234 3.54237 7.65234 4.07279V17.8147Z" fill="currentColor"/>
<path d="M2.20898 17.8147C2.20898 18.345 2.55172 18.6633 3.10661 18.6633H5.54653C6.0851 18.6633 6.44415 18.345 6.44415 17.8147V8.72416C6.44415 8.2019 6.0851 7.87549 5.54653 7.87549H3.10661C2.55172 7.87549 2.20898 8.2019 2.20898 8.72416V17.8147Z" fill="currentColor"/>
</svg>
