<svg width="1em" height="1em" viewBox="0 0 24 24" fill="none" xmlns="http://www.w3.org/2000/svg">
<path d="M5.09166 16.7712H7.40053C7.95583 16.7712 8.32846 16.3985 8.32846 15.8724V14.1189C8.32846 13.5928 7.95583 13.2202 7.40053 13.2202H5.09166C4.53636 13.2202 4.16374 13.5928 4.16374 14.1189V15.8724C4.16374 16.3985 4.53636 16.7712 5.09166 16.7712ZM1.6722 9.74226H22.3497V7.62336H1.6722V9.74226ZM3.84225 19.9422H20.1504C22.0428 19.9422 23 18.9851 23 17.1218V6.8781C23 5.01492 22.0428 4.05777 20.1504 4.05777H3.84225C1.95716 4.05777 1 5.00762 1 6.8781V17.1218C1 18.9923 1.95716 19.9422 3.84225 19.9422ZM3.87147 18.6416C2.84855 18.6416 2.29326 18.1009 2.29326 17.0561V6.94385C2.29326 5.89171 2.84855 5.35103 3.87147 5.35103H20.1285C21.1295 5.35103 21.6994 5.89171 21.6994 6.94385V17.0561C21.6994 18.1009 21.1295 18.6416 20.1285 18.6416H3.87147Z" fill="currentColor"/>
</svg>
