<svg width="1em" height="1em" viewBox="0 0 25 25" fill="none" xmlns="http://www.w3.org/2000/svg">
<path d="M9.37954 11.3087C7.17042 11.3087 5.37954 9.51781 5.37954 7.30869V4.10869C5.37954 3.66693 5.73778 3.30869 6.17954 3.30869H6.97954C7.4213 3.30869 7.77954 2.95045 7.77954 2.50869C7.77954 2.06693 7.4213 1.70869 6.97954 1.70869H6.17954C4.8541 1.70869 3.77954 2.78325 3.77954 4.10869V7.30869C3.78162 9.14325 4.68482 10.8599 6.19554 11.9007C7.6405 13.1746 8.50178 14.9839 8.57954 16.9087C8.57954 20.0015 11.0867 22.5087 14.1795 22.5087C17.2723 22.5087 19.7795 20.0015 19.7795 16.9087V15.9967C21.4907 15.5549 22.5197 13.8095 22.0779 12.0983C21.636 10.3871 19.8907 9.35813 18.1795 9.79989C16.4683 10.2418 15.4394 11.9871 15.8811 13.6983C16.1722 14.8255 17.0523 15.7056 18.1795 15.9967V16.9087C18.1795 19.1178 16.3887 20.9087 14.1795 20.9087C11.9704 20.9087 10.1795 19.1178 10.1795 16.9087C10.2613 14.9815 11.1287 13.1717 12.5795 11.9007C14.0842 10.8562 14.9811 9.14037 14.9795 7.30869V4.10869C14.9795 2.78325 13.905 1.70869 12.5795 1.70869H11.7795C11.3378 1.70869 10.9795 2.06693 10.9795 2.50869C10.9795 2.95045 11.3378 3.30869 11.7795 3.30869H12.5795C13.0213 3.30869 13.3795 3.66693 13.3795 4.10869V7.30869C13.3795 9.51781 11.5887 11.3087 9.37954 11.3087ZM18.9795 14.5087C18.0959 14.5087 17.3795 13.7924 17.3795 12.9087C17.3795 12.025 18.0959 11.3087 18.9795 11.3087C19.8632 11.3087 20.5795 12.025 20.5795 12.9087C20.5795 13.7924 19.8632 14.5087 18.9795 14.5087Z" fill="currentColor"/>
</svg>
