<svg xmlns="http://www.w3.org/2000/svg" width="1em" height="1em" viewBox="0 0 21 20" fill="none">
    <path d="M3.86831 19.0837H17.5893C19.6886 19.0837 20.7333 18.0391 20.7333 15.9698V3.70536C20.7333 1.63617 19.6886 0.591522 17.5893 0.591522H3.86831C1.76898 0.591522 0.714294 1.62612 0.714294 3.70536V15.9698C0.714294 18.0491 1.76898 19.0837 3.86831 19.0837ZM3.71765 17.4665C2.82367 17.4665 2.33148 16.9945 2.33148 16.0603V6.58817C2.33148 5.66407 2.82367 5.18193 3.71765 5.18193H17.7198C18.6138 5.18193 19.1161 5.66407 19.1161 6.58817V16.0603C19.1161 16.9945 18.6138 17.4665 17.7198 17.4665H3.71765ZM8.7701 8.78795H9.36269C9.71429 8.78795 9.82478 8.6875 9.82478 8.33594V7.74331C9.82478 7.39174 9.71429 7.28125 9.36269 7.28125H8.7701C8.41853 7.28125 8.298 7.39174 8.298 7.74331V8.33594C8.298 8.6875 8.41853 8.78795 8.7701 8.78795ZM12.105 8.78795H12.6976C13.0491 8.78795 13.1696 8.6875 13.1696 8.33594V7.74331C13.1696 7.39174 13.0491 7.28125 12.6976 7.28125H12.105C11.7534 7.28125 11.6328 7.39174 11.6328 7.74331V8.33594C11.6328 8.6875 11.7534 8.78795 12.105 8.78795ZM15.4398 8.78795H16.0324C16.3839 8.78795 16.5045 8.6875 16.5045 8.33594V7.74331C16.5045 7.39174 16.3839 7.28125 16.0324 7.28125H15.4398C15.0882 7.28125 14.9777 7.39174 14.9777 7.74331V8.33594C14.9777 8.6875 15.0882 8.78795 15.4398 8.78795ZM5.43527 12.0726H6.01787C6.37948 12.0726 6.48996 11.9721 6.48996 11.6205V11.0279C6.48996 10.6764 6.37948 10.5759 6.01787 10.5759H5.43527C5.07367 10.5759 4.96318 10.6764 4.96318 11.0279V11.6205C4.96318 11.9721 5.07367 12.0726 5.43527 12.0726ZM8.7701 12.0726H9.36269C9.71429 12.0726 9.82478 11.9721 9.82478 11.6205V11.0279C9.82478 10.6764 9.71429 10.5759 9.36269 10.5759H8.7701C8.41853 10.5759 8.298 10.6764 8.298 11.0279V11.6205C8.298 11.9721 8.41853 12.0726 8.7701 12.0726ZM12.105 12.0726H12.6976C13.0491 12.0726 13.1696 11.9721 13.1696 11.6205V11.0279C13.1696 10.6764 13.0491 10.5759 12.6976 10.5759H12.105C11.7534 10.5759 11.6328 10.6764 11.6328 11.0279V11.6205C11.6328 11.9721 11.7534 12.0726 12.105 12.0726ZM15.4398 12.0726H16.0324C16.3839 12.0726 16.5045 11.9721 16.5045 11.6205V11.0279C16.5045 10.6764 16.3839 10.5759 16.0324 10.5759H15.4398C15.0882 10.5759 14.9777 10.6764 14.9777 11.0279V11.6205C14.9777 11.9721 15.0882 12.0726 15.4398 12.0726ZM5.43527 15.3672H6.01787C6.37948 15.3672 6.48996 15.2567 6.48996 14.9052V14.3125C6.48996 13.9609 6.37948 13.8605 6.01787 13.8605H5.43527C5.07367 13.8605 4.96318 13.9609 4.96318 14.3125V14.9052C4.96318 15.2567 5.07367 15.3672 5.43527 15.3672ZM8.7701 15.3672H9.36269C9.71429 15.3672 9.82478 15.2567 9.82478 14.9052V14.3125C9.82478 13.9609 9.71429 13.8605 9.36269 13.8605H8.7701C8.41853 13.8605 8.298 13.9609 8.298 14.3125V14.9052C8.298 15.2567 8.41853 15.3672 8.7701 15.3672ZM12.105 15.3672H12.6976C13.0491 15.3672 13.1696 15.2567 13.1696 14.9052V14.3125C13.1696 13.9609 13.0491 13.8605 12.6976 13.8605H12.105C11.7534 13.8605 11.6328 13.9609 11.6328 14.3125V14.9052C11.6328 15.2567 11.7534 15.3672 12.105 15.3672Z" fill="currentColor"/>
</svg>