<svg width="1em" height="1em" viewBox="0 0 24 24" fill="none" xmlns="http://www.w3.org/2000/svg">
<path d="M1.55634 22.0634H3.31691C4.30283 22.0634 4.90142 21.4295 4.90142 20.6408C4.90142 19.8662 4.47888 19.5 3.66197 19.4296C3.27466 19.3944 3.27466 18.9085 3.61972 18.8732C5.80987 18.5915 7.08452 17.3803 7.34505 15.3732C8.67603 16.3451 11.0634 16.507 13.2324 16.1831C13.2042 17.4648 13.0071 19.3944 13.0071 20.3239C13.0071 21.3732 13.676 22.0634 14.6972 22.0634H16.2113C17.1972 22.0634 17.7817 21.4295 17.7817 20.6831C17.7817 19.9648 17.4578 19.6057 16.4296 19.4296C16.2394 19.3944 16.1338 19.2535 16.1831 19.0493C16.3451 18.1408 16.9226 16.1197 17.2184 15.2746C17.824 13.5211 18.6761 12.2676 18.6761 10.4366C18.6761 9.49292 18.9437 8.99294 19.1479 8.73237C19.8662 9.16899 20.4014 9.35915 21.0634 9.35915C22.5564 9.35915 24 7.80983 24 6.23941C24 5.40138 23.2747 5.33095 22.3521 4.76757C21.5634 4.26053 21.1549 3.64081 20.5423 3.2887C20.3099 4.39433 19.4578 6.21828 17.9437 6.21828C17 6.21828 16.317 5.49997 15.8873 4.70419C15.162 5.7042 14.9085 6.57744 13.0211 7.26758L5.23944 7.8873C5.02113 7.90138 4.84508 7.96477 4.73945 8.01405L4.03521 7.17603C3.00001 5.93659 1.33803 7.38026 2.38028 8.59153L3.14789 9.48593C2.78169 10.3803 2.59155 11.3943 2.59155 12.6549C2.59155 14.6408 2.44366 15.1831 1.79577 15.7042C0.485916 16.7394 0 17.4648 0 18.6901V20.4507C0 21.4085 0.640846 22.0634 1.55634 22.0634ZM21.0071 6.34504C20.6902 6.34504 20.4508 6.1056 20.4508 5.79574C20.4508 5.47884 20.6902 5.24645 21.0071 5.24645C21.3099 5.24645 21.5493 5.47884 21.5493 5.79574C21.5493 6.1056 21.3099 6.34504 21.0071 6.34504ZM17.9437 5.4718C19.1901 5.4718 19.8521 3.31687 19.8521 2.7394C19.8521 2.21123 19.5775 1.93658 19.0493 1.93658H16.838C16.317 1.93658 16.0352 2.21123 16.0352 2.7394C16.0352 3.31687 16.6901 5.4718 17.9437 5.4718Z" fill="currentColor"/>
</svg>
