<svg width="1em" height="1em" viewBox="0 0 24 24" fill="none" xmlns="http://www.w3.org/2000/svg">
<path d="M8.01267 6.67562H15.9953C16.3146 6.67562 16.5541 6.42816 16.5541 6.10886C16.5541 5.80552 16.3146 5.56604 15.9953 5.56604H8.01267C7.68539 5.56604 7.44591 5.80552 7.44591 6.10886C7.44591 6.42816 7.68539 6.67562 8.01267 6.67562ZM8.01267 10.2758H15.9953C16.3146 10.2758 16.5541 10.0283 16.5541 9.71697C16.5541 9.41362 16.3146 9.1742 15.9953 9.1742H8.01267C7.68539 9.1742 7.44591 9.41362 7.44591 9.71697C7.44591 10.0283 7.68539 10.2758 8.01267 10.2758ZM8.01267 13.8839H11.8363C12.1556 13.8839 12.3951 13.6444 12.3951 13.3411C12.3951 13.0218 12.1556 12.7744 11.8363 12.7744H8.01267C7.68539 12.7744 7.44591 13.0218 7.44591 13.3411C7.44591 13.6444 7.68539 13.8839 8.01267 13.8839ZM3.43066 19.8948C3.43066 21.9543 4.46042 23 6.50397 23H17.496C19.5395 23 20.5693 21.9543 20.5693 19.8948V4.10523C20.5693 2.04572 19.5395 1 17.496 1H6.50397C4.46042 1 3.43066 2.04572 3.43066 4.10523V19.8948ZM4.84359 19.8628V4.13716C4.84359 3.0196 5.43429 2.41292 6.58379 2.41292H17.4162C18.5656 2.41292 19.1564 3.0196 19.1564 4.13716V19.8628C19.1564 20.9804 18.5656 21.5871 17.4162 21.5871H6.58379C5.43429 21.5871 4.84359 20.9804 4.84359 19.8628Z" fill="currentColor"/>
</svg>
