<svg width="1em" height="1em" viewBox="0 0 24 24" fill="none" xmlns="http://www.w3.org/2000/svg">
<path fill-rule="evenodd" clip-rule="evenodd" d="M18.9947 16.7469L16.1267 13.8806C16.3923 13.3068 16.5404 12.6705 16.5404 12.004C16.5404 9.47214 14.5116 7.48394 12.0041 7.48394C11.3304 7.48394 10.6935 7.6247 10.1215 7.87899L8.02775 5.78651C9.24256 5.36534 10.5781 5.10622 12.0041 5.10622C18.4961 5.10622 23 10.3567 23 12.004C23 12.9491 21.5058 15.0971 18.9947 16.7469ZM5.04481 7.25854C2.524 8.90692 1 11.0543 1 12.004C1 13.6433 5.58503 18.9019 12.0041 18.9019C13.4504 18.9019 14.7976 18.6415 16.018 18.2186L13.9029 16.106C13.3254 16.374 12.6822 16.5242 12.0041 16.5242C9.47218 16.5242 7.45961 14.471 7.45961 12.004C7.45961 11.315 7.60864 10.6663 7.87662 10.087L5.04481 7.25854ZM9.40379 11.6123C9.3847 11.74 9.37481 11.8708 9.37481 12.004C9.37481 13.4567 10.5515 14.6333 12.0041 14.6333C12.1383 14.6333 12.2702 14.6233 12.3989 14.6039L9.40379 11.6123ZM14.602 12.3568C14.6173 12.2414 14.6253 12.1237 14.6253 12.004C14.6253 10.5515 13.4567 9.38288 12.0041 9.38288C11.8839 9.38288 11.7656 9.39087 11.6498 9.40636L14.602 12.3568Z" fill="currentColor"/>
<path d="M18.1797 19.0317C18.4231 19.2833 18.8045 19.2995 19.0642 19.0317C19.3239 18.764 19.3077 18.3987 19.0642 18.1472L5.48765 4.58686C5.25231 4.3434 4.84656 4.3434 4.59499 4.58686C4.35965 4.8222 4.35965 5.23607 4.59499 5.4714L18.1797 19.0317Z" fill="currentColor"/>
</svg>
