<svg xmlns="http://www.w3.org/2000/svg" width="1em" height="1em" viewBox="0 0 17 21" fill="none">
    <path fill-rule="evenodd" clip-rule="evenodd" d="M9.30804 20.8036C9.0569 20.9341 8.80579 20.9944 8.64508 20.9944C8.48437 20.9944 8.24329 20.9442 7.98213 20.8036C2.36718 17.6395 0.428558 16.3136 0.428558 12.7076V5.13391C0.428558 4.09931 0.880568 3.75779 1.71427 3.41627C2.88949 2.94417 6.6462 1.54797 7.82142 1.16628C8.08258 1.08592 8.36382 1.02565 8.64508 1.02565C8.92632 1.02565 9.20759 1.07587 9.47879 1.16628C10.644 1.56806 14.4007 2.93413 15.5759 3.41627C16.4196 3.76784 16.8616 4.09931 16.8616 5.13391V12.7076C16.8616 16.3136 15.0234 17.8102 9.30804 20.8036ZM7.83149 11.683C7.84154 12.2154 8.12279 12.5067 8.64511 12.5067C9.14736 12.5067 9.43862 12.2254 9.44865 11.683L9.5893 6.21874C9.59933 5.68637 9.18756 5.29463 8.63507 5.29463C8.07256 5.29463 7.68083 5.67633 7.69087 6.2087L7.83149 11.683ZM7.52011 14.7969C7.52011 15.3895 8.04243 15.8716 8.64511 15.8716C9.24782 15.8716 9.77008 15.3995 9.77008 14.7969C9.77008 14.1942 9.25785 13.7121 8.64511 13.7121C8.03238 13.7121 7.52011 14.2042 7.52011 14.7969Z" fill="currentColor"/>
</svg>