<svg width="1em" height="1em" viewBox="0 0 24 24" fill="none" xmlns="http://www.w3.org/2000/svg">
<path d="M20.7953 14.4C22.0107 14.4 23 13.4201 23 12.2047C23 10.9799 22.0107 10 20.7953 10C19.5799 10 18.5906 10.9799 18.5906 12.2047C18.5906 13.4201 19.5799 14.4 20.7953 14.4Z" fill="currentColor"/>
<path d="M11.9953 14.4C13.2201 14.4 14.2 13.4201 14.2 12.2047C14.2 10.9799 13.2201 10 11.9953 10C10.7799 10 9.80002 10.9799 9.80002 12.2047C9.80002 13.4201 10.7799 14.4 11.9953 14.4Z" fill="currentColor"/>
<path d="M3.20472 14.4C4.42013 14.4 5.40943 13.4201 5.40943 12.2047C5.40943 10.9799 4.42013 10 3.20472 10C1.97987 10 1 10.9799 1 12.2047C1 13.4201 1.97987 14.4 3.20472 14.4Z" fill="currentColor"/>
</svg>
