<svg 
  width="1em" 
  height="1em" 
  viewBox="0 0 2 14" 
  fill="currentColor" 
>
  <path 
    d="M1 0C0.734784 0 0.48043 0.105357 0.292893 0.292893C0.105357 0.48043 0 0.734784 0 1V9C0 9.26522 0.105357 9.51957 0.292893 9.70711C0.48043 9.89464 0.734784 10 1 10C1.26522 10 1.51957 9.89464 1.70711 9.70711C1.89464 9.51957 2 9.26522 2 9V1C2 0.734784 1.89464 0.48043 1.70711 0.292893C1.51957 0.105357 1.26522 0 1 0Z" 
    fill="currentColor"
    />
  <path 
  d="M2 13C2 12.4477 1.55228 12 1 12C0.447715 12 0 12.4477 0 13C0 13.5523 0.447715 14 1 14C1.55228 14 2 13.5523 2 13Z" 
  fill="currentColor"
  />
</svg>
