<svg width="1em" height="1em" viewBox="0 0 24 24" fill="none" xmlns="http://www.w3.org/2000/svg">
<path d="M12.0041 18.9019C18.5042 18.9019 23 13.6433 23 12.004C23 10.3567 18.4961 5.1062 12.0041 5.1062C5.58503 5.1062 1 10.3567 1 12.004C1 13.6433 5.58503 18.9019 12.0041 18.9019ZM12.0041 16.5241C9.47218 16.5241 7.45961 14.4711 7.45961 12.004C7.45961 9.47213 9.47218 7.48392 12.0041 7.48392C14.5116 7.48392 16.5404 9.47213 16.5404 12.004C16.5404 14.4711 14.5116 16.5241 12.0041 16.5241ZM12.0041 13.6351C12.9048 13.6351 13.6514 12.8967 13.6514 12.004C13.6514 11.1033 12.9048 10.3648 12.0041 10.3648C11.0952 10.3648 10.3486 11.1033 10.3486 12.004C10.3486 12.8967 11.0952 13.6351 12.0041 13.6351Z" fill="currentColor"/>
</svg>
