<svg width="1em" height="1em" viewBox="0 0 16 16" fill="none" xmlns="http://www.w3.org/2000/svg">
<path d="M8.01265 8.50146C8.285 8.50146 8.53742 8.37525 8.82969 8.08297L14.6086 2.36377C14.3629 2.12464 13.9045 2.01172 13.2469 2.01172H2.55249C1.99451 2.01172 1.60261 2.118 1.38341 2.3372L7.19561 8.08297C7.48121 8.3686 7.73363 8.50146 8.01265 8.50146ZM0.832079 12.3873L5.52834 7.74421L0.818793 3.10109C0.719156 3.28708 0.666016 3.60592 0.666016 4.06426V11.3976C0.666016 11.8692 0.719156 12.2013 0.832079 12.3873ZM2.75177 13.4568H13.4462C14.0042 13.4568 14.3895 13.3505 14.6086 13.138L9.81938 8.39518L9.38099 8.84023C8.92268 9.27861 8.49089 9.47791 8.01265 9.47791C7.52774 9.47791 7.09596 9.27861 6.64427 8.84023L6.19923 8.39518L1.42326 13.1313C1.67568 13.3505 2.11409 13.4568 2.75177 13.4568ZM15.1732 12.3807C15.2796 12.1881 15.3327 11.8626 15.3327 11.3976V4.06426C15.3327 3.61921 15.2796 3.30036 15.1866 3.12102L10.4903 7.74421L15.1732 12.3807Z" fill="currentColor"/>
</svg>
