<svg xmlns="http://www.w3.org/2000/svg" width="1em" height="1em" viewBox="0 0 24 18" fill="none">
  <path d="M5.22458 3.39972C6.16893 3.39972 6.92826 2.64803 6.92826 1.70369C6.92826 0.759336 6.16893 0 5.22458 0C4.28023 0 3.52227 0.759336 3.52227 1.70369C3.52227 2.64803 4.28023 3.39972 5.22458 3.39972ZM2.55726 17.3342C2.93066 17.3342 3.19065 17.1256 3.32624 16.6347C3.58915 15.684 4.36746 12.4449 4.63036 11.6652C4.8091 11.1115 4.92464 10.9111 5.22458 10.9111C5.5259 10.9111 5.64143 11.1115 5.82018 11.6652C6.06242 12.3815 6.88618 15.7721 7.1243 16.6347C7.25989 17.1256 7.51988 17.3342 7.8933 17.3342C8.40501 17.3342 8.71857 16.8697 8.57668 16.3657C8.44192 15.8203 7.39577 11.4342 7.23923 10.5066C7.10915 9.68144 7.07854 8.02963 7.07716 7.19594C7.07716 7.07903 7.208 7.03587 7.28039 7.13611L8.09544 8.28035C8.16933 7.76262 8.63717 7.24813 9.2943 7.23283L8.13446 5.53664C7.5084 4.61983 6.72657 4.17558 5.22458 4.17558C3.72397 4.17558 2.94213 4.61218 2.31608 5.53664L0.304042 8.5042C0.228904 8.61758 0.141983 8.73378 0.0821472 8.84989C-0.0895525 9.15444 0.00150074 9.59596 0.415906 9.81354C0.726711 9.98873 1.11051 9.94149 1.3448 9.67031C1.55276 9.42546 2.58389 7.96922 3.17015 7.13611C3.23626 7.04215 3.37337 7.07903 3.37337 7.20222C3.37199 8.0359 3.33511 9.68144 3.20504 10.5066C3.04788 11.4727 1.92877 16.1591 1.87383 16.3657C1.73197 16.8697 2.04553 17.3342 2.55726 17.3342ZM11.6615 8.66906C12.3597 8.66906 12.9347 8.10022 12.9347 7.40208C12.9347 6.70534 12.3597 6.13514 11.6615 6.13514C10.9633 6.13514 10.3946 6.70534 10.3946 7.40208C10.3946 8.10022 10.9633 8.66906 11.6615 8.66906ZM10.005 17.3342C10.3095 17.3342 10.5591 17.1576 10.6613 16.7585C10.8261 16.1737 11.3039 14.1568 11.4624 13.6651C11.5571 13.3831 11.5829 13.3574 11.6629 13.3574C11.7429 13.3574 11.7624 13.3831 11.8584 13.6651C12.017 14.1568 12.4934 16.1737 12.6644 16.7585C12.7604 17.1576 13.0162 17.3342 13.3208 17.3342C13.7762 17.3342 14.0452 16.9108 13.9312 16.4909C13.8957 16.3732 13.2108 13.4615 13.1037 12.8522C13.0258 12.3669 13.0028 11.4255 13.0028 11.0333C13.0028 10.8087 13.0766 10.6605 13.1976 10.5117C13.7637 9.81064 14.482 8.99226 14.5703 8.85937C14.7581 8.58193 14.6919 8.25035 14.4757 8.02783C14.222 7.75038 13.8048 7.75527 13.59 7.97917L12.7527 8.8741C12.4106 9.24055 12.1275 9.40752 11.6629 9.40752C11.1997 9.40752 10.9166 9.24055 10.573 8.8741L9.73715 7.97917C9.52231 7.75527 9.09748 7.75038 8.85138 8.02783C8.62886 8.25035 8.56767 8.58193 8.75054 8.85937C8.83884 8.99226 9.56344 9.81064 10.1281 10.5117C10.2506 10.6605 10.3166 10.8087 10.3166 11.0333C10.3166 11.4255 10.3014 12.3669 10.2221 12.8522C10.115 13.4615 9.43001 16.3732 9.38958 16.4909C9.28184 16.9108 9.5509 17.3342 10.005 17.3342ZM18.1012 3.39972C19.0456 3.39972 19.7986 2.64803 19.7986 1.70369C19.7986 0.759336 19.0456 0 18.1012 0C17.1568 0 16.3975 0.759336 16.3975 1.70369C16.3975 2.64803 17.1568 3.39972 18.1012 3.39972ZM15.4339 17.3342C15.8073 17.3342 16.0596 17.1256 16.2015 16.6347C16.4346 15.7721 17.2647 12.3815 17.5056 11.6652C17.6794 11.1115 17.7998 10.9111 18.1012 10.9111C18.3948 10.9111 18.5167 11.1115 18.6967 11.6652C18.952 12.4449 19.738 15.684 20.0009 16.6347C20.1364 17.1256 20.3951 17.3342 20.7685 17.3342C21.2816 17.3342 21.5952 16.8697 21.4519 16.3657C21.3921 16.1591 20.2716 11.4727 20.1144 10.5066C19.9844 9.68144 19.9551 8.0359 19.9524 7.20222C19.9524 7.07903 20.0908 7.04215 20.1493 7.13611C20.7419 7.96922 21.7667 9.42546 21.9746 9.67031C22.2153 9.94149 22.5928 9.98873 22.9099 9.81354C23.318 9.59596 23.4153 9.15444 23.245 8.84989C23.1775 8.73378 23.0982 8.61758 23.0168 8.5042L21.0097 5.53664C20.3774 4.61218 19.6018 4.17558 18.1012 4.17558C16.5992 4.17558 15.8187 4.61983 15.1927 5.53664L14.0252 7.23283C14.69 7.24813 15.1515 7.76262 15.2303 8.28035L16.0467 7.13611C16.1177 7.03587 16.25 7.07903 16.25 7.19594C16.2472 8.02963 16.2117 9.68144 16.0817 10.5066C15.9314 11.4342 14.8852 15.8203 14.7504 16.3657C14.6009 16.8697 14.9207 17.3342 15.4339 17.3342Z" fill="currentColor" />
</svg>
