<svg xmlns="http://www.w3.org/2000/svg" width="1em" height="1em" viewBox="0 0 14 23" fill="none">
  <path d="M1.71101 21.4029L4.68737 17.8664C4.97936 17.5158 5.03171 17.4307 5.14889 17.0658L5.3321 16.4984L3.69655 14.4467L3.22859 16.6045L0.300071 20.0754C-0.660083 21.2281 0.92214 22.3533 1.71101 21.4029ZM8.8946 21.1012C9.52468 22.3746 11.4042 21.5875 10.7217 20.2031L8.70671 16.1225C8.5487 15.8162 8.34362 15.4824 8.14928 15.2047L6.88425 13.4105L6.96686 13.1609C7.29714 12.1242 7.43464 11.51 7.511 10.4935L7.70983 7.63613C7.80924 6.25429 6.98659 5.21757 5.58151 5.21757C4.53151 5.21757 3.81081 5.75097 2.85124 6.69101L1.33777 8.18144C0.842454 8.66699 0.677415 9.06992 0.626829 9.72577L0.447533 12.0603C0.395189 12.6709 0.738547 13.1021 1.30027 13.1217C1.87351 13.1625 2.22487 12.8191 2.27546 12.173L2.50007 9.62616L3.19011 9.00273C3.4362 8.78241 3.75769 8.92636 3.74441 9.18827L3.58991 11.3076C3.50202 12.3986 3.75066 12.9355 4.51745 13.8914L6.52272 16.4017C6.71628 16.6539 6.73933 16.748 6.82897 16.9113L8.8946 21.1012ZM12.3616 9.07363H10.0952L8.71608 7.54531L8.54127 10.0096L9.02682 10.4934C9.34987 10.8164 9.63561 10.9193 10.2374 10.9193H12.3616C12.9774 10.9193 13.3856 10.568 13.3856 9.99648C13.3856 9.44277 12.9659 9.07363 12.3616 9.07363ZM6.70339 4.3791C7.90866 4.3791 8.88405 3.39394 8.88405 2.18867C8.88405 0.975389 7.90866 0 6.70339 0C5.49011 0 4.51296 0.975389 4.51296 2.18867C4.51296 3.39394 5.49011 4.3791 6.70339 4.3791Z" fill="currentColor"/>
</svg>