<svg width="1em" height="1em" viewBox="0 0 25 25" fill="none" xmlns="http://www.w3.org/2000/svg">
<path fill-rule="evenodd" clip-rule="evenodd" d="M7.3802 5.20858C7.3802 6.1667 6.61371 6.92522 5.65558 6.92522C4.69746 6.92522 3.93096 6.1667 3.93096 5.20858C3.93096 4.25046 4.69746 3.48396 5.65558 3.48396C6.61371 3.48396 7.3802 4.25046 7.3802 5.20858ZM6.29433 15.4525C6.11069 14.8776 5.98294 14.6541 5.65558 14.6541C5.32822 14.6541 5.20047 14.8776 5.01683 15.4525C4.84557 15.9613 4.4614 17.4805 4.13296 18.7794C3.94078 19.5394 3.76768 20.224 3.66748 20.5865C3.53175 21.0815 3.27625 21.289 2.90098 21.289C2.38998 21.289 2.07859 20.826 2.22231 20.323C2.2782 20.1074 3.43593 15.2688 3.59562 14.2708C3.73136 13.3925 3.77128 11.628 3.77128 10.7896C3.77128 10.6539 3.61958 10.614 3.54772 10.7178C2.94889 11.5641 1.84705 13.1211 1.63147 13.3766C1.39992 13.648 1.01668 13.6959 0.705286 13.5203C0.2901 13.3047 0.202272 12.8656 0.369943 12.5622C0.417849 12.4723 0.479229 12.3825 0.540609 12.2927C0.561069 12.2627 0.581529 12.2328 0.601489 12.2028L2.66944 9.16083C3.32415 8.19473 4.13855 7.76358 5.65558 7.76358C7.17261 7.76358 7.98702 8.19473 8.64172 9.16083L9.86985 10.9674C9.54692 10.9741 9.22202 11.1038 8.98503 11.3645C8.82215 11.5425 8.7094 11.7535 8.65541 11.9756C8.55784 11.838 8.45918 11.6986 8.36219 11.5615C8.14365 11.2528 7.93358 10.9559 7.76345 10.7178C7.68361 10.606 7.53989 10.6539 7.53989 10.7817C7.53989 11.6201 7.57183 13.3925 7.70756 14.2708C7.87524 15.2688 9.03294 20.1074 9.08886 20.323C9.23259 20.826 8.92117 21.289 8.41018 21.289C8.03492 21.289 7.77942 21.0815 7.64368 20.5865C7.54348 20.224 7.37038 19.5394 7.17821 18.7794C6.84976 17.4805 6.46559 15.9613 6.29433 15.4525ZM10.596 12.0357L10.7097 12.2028C10.7295 12.2326 10.7499 12.2624 10.7703 12.2922C10.8317 12.3822 10.8932 12.4722 10.9412 12.5622C11.1089 12.8656 11.0131 13.3047 10.6059 13.5203C10.4701 13.5969 10.3207 13.631 10.1755 13.6225C10.0606 13.4864 9.94925 13.3554 9.84715 13.2353L9.84705 13.2351C9.58269 12.9241 9.38013 12.6858 9.33635 12.6181C9.15272 12.3386 9.21657 12.0113 9.43217 11.7877C9.67966 11.5082 10.1028 11.5162 10.3184 11.7397L10.596 12.0357Z" fill="currentColor"/>
<path d="M13.5761 11.1649C13.5761 11.8675 12.9932 12.4424 12.2906 12.4424C11.5879 12.4424 11.0131 11.8675 11.0131 11.1649C11.0131 10.4623 11.5879 9.88741 12.2906 9.88741C12.9932 9.88741 13.5761 10.4623 13.5761 11.1649Z" fill="currentColor"/>
<path d="M10.5899 21.289C10.9013 21.289 11.1488 21.1134 11.2526 20.7142C11.4203 20.1154 11.9074 18.0554 12.067 17.5524C12.1788 17.225 12.2027 17.201 12.2906 17.201C12.3704 17.201 12.3944 17.225 12.5062 17.5524C12.6658 18.0554 13.1529 20.1154 13.3285 20.7142C13.4243 21.1134 13.6798 21.289 13.9832 21.289C14.4304 21.289 14.7018 20.8659 14.5901 20.4507C14.5502 20.315 13.8555 17.3528 13.7438 16.73C13.6639 16.235 13.6399 15.2369 13.6399 14.8377C13.6399 14.6062 13.7118 14.4545 13.8475 14.2947C14.4224 13.5762 15.149 12.7538 15.2368 12.6181C15.4284 12.3386 15.3565 12.0113 15.1409 11.7877C14.8935 11.5082 14.4783 11.5162 14.2627 11.7397L13.4164 12.642C13.0651 13.0172 12.7696 13.1929 12.2906 13.1929C11.8115 13.1929 11.516 13.0172 11.1648 12.642L10.3184 11.7397C10.1028 11.5162 9.67964 11.5082 9.43216 11.7877C9.21656 12.0113 9.1527 12.3386 9.33633 12.6181C9.42414 12.7538 10.1507 13.5762 10.7336 14.2947C10.8614 14.4545 10.9333 14.6062 10.9333 14.8377C10.9333 15.2369 10.9172 16.235 10.8374 16.73C10.7256 17.3528 10.023 20.315 9.98305 20.4507C9.8793 20.8659 10.1428 21.289 10.5899 21.289Z" fill="currentColor"/>
<path fill-rule="evenodd" clip-rule="evenodd" d="M20.6502 5.20858C20.6502 6.1667 19.8837 6.92522 18.9256 6.92522C17.9675 6.92522 17.201 6.1667 17.201 5.20858C17.201 4.25046 17.9675 3.48396 18.9256 3.48396C19.8837 3.48396 20.6502 4.25046 20.6502 5.20858ZM19.5644 15.4525C19.3807 14.8776 19.245 14.6541 18.9256 14.6541C18.5983 14.6541 18.4625 14.8776 18.2869 15.4525C18.1026 16.0001 17.6679 17.7184 17.3253 19.0725C17.1634 19.7126 17.0221 20.2713 16.9375 20.5865C16.7938 21.0815 16.5463 21.289 16.171 21.289C15.66 21.289 15.3407 20.826 15.4923 20.323C15.5483 20.1074 16.706 15.2688 16.8657 14.2708C17.0014 13.3925 17.0414 11.628 17.0414 10.7896C17.0414 10.6539 16.8896 10.614 16.8177 10.7178C16.6483 10.954 16.441 11.2457 16.2254 11.5489C16.125 11.6901 16.0229 11.8338 15.9219 11.9756C15.8684 11.754 15.7547 11.5432 15.5882 11.3645C15.3529 11.1057 15.0309 10.9759 14.7112 10.9676L15.9395 9.16083C16.5942 8.19473 17.4086 7.76358 18.9256 7.76358C20.4426 7.76358 21.249 8.19473 21.9118 9.16083L23.9717 12.2028C24.0595 12.3226 24.1394 12.4424 24.2113 12.5622C24.379 12.8656 24.2831 13.3047 23.8759 13.5203C23.5565 13.6959 23.1813 13.648 22.9418 13.3766C22.8037 13.2129 22.305 12.5117 21.8049 11.8084C21.5245 11.414 21.2435 11.019 21.0255 10.7178C20.9536 10.606 20.8099 10.6539 20.8099 10.7817C20.8099 11.6201 20.8419 13.3925 20.9776 14.2708C21.1373 15.2688 22.295 20.1074 22.3589 20.323C22.5026 20.826 22.1912 21.289 21.6802 21.289C21.305 21.289 21.0495 21.0815 20.9137 20.5865C20.8108 20.2141 20.6298 19.5018 20.4304 18.717C20.1039 17.4322 19.728 15.9531 19.5644 15.4525ZM14.4003 13.6226C14.5297 13.4683 14.6547 13.3206 14.7671 13.1879C15.0108 12.9001 15.1953 12.6823 15.2368 12.6181C15.4285 12.3386 15.3566 12.0113 15.141 11.7877C14.8935 11.5082 14.4783 11.5162 14.2627 11.7397L13.9851 12.0358L13.8715 12.2028C13.7837 12.3226 13.7038 12.4424 13.64 12.5622C13.4723 12.8656 13.5601 13.3047 13.9673 13.5203C14.1063 13.5967 14.2559 13.6308 14.4003 13.6226Z" fill="currentColor"/>
</svg>
