<svg xmlns="http://www.w3.org/2000/svg" width="1em" height="1em" viewBox="0 0 24 24" fill="none">
  <path d="M7 14.3943C7 14.9055 7.4002 15.3074 7.91133 15.3074C8.41445 15.3074 8.8164 14.9055 8.8164 14.3943V10.5889C8.8164 10.4201 8.95761 10.2869 9.12636 10.2869C9.29687 10.2869 9.43008 10.4201 9.43008 10.5889V22.1338C9.43008 22.6875 9.87734 23.1267 10.4311 23.1267C10.9812 23.1267 11.432 22.6857 11.432 22.1338V15.1045C11.432 14.9357 11.5732 14.7865 11.742 14.7865C11.9125 14.7865 12.06 14.9357 12.06 15.1045V22.1338C12.06 22.6857 12.5027 23.1267 13.0547 23.1267C13.6084 23.1267 14.0557 22.6875 14.0557 22.1338V10.5889C14.0557 10.4201 14.1871 10.2869 14.3576 10.2869C14.5264 10.2869 14.6676 10.4201 14.6676 10.5889V14.3943C14.6676 14.9055 15.0695 15.3074 15.5726 15.3074C16.0838 15.3074 16.484 14.9055 16.484 14.3943V10.1441C16.484 7.94023 14.8439 6.48281 12.4715 6.48281H11.0125C8.64004 6.48281 7 7.94023 7 10.1441V14.3943ZM11.742 5.3791C12.9553 5.3791 13.9324 4.40371 13.9324 3.19043C13.9324 1.97715 12.9553 1 11.742 1C10.5287 1 9.55156 1.97715 9.55156 3.19043C9.55156 4.40371 10.5287 5.3791 11.742 5.3791Z" fill="currentColor"/>
</svg>