<svg xmlns="http://www.w3.org/2000/svg" width="1em" height="1em" viewBox="0 0 20 23" fill="none">
  <path d="M6.66812 4.33906C7.87339 4.33906 8.84253 3.37968 8.84253 2.17441C8.84253 0.969139 7.87339 0 6.66812 0C5.46285 0 4.49547 0.969139 4.49547 2.17441C4.49547 3.37968 5.46285 4.33906 6.66812 4.33906ZM3.26383 22.1236C3.74039 22.1236 4.07222 21.8574 4.24527 21.2308C4.58082 20.0174 5.57418 15.8834 5.90972 14.8883C6.13785 14.1816 6.28531 13.9258 6.66812 13.9258C7.05269 13.9258 7.20015 14.1816 7.42828 14.8883C7.73746 15.8025 8.78882 20.1299 9.09273 21.2308C9.26578 21.8574 9.59761 22.1236 10.0742 22.1236C10.7273 22.1236 11.1275 21.5308 10.9464 20.8875C10.7744 20.1914 9.43921 14.5934 9.23941 13.4096C9.07339 12.3564 9.03433 10.2482 9.03257 9.18417C9.03257 9.03495 9.19956 8.97987 9.29195 9.1078L10.3322 10.5682C10.4265 9.91543 11.0138 9.25078 11.8623 9.23125L10.382 7.0664C9.56343 5.87675 8.58511 5.32929 6.66812 5.32929C4.75289 5.32929 3.75504 5.88652 2.95601 7.0664L0.388048 10.8539C0.292149 10.9986 0.181212 11.1469 0.104844 11.2951C-0.114296 11.6838 0.0019154 12.2473 0.53082 12.525C0.927499 12.7486 1.41734 12.6883 1.71637 12.3422C1.98179 12.0297 3.29781 10.1711 4.04605 9.1078C4.13043 8.98788 4.30543 9.03495 4.30543 9.19218C4.30367 10.2562 4.2566 12.3564 4.09059 13.4096C3.89 14.6426 2.46168 20.6238 2.39156 20.8875C2.21051 21.5308 2.6107 22.1236 3.26383 22.1236ZM14.9689 11.0643C15.8599 11.0643 16.5957 10.3383 16.5957 9.44726C16.5957 8.55801 15.8599 7.83027 14.9689 7.83027C14.0796 7.83027 13.3537 8.55801 13.3537 9.44726C13.3537 10.3383 14.0796 11.0643 14.9689 11.0643ZM12.7693 22.1236C13.158 22.1236 13.4765 21.8982 13.607 21.3889C13.8173 20.6424 14.4271 18.0683 14.6294 17.4408C14.7503 17.0808 14.7832 17.048 14.8853 17.048C14.9875 17.048 15.0123 17.0808 15.1349 17.4408C15.3373 18.0683 15.9453 20.6424 16.1636 21.3889C16.2861 21.8982 16.6126 22.1236 17.0013 22.1236C17.5826 22.1236 17.9259 21.5832 17.7804 21.0473C17.7351 20.8971 16.8609 17.1809 16.7242 16.4033C16.646 15.9363 16.6105 15.1512 16.6105 14.8146C16.6105 14.6672 16.7855 14.6201 16.8681 14.74L18.1146 16.5396C18.3906 16.9381 18.8414 16.9496 19.1341 16.7392C19.4189 16.5529 19.5599 16.1687 19.2982 15.7713L17.6736 13.2643C17.0853 12.3557 16.2046 12.0068 15.25 12.0068H14.8853C14.2363 12.0068 13.9408 11.8018 13.4943 11.326L12.4275 10.1838C12.1533 9.89804 11.6111 9.89179 11.297 10.2459C11.013 10.5299 10.9349 10.9531 11.1683 11.3072C11.281 11.4768 12.2058 12.5213 12.9265 13.416C13.0828 13.606 13.1671 13.7951 13.1671 14.0818C13.1671 14.5824 13.1476 15.7838 13.0464 16.4033C12.9097 17.1809 12.0355 20.8971 11.9839 21.0473C11.8464 21.5832 12.1898 22.1236 12.7693 22.1236Z" fill="currentColor"/>
</svg>