<svg width="1em" height="1em" viewBox="0 0 24 24" fill="none" xmlns="http://www.w3.org/2000/svg">
<path d="M11.0321 22.9895H12.9679C13.5151 22.9895 13.9149 22.6633 14.0306 22.1267L14.5777 19.812C14.988 19.6753 15.3878 19.5175 15.735 19.3491L17.7657 20.5906C18.2181 20.8747 18.7336 20.8326 19.1124 20.4539L20.4696 19.1072C20.8484 18.7284 20.901 18.1812 20.5959 17.7288L19.3544 15.7192C19.5332 15.3511 19.691 14.9723 19.8068 14.5935L22.1425 14.0358C22.6791 13.9201 22.9947 13.5203 22.9947 12.9732V11.0688C22.9947 10.5323 22.6791 10.1325 22.1425 10.0168L19.8278 9.45912C19.691 9.02774 19.5227 8.63845 19.3754 8.31229L20.617 6.27116C20.9115 5.81875 20.8799 5.30321 20.4906 4.92444L19.1124 3.5672C18.7231 3.20947 18.2602 3.14634 17.7972 3.40937L15.735 4.68245C15.3983 4.50358 15.0091 4.34577 14.5777 4.20899L14.0306 1.86275C13.9149 1.32616 13.5151 1 12.9679 1H11.0321C10.4849 1 10.0851 1.32616 9.95886 1.86275L9.41175 4.18795C9.00142 4.32472 8.60162 4.48255 8.24389 4.67192L6.20276 3.40937C5.73983 3.14634 5.26637 3.19895 4.87708 3.5672L3.50931 4.92444C3.12003 5.30321 3.07794 5.81875 3.38306 6.27116L4.61405 8.31229C4.47727 8.63845 4.30893 9.02774 4.17215 9.45912L1.85747 10.0168C1.32089 10.1325 1.00525 10.5323 1.00525 11.0688V12.9732C1.00525 13.5203 1.32089 13.9201 1.85747 14.0358L4.1932 14.5935C4.30893 14.9723 4.46675 15.3511 4.63509 15.7192L3.40411 17.7288C3.08846 18.1812 3.15159 18.7284 3.53036 19.1072L4.87708 20.4539C5.25585 20.8326 5.78191 20.8747 6.23433 20.5906L8.25441 19.3491C8.61214 19.5175 9.00142 19.6753 9.41175 19.812L9.95886 22.1267C10.0851 22.6633 10.4849 22.9895 11.0321 22.9895ZM12 15.7087C9.95887 15.7087 8.28598 14.0253 8.28598 11.9842C8.28598 9.95362 9.95887 8.28073 12 8.28073C14.0411 8.28073 15.714 9.95362 15.714 11.9842C15.714 14.0253 14.0411 15.7087 12 15.7087Z" fill="currentColor"/>
</svg>
