<svg width="1em" height="1em" viewBox="0 0 24 24" fill="none" xmlns="http://www.w3.org/2000/svg">
<path d="M11.9873 22.4936C14.9324 22.4936 17.4135 18.1139 17.4135 12.0211C17.4135 5.90295 14.9409 1.51477 11.9873 1.51477C9.04219 1.51477 6.56118 5.90295 6.56118 12.0211C6.56118 18.1139 9.05063 22.4936 11.9873 22.4936ZM11.9873 2.65401C14.1899 2.65401 16.1477 6.92405 16.1477 12.0211C16.1477 16.9831 14.1899 21.3544 11.9873 21.3544C9.79326 21.3544 7.827 16.9831 7.827 12.0211C7.827 6.92405 9.79326 2.65401 11.9873 2.65401ZM11.3713 1.67511V22.2742H12.6118V1.67511H11.3713ZM11.9873 16.2489C8.67088 16.2489 5.75105 17.1181 4.22363 18.4683L5.16878 19.2447C6.63713 18.1224 8.99156 17.4894 11.9873 17.4894C14.9915 17.4894 17.346 18.1224 18.8143 19.2447L19.7595 18.4683C18.2321 17.1181 15.3122 16.2489 11.9873 16.2489ZM22.0886 11.3713H1.89452V12.6118H22.0886V11.3713ZM11.9873 7.79325C15.3122 7.79325 18.2321 6.92405 19.7595 5.57384L18.8143 4.79746C17.346 5.91983 14.9915 6.55274 11.9873 6.55274C8.99156 6.55274 6.63713 5.91983 5.16878 4.79746L4.22363 5.57384C5.75105 6.92405 8.67088 7.79325 11.9873 7.79325ZM11.9873 22.9832C18.0042 22.9832 22.9832 18.0042 22.9832 11.9958C22.9832 5.9789 17.9958 1 11.9789 1C5.97046 1 1 5.9789 1 11.9958C1 18.0042 5.9789 22.9832 11.9873 22.9832ZM11.9873 21.7004C6.67933 21.7004 2.2827 17.3038 2.2827 11.9958C2.2827 6.67933 6.67088 2.2827 11.9789 2.2827C17.2953 2.2827 21.7004 6.67933 21.7004 11.9958C21.7004 17.3038 17.3038 21.7004 11.9873 21.7004Z" fill="currentColor"/>
</svg>
