<svg width="1em" height="1em" viewBox="0 0 24 24" fill="none" xmlns="http://www.w3.org/2000/svg">
<path d="M13.5492 23C18.2471 23 20.8243 20.199 20.8243 15.0359V13.0644C20.8243 11.1429 19.8847 9.97388 18.8347 9.97388C18.5914 9.97388 18.4665 10.0955 18.4665 10.3242V11.3288C18.4665 11.699 18.272 11.8927 18.0444 11.8927C17.8016 11.8927 17.6113 11.699 17.6113 11.3288V10.6482C17.6113 9.50621 16.8741 8.758 15.8904 8.758C15.4372 8.758 15.2382 8.94247 15.2382 9.32172V10.6656C15.2382 11.0358 15.048 11.2295 14.8204 11.2295C14.5775 11.2295 14.3831 11.0358 14.3831 10.6656V9.4212C14.3831 8.13899 13.6315 7.53104 12.6774 7.53104C12.2498 7.53104 12.0253 7.73 12.0253 8.09478V10.6656C12.0253 11.0358 11.8308 11.2295 11.6032 11.2295C11.3604 11.2295 11.1702 11.0358 11.1702 10.6656V2.47466C11.1702 1.6567 10.6491 1.14326 9.96376 1.14326C9.24373 1.14326 8.72421 1.6567 8.72421 2.47466V14.1796C8.72421 14.4617 8.54315 14.6061 8.35523 14.6061C8.18446 14.6061 8.03313 14.5093 7.91077 14.2272L6.29617 10.4773C6.04956 9.91011 5.67374 9.67721 5.20716 9.67721C4.44524 9.67721 4 10.1933 4 10.8226C4 11.0563 4.05184 11.2629 4.11054 11.45L5.91835 16.8985C7.31354 21.0718 10.1431 23 13.5492 23Z" fill="currentColor"/>
</svg>
