<svg width="1em" height="1em" viewBox="0 0 25 24" fill="none" xmlns="http://www.w3.org/2000/svg">
<path d="M3.0647 15.4619C3.0647 18.3526 4.87134 20.7744 7.29322 20.7744H9.01197C7.25415 19.4951 6.5315 17.5615 6.5315 15.3643C6.54126 12.9229 7.48853 11.1748 8.32837 10.1201H6.93189C4.75415 10.1201 3.0647 12.4639 3.0647 15.4619ZM7.87915 15.3838C7.87915 18.9483 10.6624 21.7022 15.2034 21.7022H16.5315C17.7913 21.7022 18.7288 21.6143 19.2561 21.4678C20.0178 21.2822 20.7502 20.8135 20.7502 19.8955C20.7502 19.5147 20.6526 19.2412 20.5354 19.0362C20.4573 18.9092 20.4768 18.8115 20.594 18.7627C21.1995 18.5088 21.6975 17.9424 21.6975 17.1709C21.6975 16.7315 21.5706 16.3408 21.3557 16.0772C21.2483 15.9307 21.2581 15.794 21.4436 15.6963C21.8733 15.4424 22.1858 14.8955 22.1858 14.2608C22.1858 13.8018 22.0393 13.3233 21.7854 13.0889C21.6292 12.9522 21.6585 12.8545 21.8147 12.708C22.1174 12.4541 22.3127 12.0147 22.3127 11.458C22.3127 10.5205 21.5803 9.74903 20.6135 9.74903H17.176C16.3069 9.74903 15.7307 9.29982 15.7307 8.57717C15.7307 7.27834 17.3616 4.87599 17.3616 3.15724C17.3616 2.24904 16.7756 1.72169 16.0139 1.72169C15.3108 1.72169 14.969 2.20021 14.5979 2.93263C13.1428 5.75489 11.2092 8.04005 9.73462 9.99317C8.48462 11.6533 7.87915 13.0889 7.87915 15.3838Z" fill="currentColor" />
</svg>
