<svg width="1em" height="1em" viewBox="0 0 24 24" fill="none" xmlns="http://www.w3.org/2000/svg">
<path d="M20.56 7.571L12.56 2.171C12.3946 2.05922 12.1996 1.99949 12 1.99949C11.8004 1.99949 11.6054 2.05922 11.44 2.171L3.44 7.571C3.30443 7.66263 3.19342 7.78614 3.11671 7.93067C3.03999 8.07521 2.99992 8.23636 3 8.4V21C3 21.2652 3.10536 21.5196 3.29289 21.7071C3.48043 21.8946 3.73478 22 4 22H20C20.2652 22 20.5196 21.8946 20.7071 21.7071C20.8946 21.5196 21 21.2652 21 21V8.4C21.0001 8.23636 20.96 8.07521 20.8833 7.93067C20.8066 7.78614 20.6956 7.66263 20.56 7.571ZM19 20H5V8.932L12 4.206L19 8.932V20ZM13 10V12H15V14H13V16H11V14H9V12H11V10H13Z" fill="currentColor"/>
</svg>
