<svg xmlns="http://www.w3.org/2000/svg" width="1em" height="1em" viewBox="0 0 23 22" fill="none">
  <path fill-rule="evenodd" clip-rule="evenodd" d="M22.5 11.0042C22.5 17.0172 17.5172 22 11.4957 22C5.48272 22 0.5 17.0172 0.5 11.0042C0.5 4.98272 5.47427 0 11.4873 0C17.5088 0 22.5 4.98272 22.5 11.0042ZM8.81015 16.519C8.81015 16.9159 9.11418 17.2114 9.51956 17.2114H14.0716C14.4769 17.2114 14.7894 16.9159 14.7894 16.519C14.7894 16.1389 14.4769 15.8349 14.0716 15.8349H12.5598V9.80497C12.5598 9.29829 12.2981 8.94355 11.8082 8.94355H9.67998C9.28304 8.94355 8.9706 9.24761 8.9706 9.62761C8.9706 10.0245 9.28304 10.3201 9.67998 10.3201H11.0312V15.8349H9.51956C9.11418 15.8349 8.81015 16.1389 8.81015 16.519ZM10.1023 5.65833C10.1023 6.39307 10.685 6.98424 11.4198 6.98424C12.1545 6.98424 12.7287 6.39307 12.7287 5.65833C12.7287 4.92359 12.1545 4.33243 11.4198 4.33243C10.685 4.33243 10.1023 4.92359 10.1023 5.65833Z" fill="currentColor"/>
</svg>