<svg width="1em" height="1em" viewBox="0 0 24 24" fill="none" xmlns="http://www.w3.org/2000/svg">
<path d="M9.8094 20.7953C9.8094 22.0107 10.7893 23 12.0047 23C13.2295 23 14.2094 22.0107 14.2094 20.7953C14.2094 19.5799 13.2295 18.5906 12.0047 18.5906C10.7893 18.5906 9.8094 19.5799 9.8094 20.7953Z" fill="currentColor"/>
<path d="M9.8094 11.9953C9.8094 13.2201 10.7893 14.2 12.0047 14.2C13.2295 14.2 14.2094 13.2201 14.2094 11.9953C14.2094 10.7799 13.2295 9.80001 12.0047 9.80001C10.7893 9.80001 9.8094 10.7799 9.8094 11.9953Z" fill="currentColor"/>
<path d="M9.8094 3.20472C9.8094 4.42013 10.7893 5.40943 12.0047 5.40943C13.2295 5.40943 14.2094 4.42013 14.2094 3.20472C14.2094 1.97987 13.2295 1 12.0047 1C10.7893 1 9.8094 1.97987 9.8094 3.20472Z" fill="currentColor"/>
</svg>
