<svg width="1em" height="1em" viewBox="0 0 24 24" fill="none" xmlns="http://www.w3.org/2000/svg">
<path d="M7.41967 18.519H21.1407C21.5927 18.519 21.9543 18.1674 21.9543 17.7154C21.9543 17.2533 21.5927 16.9018 21.1407 16.9018H7.41967C6.95761 16.9018 6.60605 17.2533 6.60605 17.7154C6.60605 18.1674 6.95761 18.519 7.41967 18.519Z" fill="currentColor"/>
<path d="M2.97992 18.981C3.68305 18.981 4.24554 18.4085 4.24554 17.7154C4.24554 17.0123 3.68305 16.4498 2.97992 16.4498C2.27679 16.4498 1.71429 17.0123 1.71429 17.7154C1.71429 18.4085 2.27679 18.981 2.97992 18.981Z" fill="currentColor"/>
<path d="M7.41967 12.452H21.1407C21.5927 12.452 21.9543 12.0904 21.9543 11.6384C21.9543 11.1864 21.5927 10.8348 21.1407 10.8348H7.41967C6.95761 10.8348 6.60605 11.1864 6.60605 11.6384C6.60605 12.0904 6.95761 12.452 7.41967 12.452Z" fill="currentColor"/>
<path d="M2.97992 12.904C3.68305 12.904 4.24554 12.3415 4.24554 11.6384C4.24554 10.9353 3.68305 10.3728 2.97992 10.3728C2.27679 10.3728 1.71429 10.9353 1.71429 11.6384C1.71429 12.3415 2.27679 12.904 2.97992 12.904Z" fill="currentColor"/>
<path d="M7.41967 6.375H21.1407C21.5927 6.375 21.9543 6.02343 21.9543 5.57143C21.9543 5.10938 21.5927 4.75781 21.1407 4.75781H7.41967C6.95761 4.75781 6.60605 5.10938 6.60605 5.57143C6.60605 6.02343 6.95761 6.375 7.41967 6.375Z" fill="currentColor"/>
<path d="M2.97992 6.827C3.68305 6.827 4.24554 6.2645 4.24554 5.57143C4.24554 4.8683 3.68305 4.3058 2.97992 4.3058C2.27679 4.3058 1.71429 4.8683 1.71429 5.57143C1.71429 6.2645 2.27679 6.827 2.97992 6.827Z" fill="currentColor"/>
</svg>
