<svg width="1em" height="1em" viewBox="0 0 24 24" fill="none" xmlns="http://www.w3.org/2000/svg">
<path d="M1.54361 18.258H21.8348C22.3105 18.258 22.6926 17.8707 22.6926 17.3911C22.6926 16.9192 22.3121 16.5379 21.8348 16.5379H1.54361C1.06788 16.5379 0.692627 16.9237 0.692627 17.3911C0.692627 17.8676 1.06939 18.258 1.54361 18.258Z" fill="currentColor"/>
<path d="M1.54361 12.517H21.8348C22.3105 12.517 22.6926 12.1297 22.6926 11.657C22.6926 11.1782 22.3121 10.7969 21.8348 10.7969H1.54361C1.06788 10.7969 0.692627 11.1828 0.692627 11.657C0.692627 12.1267 1.06939 12.517 1.54361 12.517Z" fill="currentColor"/>
<path d="M1.54361 6.77089H21.8348C22.3105 6.77089 22.6926 6.38356 22.6926 5.91773C22.6926 5.44048 22.3121 5.05768 21.8348 5.05768H1.54361C1.06788 5.05768 0.692627 5.4435 0.692627 5.91773C0.692627 6.38054 1.06939 6.77089 1.54361 6.77089Z" fill="currentColor"/>
</svg>
