<svg width="1em" height="1em" viewBox="0 0 24 24" fill="none" xmlns="http://www.w3.org/2000/svg">
<path d="M6.91095 22.4123H17.089C18.6136 22.4123 19.4739 21.5266 19.4739 19.8913V12.1405C19.4739 10.5137 18.6136 9.62796 17.089 9.62796H6.91095C5.37785 9.62796 4.52612 10.5137 4.52612 12.1405V19.8913C4.52612 21.5266 5.37785 22.4123 6.91095 22.4123ZM6.47657 10.352H7.9756V6.86838C7.9756 4.03213 9.77273 2.42238 11.9957 2.42238C14.2187 2.42238 16.0329 4.03213 16.0329 6.86838V10.352H17.5319V7.04723C17.5319 3.0782 14.9427 1 11.9957 1C9.05729 1 6.47657 3.0782 6.47657 7.04723V10.352Z" fill="currentColor"/>
</svg>
