<svg width="1em" height="1em" viewBox="0 0 24 24" fill="none" xmlns="http://www.w3.org/2000/svg">
<path d="M3.30453 22.0617H13.1399C14.6131 22.0617 15.4445 21.214 15.4445 19.6338V12.1441C15.4445 10.5638 14.6131 9.71606 13.1399 9.71606H3.30453C1.82305 9.71606 1 10.5638 1 12.1441V19.6338C1 21.214 1.82305 22.0617 3.30453 22.0617ZM12.3251 10.4157H13.7655V7.05763C13.7655 4.31688 15.5103 2.76133 17.6584 2.76133C19.8148 2.76133 21.5597 4.31688 21.5597 7.05763V9.40331C21.5597 9.93004 21.8807 10.2017 22.284 10.2017C22.6708 10.2017 23 9.95473 23 9.40331V7.22224C23 3.39507 20.5062 1.38684 17.6584 1.38684C14.819 1.38684 12.3251 3.39507 12.3251 7.22224V10.4157Z" fill="currentColor"/>
</svg>
