<svg width="1em" height="1em" viewBox="0 0 25 24" fill="none" xmlns="http://www.w3.org/2000/svg">
<path d="M9.59 19.7585H15.4192C15.7231 19.7585 15.9534 19.519 15.9534 19.2152C15.9534 18.9205 15.7231 18.681 15.4192 18.681H9.59C9.28611 18.681 9.04668 18.9205 9.04668 19.2152C9.04668 19.519 9.28611 19.7585 9.59 19.7585ZM12.5 22.429C13.9274 22.429 15.1153 21.7292 15.2074 20.6701H9.80181C9.86627 21.7292 11.0634 22.429 12.5 22.429Z" fill="currentColor"/>
<path d="M6.33926 6.67267C6.33926 10.2089 8.66911 11.0837 9.04667 17.226C9.06509 17.5575 9.26768 17.7693 9.61763 17.7693H15.3824C15.7415 17.7693 15.9349 17.5575 15.9625 17.226C16.3401 11.0837 18.6607 10.2089 18.6607 6.67267C18.6607 3.4956 15.9442 1 12.5 1C9.05588 1 6.33926 3.4956 6.33926 6.67267Z" fill="currentColor"/>
</svg>
