<svg width="1em" height="1em" viewBox="0 0 24 24" fill="none" xmlns="http://www.w3.org/2000/svg">
<path d="M11.6485 7.682L10.4448 8.89378C11.9475 8.94225 12.925 9.36237 13.6844 10.1298C15.5425 11.9798 15.5344 14.6376 13.6763 16.4876L10.2752 19.8887C8.40906 21.7468 5.76737 21.7629 3.91738 19.913C2.05124 18.0468 2.06739 15.397 3.92546 13.547L6.21977 11.2446C5.98549 10.6953 5.92087 10.0247 6.03397 9.41887L2.83485 12.618C0.403207 15.0497 0.370893 18.5072 2.84294 20.9793C5.31498 23.4513 8.78068 23.419 11.2042 20.9874L14.7669 17.4247C17.1985 14.985 17.2309 11.5274 14.7588 9.05535C14.0236 8.32828 13.1108 7.84357 11.6485 7.682ZM12.1333 16.1402L13.3289 14.9285C11.8343 14.88 10.8569 14.4599 10.0975 13.6924C8.23941 11.8425 8.24749 9.1846 10.1056 7.33461L13.5066 3.93354C15.3728 2.07547 18.0144 2.05931 19.8645 3.9093C21.7306 5.77545 21.7145 8.42522 19.8564 10.2752L17.5621 12.5776C17.7964 13.1269 17.861 13.7975 17.7479 14.4034L20.947 11.2042C23.3786 8.7726 23.4029 5.31498 20.9389 2.84294C18.4588 0.370893 15.0012 0.403207 12.5776 2.83485L9.01495 6.3975C6.58331 8.82914 6.551 12.2949 9.02304 14.7669C9.75821 15.494 10.663 15.9787 12.1333 16.1402Z" fill="currentColor"/>
</svg>
