<svg width="1em" height="1em" viewBox="0 0 16 16" fill="none" xmlns="http://www.w3.org/2000/svg">
<path d="M3.04921 15.0143C3.83784 15.0143 5.72209 14.1992 6.90768 13.4053C7.02415 13.3206 7.11938 13.2941 7.21466 13.2941C7.3629 13.31 7.50576 13.3206 7.654 13.3206C12.4016 13.3206 15.6673 10.5419 15.6673 7.15446C15.6673 3.74585 12.264 0.988281 8.00331 0.988281C3.73728 0.988281 0.333984 3.74585 0.333984 7.15446C0.333984 9.32977 1.67307 11.2511 3.82196 12.3838C3.93311 12.442 3.96487 12.5426 3.90665 12.6537C3.55732 13.2412 2.94335 13.9399 2.67871 14.2733C2.41407 14.612 2.5411 15.0143 3.04921 15.0143Z" fill="currentColor"/>
</svg>
