<svg width="1em" height="1em" viewBox="0 0 24 24" fill="none" xmlns="http://www.w3.org/2000/svg">
<path d="M1 9.8244C1 14.6813 4.95877 18.6401 9.8244 18.6401C11.7864 18.6401 13.5914 17.9948 15.0563 16.9049L20.8026 22.6599C21.0206 22.8866 21.3258 23 21.6397 23C22.3285 23 22.7907 22.4768 22.7907 21.8228C22.7907 21.5002 22.6773 21.2212 22.4681 21.0031L16.7479 15.2568C17.9338 13.7658 18.6488 11.8735 18.6488 9.8244C18.6488 4.95877 14.69 1 9.8244 1C4.95877 1 1 4.95877 1 9.8244ZM2.63059 9.8244C2.63059 5.85691 5.85691 2.63059 9.8244 2.63059C13.7919 2.63059 17.0095 5.85691 17.0095 9.8244C17.0095 13.7832 13.7919 17.0095 9.8244 17.0095C5.85691 17.0095 2.63059 13.7832 2.63059 9.8244ZM6.88585 10.5307H12.7455C13.138 10.5307 13.4606 10.2081 13.4606 9.8244C13.4606 9.43202 13.138 9.10938 12.7455 9.10938H6.88585C6.50217 9.10938 6.17954 9.43202 6.17954 9.8244C6.17954 10.2081 6.50217 10.5307 6.88585 10.5307Z" fill="currentColor"/>
</svg>
