<svg xmlns="http://www.w3.org/2000/svg" width="1em" height="1em" viewBox="0 0 22 18" fill="none">
  <path d="M21.0332 13.7896L15.4911 8.58351C15.0806 8.20104 14.5862 8.0051 14.0823 8.0051C13.5692 8.0051 13.1121 8.18233 12.6829 8.56488L8.46571 12.3342L6.73969 10.7761C6.34783 10.4215 5.91866 10.2443 5.48014 10.2443C5.0603 10.2443 4.65912 10.4122 4.27659 10.7667L0.721876 13.9763C0.777856 15.665 1.46827 16.5233 2.85844 16.5233H18.4954C20.1842 16.5233 21.0332 15.581 21.0332 13.7896ZM2.92375 17.1764H19.0645C21.0239 17.1764 21.9941 16.2155 21.9941 14.2935V2.89228C21.9941 0.970314 21.0239 0 19.0645 0H2.92375C0.973786 0 -0.00585938 0.970314 -0.00585938 2.89228V14.2935C-0.00585938 16.2155 0.973786 17.1764 2.92375 17.1764ZM2.9424 15.6743C2.00941 15.6743 1.49626 15.1798 1.49626 14.2095V2.97625C1.49626 2.00594 2.00941 1.50212 2.9424 1.50212H19.0459C19.9695 1.50212 20.492 2.00594 20.492 2.97625V14.2095C20.492 15.1798 19.9695 15.6743 19.0459 15.6743H2.9424Z" fill="currentColor"/>
  <path d="M6.94491 8.67683C8.14848 8.67683 9.13747 7.68789 9.13747 6.475C9.13747 5.27143 8.14848 4.27313 6.94491 4.27313C5.73202 4.27313 4.74304 5.27143 4.74304 6.475C4.74304 7.68789 5.73202 8.67683 6.94491 8.67683Z" fill="currentColor"/>
</svg>