<svg xmlns="http://www.w3.org/2000/svg" width="1em" height="1em" viewBox="0 0 21 22" fill="none">
    <path d="M12.7266 21.3965C13.4297 21.3965 13.9277 20.791 14.2891 19.8535L20.6855 3.14453C20.8613 2.69531 20.959 2.29492 20.959 1.96289C20.959 1.32812 20.5684 0.9375 19.9336 0.9375C19.6016 0.9375 19.2012 1.03516 18.752 1.21094L1.95508 7.64648C1.13477 7.95898 0.5 8.45703 0.5 9.16992C0.5 10.0684 1.18359 10.3711 2.12109 10.6543L7.39453 12.2559C8.01953 12.4512 8.37109 12.4316 8.79102 12.041L19.5039 2.03125C19.6309 1.91406 19.7773 1.93359 19.875 2.02148C19.9727 2.11914 19.9824 2.26562 19.8652 2.39258L9.89453 13.1445C9.51367 13.5449 9.48438 13.877 9.66992 14.5312L11.2227 19.6875C11.5156 20.6738 11.8184 21.3965 12.7266 21.3965Z" fill="currentColor"/>
</svg>