<svg width="1em" height="1em" viewBox="0 0 25 25" fill="none" xmlns="http://www.w3.org/2000/svg">
<path d="M17.7178 5.12661C18.6197 5.12661 19.3493 4.37637 19.3493 3.44901C19.3493 2.52741 18.6193 1.77669 17.7178 1.77669C16.8226 1.77669 16.0921 2.52693 16.0921 3.44901C16.0921 4.37637 16.8221 5.12661 17.7178 5.12661ZM18.9303 5.50197H16.5538L12.5036 1.33509C12.1873 0.992846 11.6617 0.976526 11.3285 1.30725C10.9959 1.63269 10.9796 2.17365 11.2969 2.51589L15.5295 6.87573V21.3247C15.5295 21.8488 15.9375 22.2679 16.4415 22.2679C16.9513 22.2679 17.3588 21.8488 17.3588 21.3247V13.4877H18.0989L18.1047 21.3252C18.1047 21.8493 18.5175 22.2684 19.0215 22.2684C19.5269 22.2684 19.934 21.8493 19.934 21.3252L19.9287 6.87669L24.1618 2.51685C24.4781 2.17461 24.4618 1.63365 24.1292 1.30821C23.797 0.977486 23.2709 0.993326 22.9541 1.33605L18.9303 5.50197ZM10.3196 11.8764C10.0729 11.6167 9.73446 11.4626 9.35958 11.4626H5.95206C5.5767 11.4626 5.23878 11.6172 4.99734 11.8764L1.57926 15.3924C1.26294 15.7346 1.27398 16.2751 1.60662 16.601C1.93878 16.9264 2.47062 16.9154 2.78166 16.5732L5.43174 13.8468V17.489H2.45958C1.91286 17.489 1.47174 17.9412 1.47174 18.5047C1.47174 18.797 1.57926 19.0567 1.7727 19.2444L5.12022 22.6879C5.41542 23.1352 5.99478 23.2788 6.45654 23.0023C6.94422 22.7157 7.10598 22.0812 6.82662 21.5848L4.9167 19.625L4.95414 19.6303H10.4372L8.52198 21.5896C8.24838 22.0864 8.40918 22.721 8.89158 23.0076C9.35334 23.284 9.93846 23.141 10.2337 22.6936L13.5812 19.2501C13.7737 19.062 13.8817 18.8023 13.8817 18.5104C13.8817 17.9469 13.4415 17.4952 12.8948 17.4952H9.92742V13.8909L12.5295 16.5784C12.8463 16.9212 13.3714 16.9322 13.7041 16.6063C14.0367 16.2808 14.0482 15.7399 13.7314 15.3981L10.3196 11.8764ZM7.6911 11.1036C8.58678 11.1036 9.3111 10.3538 9.3111 9.43125C9.3111 8.50389 8.58678 7.75893 7.6911 7.75893C6.79446 7.75893 6.06438 8.50389 6.06438 9.43125C6.06438 10.3538 6.79494 11.1036 7.6911 11.1036Z" fill="currentColor"/>
</svg>
