<svg xmlns="http://www.w3.org/2000/svg" width="1em" height="1em" viewBox="0 0 19 20" fill="none">
  <path d="M5.10267 14.2333C8.00558 17.1362 11.5312 19.3761 14.4141 19.3761C15.7098 19.3761 16.8448 18.9241 17.759 17.9196C18.2913 17.327 18.6228 16.6339 18.6228 15.9509C18.6228 15.4486 18.4319 14.9665 17.9598 14.625L14.8761 12.4353C14.4141 12.1138 14.0123 11.9531 13.6507 11.9531C13.1986 11.9531 12.7869 12.2143 12.3248 12.6663L11.6116 13.3695C11.5011 13.4799 11.3605 13.5302 11.2299 13.5302C11.0793 13.5302 10.9286 13.4698 10.8281 13.4196C10.2053 13.0881 9.14066 12.1741 8.14621 11.1897C7.16183 10.2053 6.24777 9.14066 5.92634 8.51786C5.87612 8.40737 5.81585 8.26675 5.81585 8.11608C5.81585 7.9855 5.85603 7.85491 5.96652 7.74443L6.67969 7.01117C7.12165 6.54911 7.39286 6.14733 7.39286 5.68527C7.39286 5.32367 7.23214 4.93193 6.89062 4.45982L4.73103 1.4163C4.38951 0.934155 3.88728 0.723221 3.34486 0.723221C2.68192 0.723221 1.99888 1.02456 1.40625 1.5971C0.431919 2.53125 0 3.68639 0 4.96206C0 7.84487 2.19978 11.3404 5.10267 14.2333Z" fill="currentColor"/>
</svg>