<svg width="1em" height="1em" viewBox="0 0 24 24" fill="none" xmlns="http://www.w3.org/2000/svg">
<path d="M1.0105 11.9948C1.0105 12.5482 1.48036 13.0076 2.03375 13.0076H10.982V21.9558C10.982 22.5092 11.4414 22.979 11.9948 22.979C12.5587 22.979 13.0181 22.5092 13.0181 21.9558V13.0076H21.9663C22.5197 13.0076 22.9895 12.5482 22.9895 11.9948C22.9895 11.4309 22.5197 10.9715 21.9663 10.9715H13.0181V2.02325C13.0181 1.46986 12.5587 1 11.9948 1C11.4414 1 10.982 1.46986 10.982 2.02325V10.9715H2.03375C1.48036 10.9715 1.0105 11.4309 1.0105 11.9948Z" fill="currentColor"/>
</svg>

