<svg width="1em" height="1em" viewBox="0 0 25 24" fill="none" xmlns="http://www.w3.org/2000/svg">
<path d="M6.57959 3.75C7.57415 3.75 8.52798 4.14509 9.23124 4.84835C9.9345 5.55161 10.3296 6.50544 10.3296 7.5V12H2.82959V7.5C2.82959 6.50544 3.22468 5.55161 3.92794 4.84835C4.6312 4.14509 5.58503 3.75 6.57959 3.75Z" fill="currentColor"/>
<path d="M6.57959 3C5.38612 3 4.24152 3.47411 3.39761 4.31802C2.5537 5.16193 2.07959 6.30653 2.07959 7.5V16.5C2.07959 17.6935 2.5537 18.8381 3.39761 19.682C4.24152 20.5259 5.38612 21 6.57959 21C7.77306 21 8.91766 20.5259 9.76157 19.682C10.6055 18.8381 11.0796 17.6935 11.0796 16.5V7.5C11.0796 6.30653 10.6055 5.16193 9.76157 4.31802C8.91766 3.47411 7.77306 3 6.57959 3ZM6.57959 4.5C7.37524 4.5 8.1383 4.81607 8.70091 5.37868C9.26352 5.94129 9.57959 6.70435 9.57959 7.5V11.25H3.57959V7.5C3.57959 6.70435 3.89566 5.94129 4.45827 5.37868C5.02088 4.81607 5.78394 4.5 6.57959 4.5ZM6.57959 19.5C5.78394 19.5 5.02088 19.1839 4.45827 18.6213C3.89566 18.0587 3.57959 17.2956 3.57959 16.5V12.75H9.57959V16.5C9.57959 17.2956 9.26352 18.0587 8.70091 18.6213C8.1383 19.1839 7.37524 19.5 6.57959 19.5Z" fill="currentColor"/>
<path d="M17.8296 6.75C16.7912 6.75 15.7762 7.05791 14.9128 7.63478C14.0495 8.21166 13.3766 9.0316 12.9792 9.99091C12.5819 10.9502 12.4779 12.0058 12.6805 13.0242C12.883 14.0426 13.3831 14.9781 14.1173 15.7123C14.8515 16.4465 15.787 16.9466 16.8054 17.1491C17.8238 17.3517 18.8794 17.2477 19.8387 16.8504C20.798 16.453 21.6179 15.7801 22.1948 14.9167C22.7717 14.0534 23.0796 13.0384 23.0796 12C23.0796 10.6076 22.5265 9.27226 21.5419 8.28769C20.5573 7.30312 19.222 6.75 17.8296 6.75ZM14.0796 12C14.0804 11.3234 14.2642 10.6596 14.6116 10.079C14.9589 9.49844 15.4569 9.02264 16.0527 8.70205C16.6485 8.38147 17.32 8.22805 17.9959 8.25806C18.6718 8.28806 19.327 8.50038 19.8921 8.8725L14.7021 14.0625C14.2973 13.4507 14.0809 12.7336 14.0796 12ZM17.8296 15.75C17.096 15.7487 16.3789 15.5323 15.7671 15.1275L20.9571 9.9375C21.3292 10.5026 21.5415 11.1578 21.5715 11.8337C21.6015 12.5096 21.4481 13.181 21.1275 13.7769C20.807 14.3727 20.3311 14.8707 19.7505 15.218C19.1699 15.5654 18.5062 15.7492 17.8296 15.75Z" fill="currentColor"/>
<path d="M21.5796 12C21.5788 12.6766 21.395 13.3403 21.0476 13.921C20.7002 14.5016 20.2023 14.9774 19.6064 15.2979C19.0106 15.6185 18.3392 15.772 17.6633 15.7419C16.9874 15.7119 16.3321 15.4996 15.7671 15.1275L20.9571 9.9375C21.3619 10.5493 21.5783 11.2664 21.5796 12Z" fill="currentColor"/>
</svg>
