<svg width="1em" height="1em" viewBox="0 0 24 24" fill="none" xmlns="http://www.w3.org/2000/svg">
<path fill-rule="evenodd" clip-rule="evenodd" d="M22.9832 11.9958C22.9832 18.0042 18.0042 22.9832 11.9873 22.9832C5.9789 22.9832 1 18.0042 1 11.9958C1 5.9789 5.97046 1 11.9789 1C17.9958 1 22.9832 5.9789 22.9832 11.9958ZM7.61607 11.1857C7.12661 11.1857 6.78906 11.5148 6.78906 12.0043C6.78906 12.4684 7.13505 12.7891 7.61607 12.7891H11.1857V16.3756C11.1857 16.8397 11.5148 17.1857 11.979 17.1857C12.4599 17.1857 12.7891 16.8481 12.7891 16.3756V12.7891H16.3756C16.8397 12.7891 17.1857 12.4684 17.1857 12.0043C17.1857 11.5148 16.8481 11.1857 16.3756 11.1857H12.7891V7.60762C12.7891 7.12661 12.4599 6.78906 11.979 6.78906C11.5148 6.78906 11.1857 7.13505 11.1857 7.60762V11.1857H7.61607Z" fill="currentColor"/>
</svg>
