<svg width="1em" height="1em" viewBox="0 0 69 68" fill="none" xmlns="http://www.w3.org/2000/svg">
<path fill-rule="evenodd" clip-rule="evenodd" d="M13.4564 0.5H41.1022L41.1112 0.500049C45.9218 0.526554 49.8169 4.42165 49.8434 9.23226L49.8434 9.2412V12.1324H43.3542V9.26104C43.3436 8.01192 42.3316 6.99984 41.0825 6.9892H13.4762C12.2271 6.99984 11.2151 8.01189 11.2044 9.26099V58.739C11.2151 59.9881 12.2271 61.0002 13.4763 61.0108H41.0406C42.2387 60.9532 43.2015 59.9612 43.2122 58.739V56.0096H49.7014V58.759L49.7014 58.7681C49.6749 63.4775 45.9316 67.3523 41.2019 67.4985L41.1518 67.5H13.4564L13.4475 67.5C8.63686 67.4734 4.74176 63.5783 4.71526 58.7677L4.71521 58.7588V9.2412L4.71526 9.23226C4.74176 4.42165 8.63686 0.526554 13.4475 0.500049L13.4564 0.5Z" fill="#15377D"/>
<path d="M32.7139 6.48454H21.7112C20.174 6.40935 18.9709 5.13949 18.9709 3.60228H35.4792C35.4792 5.14784 34.2595 6.41771 32.7139 6.48454Z" fill="#B2B4C0"/>
<mask id="mask0_356_109895" style="mask-type:luminance" maskUnits="userSpaceOnUse" x="28" y="15" width="37" height="37">
<path d="M64.2849 15.6322H28.3444V51.5895H64.2849V15.6322Z" fill="white"/>
</mask>
<g mask="url(#mask0_356_109895)">
<path d="M46.3232 51.5728C56.1563 51.5728 64.2935 43.4189 64.2935 33.6025C64.2935 23.7861 56.1396 15.6322 46.3065 15.6322C36.4734 15.6322 28.3529 23.7694 28.3529 33.6025C28.3529 43.4356 36.5068 51.5728 46.3232 51.5728Z" fill="#E23D28"/>
<path d="M46.323 36.8854C45.404 36.8854 44.8944 36.3757 44.8776 35.44L44.6521 25.8409C44.6354 24.9052 45.3204 24.2368 46.3062 24.2368C47.2921 24.2368 47.9938 24.9219 47.9771 25.8576L47.7265 35.44C47.7098 36.3924 47.2002 36.8854 46.3146 36.8854H46.323ZM46.323 42.7919C45.2619 42.7919 44.3513 41.9481 44.3513 40.9038C44.3513 39.8595 45.2536 38.999 46.323 38.999C47.3923 38.999 48.2946 39.8428 48.2946 40.9038C48.2946 41.9648 47.3756 42.7919 46.323 42.7919Z" fill="white"/>
</g>
<path d="M28.1607 58.0399C29.6603 58.0399 30.8759 56.8243 30.8759 55.3247C30.8759 53.8252 29.6603 52.6095 28.1607 52.6095C26.6612 52.6095 25.4456 53.8252 25.4456 55.3247C25.4456 56.8243 26.6612 58.0399 28.1607 58.0399Z" fill="#B2B4C0"/>
</svg>
