<svg xmlns="http://www.w3.org/2000/svg" width="1em" height="1em" viewBox="0 0 22 22" fill="none">
    <path fill-rule="evenodd" clip-rule="evenodd" d="M21.9832 10.9958C21.9832 17.0042 17.0042 21.9832 10.9873 21.9832C4.9789 21.9832 0 17.0042 0 10.9958C0 4.9789 4.97046 0 10.9789 0C16.9958 0 21.9832 4.9789 21.9832 10.9958ZM9.99935 12.5146C9.99935 13.021 10.2778 13.2826 10.7672 13.2826C11.2567 13.2826 11.5436 12.9788 11.5436 12.5821V12.3965C11.5436 11.7468 11.898 11.3501 12.6998 10.81C13.8053 10.0759 14.5056 9.42604 14.5056 8.16022C14.5056 6.41339 12.9529 5.4176 11.0879 5.4176C9.21455 5.4176 7.99932 6.35432 7.72928 7.40916C7.67865 7.57794 7.6449 7.74671 7.6449 7.93237C7.6449 8.36275 7.98245 8.60748 8.31156 8.60748C8.64914 8.60748 8.86855 8.43869 9.02884 8.19397L9.18923 7.95768C9.50144 7.23195 10.1596 6.74249 11.0289 6.74249C12.1259 6.74249 12.8348 7.35009 12.8348 8.23617C12.8348 8.9957 12.3875 9.39225 11.3749 10.0927C10.5478 10.675 9.99935 11.2572 9.99935 12.3121V12.5146ZM9.64489 15.4598C9.64489 16.0421 10.1512 16.5231 10.7504 16.5231C11.3411 16.5231 11.8559 16.0505 11.8559 15.4598C11.8559 14.8607 11.3496 14.3881 10.7504 14.3881C10.1428 14.3881 9.64489 14.869 9.64489 15.4598Z" fill="currentColor"/>
</svg>