<svg width="1em" height="1em" viewBox="0 0 24 24" fill="none" xmlns="http://www.w3.org/2000/svg">
<path d="M4.28572 8.88281C4.28572 11.2433 5.33036 13.3828 6.97768 14.8493L6.98773 22.4331C6.98773 23.0357 7.29911 23.2869 7.71094 23.2869C8.06251 23.2869 8.32367 23.0859 8.59487 22.8147L11.8594 19.5603C12.0402 19.3995 12.1607 19.3393 12.2813 19.3393C12.4018 19.3393 12.5324 19.3995 12.7031 19.5603L15.9676 22.8147C16.2489 23.096 16.5201 23.2869 16.8516 23.2869C17.2835 23.2869 17.5848 23.0357 17.5848 22.4331V14.8192C19.2121 13.3627 20.2467 11.2333 20.2567 8.88281C20.2667 4.46317 16.6507 0.85714 12.2712 0.85714C7.8817 0.85714 4.28572 4.46317 4.28572 8.88281ZM5.923 8.88281C5.923 5.31696 8.70536 2.45424 12.2813 2.45424C15.8471 2.45424 18.6295 5.31696 18.6395 8.88281C18.6495 12.4386 15.8471 15.3014 12.2813 15.2913C8.70536 15.2812 5.923 12.4386 5.923 8.88281Z" fill="currentColor"/>
</svg>
