<svg width="1em" height="1em" viewBox="0 0 22 22" fill="none" xmlns="http://www.w3.org/2000/svg">
<path d="M0.0275574 14.4253C0.0275574 18.8723 2.94193 21.8331 8.14368 21.8331H10.8258C11.4644 21.8331 11.8824 21.3687 11.8824 20.7997C11.8824 20.2308 11.4644 19.7664 10.8258 19.7664H8.1553C4.19593 19.7664 2.09432 17.4441 2.09432 14.3091C2.09432 11.1858 4.19593 9.00292 8.1553 9.00292H16.1205L19.7316 8.84036L19.5225 8.30625L16.643 10.7678L13.299 14.0304C13.1133 14.2163 13.0203 14.4368 13.0203 14.7388C13.0203 15.3426 13.4267 15.7605 14.0421 15.7605C14.2976 15.7605 14.5995 15.6445 14.7969 15.4355L21.6242 8.73586C21.8564 8.51526 21.9724 8.2482 21.9724 7.96953C21.9724 7.67926 21.8564 7.4122 21.6242 7.19159L14.7969 0.492013C14.5995 0.29462 14.2976 0.166901 14.0421 0.166901C13.4267 0.166901 13.0203 0.584896 13.0203 1.18868C13.0203 1.49056 13.1133 1.71117 13.299 1.89695L16.643 5.17127L19.5225 7.6212L19.7316 7.08709L16.1205 6.92453H8.32946C3.02321 6.92453 0.0275574 9.98985 0.0275574 14.4253Z" fill="currentColor"/>
</svg>
