<svg width="1em" height="1em" viewBox="0 0 25 24" fill="none" xmlns="http://www.w3.org/2000/svg">
<path d="M16.4141 21.3077C17.8553 21.3077 19.0345 20.1285 19.0345 18.6874C19.0345 17.2462 17.8553 16.067 16.4141 16.067C14.9729 16.067 13.7829 17.2462 13.7829 18.6874C13.7829 20.1285 14.9729 21.3077 16.4141 21.3077ZM16.4141 19.9648C15.6936 19.9648 15.1367 19.397 15.1367 18.6874C15.1367 17.9558 15.6936 17.41 16.4141 17.41C17.1347 17.41 17.6915 17.9558 17.6915 18.6874C17.6915 19.397 17.1347 19.9648 16.4141 19.9648ZM14.6781 17.803H2.37345C1.88213 17.803 1.5 18.196 1.5 18.6874C1.5 19.1786 1.88213 19.5608 2.37345 19.5608H14.6781V17.803ZM22.6593 17.803H18.3139V19.5608H22.6593C23.1069 19.5608 23.5 19.1786 23.5 18.6874C23.5 18.196 23.1069 17.803 22.6593 17.803ZM8.70595 14.6476C10.1471 14.6476 11.3263 13.4576 11.3263 12.0164C11.3263 10.5752 10.1471 9.39604 8.70595 9.39604C7.26476 9.39604 6.08561 10.5752 6.08561 12.0164C6.08561 13.4576 7.26476 14.6476 8.70595 14.6476ZM8.70595 13.2938C7.99628 13.2938 7.42853 12.726 7.42853 12.0164C7.42853 11.2958 7.99628 10.739 8.70595 10.739C9.42654 10.739 9.98337 11.2958 9.98337 12.0164C9.98337 12.726 9.42654 13.2938 8.70595 13.2938ZM2.32978 11.132C1.88213 11.132 1.5 11.5251 1.5 12.0164C1.5 12.5077 1.88213 12.8898 2.32978 12.8898H6.82804V11.132H2.32978ZM22.6157 11.132H10.4419V12.8898H22.6157C23.1069 12.8898 23.5 12.5077 23.5 12.0164C23.5 11.5251 23.1069 11.132 22.6157 11.132ZM16.4141 7.96577C17.8553 7.96577 19.0345 6.78661 19.0345 5.34542C19.0345 3.90423 17.8553 2.71416 16.4141 2.71416C14.9729 2.71416 13.7829 3.90423 13.7829 5.34542C13.7829 6.78661 14.9729 7.96577 16.4141 7.96577ZM16.4141 6.62284C15.6936 6.62284 15.1367 6.0551 15.1367 5.3345C15.1367 4.61391 15.6936 4.05708 16.4141 4.05708C17.1347 4.05708 17.6915 4.61391 17.6915 5.3345C17.6915 6.0551 17.1347 6.62284 16.4141 6.62284ZM14.7327 4.47198H2.37345C1.88213 4.47198 1.5 4.8541 1.5 5.34542C1.5 5.83674 1.88213 6.22979 2.37345 6.22979H14.7327V4.47198ZM22.6593 4.47198H18.161V6.22979H22.6593C23.1069 6.22979 23.5 5.83674 23.5 5.34542C23.5 4.8541 23.1069 4.47198 22.6593 4.47198Z" fill="currentColor"/>
</svg>
