<svg width="1em" height="1em" viewBox="0 0 24 24" fill="none" xmlns="http://www.w3.org/2000/svg">
<path d="M3.08119 21.3069H20.9109C22.9624 21.3069 24 20.2773 24 18.2575V5.74256C24 3.72276 22.9624 2.69305 20.9109 2.69305H3.08119C1.03763 2.69305 0 3.71484 0 5.74256V18.2575C0 20.2852 1.03763 21.3069 3.08119 21.3069ZM3.11288 19.905C2.00396 19.905 1.40199 19.3188 1.40199 18.1862V5.81385C1.40199 4.68118 2.00396 4.09503 3.11288 4.09503H20.8872C21.9723 4.09503 22.5902 4.68118 22.5902 5.81385V18.1862C22.5902 19.3188 21.9723 19.905 20.8872 19.905H3.11288ZM7.66733 20.1822H9.03765V3.79405H7.66733V20.1822ZM5.7109 7.89702C5.98813 7.89702 6.22575 7.65148 6.22575 7.39009C6.22575 7.11287 5.98813 6.88316 5.7109 6.88316H3.38218C3.10495 6.88316 2.86733 7.11287 2.86733 7.39009C2.86733 7.65148 3.10495 7.89702 3.38218 7.89702H5.7109ZM5.7109 10.5743C5.98813 10.5743 6.22575 10.3366 6.22575 10.0673C6.22575 9.79801 5.98813 9.56831 5.7109 9.56831H3.38218C3.10495 9.56831 2.86733 9.79801 2.86733 10.0673C2.86733 10.3366 3.10495 10.5743 3.38218 10.5743H5.7109ZM5.7109 13.2515C5.98813 13.2515 6.22575 13.0218 6.22575 12.7524C6.22575 12.4832 5.98813 12.2535 5.7109 12.2535H3.38218C3.10495 12.2535 2.86733 12.4832 2.86733 12.7524C2.86733 13.0218 3.10495 13.2515 3.38218 13.2515H5.7109Z" fill="currentColor"/>
</svg>
