<svg width="1em" height="1em" viewBox="0 0 24 24" fill="none" xmlns="http://www.w3.org/2000/svg">
<path d="M5.35328 21.4363C5.75153 21.7471 6.2566 21.6403 6.85881 21.2031L11.997 17.4248L17.145 21.2031C17.7471 21.6403 18.2425 21.7471 18.6504 21.4363C19.0487 21.1351 19.1361 20.6398 18.8933 19.9307L16.8633 13.8892L22.05 10.1594C22.6522 9.73203 22.895 9.28523 22.7397 8.79958C22.5842 8.33335 22.1277 8.10023 21.3798 8.10995L15.0178 8.1488L13.0848 2.07814C12.8518 1.35938 12.5021 1 11.997 1C11.5016 1 11.152 1.35938 10.9189 2.07814L8.98597 8.1488L2.62392 8.10995C1.87602 8.10023 1.41951 8.33335 1.2641 8.79958C1.09898 9.28523 1.35152 9.73203 1.95372 10.1594L7.14049 13.8892L5.11046 19.9307C4.86763 20.6398 4.95505 21.1351 5.35328 21.4363Z" fill="currentColor"/>
</svg>
