<svg width="1em" height="1em" viewBox="0 0 24 24" fill="none" xmlns="http://www.w3.org/2000/svg">
<path d="M0.560547 6.39537C0.560547 9.75785 3.6024 14.7399 6.45516 14.7399H6.82512C9.67788 14.7399 12.7197 9.75785 12.7197 6.39537C12.7197 4.57848 11.8236 3.64948 10.0889 3.64948H9.21746V4.9731H10.1547C10.9851 4.9731 11.3961 5.46637 11.3961 6.37892C11.3961 8.98505 8.97908 13.4163 6.63603 13.4163C4.29298 13.4163 1.88416 8.98505 1.88416 6.37892C1.88416 5.46637 2.29523 4.9731 3.11735 4.9731H4.05457V3.64948H3.18312C1.45666 3.64948 0.560547 4.57848 0.560547 6.39537ZM10.1382 20.8483C12.6375 20.8483 13.9365 18.8588 14.6271 14.8468C15.1532 11.8543 15.8767 10.917 17.077 10.917C18.4581 10.917 19.124 12.3146 19.2474 15.1757H20.571C20.3244 11.4597 19.2967 9.59342 17.077 9.59342C15.071 9.59342 13.9858 10.9581 13.3281 14.5508C12.7444 17.7818 12.0127 19.5247 10.0561 19.5247C8.28027 19.5247 7.27728 17.6009 7.28551 14.2055H5.96189C5.95367 18.4724 7.46637 20.8483 10.1382 20.8483Z" fill="currentColor"/>
<path d="M4.46562 5.54036C5.13975 5.54036 5.6988 4.98132 5.6988 4.29896C5.6988 3.6166 5.13975 3.05756 4.46562 3.05756C3.78325 3.05756 3.22421 3.6166 3.22421 4.29896C3.22421 4.98132 3.78325 5.54036 4.46562 5.54036ZM8.7982 5.54036C9.48053 5.54036 10.0396 4.98132 10.0396 4.29896C10.0396 3.6166 9.48053 3.05756 8.7982 3.05756C8.12402 3.05756 7.56502 3.6166 7.56502 4.29896C7.56502 4.98132 8.12402 5.54036 8.7982 5.54036ZM19.9626 19.7549C21.3931 19.7549 22.5605 18.5957 22.5605 17.1488C22.5605 15.7182 21.3931 14.559 19.9626 14.5508C18.5239 14.5426 17.3565 15.7182 17.3565 17.1488C17.3565 18.5957 18.5239 19.7549 19.9626 19.7549ZM19.9626 18.5957C19.1651 18.5957 18.5074 17.9462 18.5074 17.1488C18.5074 16.343 19.1651 15.7018 19.9626 15.7018C20.7601 15.7018 21.4096 16.343 21.4096 17.1488C21.4096 17.9462 20.7601 18.5957 19.9626 18.5957Z" fill="currentColor"/>
</svg>
