<svg width="1em" height="1em" viewBox="0 0 24 24" fill="none" xmlns="http://www.w3.org/2000/svg">
<path d="M8.91662 19.4734C8.54191 19.4734 8.30171 19.2524 8.28249 18.8873L7.99426 8.30896C7.98465 7.95347 8.22485 7.72287 8.60917 7.72287C8.96466 7.72287 9.21446 7.94386 9.22407 8.29935L9.53153 18.8873C9.54114 19.2428 9.29133 19.4734 8.91662 19.4734ZM11.8471 19.4734C11.4723 19.4734 11.2129 19.2428 11.2129 18.8873V8.30896C11.2129 7.95347 11.4723 7.72287 11.8471 7.72287C12.2218 7.72287 12.4908 7.95347 12.4908 8.30896V18.8873C12.4908 19.2428 12.2218 19.4734 11.8471 19.4734ZM14.7871 19.4734C14.4124 19.4734 14.1626 19.2428 14.1722 18.8873L14.47 8.30896C14.4796 7.94386 14.7294 7.72287 15.0849 7.72287C15.4692 7.72287 15.7094 7.95347 15.6998 8.30896L15.4116 18.8873C15.3924 19.2524 15.1522 19.4734 14.7871 19.4734ZM7.62916 5.38815H9.15682V3.33206C9.15682 2.7844 9.54113 2.42891 10.1176 2.42891H13.5573C14.1337 2.42891 14.5181 2.7844 14.5181 3.33206V5.38815H16.0457V3.23598C16.0457 1.84283 15.1426 0.99733 13.6629 0.99733H10.0119C8.5323 0.99733 7.62916 1.84283 7.62916 3.23598V5.38815ZM3.26716 6.15678H20.4365C20.8305 6.15678 21.1475 5.8205 21.1475 5.42658C21.1475 5.03266 20.8305 4.70599 20.4365 4.70599H3.26716C2.88285 4.70599 2.54657 5.03266 2.54657 5.42658C2.54657 5.83011 2.88285 6.15678 3.26716 6.15678ZM7.44661 22.3942H16.2571C17.631 22.3942 18.5533 21.5006 18.6206 20.1267L19.2932 5.95502H4.4009L5.08306 20.1363C5.15031 21.5102 6.05346 22.3942 7.44661 22.3942Z" fill="currentColor"/>
</svg>
