<svg width="1em" height="1em" viewBox="0 0 24 24" fill="none" xmlns="http://www.w3.org/2000/svg">
<path d="M12.6411 21.9351L22.2658 12.2906C23.0061 11.5503 23.0555 11.1258 23.0555 10.0893V6.33807C23.0555 5.29168 22.8087 4.96592 22.0584 4.21569L19.788 1.94523C19.0476 1.20487 18.7219 0.948204 17.6755 0.948204H13.9145C12.8779 0.948204 12.4633 0.997567 11.723 1.73793L2.06861 11.3725C0.656977 12.7842 0.627362 14.2452 2.07848 15.6864L8.32717 21.9252C9.77827 23.3665 11.2294 23.3468 12.6411 21.9351ZM16.0171 8.84541C15.2373 8.84541 14.6647 8.24328 14.6647 7.49303C14.6647 6.73293 15.2373 6.14064 16.0171 6.14064C16.7871 6.14064 17.3695 6.73293 17.3695 7.49303C17.3695 8.24328 16.7871 8.84541 16.0171 8.84541Z" fill="currentColor"/>
</svg>
