<svg width="1em" height="1em" viewBox="0 0 25 24" fill="none" xmlns="http://www.w3.org/2000/svg">
<path fill-rule="evenodd" clip-rule="evenodd" d="M10.4405 6.11752H8.9548C7.46071 6.11752 6.86475 6.82259 5.88269 8.0313L2.97844 11.6238C2.60912 12.0771 2.5 12.4548 2.5 13.2186V18.1877C2.5 19.9169 3.38135 20.7898 5.13564 20.7898H19.6568C21.4196 20.7898 22.2925 19.9169 22.2925 18.1877V13.2186C22.2925 12.4548 22.1918 12.0771 21.814 11.6238L18.9182 8.0313C17.9361 6.82259 17.3317 6.11752 15.8461 6.11752H14.352V7.30104H15.9384C16.5512 7.30104 17.1891 7.83824 17.6003 8.35867L20.5802 12.1107C20.9159 12.5387 20.7984 12.7066 20.3367 12.7066H15.1578C14.6877 12.7066 14.4695 13.0676 14.4695 13.4369V13.4705C14.4695 14.5029 13.6637 15.5857 12.3962 15.5857C11.1372 15.5857 10.3314 14.5029 10.3314 13.4705V13.4369C10.3314 13.0676 10.1048 12.7066 9.63469 12.7066H4.47254C3.9857 12.7066 3.89336 12.5136 4.22072 12.1107L7.19211 8.35867C7.6034 7.83824 8.24132 7.30104 8.85407 7.30104H10.4405V6.11752Z" fill="currentColor"/>
<path d="M12.3962 12.6059C12.5725 12.6059 12.7152 12.5556 12.8831 12.3877L15.7201 9.65135C15.8461 9.52543 15.9133 9.38275 15.9133 9.20647C15.9133 8.86231 15.653 8.61892 15.3089 8.61892C15.141 8.61892 14.9647 8.68603 14.8472 8.82033L13.5798 10.1717L13.009 10.7677L13.0677 9.50859V2.86916C13.0677 2.51662 12.7572 2.22285 12.3962 2.22285C12.0353 2.22285 11.7331 2.51662 11.7331 2.86916V9.50859L11.7835 10.7677L11.2127 10.1717L9.94524 8.82033C9.81939 8.68603 9.64309 8.61892 9.47521 8.61892C9.13107 8.61892 8.87926 8.86231 8.87926 9.20647C8.87926 9.38275 8.94641 9.52543 9.07231 9.65135L11.9094 12.3877C12.0773 12.5556 12.2283 12.6059 12.3962 12.6059Z" fill="currentColor"/>
</svg>
