<svg width="1em" height="1em" viewBox="0 0 22 22" fill="none" xmlns="http://www.w3.org/2000/svg">
<path d="M21.97 14.4246C21.97 9.99008 18.9634 6.92544 13.67 6.92544H5.86907L2.27044 7.08796L2.47939 7.62196L5.34669 5.17257L8.70154 1.89898C8.87567 1.71324 8.98014 1.49268 8.98014 1.19086C8.98014 0.587214 8.57384 0.169312 7.94699 0.169312C7.70321 0.169312 7.40138 0.297003 7.20405 0.494352L0.378254 7.19244C0.146084 7.41301 0.0299988 7.68 0.0299988 7.97021C0.0299988 8.24882 0.146084 8.51582 0.378254 8.73637L7.20405 15.4345C7.40138 15.6435 7.70321 15.7595 7.94699 15.7595C8.57384 15.7595 8.98014 15.3416 8.98014 14.738C8.98014 14.4361 8.87567 14.2156 8.70154 14.0298L5.34669 10.7679L2.47939 8.30686L2.27044 8.84085L5.86907 9.00337H13.8441C17.8026 9.00337 19.8921 11.1858 19.8921 14.3084C19.8921 17.4427 17.8026 19.7645 13.8441 19.7645H11.1741C10.5357 19.7645 10.1178 20.2288 10.1178 20.7976C10.1178 21.3664 10.5357 21.8307 11.1741 21.8307H13.8558C19.0447 21.8307 21.97 18.8706 21.97 14.4246Z" fill="currentColor"/>
</svg>
