<svg width="1em" height="1em" viewBox="0 0 24 25" fill="none" xmlns="http://www.w3.org/2000/svg">
<path fill-rule="evenodd" clip-rule="evenodd" d="M12.0054 3.46278C15.667 3.46278 18.7929 5.76368 20.0196 8.99939C22.3098 9.60475 24 11.694 24 14.1771C24 17.1369 21.6027 19.5342 18.6455 19.5342H17.5714C17.4536 19.5342 17.3571 19.4378 17.3571 19.3199V17.7128C17.3571 17.5949 17.4536 17.4985 17.5714 17.4985H18.6455C19.0815 17.4996 19.5134 17.4143 19.9162 17.2474C20.3189 17.0805 20.6846 16.8354 20.992 16.5262C21.6187 15.8994 21.9643 15.0637 21.9643 14.1771C21.9643 12.6717 20.9491 11.3512 19.4973 10.9601L18.4848 10.6922L18.1152 9.71457C17.8848 9.10653 17.5634 8.53332 17.1589 8.01636C16.7598 7.50475 16.2884 7.05475 15.7554 6.67975C14.6545 5.90564 13.358 5.49582 12.0054 5.49582C10.6527 5.49582 9.35625 5.90564 8.25536 6.67975C7.72407 7.05354 7.25108 7.50397 6.85179 8.01636C6.44732 8.53332 6.12589 9.10386 5.89554 9.71457L5.52321 10.6949L4.50804 10.9601C3.81161 11.1449 3.18482 11.5601 2.7375 12.1306C2.30089 12.6905 2.05982 13.3547 2.03571 14.0619C2.00625 14.9672 2.34107 15.8405 2.97054 16.4887C3.60268 17.1396 4.45179 17.4985 5.35446 17.4985H6.42857C6.54643 17.4985 6.64286 17.5949 6.64286 17.7128V19.3199C6.64286 19.4378 6.54643 19.5342 6.42857 19.5342H5.35446C2.39732 19.5342 0 17.1369 0 14.1771C0 11.6914 1.69554 9.59939 3.99107 8.99671C5.21786 5.761 8.34375 3.46278 12.0054 3.46278ZM12.0942 11.4111C12.1234 11.4253 12.149 11.446 12.1691 11.4716L15.1691 15.2699C15.2789 15.4091 15.1798 15.6154 15.0003 15.6154H13.0155V22.1056C13.0155 22.2234 12.9191 22.3199 12.8012 22.3199H11.1941C11.0762 22.3199 10.9798 22.2234 10.9798 22.1056V15.6127H9.00034C8.96023 15.6128 8.9209 15.6016 8.88685 15.5804C8.85281 15.5592 8.82542 15.5288 8.80781 15.4928C8.79021 15.4567 8.78311 15.4164 8.78731 15.3766C8.79152 15.3367 8.80686 15.2988 8.83159 15.2672L11.8316 11.4716C11.8516 11.446 11.8772 11.4253 11.9065 11.4111C11.9357 11.3968 11.9678 11.3894 12.0003 11.3894C12.0329 11.3894 12.065 11.3968 12.0942 11.4111Z" fill="currentColor"/>
</svg>
