<svg width="1em" height="1em" viewBox="0 0 24 24" fill="none" xmlns="http://www.w3.org/2000/svg">
<path d="M1.7854 8.09506C2.28841 8.09506 2.56198 7.80385 2.56198 7.30085V4.51224C2.56198 3.24148 3.23265 2.58845 4.46811 2.58845H7.30967C7.81267 2.58845 8.10389 2.30605 8.10389 1.81187C8.10389 1.30886 7.81267 1.02647 7.30967 1.02647H4.43281C2.15604 1.02647 1 2.16486 1 4.42399V7.30085C1 7.80385 1.28239 8.09506 1.7854 8.09506ZM22.1882 8.09506C22.7 8.09506 22.9735 7.80385 22.9735 7.30085V4.42399C22.9735 2.18251 21.8263 1.02647 19.5407 1.02647H16.6639C16.1608 1.02647 15.8697 1.30886 15.8697 1.81187C15.8697 2.30605 16.1608 2.58845 16.6639 2.58845H19.5054C20.7144 2.58845 21.4116 3.24148 21.4116 4.51224V7.30085C21.4116 7.80385 21.694 8.09506 22.1882 8.09506ZM4.43281 23H7.30967C7.81267 23 8.10389 22.7176 8.10389 22.2146C8.10389 21.7204 7.81267 21.438 7.30967 21.438H4.46811C3.23265 21.438 2.56198 20.785 2.56198 19.5143V16.7256C2.56198 16.2226 2.27959 15.9314 1.7854 15.9314C1.27357 15.9314 1 16.2226 1 16.7256V19.6025C1 21.8616 2.15604 23 4.43281 23ZM16.6639 23H19.5407C21.8263 23 22.9735 21.844 22.9735 19.6025V16.7256C22.9735 16.2226 22.6911 15.9314 22.1882 15.9314C21.6851 15.9314 21.4116 16.2226 21.4116 16.7256V19.5143C21.4116 20.785 20.7144 21.438 19.5054 21.438H16.6639C16.1608 21.438 15.8697 21.7204 15.8697 22.2146C15.8697 22.7176 16.1608 23 16.6639 23Z" fill="currentColor"/>
</svg>
