<svg xmlns="http://www.w3.org/2000/svg" width="1em" height="1em" viewBox="0 0 22 22" fill="none">
    <path fill-rule="evenodd" clip-rule="evenodd" d="M21.9832 10.9958C21.9832 17.0042 17.0042 21.9832 10.9873 21.9832C4.9789 21.9832 0 17.0042 0 10.9958C0 4.9789 4.97046 0 10.9789 0C16.9958 0 21.9832 4.9789 21.9832 10.9958ZM6.54846 14.6667C6.54846 15.1055 6.89446 15.4515 7.32483 15.4515C7.54425 15.4515 7.73834 15.3671 7.89024 15.2152L10.9872 12.1013L14.0928 15.2152C14.2447 15.3671 14.4388 15.4515 14.6582 15.4515C15.0885 15.4515 15.4345 15.1055 15.4345 14.6667C15.4345 14.4557 15.367 14.2616 15.2067 14.1097L12.0927 11.0043L15.2151 7.88188C15.3839 7.7131 15.443 7.54433 15.443 7.32492C15.443 6.90298 15.097 6.56543 14.675 6.56543C14.4641 6.56543 14.2953 6.63294 14.1266 6.80171L10.9872 9.9241L7.86492 6.81015C7.71302 6.65825 7.54425 6.58231 7.32483 6.58231C6.89446 6.58231 6.54846 6.91142 6.54846 7.34179C6.54846 7.55276 6.63285 7.73842 6.78475 7.89032L9.89869 11.0043L6.78475 14.1182C6.63285 14.2701 6.54846 14.4642 6.54846 14.6667Z" fill="currentColor"/>
</svg>