<svg width="1em" height="1em" viewBox="0 0 24 24" fill="none" xmlns="http://www.w3.org/2000/svg">
<path d="M1.30553 22.6944C1.72918 23.0963 2.40268 23.0963 2.81546 22.6944L11.9837 13.5153L21.1627 22.6944C21.5647 23.0963 22.26 23.1072 22.6618 22.6944C23.0746 22.2707 23.0746 21.5973 22.6618 21.1953L13.4936 12.0163L22.6618 2.83718C23.0746 2.43527 23.0854 1.7509 22.6618 1.33812C22.2491 0.936191 21.5647 0.936191 21.1627 1.33812L11.9837 10.5172L2.81546 1.33812C2.40268 0.936191 1.71832 0.925328 1.30553 1.33812C0.903606 1.76177 0.903606 2.43527 1.30553 2.83718L10.4846 12.0163L1.30553 21.1953C0.903606 21.5973 0.892743 22.2816 1.30553 22.6944Z" fill="currentColor"/>
</svg>
