<svg height="1em" width="1em" viewBox="0 0 24 24" fill="none" xmlns="http://www.w3.org/2000/svg">
<path d="M12.3162 6.15385C13.1044 6.15385 14.0925 5.60458 14.6809 4.87222C15.2138 4.20852 15.6024 3.28163 15.6024 2.35474C15.6024 2.22886 15.5913 2.10299 15.5691 2C14.692 2.03433 13.6373 2.60648 13.0045 3.37317C12.5049 3.95677 12.0498 4.87222 12.0498 5.81055C12.0498 5.94787 12.072 6.08519 12.0831 6.13096C12.1386 6.1424 12.2274 6.15385 12.3162 6.15385ZM9.54071 20C10.6176 20 11.095 19.2562 12.4383 19.2562C13.8039 19.2562 14.1036 19.9771 15.3026 19.9771C16.4794 19.9771 17.2677 18.8557 18.0115 17.7572C18.8442 16.4984 19.1883 15.2626 19.2105 15.2053C19.1328 15.1825 16.8791 14.2327 16.8791 11.5664C16.8791 9.25493 18.6554 8.2136 18.7553 8.1335C17.5785 6.39415 15.7911 6.34838 15.3026 6.34838C13.9815 6.34838 12.9046 7.17228 12.2274 7.17228C11.4947 7.17228 10.5288 6.39415 9.38528 6.39415C7.20929 6.39415 5 8.24793 5 11.7495C5 13.9237 5.82155 16.2238 6.83183 17.7114C7.69778 18.9701 8.45271 20 9.54071 20Z" fill="black"/>
</svg>
