<svg width="1em" height="1em" viewBox="0 0 24 24" fill="none" xmlns="http://www.w3.org/2000/svg">
<path d="M14.8887 13.4485H20.0439C20.6146 13.4486 20.9526 13.5891 21.1523 13.7893C21.3523 13.9899 21.4999 14.3373 21.5 14.9387V20.0344C21.5 20.6361 21.3522 20.9807 21.1533 21.179C20.9542 21.3773 20.6163 21.5168 20.0439 21.5168H14.8887C14.311 21.5168 13.973 21.3774 13.7754 21.1799C13.5778 20.9823 13.4316 20.6378 13.4316 20.0344V14.9387C13.4317 14.336 13.5778 13.9893 13.7764 13.7893C13.9745 13.5899 14.3125 13.4485 14.8887 13.4485Z" fill="currentColor" stroke="currentColor"/>
<path d="M3.95703 13.4485H9.1123C9.68291 13.4486 10.021 13.5891 10.2207 13.7893C10.4207 13.9899 10.5683 14.3373 10.5684 14.9387V20.0344C10.5684 20.6361 10.4206 20.9807 10.2217 21.179C10.0225 21.3773 9.68462 21.5168 9.1123 21.5168H3.95703C3.38438 21.5168 3.04587 21.3774 2.84668 21.179C2.64778 20.9807 2.5 20.6361 2.5 20.0344V14.9387C2.50006 14.3373 2.64766 13.9899 2.84766 13.7893C3.04739 13.5891 3.38609 13.4485 3.95703 13.4485Z" fill="currentColor" stroke="currentColor"/>
<path d="M14.8887 2.52563H20.0439C20.6162 2.5257 20.9542 2.66518 21.1533 2.86353C21.3522 3.06178 21.5 3.40637 21.5 4.00806V9.10376C21.5 9.70526 21.3522 10.0491 21.1533 10.2473C20.9542 10.4458 20.6164 10.5851 20.0439 10.5852H14.8887C14.3108 10.5852 13.973 10.4459 13.7754 10.2483C13.5778 10.0507 13.4317 9.70688 13.4316 9.10376V4.00806C13.4316 3.40475 13.5778 3.06016 13.7754 2.86255C13.973 2.6651 14.311 2.52563 14.8887 2.52563Z" fill="currentColor" stroke="currentColor"/>
<path d="M3.95703 2.52563H9.1123C9.68458 2.52571 10.0225 2.66518 10.2217 2.86353C10.4206 3.06179 10.5684 3.40638 10.5684 4.00806V9.10376C10.5683 9.70525 10.4206 10.0491 10.2217 10.2473C10.0225 10.4458 9.68477 10.5851 9.1123 10.5852H3.95703C3.38425 10.5852 3.04586 10.4458 2.84668 10.2473C2.64782 10.0491 2.50005 9.70524 2.5 9.10376V4.00806C2.5 3.40637 2.64778 3.06178 2.84668 2.86353C3.04588 2.66509 3.38443 2.52563 3.95703 2.52563Z" fill="currentColor" stroke="currentColor"/>
</svg>
