<svg height="1em" width="1em" viewBox="0 0 16 10" fill="currentColor" xmlns="http://www.w3.org/2000/svg">
<path d="M4.1777 9.40808H11.8593C12.193 9.40808 12.46 9.14856 12.46 8.81486C12.46 8.48124 12.193 8.21428 11.8593 8.21428H4.1777C3.84404 8.21428 3.58452 8.48124 3.58452 8.81486C3.58452 9.14856 3.84404 9.40808 4.1777 9.40808ZM2.65768 5.58946H13.3868C13.7204 5.58946 13.9799 5.32995 13.9799 4.99629C13.9799 4.66263 13.7204 4.3957 13.3868 4.3957H2.65768C2.32402 4.3957 2.05709 4.66263 2.05709 4.99629C2.05709 5.32995 2.32402 5.58946 2.65768 5.58946ZM1.09318 1.77089H14.9068C15.2405 1.77089 15.5 1.51137 15.5 1.17771C15.5 0.844047 15.2405 0.577118 14.9068 0.577118H1.09318C0.759515 0.577118 0.5 0.844047 0.5 1.17771C0.5 1.51137 0.759515 1.77089 1.09318 1.77089Z" fill="currentColor"/>
</svg>
