<svg width="1em" height="1em" viewBox="0 0 20 20" fill="none" xmlns="http://www.w3.org/2000/svg">
<path d="M9.99512 19.9903C15.4631 19.9903 19.9903 15.4533 19.9903 9.99512C19.9903 4.5272 15.4533 0 9.98532 0C4.5272 0 0 4.5272 0 9.99512C0 15.4533 4.537 19.9903 9.99512 19.9903ZM9.99512 18.3244C5.36993 18.3244 1.67565 14.6203 1.67565 9.99512C1.67565 5.36993 5.36013 1.66586 9.98532 1.66586C14.6105 1.66586 18.3244 5.36993 18.3244 9.99512C18.3244 14.6203 14.6203 18.3244 9.99512 18.3244ZM8.91722 14.6497C9.24058 14.6497 9.51496 14.493 9.71094 14.1891L14.1891 7.14357C14.2969 6.94759 14.4243 6.732 14.4243 6.51643C14.4243 6.07547 14.0324 5.79129 13.6208 5.79129C13.3758 5.79129 13.1308 5.94807 12.9447 6.23225L8.87802 12.7584L6.94759 10.2597C6.71241 9.94613 6.49683 9.86773 6.22245 9.86773C5.80109 9.86773 5.46792 10.2107 5.46792 10.6419C5.46792 10.8574 5.55611 11.0632 5.6933 11.2494L8.08429 14.1891C8.32927 14.5125 8.59384 14.6497 8.91722 14.6497Z" fill="currentColor"/>
</svg>
