<svg height="1em" width="1em" viewBox="0 0 14 10" fill="none" xmlns="http://www.w3.org/2000/svg">
<path d="M4.74877 8.26756L1.44071 4.87298C1.28242 4.7106 1.06775 4.61937 0.843927 4.61937C0.6201 4.61937 0.405437 4.7106 0.247143 4.87298C0.0888974 5.03541 0 5.25569 0 5.48537C0 5.71505 0.0888974 5.93533 0.247143 6.09777L3.5552 9.49235C3.71197 9.65329 3.89811 9.78096 4.10298 9.86806C4.30785 9.95517 4.52743 10 4.74919 10C4.97095 10 5.19053 9.95517 5.3954 9.86806C5.60027 9.78096 5.7864 9.65329 5.94318 9.49235L13.7529 1.4784C13.9111 1.31596 14 1.09568 14 0.866001C14 0.63632 13.9111 0.416041 13.7529 0.253607C13.5946 0.0912225 13.3799 0 13.1561 0C12.9322 0 12.7176 0.0912225 12.5593 0.253607L4.74877 8.26756Z" fill="currentColor"/>
</svg>
