<svg width="1em" height="1em" viewBox="0 0 13 12" fill="currentColor" xmlns="http://www.w3.org/2000/svg">
<path d="M0.990005 11.8043C1.2547 12.0615 1.69333 12.0615 1.95046 11.8043L6.79054 6.96425L11.6306 11.8043C11.8878 12.0615 12.3339 12.069 12.5911 11.8043C12.8482 11.5396 12.8482 11.1086 12.5911 10.8515L7.751 6.0038L12.5911 1.16372C12.8482 0.906589 12.8558 0.467955 12.5911 0.210825C12.3264 -0.0538666 11.8878 -0.0538666 11.6306 0.210825L6.79054 5.05091L1.95046 0.210825C1.69333 -0.0538666 1.24713 -0.0614292 0.990005 0.210825C0.732875 0.475518 0.732875 0.906589 0.990005 1.16372L5.83009 6.0038L0.990005 10.8515C0.732875 11.1086 0.725313 11.5472 0.990005 11.8043Z" fill="currentColor" fill-opacity="0.85"/>
</svg>
