<svg height="1em" width="1em" viewBox="0 0 14 12" fill="none" xmlns="http://www.w3.org/2000/svg">
<path d="M14 5.9962C14 5.80772 13.9246 5.63432 13.7738 5.49109L8.77544 0.507787C8.60954 0.341928 8.45128 0.281616 8.27032 0.281616C7.90092 0.281616 7.61442 0.553021 7.61442 0.929973C7.61442 1.11091 7.67473 1.28431 7.79539 1.40493L9.48413 3.12383L12.4771 5.85296L12.6279 5.47601L10.2003 5.32522H0.663434C0.271405 5.32522 0 5.60417 0 5.9962C0 6.38823 0.271405 6.66717 0.663434 6.66717H10.2003L12.6279 6.51639L12.4771 6.14698L9.48413 8.86853L7.79539 10.5875C7.67473 10.7006 7.61442 10.8815 7.61442 11.0624C7.61442 11.4394 7.90092 11.7108 8.27032 11.7108C8.45128 11.7108 8.60954 11.6429 8.76038 11.4997L13.7738 6.50131C13.9246 6.35807 14 6.18467 14 5.9962Z" fill="currentColor"/>
</svg>
