<svg width="1em" height="1em" viewBox="0 0 10 10" fill="none" xmlns="http://www.w3.org/2000/svg">
    <path d="M5 10C5.27528 10 5.47115 9.80942 5.47115 9.53415L5.47115 2.56222L5.41821 0.984643L5.12176 1.09057L7.01693 3.17098L8.22392 4.35679C8.30333 4.44152 8.43038 4.48385 8.55743 4.48385C8.82212 4.48385 9.0127 4.28269 9.0127 4.0233C9.0127 3.89623 8.96505 3.78511 8.86447 3.67918L5.35468 0.158831C5.2541 0.0529613 5.13234 0 5 0C4.86766 0 4.7459 0.0529613 4.64531 0.158831L1.13024 3.67918C1.02963 3.78511 0.987293 3.89623 0.987293 4.0233C0.987293 4.28269 1.17789 4.48385 1.44259 4.48385C1.5696 4.48385 1.69135 4.44152 1.77608 4.35679L2.98309 3.17098L4.88353 1.09057L4.58179 0.984643L4.52885 2.56222L4.52885 9.53415C4.52885 9.80942 4.72472 10 5 10Z" fill="currentColor"/>
</svg>