<svg height="1em" width="1em" viewBox="0 0 49 49" fill="none" xmlns="http://www.w3.org/2000/svg">
	<path
		d="M11.5708 22.4598C15.9699 22.4598 19.6384 18.8129 19.6384 14.4072C19.6384 9.98323 15.9765 6.32471 11.5708 6.32471C7.14352 6.32471 3.5 9.98323 3.5 14.4072C3.5 18.8129 7.15854 22.4598 11.5708 22.4598ZM10.6105 18.7397C10.2029 18.7397 9.91353 18.5284 9.63224 18.2039L7.58449 15.7448C7.38489 15.5203 7.32006 15.2973 7.32006 14.9976C7.32006 14.4237 7.7559 13.9729 8.29319 13.9729C8.66091 13.9729 8.91729 14.126 9.16855 14.4406L10.5805 16.1975L13.8369 10.9765C14.0731 10.6139 14.3709 10.4209 14.7302 10.4209C15.2858 10.4209 15.7615 10.8502 15.7615 11.3574C15.7615 11.6171 15.6883 11.8434 15.5136 12.1313L11.6071 18.1907C11.3859 18.5401 11.0299 18.7397 10.6105 18.7397ZM11.5708 43.6396C15.9765 43.6396 19.6384 39.9778 19.6384 35.5688C19.6384 31.1331 15.9765 27.4863 11.5708 27.4863C7.14352 27.4863 3.5 31.1481 3.5 35.5688C3.5 39.9778 7.15854 43.6396 11.5708 43.6396ZM11.5708 40.5308C8.86748 40.5308 6.60876 38.2571 6.60876 35.5688C6.60876 32.8688 8.8825 30.5951 11.5708 30.5951C14.2559 30.5951 16.5329 32.8688 16.5329 35.5688C16.5329 38.2571 14.2559 40.5308 11.5708 40.5308ZM25.4468 16.0265H43.8659C44.7602 16.0265 45.5 15.3167 45.5 14.4072C45.5 13.5129 44.7602 12.8064 43.8659 12.8064H25.4468C24.5525 12.8064 23.8309 13.5129 23.8309 14.4072C23.8309 15.3167 24.5525 16.0265 25.4468 16.0265ZM25.4468 37.206H43.8659C44.7602 37.206 45.5 36.4994 45.5 35.6018C45.5 34.6925 44.7602 33.9859 43.8659 33.9859H25.4468C24.5525 33.9859 23.8309 34.6925 23.8309 35.6018C23.8309 36.4994 24.5525 37.206 25.4468 37.206Z"
		fill="currentColor"
	/>
</svg>
