<svg width="1em" height="1em" viewBox="0 0 61 65" fill="currentColor" xmlns="http://www.w3.org/2000/svg">
<path d="M16.2389 64.2336C5.15578 64.2336 4.59735 40.9084 4.59735 36.2753C4.59735 34.7574 3.72024 32.2812 2.84319 29.965C0.69022 23.9739 -2.33926 15.7462 2.92273 7.9978C6.27158 3.12508 10.1787 0.728516 14.8033 0.728516C17.6737 0.728516 20.3846 1.60723 23.016 2.48589C25.4081 3.28493 27.8003 4.08336 30.1123 4.08336C32.4243 4.08336 34.5773 3.36456 37.1291 2.56549H37.2086C39.7604 1.68677 42.3911 0.808111 45.3417 0.808111C49.9663 0.808111 53.8736 3.12437 57.4615 7.91749C63.0428 15.4264 60.0133 23.8137 57.8603 29.9646V30.0442C57.0627 32.3605 56.1856 34.8374 56.1856 36.2749C56.1856 44.6625 55.0693 64.1533 44.544 64.1533C36.5706 64.1533 34.6568 55.9256 33.4609 50.4138C32.1055 44.343 31.308 43.1445 30.3513 43.1445C28.6766 43.1445 27.4809 47.1386 26.3646 51.2925C24.9296 56.8044 22.9363 64.2336 16.2387 64.2336H16.2389ZM14.8034 4.80229C11.4545 4.80229 8.82328 6.48007 6.19204 10.3142C2.04571 16.3052 4.43788 22.8557 6.51074 28.6069C7.54746 31.403 8.5041 34.0385 8.5041 36.2757C8.5041 47.8583 11.2149 60.2399 16.1589 60.2399C19.5872 60.2399 20.9432 56.086 22.4576 50.3346C23.813 45.1426 25.4077 39.2311 30.2715 39.2311C34.9757 39.2311 36.172 44.5034 37.2882 49.6158C38.7232 55.8465 39.9991 60.2399 44.4641 60.2399C49.7267 60.2399 52.1189 48.2578 52.1189 36.3556C52.1189 34.1987 53.0755 31.6428 54.0326 28.8467V28.767C56.1056 22.8557 58.4976 16.2254 54.1923 10.3944C51.4013 6.64003 48.611 4.88251 45.2621 4.88251C43.0296 4.88251 40.6375 5.68155 38.405 6.40039H38.3254C35.6942 7.2791 32.9832 8.15776 30.0333 8.15776C27.0834 8.15776 24.2925 7.19937 21.6611 6.32065C19.4279 5.60185 17.0365 4.80229 14.8033 4.80229H14.8034Z" fill="currentColor"/>
</svg>
