<svg width="16" height="16" viewBox="0 0 16 16" fill="none" xmlns="http://www.w3.org/2000/svg">
<g clip-path="url(#clip0_7010_3662)">
<path d="M8.00002 0C10.209 0 12.2091 0.895614 13.6568 2.34319C15.1044 3.79084 16 5.79097 16 7.99998C16 10.209 15.1044 12.2091 13.6567 13.6567C12.2091 15.1044 10.209 16 8.00002 16C5.79097 16 3.79084 15.1044 2.34319 13.6568C0.895614 12.2091 0 10.209 0 7.99998C0 5.79097 0.895614 3.79084 2.34319 2.34319C3.79084 0.895614 5.79097 0 8.00002 0Z" fill="white" style="fill:white;fill-opacity:1;"/>
<path d="M14.8579 5.4268H1.14209C2.18386 2.65173 4.86102 0.676788 8.00004 0.676788C11.1389 0.676788 13.8162 2.65173 14.8579 5.4268Z" fill="#00732F" style="fill:#00732F;fill:color(display-p3 0.0000 0.4510 0.1843);fill-opacity:1;"/>
<path d="M1.07861 10.3974H14.9215C13.9287 13.2646 11.205 15.3236 8.00008 15.3236C4.79504 15.3236 2.07152 13.2646 1.07861 10.3974Z" fill="black" style="fill:black;fill-opacity:1;"/>
<path d="M4.84945 1.38745V14.6124C2.38179 13.4345 0.676758 10.9164 0.676758 7.99992C0.676758 5.0833 2.38179 2.56529 4.84945 1.38745Z" fill="#FF0000" style="fill:#FF0000;fill:color(display-p3 1.0000 0.0000 0.0000);fill-opacity:1;"/>
</g>
<defs>
<clipPath id="clip0_7010_3662">
<rect width="16" height="16" fill="white" style="fill:white;fill-opacity:1;"/>
</clipPath>
</defs>
</svg>
