<svg width="1em" height="1em" viewBox="0 0 17 16" fill="currentColor" xmlns="http://www.w3.org/2000/svg">

<path d="M15.5417 11.3327V13.9993C15.5417 14.1762 15.4714 14.3457 15.3464 14.4708C15.2214 14.5958 15.0518 14.666 14.875 14.666H2.875C2.69819 14.666 2.52862 14.5958 2.4036 14.4708C2.27857 14.3457 2.20833 14.1762 2.20833 13.9993V11.3327C2.20833 11.1559 2.1381 10.9863 2.01307 10.8613C1.88805 10.7363 1.71848 10.666 1.54167 10.666C1.36486 10.666 1.19529 10.7363 1.07026 10.8613C0.945238 10.9863 0.875 11.1559 0.875 11.3327L0.875 13.9993C0.875 14.5298 1.08571 15.0385 1.46079 15.4136C1.83586 15.7886 2.34457 15.9993 2.875 15.9993H14.875C15.4054 15.9993 15.9141 15.7886 16.2892 15.4136C16.6643 15.0385 16.875 14.5298 16.875 13.9993V11.3327C16.875 11.1559 16.8048 10.9863 16.6797 10.8613C16.5547 10.7363 16.3851 10.666 16.2083 10.666C16.0315 10.666 15.862 10.7363 15.7369 10.8613C15.6119 10.9863 15.5417 11.1559 15.5417 11.3327Z" fill="currentColor"/>
<path d="M13.3463 3.64067L10.289 0.582672C9.91333 0.208869 9.40494 -0.000976563 8.87499 -0.000976562C8.34504 -0.000976562 7.83665 0.208869 7.46099 0.582672L4.40366 3.64067C4.33999 3.70217 4.2892 3.77573 4.25426 3.85707C4.21932 3.9384 4.20093 4.02589 4.20016 4.1144C4.19939 4.20292 4.21626 4.29071 4.24978 4.37264C4.2833 4.45457 4.3328 4.52901 4.3954 4.5916C4.45799 4.6542 4.53243 4.7037 4.61436 4.73722C4.69629 4.77074 4.78407 4.78761 4.87259 4.78684C4.96111 4.78607 5.04859 4.76768 5.12993 4.73274C5.21127 4.6978 5.28483 4.64701 5.34633 4.58334L8.20833 1.72201V11.9993C8.20833 12.1761 8.27856 12.3457 8.40359 12.4707C8.52861 12.5958 8.69818 12.666 8.87499 12.666C9.0518 12.666 9.22137 12.5958 9.3464 12.4707C9.47142 12.3457 9.54166 12.1761 9.54166 11.9993V1.72134L12.4037 4.58334C12.4652 4.64701 12.5387 4.6978 12.6201 4.73274C12.7014 4.76768 12.7889 4.78607 12.8774 4.78684C12.9659 4.78761 13.0537 4.77074 13.1356 4.73722C13.2176 4.7037 13.292 4.6542 13.3546 4.5916C13.4172 4.52901 13.4667 4.45457 13.5002 4.37264C13.5337 4.29071 13.5506 4.20292 13.5498 4.1144C13.5491 4.02589 13.5307 3.9384 13.4957 3.85707C13.4608 3.77573 13.41 3.70217 13.3463 3.64067Z" fill="currentColor"/>

</svg>
