<svg width="1em" height="1em" viewBox="0 0 37 29" fill="currentColor" xmlns="http://www.w3.org/2000/svg">
<path d="M18.7584 12.2636C18.7277 12.2244 18.6885 12.1927 18.6437 12.1708C18.599 12.149 18.5498 12.1377 18.5 12.1377C18.4502 12.1377 18.4011 12.149 18.3563 12.1708C18.3115 12.1927 18.2723 12.2244 18.2416 12.2636L13.6479 18.0755C13.61 18.1239 13.5865 18.1819 13.5801 18.243C13.5736 18.3041 13.5845 18.3657 13.6114 18.4209C13.6384 18.4761 13.6803 18.5226 13.7325 18.5551C13.7846 18.5876 13.8448 18.6047 13.9063 18.6046H16.9373V28.5468C16.9373 28.7273 17.085 28.8749 17.2654 28.8749H19.7264C19.9068 28.8749 20.0545 28.7273 20.0545 28.5468V18.6087H23.0938C23.3686 18.6087 23.5203 18.2929 23.3521 18.0796L18.7584 12.2636Z" fill="currentColor"/>
<path d="M30.7801 8.47793C28.9016 3.52324 24.115 0 18.5082 0C12.9014 0 8.11484 3.51914 6.23633 8.47383C2.72129 9.39668 0.125 12.6 0.125 16.4062C0.125 20.9385 3.7959 24.6094 8.32402 24.6094H9.96875C10.1492 24.6094 10.2969 24.4617 10.2969 24.2812V21.8203C10.2969 21.6398 10.1492 21.4922 9.96875 21.4922H8.32402C6.9418 21.4922 5.6416 20.9426 4.67363 19.9459C3.70977 18.9533 3.19707 17.6162 3.24219 16.2299C3.2791 15.1471 3.64824 14.1299 4.3168 13.2727C5.00176 12.399 5.96152 11.7633 7.02793 11.4803L8.58242 11.0742L9.15254 9.57305C9.50527 8.63789 9.99746 7.76426 10.6168 6.97266C11.2282 6.18806 11.9525 5.49835 12.766 4.92598C14.4518 3.74063 16.4369 3.11309 18.5082 3.11309C20.5795 3.11309 22.5646 3.74063 24.2504 4.92598C25.0666 5.5002 25.7885 6.18926 26.3996 6.97266C27.0189 7.76426 27.5111 8.64199 27.8639 9.57305L28.4299 11.0701L29.9803 11.4803C32.2033 12.0791 33.7578 14.1012 33.7578 16.4062C33.7578 17.7639 33.2287 19.0436 32.2689 20.0033C31.7983 20.4768 31.2383 20.8521 30.6216 21.1077C30.0049 21.3632 29.3436 21.4939 28.676 21.4922H27.0312C26.8508 21.4922 26.7031 21.6398 26.7031 21.8203V24.2812C26.7031 24.4617 26.8508 24.6094 27.0312 24.6094H28.676C33.2041 24.6094 36.875 20.9385 36.875 16.4062C36.875 12.6041 34.2869 9.40488 30.7801 8.47793Z" fill="currentColor"/>
</svg>
