<svg width="1em" height="1em" viewBox="0 0 24 25" fill="none" xmlns="http://www.w3.org/2000/svg">
<path fill-rule="evenodd" clip-rule="evenodd" d="M18.88 2.67346C20.824 2.67346 22.4 4.24942 22.4 6.19346V9.39346H20.48V6.51346C20.48 5.45308 19.6204 4.59346 18.56 4.59346H3.84C2.77961 4.59346 1.92 5.45308 1.92 6.51346V17.7135C1.92 18.7738 2.77961 19.6335 3.84 19.6335H18.56C19.6204 19.6335 20.48 18.7738 20.48 17.7135V14.8335H22.4V18.0335C22.4 19.9775 20.824 21.5535 18.88 21.5535H3.52C1.57596 21.5535 0 19.9775 0 18.0335V6.19346C0 4.24942 1.57596 2.67346 3.52 2.67346H18.88Z" fill="currentColor"/>
<path fill-rule="evenodd" clip-rule="evenodd" d="M22.08 7.47351C23.1404 7.47351 24 8.33312 24 9.39351V14.8335C24 15.8939 23.1404 16.7535 22.08 16.7535H15.04C12.4774 16.7535 10.4 14.6761 10.4 12.1135C10.4 9.55091 12.4774 7.47351 15.04 7.47351H22.08ZM15.04 11.1535C14.5098 11.1535 14.08 11.5833 14.08 12.1135C14.08 12.6437 14.5098 13.0735 15.04 13.0735C15.5702 13.0735 16 12.6437 16 12.1135C16 11.5833 15.5702 11.1535 15.04 11.1535ZM15.04 9.39351H21.44C21.7935 9.39351 22.08 9.68005 22.08 10.0335V14.1935C22.08 14.547 21.7935 14.8335 21.44 14.8335H15.04C13.5378 14.8335 12.32 13.6157 12.32 12.1135C12.32 10.6113 13.5378 9.39351 15.04 9.39351Z" fill="currentColor"/>
</svg>
