<svg xmlns="http://www.w3.org/2000/svg" width="1em" height="1em" viewBox="0 0 22 20" fill="none">
  <path fill-rule="evenodd" clip-rule="evenodd" d="M19.2622 19.9866H2.72957C1.02972 19.9866 0 18.7934 0 17.2816C0 16.7912 0.130758 16.2927 0.408617 15.8187L8.67084 1.36997C9.18575 0.462846 10.0847 0.0133667 11 0.0133667C11.9071 0.0133667 12.8142 0.462846 13.3291 1.36997L21.5914 15.8187C21.861 16.2845 22 16.7912 22 17.2816C22 18.7934 20.9703 19.9866 19.2622 19.9866ZM10.2563 12.2228C10.2645 12.7132 10.526 12.9911 11 12.9911C11.4494 12.9911 11.7191 12.7213 11.7273 12.2228L11.8581 6.4777C11.8663 5.98736 11.4985 5.62777 10.9918 5.62777C10.4769 5.62777 10.1173 5.97919 10.1255 6.46952L10.2563 12.2228ZM9.92938 15.3692C9.92938 15.9331 10.4198 16.399 11 16.399C11.572 16.399 12.0705 15.9413 12.0705 15.3692C12.0705 14.7889 11.5802 14.3313 11 14.3313C10.4116 14.3313 9.92938 14.7971 9.92938 15.3692Z" fill="currentColor"/>
</svg>