<svg width="1em" height="1em" viewBox="0 0 34 29" fill="none" xmlns="http://www.w3.org/2000/svg">
<path d="M5.36719 21.4961H5.92969V24.5547C5.92969 25.457 6.38672 26.0312 7.20703 26.0312C7.78125 26.0312 8.17969 25.7266 8.89453 25.1055L12.9375 21.4961H20.4609C23.9531 21.4961 25.8281 19.5742 25.8281 16.1406V7.15234C25.8281 3.71875 23.9531 1.78516 20.4609 1.78516H5.36719C1.875 1.78516 0 3.71875 0 7.15234V16.1406C0 19.5742 1.875 21.4961 5.36719 21.4961ZM5.36719 19.6094C3 19.6094 1.88672 18.4141 1.88672 16.1289V7.16406C1.88672 4.87891 3 3.67188 5.36719 3.67188H20.4609C22.8164 3.67188 23.9414 4.87891 23.9414 7.16406V16.1289C23.9414 18.4141 22.8164 19.6094 20.4609 19.6094H12.8672C12.2109 19.6094 11.8828 19.7148 11.4375 20.1719L7.6875 23.8867V20.5C7.6875 19.8555 7.44141 19.6094 6.80859 19.6094H5.36719Z" fill="currentColor" style="fill:currentColor;fill-opacity:1;"/>
<path d="M17.625 24.3203H21.4219L25.3359 27.6719C26.0508 28.2812 26.4375 28.5977 27 28.5977C27.8086 28.5977 28.2656 28.0234 28.2656 27.1328V24.3203H28.5117C31.8867 24.3203 33.6562 22.5039 33.6562 19.1875V12.8477C33.6562 9.51953 31.8867 7.70312 28.5117 7.70312H17.625C14.25 7.70312 12.4805 9.51953 12.4805 12.8477V19.1875C12.4805 22.5156 14.25 24.3203 17.625 24.3203Z" fill="currentColor" style="fill:white;fill-opacity:1;"/>
<path d="M18.8672 14.7812H27.3516C27.8555 14.7812 28.2305 14.4062 28.2305 13.9141C28.2305 13.4102 27.8555 13.0352 27.3516 13.0352H18.8672C18.3516 13.0352 17.9883 13.4102 17.9883 13.9141C17.9883 14.4062 18.3516 14.7812 18.8672 14.7812ZM18.8672 19.1172H25.0781C25.5703 19.1172 25.9688 18.7656 25.9688 18.2617C25.9688 17.7695 25.5703 17.3711 25.0781 17.3711H18.8672C18.3516 17.3711 17.9883 17.7695 17.9883 18.2617C17.9883 18.7656 18.3516 19.1172 18.8672 19.1172ZM17.625 24.3203H21.4219L25.3359 27.6719C26.0508 28.2812 26.4375 28.5977 27 28.5977C27.8086 28.5977 28.2656 28.0234 28.2656 27.1328V24.3203H28.5117C31.8867 24.3203 33.6562 22.5039 33.6562 19.1875V12.8477C33.6562 9.51953 31.8867 7.70312 28.5117 7.70312H17.625C14.25 7.70312 12.4805 9.51953 12.4805 12.8477V19.1875C12.4805 22.5156 14.25 24.3203 17.625 24.3203ZM17.6602 22.4336C15.3633 22.4336 14.3789 21.3555 14.3789 19.1641V12.8711C14.3789 10.6797 15.3633 9.58984 17.6602 9.58984H28.4883C30.7734 9.58984 31.7695 10.6797 31.7695 12.8711V19.1523C31.7695 21.3555 30.7734 22.4336 28.4883 22.4336H27.4102C26.9062 22.4336 26.5078 22.7383 26.5078 23.3945V26.4648L22.5469 22.9258C22.1602 22.5625 21.832 22.4336 21.3516 22.4336H17.6602Z" fill="none" style="fill:currentColor;fill-opacity:1;"/>
</svg>
