<svg height="1em"
	width="1em" viewBox="0 0 16 16" 		fill="currentColor"
 xmlns="http://www.w3.org/2000/svg">
<path d="M2.08397 15.2098H13.916C15.2137 15.2098 16 14.309 16 13.1411C16 12.7823 15.8931 12.4083 15.7023 12.0724L9.77863 1.75185C9.38169 1.0572 8.70226 0.706055 8 0.706055C7.29769 0.706055 6.61067 1.0572 6.22136 1.75185L0.297709 12.0724C0.0916032 12.416 0 12.7823 0 13.1411C0 14.309 0.786258 15.2098 2.08397 15.2098Z" fill="white"/>
<path d="M8.00776 10.1107C7.61085 10.1107 7.38947 9.88179 7.38184 9.4772L7.28261 5.32454C7.27497 4.91996 7.57268 4.62988 8.00018 4.62988C8.41236 4.62988 8.733 4.92759 8.72534 5.33217L8.61083 9.4772C8.60324 9.88938 8.38187 10.1107 8.00776 10.1107ZM8.00776 12.668C7.54978 12.668 7.15283 12.3016 7.15283 11.8512C7.15283 11.3932 7.54215 11.0268 8.00776 11.0268C8.46582 11.0268 8.8551 11.3856 8.8551 11.8512C8.8551 12.3093 8.45816 12.668 8.00776 12.668Z" fill="#1D68FF"/>
</svg>
