<svg
  width="1em"
  height="1em"
  viewBox="0 0 22 20"
  fill="none"
  xmlns="http://www.w3.org/2000/svg"
>
    <path
      d="M4.01636 3.90754C2.44773 4.71053 1.08452 5.75628 0.0947922 6.94208C-0.0359266 7.10082 -0.0359266 7.30623 0.122803 7.4743L1.42065 8.76281C1.59806 8.94022 1.8595 8.94022 2.0369 8.75347C3.21337 7.51165 4.54857 6.56861 6.0705 5.96169L4.01636 3.90754ZM10.3469 5.08401C10.4869 5.056 10.6363 5.04666 10.7764 5.04666C14.2685 5.10268 17.1816 6.43789 19.4785 8.78149C19.6559 8.94955 19.908 8.94022 20.0854 8.76281L21.3739 7.4743C21.542 7.30623 21.5326 7.10082 21.4113 6.94208C19.161 4.27168 15.0808 2.24554 10.7484 2.24554C9.80534 2.24554 8.87162 2.33892 7.81654 2.55367L10.3469 5.08401ZM8.18068 8.05319C6.35996 8.54806 4.81 9.52845 3.81094 10.7143C3.68022 10.8823 3.68956 11.0784 3.84828 11.2371L5.29553 12.675C5.4916 12.8617 5.74371 12.8431 5.93045 12.6377C7.04156 11.4052 8.80626 10.5462 10.6363 10.5182L8.18068 8.05319ZM17.0789 11.816L17.6578 11.2371C17.8259 11.069 17.8259 10.8823 17.6951 10.7143C16.7521 9.54712 15.1088 8.51071 13.3347 8.07187L17.0789 11.816ZM10.7577 13.1512C9.42251 13.1512 8.25538 13.8609 7.65781 14.6732C7.56443 14.8225 7.60179 14.9906 7.74184 15.1307L10.0107 17.3156C10.3749 17.6703 10.5523 17.7637 10.7577 17.7637C10.9631 17.7637 11.1405 17.661 11.514 17.3156L13.7736 15.1307C13.9229 14.9906 13.9603 14.7852 13.8296 14.6172C13.2133 13.8329 12.0742 13.1512 10.7577 13.1512Z"
      fill="currentColor"
    />
    <path
      d="M18.62 16.9328C18.9002 17.2128 19.3671 17.2128 19.6378 16.9328C19.9086 16.6433 19.918 16.1951 19.6378 15.915L3.94224 0.210084C3.66213 -0.070028 3.19528 -0.070028 2.91516 0.210084C2.63505 0.480859 2.63505 0.966383 2.91516 1.22782L18.62 16.9328Z"
      fill="currentColor"
    />
</svg>