<svg 
  width="1em" 
  height="1em" 
  viewBox="0 0 20 19" 
  fill="none" 
  xmlns="http://www.w3.org/2000/svg">
<path 
  id="Subtract" 
  fill-rule="evenodd" 
  clip-rule="evenodd" 
  d="M19.1528 9.49517C19.1528 14.5022 15.0036 18.6513 9.98958 18.6513C4.98258 18.6513 0.833496 14.5022 0.833496 9.49517C0.833496 4.48111 4.97554 0.332031 9.98259 0.332031C14.9967 0.332031 19.1528 4.48111 19.1528 9.49517ZM6.29055 12.5543C6.29055 12.92 6.57888 13.2083 6.93752 13.2083C7.12037 13.2083 7.28211 13.138 7.40869 13.0114L9.98953 10.4164L12.5775 13.0114C12.7041 13.138 12.8658 13.2083 13.0486 13.2083C13.4073 13.2083 13.6956 12.92 13.6956 12.5543C13.6956 12.3784 13.6393 12.2167 13.5058 12.0901L10.9108 9.50225L13.5128 6.90026C13.6534 6.75962 13.7026 6.61897 13.7026 6.43613C13.7026 6.08451 13.4143 5.80322 13.0627 5.80322C12.8869 5.80322 12.7463 5.85948 12.6056 6.00012L9.98953 8.60211L7.38759 6.00716C7.26101 5.88058 7.12037 5.81729 6.93752 5.81729C6.57888 5.81729 6.29055 6.09155 6.29055 6.45019C6.29055 6.626 6.36087 6.78072 6.48746 6.9073L9.08241 9.50225L6.48746 12.0972C6.36087 12.2238 6.29055 12.3855 6.29055 12.5543Z" 
  fill="currentColor"/>
</svg>
